<svg width="220" height="60" viewBox="0 0 220 60" fill="none" xmlns="http://www.w3.org/2000/svg">
<g clip-path="url(#clip0_4_1026)">
<path fill-rule="evenodd" clip-rule="evenodd" d="M127.478 23.9304H124.299C123.721 23.9304 123.389 23.6502 123.334 23.1339C123.283 22.5837 123.582 22.1896 124.138 22.0877C124.251 22.0657 124.372 22.064 124.491 22.064C126.551 22.064 128.611 22.0691 130.67 22.064C131.135 22.064 131.483 22.2644 131.646 22.6771C131.792 23.044 131.707 23.4074 131.412 23.7063C131.232 23.8931 131.014 23.9254 130.77 23.9237C129.671 23.9169 128.574 23.922 127.473 23.922C127.478 23.9254 127.478 23.9271 127.478 23.9305L127.478 23.9304ZM128.015 23.4838V23.4821C128.857 23.4821 129.7 23.4872 130.542 23.4804C130.851 23.4787 131.103 23.3241 131.12 23.0083C131.137 22.7042 130.863 22.599 130.608 22.531C130.513 22.5072 130.413 22.5089 130.316 22.5089C128.728 22.5072 127.139 22.5106 125.551 22.5038C125.184 22.5021 124.954 22.5837 124.965 23.0218C124.975 23.4447 125.218 23.4889 125.544 23.4872C126.369 23.4821 127.195 23.4838 128.015 23.4838L128.015 23.4838Z" fill="black"/>
<path fill-rule="evenodd" clip-rule="evenodd" d="M132.887 23.9261C132.231 23.9244 131.956 23.6561 131.95 23.0158C131.944 22.4587 132.371 22.0511 132.965 22.0443C133.459 22.0392 133.938 22.5164 133.938 23.0209C133.942 23.5762 133.527 23.9312 132.887 23.9261V23.9261Z" fill="black"/>
<path fill-rule="evenodd" clip-rule="evenodd" d="M68.4609 31.7218C68.4541 32.2601 68.0397 32.6525 67.4742 32.6541C66.9188 32.6558 66.5027 32.2482 66.5044 31.6997C66.5061 31.1426 66.8933 30.7893 67.4945 30.7945C68.1144 30.8046 68.4677 31.1392 68.4609 31.7218Z" fill="black"/>
<path fill-rule="evenodd" clip-rule="evenodd" d="M44.787 30.9174C51.7009 30.8681 57.3191 36.4491 57.2513 43.4513C57.18 50.5556 51.8726 55.637 45.3287 55.8765C37.637 56.1534 32.6148 50.367 32.2939 44.1304C31.888 36.2857 38.1244 30.827 44.787 30.917V30.9174ZM37.5365 44.4483C37.1052 44.4483 36.6755 44.4533 36.2441 44.4483C35.9299 44.4432 35.7685 44.5213 35.8568 44.8983C36.0572 45.7407 36.3239 46.556 36.6941 47.3372C36.813 47.5886 36.9421 47.6463 37.1884 47.4646C37.8966 46.9415 38.6201 46.4354 39.3402 45.9258C39.4761 45.8307 39.5695 45.7254 39.5712 45.5454C39.583 44.8168 39.223 44.4517 38.4808 44.45C38.1649 44.4449 37.8507 44.4483 37.5365 44.4483L37.5365 44.4483ZM37.5824 42.237V42.2421C37.9764 42.2421 38.3738 42.2013 38.7611 42.2489C39.3385 42.3219 39.347 41.8837 39.5032 41.5373C39.6714 41.1704 39.5219 40.9479 39.2332 40.7458C38.6082 40.3077 37.9696 39.8848 37.3701 39.4092C36.9879 39.1069 36.7875 39.2139 36.6109 39.5961C36.2865 40.2941 36.0895 41.0295 35.9197 41.7784C35.8398 42.1334 35.9485 42.2455 36.2848 42.2387C36.7196 42.2302 37.1493 42.237 37.5824 42.237L37.5824 42.237ZM44.7698 37.867C45.1961 37.9383 45.4152 37.7447 45.534 37.3354C45.7582 36.566 45.996 35.7983 46.2847 35.0511C46.4546 34.6027 46.2627 34.4855 45.8924 34.438C45.157 34.3411 44.4216 34.3547 43.6862 34.4261C43.3313 34.46 43.1869 34.5908 43.3041 34.9594C43.5606 35.761 43.8136 36.5609 44.0463 37.3694C44.1601 37.7549 44.3656 37.9417 44.7698 37.867L44.7698 37.867ZM52.0794 44.4483C51.7465 44.4483 51.4102 44.4296 51.079 44.4534C50.8141 44.4721 50.4064 44.3022 50.3589 44.7387C50.308 45.2041 49.9547 45.7289 50.5491 46.1331C51.1623 46.5543 51.7618 46.9992 52.3528 47.451C52.5736 47.6208 52.6449 47.558 52.7859 47.3406C53.2801 46.5814 53.4822 45.7305 53.669 44.8661C53.7403 44.5366 53.6231 44.4347 53.3157 44.4432C52.903 44.4551 52.4904 44.4483 52.0793 44.4483L52.0794 44.4483ZM44.8459 48.9353C44.5096 48.9166 44.2056 48.9081 44.0918 49.2817C43.8387 50.1054 43.5823 50.9309 43.3394 51.7579C43.2596 52.0263 43.3003 52.3252 43.6315 52.349C44.406 52.4033 45.1855 52.5358 45.96 52.3337C46.2929 52.2454 46.3931 52.0416 46.2861 51.7121C46.0449 50.9648 45.8037 50.2226 45.588 49.4668C45.4692 49.0592 45.2331 48.8758 44.8459 48.9352L44.8459 48.9353ZM52.018 42.2387C52.4494 42.2387 52.8791 42.2319 53.3105 42.2404C53.623 42.2472 53.713 42.1453 53.6587 41.8175C53.5279 41.0142 53.2035 40.2839 52.8791 39.5485C52.7399 39.2343 52.5412 39.2292 52.2745 39.4296C51.7565 39.8168 51.2198 40.1803 50.6967 40.5574C50.1617 40.9429 50.0496 41.3199 50.3163 41.984C50.4895 42.4153 50.8937 42.1929 51.196 42.2353C51.4627 42.2676 51.7429 42.2421 52.018 42.2387L52.018 42.2387ZM40.9598 39.1086C41.3029 39.09 41.9414 38.4021 41.8684 38.1694C41.6255 37.4069 41.3555 36.6494 41.1398 35.88C41.0039 35.3909 40.7899 35.396 40.3772 35.5828C39.6979 35.8902 39.2104 36.4405 38.6347 36.8685C38.3205 37.1046 38.4054 37.3084 38.6907 37.5105C39.348 37.9724 39.9934 38.4531 40.649 38.9184C40.7543 38.9966 40.8765 39.0594 40.9598 39.1087L40.9598 39.1086ZM41.8378 48.786C41.8701 48.178 41.5066 48.0353 41.2468 47.8129C40.9988 47.5989 40.8137 47.7636 40.6235 47.9012C39.956 48.3768 39.2886 48.854 38.6262 49.3329C38.4309 49.4739 38.3001 49.659 38.5294 49.8611C39.1697 50.4334 39.7912 51.0347 40.6336 51.32C40.8171 51.3777 40.941 51.3693 41.0056 51.1756C41.3045 50.3248 41.6 49.4773 41.8378 48.786H41.8378ZM47.7226 38.2069C47.6835 38.6893 48.4512 39.2854 48.818 39.0425C49.5857 38.5313 50.316 37.9657 51.0599 37.4257C51.1991 37.3238 51.2518 37.1947 51.1159 37.0843C50.4026 36.517 49.7963 35.7969 48.903 35.4708C48.7382 35.4097 48.6329 35.4471 48.5786 35.6067C48.2882 36.478 48.0028 37.3526 47.7226 38.2069L47.7226 38.2069ZM38.7552 43.7726C40.0137 43.7726 41.2705 43.7777 42.529 43.7709C42.7804 43.7692 43.1251 43.8779 43.1302 43.4244C43.1353 43.0049 42.8279 43.0304 42.5528 43.0304C39.9984 43.0304 37.4441 43.0287 34.8897 43.0355C34.6486 43.0355 34.3157 42.9624 34.3004 43.3395C34.2851 43.7539 34.6129 43.7726 34.9237 43.7726C36.2026 43.7709 37.478 43.7726 38.7552 43.7726V43.7726ZM44.5261 41.3388C44.4938 41.2369 44.4293 41.0518 44.3732 40.8632C43.9792 39.5096 43.4459 38.2019 43.0825 36.8364C42.8022 35.7749 42.398 34.7491 42.0431 33.7097C41.97 33.5008 41.8868 33.2936 41.5811 33.4193C41.3162 33.5297 41.2992 33.7114 41.379 33.9457C41.4113 34.0375 41.4418 34.1309 41.4707 34.2226C41.9497 35.6934 42.4303 37.1591 42.9042 38.63C43.2184 39.6014 43.5207 40.578 43.8315 41.5495C43.8977 41.7584 44.0098 41.8925 44.2679 41.8025C44.4582 41.7363 44.5889 41.6531 44.5261 41.3389L44.5261 41.3388ZM44.5244 45.4284C44.5957 45.0752 44.4072 45.0701 44.2662 45.0123C44.0489 44.924 43.93 45.0242 43.862 45.2212C43.665 45.7936 43.4646 46.371 43.2778 46.9468C42.6562 48.8711 42.0482 50.797 41.4129 52.7177C41.311 53.0251 41.2822 53.2136 41.6388 53.3477C42.0447 53.4989 42.0091 53.1609 42.0702 52.9758C42.8837 50.4979 43.6871 48.0184 44.4921 45.5371C44.5159 45.4658 44.5362 45.3843 44.5243 45.4284L44.5244 45.4284ZM46.4079 44.158C46.1565 44.1479 46.1039 44.3364 46.0325 44.4892C45.8967 44.783 46.1616 44.8595 46.3247 44.9767C48.395 46.4542 50.4687 47.9318 52.5407 49.4075C52.7615 49.5655 52.9908 49.8168 53.2388 49.4857C53.4918 49.1426 53.1097 49.0356 52.9416 48.9133C50.8509 47.3678 48.7432 45.8376 46.6424 44.3037C46.5643 44.2494 46.4794 44.2018 46.4081 44.1577L46.4079 44.158ZM46.4113 42.6261C46.5183 42.5599 46.6406 42.4954 46.7492 42.4172C48.8535 40.8836 50.9595 39.35 53.0605 37.8129C53.2066 37.7059 53.4325 37.6057 53.2779 37.3509C53.1251 37.0979 52.9145 37.1505 52.7209 37.283C52.2199 37.6261 51.7256 37.9793 51.2314 38.3326C49.5568 39.5232 47.8806 40.7154 46.2058 41.9111C46.0784 42.0011 45.9153 42.0945 46.0325 42.283C46.1191 42.4223 46.1752 42.6142 46.4113 42.6261L46.4113 42.6261ZM51.7304 43.7725H54.796C55.049 43.7725 55.2749 43.7385 55.2783 43.4057C55.28 43.0745 55.0643 43.0337 54.8027 43.0337C52.7596 43.0337 50.7199 43.0354 48.6767 43.032C48.3862 43.032 48.1757 43.0762 48.1774 43.4379C48.1791 43.8099 48.4338 43.7742 48.6665 43.7742C49.6872 43.7725 50.7096 43.7725 51.7304 43.7725H51.7304ZM48.3099 52.9199C48.281 52.8146 48.2419 52.6635 48.1927 52.5157C47.5864 50.6356 46.9783 48.7572 46.372 46.877C46.3143 46.697 46.2616 46.5407 46.0086 46.6239C45.7317 46.7157 45.6264 46.8821 45.7148 47.1589C46.3482 49.1392 46.9801 51.1128 47.6186 53.0898C47.6798 53.28 47.8207 53.3751 48.0279 53.3378C48.2318 53.2987 48.3438 53.1883 48.3099 52.92V52.9199ZM45.6876 39.7947C45.6537 40.0885 45.8439 40.2533 46.0799 40.294C46.3551 40.345 46.2769 40.063 46.3262 39.9187C46.7525 38.6568 47.1788 37.3966 47.5949 36.1296C47.8327 35.4061 48.0535 34.6758 48.2793 33.9472C48.3473 33.7264 48.2946 33.56 48.0501 33.492C47.8429 33.436 47.7121 33.5209 47.6391 33.7162C47.5847 33.864 47.5168 34.0067 47.4692 34.1544C47.0922 35.3229 46.7066 36.4914 46.3466 37.6632C46.1275 38.3748 45.7623 39.0423 45.6877 39.7947L45.6876 39.7947ZM36.625 49.7386C36.6878 49.6978 36.7762 49.6537 36.8543 49.5942C38.534 48.3748 40.2103 47.1469 41.8986 45.9394C42.2026 45.7203 42.1891 45.5165 42.0107 45.2499C41.7848 44.9085 41.6337 45.2329 41.4995 45.3297C40.579 45.992 39.6687 46.6731 38.7583 47.3507C38.0043 47.9112 37.2519 48.4802 36.4961 49.0406C36.345 49.1527 36.2159 49.275 36.3093 49.4788C36.3602 49.6061 36.4299 49.7335 36.6252 49.7386L36.625 49.7386ZM36.6522 37.0656C36.4501 37.0639 36.3669 37.1726 36.304 37.2965C36.2259 37.4477 36.2938 37.5615 36.4144 37.6515C36.6488 37.8298 36.8848 38.0065 37.1226 38.178C38.6274 39.2734 40.1338 40.3638 41.637 41.4626C41.8459 41.6155 42.0174 41.6325 42.1822 41.4015C42.3622 41.1484 42.1652 41.0533 42.0072 40.9412C40.3445 39.732 38.6818 38.5194 37.0159 37.3118C36.8902 37.2167 36.7561 37.1352 36.6525 37.0655L36.6522 37.0656ZM44.6839 31.6764C44.0368 31.7563 43.3983 31.8242 42.7597 31.9193C42.5474 31.9516 42.2247 31.9567 42.3368 32.3218C42.42 32.5902 42.5559 32.76 42.9329 32.7311C43.6122 32.6802 44.2865 32.5052 44.9726 32.5681C45.5738 32.6224 46.1734 32.6734 46.7695 32.7532C47.0854 32.7974 47.1805 32.6054 47.2807 32.383C47.4217 32.0739 47.1448 32.0688 46.9886 32.0025C46.2498 31.6917 45.4448 31.8497 44.6839 31.6764H44.6839ZM43.2964 54.129C43.1605 54.1121 43.0195 54.1138 42.8904 54.0747C42.4845 53.9473 42.4251 54.3125 42.3232 54.5197C42.1941 54.7778 42.5185 54.7404 42.6391 54.8237C43.0433 55.092 43.5188 54.9188 43.957 55.019C44.9302 55.2398 45.8897 54.9748 46.8544 54.8712C46.9292 54.8644 47.0073 54.8322 47.0735 54.7965C47.2349 54.7014 47.3656 54.5774 47.2654 54.3685C47.1822 54.1936 47.1041 54.0152 46.8425 54.0492C45.6656 54.2021 44.4869 54.3889 43.2964 54.129L43.2964 54.129ZM33.5207 44.3582C33.2405 44.3429 33.1267 44.494 33.2048 44.9645C33.4392 46.4064 33.9419 47.7566 34.5924 49.0593C34.8098 49.4923 34.9983 49.3412 35.2174 49.0576C35.3923 48.8283 35.2683 48.6415 35.1664 48.4614C34.538 47.3609 34.1627 46.1805 34.0302 44.922C34.0013 44.6299 33.8502 44.404 33.5207 44.3582H33.5207ZM56.3537 44.849C56.3028 44.6962 56.4217 44.4295 56.1448 44.3887C55.8986 44.3497 55.6829 44.4618 55.5878 44.7216C55.542 44.849 55.5029 44.9815 55.4876 45.1156C55.3687 46.2654 54.9883 47.3235 54.4448 48.3323C54.4075 48.4003 54.3701 48.4716 54.3429 48.5446C54.2359 48.8418 54.4007 49.0762 54.6164 49.1951C54.9187 49.3632 54.9356 49.0168 55.0359 48.8622C55.4638 48.1982 55.6371 47.4203 55.9275 46.6985C56.1551 46.1227 56.3011 45.5011 56.3538 44.849L56.3537 44.849ZM33.1898 41.8616C33.2459 42.0144 33.0947 42.298 33.4259 42.349C33.701 42.3898 33.876 42.2352 33.9592 41.9856C34.0203 41.8004 34.0866 41.6102 34.1104 41.4183C34.2394 40.3721 34.5927 39.4023 35.1039 38.4869C35.1787 38.351 35.2568 38.205 35.2772 38.0504C35.3094 37.7906 35.1124 37.6055 34.9358 37.4713C34.7948 37.3609 34.7065 37.5664 34.6454 37.6785C33.9355 38.9811 33.482 40.3738 33.1899 41.8616L33.1898 41.8616ZM56.3677 41.7767C56.0467 40.4961 55.6781 39.1595 55.0191 37.9264C54.9393 37.7753 54.9087 37.4645 54.6472 37.5936C54.4298 37.7006 54.2447 37.9264 54.3398 38.227C54.3941 38.3918 54.4706 38.5531 54.5572 38.706C54.9971 39.4991 55.2926 40.3381 55.3877 41.2485C55.4166 41.5134 55.5117 41.7818 55.617 42.0331C55.707 42.2471 55.921 42.3575 56.1486 42.3235C56.4322 42.2828 56.3184 42.0246 56.3677 41.7767L56.3677 41.7767ZM40.3538 33.1914C40.33 32.8535 40.1669 32.7159 39.7797 32.8976C38.5161 33.487 37.4818 34.382 36.4849 35.3331C36.332 35.4842 36.0229 35.6405 36.2488 35.8901C36.4492 36.1109 36.7192 36.0803 36.9672 35.8409C37.8928 34.9577 38.8932 34.1731 40.0616 33.6296C40.2213 33.5549 40.3826 33.4666 40.3538 33.1914V33.1914ZM40.3877 53.5701C40.3605 53.3137 40.1465 53.2169 39.9614 53.1252C38.8099 52.5579 37.7892 51.8055 36.8789 50.902C36.6955 50.7186 36.5036 50.6727 36.3116 50.8459C36.0688 51.0667 36.2794 51.2502 36.4169 51.3962C37.0114 52.0246 37.6737 52.5749 38.3667 53.0861C38.8422 53.4342 39.3449 53.7332 39.9037 53.9438C40.2977 54.0898 40.3266 53.8266 40.3878 53.5701H40.3877ZM53.3938 51.0328C53.263 50.7797 53.0915 50.6405 52.8265 50.7797C52.6737 50.8595 52.5412 50.9869 52.4172 51.1109C51.6071 51.9176 50.7087 52.6004 49.6659 53.0827C49.35 53.2305 49.0935 53.4258 49.2939 53.7977C49.4944 54.168 49.7865 53.9149 50.0022 53.7977C51.2046 53.1557 52.261 52.3202 53.1934 51.3215C53.2681 51.24 53.3242 51.1364 53.3938 51.0328L53.3938 51.0328ZM49.7032 32.8823C49.4298 32.8891 49.3364 33.0301 49.2634 33.2016C49.1632 33.4377 49.3381 33.5379 49.4926 33.6075C50.6611 34.1527 51.6394 34.9561 52.5752 35.8256C52.6465 35.8885 52.7212 35.9598 52.8044 36.0057C53.0049 36.1178 53.2087 36.0566 53.3496 35.9224C53.5585 35.722 53.3106 35.6099 53.2036 35.5012C52.2643 34.5535 51.2946 33.6415 50.0718 33.0522C49.9342 32.9877 49.7932 32.9231 49.7032 32.8824L49.7032 32.8823ZM43.7302 52.8128C43.4941 52.8128 43.3752 52.8077 43.2581 52.8128C42.949 52.8281 42.971 53.0896 42.915 53.2849C42.8488 53.5108 42.9948 53.6331 43.185 53.6501C44.2754 53.7571 45.3691 53.8233 46.4544 53.6008C46.7074 53.5499 46.8484 53.4276 46.7754 53.1525C46.7125 52.9096 46.6276 52.7381 46.293 52.7805C45.4065 52.8943 44.5114 53.0845 43.7302 52.8128ZM44.7968 33.8436C45.2638 33.8895 45.7325 33.9235 46.1962 33.9795C46.5121 34.0186 46.7363 33.9523 46.7907 33.594C46.8518 33.1847 46.5053 33.2169 46.2948 33.1728C45.291 32.9809 44.2788 33.0318 43.27 33.1354C43.039 33.1592 42.8335 33.2577 42.8827 33.5413C42.9269 33.7893 42.9609 34.0186 43.343 34.0033C43.8321 33.9931 44.3009 33.7961 44.7968 33.8436H44.7968ZM34.515 44.7606C34.6288 45.963 34.9906 47.0857 35.6088 48.1285C35.748 48.3595 35.9111 48.3917 36.1471 48.2694C36.4104 48.1302 36.39 47.9484 36.2762 47.7344C35.8703 46.9702 35.6411 46.1448 35.4627 45.299C35.4135 45.0731 35.3115 44.8557 35.2096 44.6468C35.1043 44.4328 34.8887 44.4549 34.6933 44.4668C34.498 44.4736 34.4929 44.6179 34.515 44.7606L34.515 44.7606ZM34.5388 41.8615C34.4895 42.0534 34.5286 42.2113 34.7681 42.2283C35.0211 42.2504 35.2725 42.2062 35.3286 41.926C35.5408 40.8866 35.8856 39.8931 36.3153 38.9284C36.4444 38.638 36.1692 38.5684 36.0011 38.4563C35.8092 38.3272 35.7243 38.4682 35.641 38.6125C35.0687 39.6264 34.6271 40.6828 34.5388 41.8615L34.5388 41.8615ZM55.0179 44.8863C55.0179 44.7249 55.074 44.5194 54.8277 44.4651C54.5594 44.4073 54.3454 44.5058 54.2672 44.7674C53.9581 45.7762 53.7153 46.8054 53.2737 47.7718C53.1616 48.0232 53.3569 48.1709 53.5607 48.2728C53.7577 48.373 53.8341 48.2337 53.9207 48.0894C54.5237 47.1043 54.9058 46.0446 55.0179 44.8862L55.0179 44.8863ZM54.9941 41.9277C54.9398 40.7388 54.4897 39.6807 53.9445 38.6533C53.8341 38.4495 53.6932 38.4342 53.5081 38.548C53.2397 38.711 53.2091 38.9284 53.3127 39.2086C53.5199 39.7572 53.8358 40.2599 53.9514 40.8441C54.0244 41.2093 54.1144 41.5727 54.2095 41.9294C54.2995 42.2623 54.5815 42.2334 54.8345 42.2266C55.0383 42.2215 55.023 42.0636 54.9942 41.9277H54.9941ZM37.7711 50.0138C37.5877 50.0817 37.428 50.1581 37.3312 50.3127C37.2191 50.4961 37.3465 50.6116 37.4654 50.7118C38.3095 51.437 39.1349 52.1894 40.1896 52.6208C40.4019 52.7057 40.5021 52.7006 40.5938 52.4815C40.7246 52.169 40.7517 51.9245 40.373 51.775C39.6716 51.4998 39.0466 51.1143 38.5201 50.5658C38.3095 50.345 38.0242 50.1955 37.7711 50.0138L37.7711 50.0138ZM49.2928 34.1477C49.0245 34.1103 48.9634 34.2717 48.9124 34.416C48.8156 34.6793 48.9005 34.8984 49.1604 34.9935C50.052 35.323 50.7059 35.9802 51.4056 36.5729C51.4634 36.6239 51.5279 36.6731 51.5975 36.7088C51.8183 36.826 52.0255 36.77 52.1886 36.6018C52.4026 36.3844 52.1937 36.2384 52.0578 36.1178C51.5585 35.6745 51.0694 35.2176 50.5344 34.8253C50.1404 34.54 49.6767 34.3532 49.2929 34.1476L49.2928 34.1477ZM52.2599 50.3673C52.2327 50.1923 52.0816 50.1193 51.961 50.0208C51.7928 49.8849 51.6841 49.9936 51.5585 50.104C50.8248 50.7562 50.1098 51.4304 49.1756 51.7939C48.8614 51.9179 48.7697 52.1251 48.9226 52.446C49.0975 52.8112 49.3251 52.6414 49.5527 52.5344C50.5071 52.086 51.2612 51.371 52.0527 50.7052C52.1563 50.6254 52.2667 50.5269 52.2599 50.3673H52.2599ZM40.2882 34.202C40.2389 34.2139 40.1812 34.2241 40.1251 34.2428C39.0535 34.6419 38.2705 35.4384 37.4417 36.1755C37.2786 36.3216 37.3228 36.4999 37.4824 36.6341C37.6353 36.7632 37.8085 36.8872 38.0004 36.7071C38.7579 35.9921 39.5612 35.3484 40.5276 34.9324C40.7008 34.8576 40.7297 34.7116 40.6516 34.54C40.5837 34.3719 40.5123 34.2122 40.2881 34.2021L40.2882 34.202ZM48.4473 50.8699H48.5882C48.7802 50.1243 48.9636 49.377 49.1725 48.6365C49.2693 48.2985 49.2727 48.0472 48.9313 47.8298C48.7072 47.6837 48.5254 47.592 48.3063 47.7856C48.0414 48.0234 47.5998 48.1678 47.7408 48.6467C47.9599 49.3974 48.2112 50.1328 48.4473 50.8699L48.4473 50.8699ZM49.1249 50.8053C49.0757 51.1484 49.2132 51.1824 49.4884 51.0482C49.8077 50.8902 50.1117 50.7017 50.3206 50.4181C50.5686 50.0767 51.287 49.9918 51.095 49.4823C50.9592 49.1274 50.4327 48.9167 50.0794 48.6399C50.0641 48.628 50.0472 48.6178 50.0302 48.606C49.8671 48.5007 49.7381 48.5007 49.6803 48.7197C49.4918 49.4195 49.3101 50.1158 49.125 50.8054L49.1249 50.8053ZM44.7362 43.064C44.9316 43.064 45.1252 43.0691 45.3205 43.0623C45.4547 43.0606 45.6228 43.0912 45.6789 42.9332C45.7451 42.76 45.6075 42.636 45.4886 42.5392C45.1082 42.2267 44.6802 42.1571 44.2403 42.3864C44.0365 42.4934 43.7971 42.6615 43.865 42.9214C43.9278 43.1558 44.1979 43.0403 44.3813 43.0623C44.5002 43.0759 44.6174 43.064 44.7363 43.064L44.7362 43.064Z" fill="black"/>
<path fill-rule="evenodd" clip-rule="evenodd" d="M172.748 30.9174C176.134 30.8121 179.095 32.2133 181.545 34.5452C183.853 36.7445 185.151 39.6673 185.166 42.8147C185.203 50.4643 180.023 55.5456 173.269 55.8682C165.587 56.2333 160.271 50.3095 160.136 43.6552C159.995 36.4082 165.767 30.8612 172.748 30.9173L172.748 30.9174ZM165.38 44.45H164.084C163.787 44.45 163.668 44.5604 163.729 44.8882C163.882 45.7476 164.205 46.5407 164.567 47.3254C164.679 47.5682 164.805 47.6515 165.059 47.4612C165.701 46.9823 166.347 46.5 167.021 46.0635C167.432 45.7986 167.457 45.52 167.323 45.0768C167.175 44.5842 166.909 44.4246 166.442 44.4484C166.085 44.462 165.734 44.4501 165.38 44.4501V44.45ZM179.961 44.45C179.607 44.4483 179.254 44.4313 178.904 44.4517C178.651 44.467 178.262 44.3227 178.208 44.6895C178.142 45.1396 177.794 45.6593 178.293 46.0601C178.901 46.5492 179.541 47.0044 180.17 47.4697C180.44 47.6701 180.606 47.5988 180.754 47.2948C181.141 46.4983 181.331 45.6423 181.562 44.7999C181.64 44.5145 181.484 44.4517 181.253 44.45H179.961L179.961 44.45ZM163.714 42.0536C163.713 42.2795 163.967 42.2337 164.173 42.2371C164.993 42.2439 165.817 42.2439 166.639 42.2388C166.885 42.2371 167.155 42.2931 167.225 41.9229C167.298 41.5407 167.634 41.1535 167.167 40.8104C166.472 40.3009 165.774 39.7999 165.078 39.2989C164.944 39.2038 164.803 39.1086 164.686 39.3158C164.219 40.1378 163.867 41.004 163.714 42.0536H163.714ZM172.697 48.9271C172.349 48.9288 172.036 48.8948 171.922 49.2753C171.654 50.1364 171.401 51.0008 171.109 51.8568C170.982 52.2236 171.172 52.3341 171.455 52.3663C172.23 52.4444 173.006 52.4971 173.784 52.351C174.134 52.2882 174.229 52.1336 174.105 51.777C173.838 51.0195 173.595 50.2519 173.393 49.4808C173.281 49.0562 173.071 48.8711 172.697 48.9272L172.697 48.9271ZM171.837 34.4502C170.98 34.479 170.898 34.5673 171.17 35.2212C171.457 35.9243 171.652 36.6682 171.866 37.3985C171.977 37.7705 172.216 37.8758 172.569 37.8741C172.924 37.8741 173.225 37.8452 173.344 37.424C173.582 36.6172 173.831 35.8139 174.106 35.0208C174.258 34.5809 174.074 34.4315 173.675 34.4315C173.023 34.4315 172.361 34.1869 171.837 34.4501L171.837 34.4502ZM179.92 42.2423V42.2372C180.351 42.2372 180.781 42.2321 181.211 42.2372C181.496 42.2423 181.576 42.1421 181.52 41.8432C181.367 41.011 181.077 40.2263 180.732 39.4604C180.571 39.1054 180.34 39.2073 180.115 39.3721C179.563 39.7746 179.032 40.2077 178.465 40.5864C177.902 40.9669 178.062 41.473 178.189 41.957C178.313 42.424 178.741 42.2032 179.039 42.2338C179.329 42.2661 179.626 42.2423 179.92 42.2423L179.92 42.2423ZM169.711 38.1561C169.452 37.3918 169.161 36.5155 168.845 35.6527C168.755 35.4013 168.538 35.4964 168.341 35.5627C167.532 35.8395 166.999 36.5053 166.343 36.9944C166.039 37.2203 166.281 37.3969 166.478 37.5396C167.128 38.0117 167.782 38.4788 168.431 38.956C168.611 39.0902 168.794 39.2413 169.008 39.0664C169.275 38.8388 169.716 38.7522 169.711 38.1561L169.711 38.1561ZM169.684 48.5213C169.669 48.0457 168.905 47.5396 168.556 47.774C167.826 48.2682 167.126 48.8083 166.411 49.328C166.174 49.5012 166.177 49.6745 166.401 49.8443C167.023 50.3199 167.541 50.9177 168.281 51.242C168.658 51.4068 168.85 51.3949 168.961 50.9669C169.051 50.6085 169.198 50.2638 169.304 49.9054C169.446 49.435 169.565 48.9594 169.684 48.5212L169.684 48.5213ZM179.003 37.1574C178.964 37.0962 178.929 36.9672 178.845 36.906C178.273 36.5001 177.835 35.9227 177.156 35.6492C176.573 35.4183 176.437 35.442 176.24 36.0263C176.023 36.6768 175.907 37.368 175.615 37.976C175.394 38.4346 175.642 38.5755 175.895 38.7827C176.165 39.0069 176.417 39.2447 176.812 38.9356C177.458 38.4261 178.134 37.9641 178.796 37.4767C178.891 37.4138 178.986 37.3425 179.003 37.1574L179.003 37.1574ZM166.563 43.7726C167.859 43.7726 169.156 43.7777 170.454 43.7709C170.688 43.7692 170.997 43.8592 170.999 43.4329C171.004 43.01 170.731 43.0355 170.442 43.0355C167.869 43.0355 165.299 43.0304 162.726 43.0304C162.458 43.0304 162.132 42.9795 162.135 43.4024C162.137 43.8252 162.468 43.7675 162.735 43.7675C164.012 43.776 165.287 43.7726 166.563 43.7726H166.563ZM169.61 33.4009C169.105 33.4841 169.037 33.6947 169.155 34.0581C169.951 36.5021 170.732 38.9529 171.524 41.3986C171.607 41.6516 171.655 41.9896 172.059 41.8316C172.441 41.6805 172.28 41.3951 172.2 41.1353C171.991 40.4627 171.79 39.7868 171.575 39.1176C170.992 37.3055 170.406 35.4967 169.819 33.6828C169.768 33.5164 169.693 33.3941 169.61 33.4009L169.61 33.4009ZM172.305 45.3252C172.31 45.1723 172.259 45.0823 172.14 45.0212C171.831 44.8683 171.673 44.9821 171.573 45.2912C170.766 47.7912 169.951 50.293 169.146 52.793C169.08 53.0019 169.029 53.2379 169.331 53.3161C169.613 53.3891 169.747 53.2481 169.836 52.9696C170.634 50.4866 171.446 48.0105 172.254 45.5291C172.273 45.4578 172.29 45.378 172.305 45.3253L172.305 45.3252ZM181.128 37.4361C181.113 37.2832 181.043 37.1677 180.919 37.093C180.768 37.0081 180.654 37.1168 180.549 37.1949C180.186 37.4632 179.836 37.7503 179.472 38.0135C177.709 39.289 175.945 40.5645 174.178 41.8366C173.964 41.9894 173.759 42.1134 173.998 42.4412C174.251 42.7876 174.426 42.5651 174.622 42.4191C175.08 42.0777 175.525 41.7279 175.985 41.3899C177.563 40.2265 179.146 39.0699 180.721 37.9031C180.887 37.7791 181.098 37.6789 181.128 37.4361L181.128 37.4361ZM174.189 44.1565C174.036 44.1786 173.992 44.3195 173.924 44.4333C173.823 44.5964 173.862 44.7323 174.012 44.8393C174.377 45.1025 174.747 45.3623 175.111 45.6273C176.918 46.9418 178.721 48.2598 180.525 49.5794C180.69 49.7017 180.844 49.8273 181.024 49.5981C181.193 49.3892 181.086 49.238 180.936 49.0885C180.88 49.0342 180.819 48.9815 180.756 48.9357C178.723 47.4326 176.687 45.9296 174.652 44.4283C174.511 44.3281 174.352 44.25 174.188 44.1566L174.189 44.1565ZM179.545 43.0407V43.0305C178.545 43.0305 177.544 43.0186 176.542 43.0407C176.367 43.0458 176.019 42.8488 176.016 43.2717C176.014 43.6028 176.13 43.7897 176.539 43.7846C178.56 43.7608 180.581 43.7744 182.599 43.7727C182.852 43.771 183.144 43.8016 183.142 43.4126C183.142 43.0322 182.866 43.0458 182.604 43.0458C181.587 43.0407 180.566 43.0407 179.545 43.0407L179.545 43.0407ZM169.942 45.5848C169.885 45.4779 169.825 45.2978 169.708 45.1789C169.552 45.0261 169.421 45.2061 169.306 45.291C167.665 46.5002 166.028 47.7163 164.392 48.9306C164.195 49.0767 163.925 49.1871 164.166 49.5251C164.39 49.8325 164.599 49.7051 164.817 49.5472C166.428 48.3668 168.04 47.183 169.65 45.9976C169.778 45.9058 169.924 45.8277 169.942 45.5848H169.942ZM176.106 33.754C176.157 33.5196 175.989 33.5009 175.836 33.4517C175.576 33.3718 175.415 33.4619 175.34 33.7115C175.179 34.2567 175.036 34.8053 174.861 35.3437C174.401 36.7601 173.93 38.1731 173.45 39.5828C173.343 39.8987 173.375 40.0702 173.713 40.201C174.171 40.3742 174.115 39.987 174.171 39.7985C174.492 38.7693 174.779 37.7316 175.148 36.716C175.5 35.7411 175.788 34.7424 176.106 33.754L176.106 33.754ZM176.114 53.0796C176.097 53.0015 176.086 52.9234 176.063 52.8487C175.43 50.8734 174.795 48.905 174.161 46.93C174.083 46.6837 173.971 46.5869 173.694 46.6786C173.368 46.7856 173.395 46.9656 173.48 47.2238C173.981 48.7285 174.474 50.2384 174.961 51.7481C175.112 52.2135 175.235 52.6907 175.382 53.1561C175.438 53.3395 175.556 53.4771 175.776 53.4024C175.934 53.3497 176.142 53.3327 176.114 53.0797L176.114 53.0796ZM164.482 37.0557C164.275 37.1101 164.188 37.2459 164.119 37.3852C164.017 37.589 164.199 37.6552 164.321 37.7453C165.404 38.552 166.488 39.3638 167.573 40.1654C168.158 40.5968 168.762 40.9977 169.338 41.4358C169.635 41.6617 169.856 41.5768 170.029 41.3186C170.224 41.0333 169.895 41.0061 169.771 40.9127C168.101 39.6763 166.425 38.4484 164.751 37.2222C164.657 37.1576 164.555 37.105 164.482 37.0557H164.482ZM172.65 31.6683C171.935 31.76 171.218 31.8433 170.506 31.9503C170.302 31.9791 170.031 32.0216 170.114 32.3358C170.177 32.5837 170.289 32.8368 170.637 32.7519C171.952 32.4275 173.275 32.6041 174.591 32.7247C174.932 32.7587 174.99 32.5209 175.068 32.3205C175.179 32.0386 174.927 31.9876 174.739 31.9604C174.051 31.8619 173.363 31.6751 172.65 31.6683H172.65ZM172.653 55.1262C173.373 55.031 174.086 54.9478 174.798 54.8408C175.26 54.7695 175.136 54.5096 174.946 54.2583C174.807 54.0749 174.608 54.097 174.407 54.1106C173.144 54.2006 171.882 54.3585 170.622 54.0443C170.235 53.9475 170.1 54.3195 170.036 54.5759C169.965 54.8511 170.282 54.8171 170.447 54.8409C171.182 54.9462 171.919 55.0311 172.653 55.1262L172.653 55.1262ZM161.238 44.3535C160.936 44.5438 161.031 44.8936 161.094 45.1552C161.403 46.4307 161.736 47.7045 162.364 48.8712C162.466 49.0581 162.543 49.3757 162.869 49.1973C163.146 49.0462 163.234 48.805 163.066 48.501C162.92 48.2479 162.797 47.9779 162.651 47.7248C162.174 46.8824 162.103 45.9296 161.899 45.0142C161.828 44.6677 161.666 44.4385 161.238 44.3535H161.238ZM184.222 41.8348C183.971 40.3624 183.438 38.9595 182.734 37.6229C182.68 37.5176 182.583 37.3936 182.461 37.487C182.293 37.6144 182.101 37.7639 182.125 38.0033C182.143 38.1715 182.221 38.3447 182.308 38.4959C182.78 39.3569 183.156 40.2537 183.268 41.2455C183.297 41.4986 183.38 41.7414 183.454 41.986C183.534 42.2424 183.736 42.3681 183.998 42.3358C184.283 42.2951 184.193 42.042 184.222 41.8348H184.222ZM161.051 41.8348C161.119 41.9962 160.956 42.2951 161.289 42.3308C161.564 42.363 161.778 42.2136 161.884 41.9452C161.912 41.8739 161.916 41.7924 161.928 41.716C162.111 40.5492 162.364 39.4062 163.035 38.4024C163.098 38.3073 163.159 38.1935 163.171 38.0814C163.203 37.8284 163.018 37.684 162.828 37.5821C162.638 37.4819 162.537 37.6382 162.464 37.7791C161.805 39.0597 161.326 40.398 161.051 41.8348H161.051ZM184.226 44.9429C184.168 44.7051 184.333 44.4028 184.001 44.3739C183.733 44.345 183.509 44.4928 183.427 44.7798C183.4 44.8749 183.378 44.97 183.37 45.0668C183.251 45.899 183.106 46.7194 182.735 47.4938C182.565 47.8488 182.386 48.1952 182.183 48.5315C181.963 48.8864 182.227 49.1327 182.439 49.2771C182.704 49.4554 182.765 49.1021 182.862 48.9459C182.998 48.7319 183.086 48.4873 183.191 48.2563C183.667 47.1745 184.03 46.0637 184.226 44.9428L184.226 44.9429ZM164.438 50.7124C164.285 50.7396 164.105 50.7837 164.01 50.9468C163.918 51.0996 164.059 51.1998 164.156 51.2899C164.745 51.8299 165.318 52.3972 165.943 52.8914C166.478 53.3143 167.075 53.6591 167.707 53.9342C168.062 54.0871 168.166 53.9359 168.173 53.6013C168.178 53.3364 168.009 53.2311 167.809 53.1292C166.676 52.5399 165.649 51.8028 164.759 50.8874C164.676 50.7974 164.594 50.7158 164.438 50.7124L164.438 50.7124ZM177.422 32.8081C177.17 32.786 177.074 32.9032 177.024 33.0645C176.956 33.2819 177.024 33.4619 177.226 33.5587C178.48 34.1498 179.572 34.9667 180.56 35.9297C180.762 36.1267 180.966 36.0587 181.134 35.9008C181.364 35.6919 181.145 35.5475 181.01 35.4235C180.068 34.537 179.117 33.664 177.955 33.0543C177.768 32.9558 177.568 32.876 177.422 32.808V32.8081ZM168.166 33.2547C168.21 32.8098 168.035 32.7095 167.58 32.9303C166.25 33.5689 165.158 34.5149 164.125 35.5475C163.947 35.7275 163.962 35.8277 164.176 35.9466C164.414 36.0808 164.599 36.0536 164.806 35.8566C165.7 35.0024 166.642 34.2075 167.795 33.7133C167.992 33.6283 168.178 33.5044 168.166 33.2547L168.166 33.2547ZM177.42 53.9612C177.442 53.9545 177.52 53.9375 177.59 53.9052C178.967 53.253 180.144 52.3291 181.178 51.2167C181.263 51.1216 181.343 51.0248 181.201 50.9296C181.06 50.8396 180.92 50.6885 180.728 50.8277C180.57 50.9415 180.413 51.057 180.256 51.1708C179.565 51.6752 179.044 52.3953 178.203 52.7112C177.86 52.8403 177.551 53.0611 177.238 53.2615C177.06 53.3753 176.992 53.5638 177.058 53.7744C177.101 53.9188 177.203 53.9969 177.42 53.9612H177.42ZM172.576 53.805C173.12 53.7557 173.587 53.732 174.052 53.6691C174.286 53.6369 174.601 53.6589 174.561 53.2598C174.524 52.9116 174.32 52.7894 173.999 52.8165C173.551 52.8573 173.103 52.8845 172.658 52.9405C172.162 53.0017 171.691 52.8166 171.199 52.8047C170.805 52.7979 170.648 53.0289 170.613 53.3278C170.569 53.6657 170.9 53.5808 171.078 53.608C171.601 53.6946 172.129 53.749 172.576 53.805H172.576ZM172.744 33.8493C173.103 33.7644 173.529 33.9954 173.981 33.9937C174.278 33.9937 174.487 33.9258 174.529 33.6082C174.575 33.2617 174.332 33.1751 174.064 33.136C173.075 32.9849 172.084 33.029 171.099 33.1649C170.898 33.1921 170.582 33.1972 170.637 33.5572C170.682 33.8731 170.845 34.0413 171.194 34.0005C171.676 33.9377 172.16 33.9054 172.744 33.8493ZM182.889 44.8733C182.907 44.7085 182.95 44.5081 182.702 44.4623C182.425 44.413 182.175 44.4792 182.101 44.7866C181.842 45.8328 181.572 46.8705 181.107 47.8522C180.968 48.1392 181.221 48.2157 181.404 48.3226C181.63 48.4585 181.706 48.304 181.802 48.1392C182.396 47.1304 182.749 46.04 182.889 44.8733H182.889ZM162.698 44.4623C162.301 44.4113 162.345 44.6915 162.386 44.9208C162.578 46.0231 162.844 47.1049 163.44 48.0747C163.546 48.2445 163.598 48.5282 163.907 48.3481C164.149 48.2089 164.31 48.0458 164.155 47.7299C163.702 46.8128 163.371 45.8549 163.201 44.8427C163.158 44.5743 162.99 44.4283 162.698 44.4623H162.698ZM182.866 41.8943C182.771 40.7819 182.418 39.7544 181.858 38.7999C181.757 38.6318 181.756 38.2768 181.385 38.467C181.095 38.6182 180.981 38.7999 181.144 39.1277C181.559 39.9531 181.807 40.8345 182.024 41.7262C182.056 41.857 182.099 41.9945 182.18 42.0964C182.316 42.2748 182.528 42.2612 182.724 42.2204C182.895 42.1814 182.897 42.0319 182.866 41.8943ZM164.218 38.8848C164.22 38.6216 164.018 38.5078 163.836 38.4093C163.632 38.2989 163.576 38.5095 163.5 38.6385C162.956 39.5828 162.583 40.5815 162.457 41.6701C162.433 41.879 162.2 42.1474 162.603 42.2272C162.907 42.2832 163.138 42.1694 163.216 41.8332C163.367 41.2031 163.501 40.5713 163.761 39.9752C163.919 39.6117 164.065 39.2499 164.218 38.8848H164.218ZM176.299 50.9366C176.339 50.9383 176.377 50.9417 176.417 50.9467C176.642 50.1162 176.866 49.2891 177.092 48.4603C177.149 48.2429 177.099 48.0782 176.918 47.944C176.699 47.7861 176.496 47.5296 176.203 47.7878C175.899 48.0476 175.368 48.1818 175.563 48.7694C175.808 49.4929 176.056 50.213 176.299 50.9365V50.9366ZM168.53 52.2613C168.574 51.9862 168.389 51.8588 168.184 51.7773C167.309 51.4291 166.625 50.8075 165.939 50.1995C165.682 49.9702 165.456 49.9413 165.225 50.1774C164.969 50.4423 165.235 50.636 165.387 50.7617C166.197 51.4359 166.993 52.1305 167.953 52.6044C168.386 52.8167 168.469 52.5908 168.53 52.2613L168.53 52.2613ZM165.545 36.8569C165.629 36.8247 165.696 36.8179 165.735 36.7839C166.579 36.0553 167.418 35.325 168.457 34.863C168.715 34.7492 168.53 34.4317 168.435 34.2296C168.321 33.9952 168.143 34.1226 167.982 34.1956C166.956 34.6746 166.113 35.4031 165.305 36.1759C165.21 36.2659 165.062 36.3763 165.161 36.519C165.263 36.6548 165.422 36.7499 165.545 36.8569ZM177.156 34.1395C176.888 34.1158 176.849 34.2788 176.801 34.4266C176.733 34.627 176.711 34.8427 176.937 34.9327C177.904 35.3182 178.632 36.035 179.424 36.6684C179.675 36.8689 179.877 36.7007 180.04 36.5343C180.227 36.3441 180.033 36.2099 179.913 36.0978C179.481 35.7038 179.07 35.2741 178.595 34.9395C178.135 34.6185 177.61 34.3875 177.156 34.1396L177.156 34.1395ZM177.073 52.6774C177.097 52.6706 177.117 52.6655 177.134 52.6587C178.208 52.1543 179.155 51.4698 179.977 50.6156C180.106 50.4797 180.089 50.3234 179.945 50.2012C179.809 50.084 179.638 49.96 179.473 50.101C178.666 50.782 177.868 51.4698 176.89 51.908C176.681 52.0031 176.72 52.246 176.784 52.4396C176.832 52.5721 176.903 52.6927 177.073 52.6774L177.073 52.6774ZM176.944 51.1166C177.819 51.0436 178.15 50.3319 178.719 49.9821C179.125 49.7307 179.086 49.5099 178.685 49.2739C178.45 49.138 178.242 48.9529 178.033 48.7745C177.752 48.5283 177.571 48.6132 177.482 48.9393C177.302 49.6373 177.138 50.3405 176.944 51.1166H176.944ZM172.739 43.0596V43.0647C172.895 43.0647 173.051 43.0749 173.206 43.063C173.335 43.0528 173.515 43.1293 173.576 42.9781C173.639 42.8151 173.488 42.6911 173.389 42.579C173.092 42.2376 172.43 42.1561 172.048 42.416C171.89 42.523 171.693 42.6537 171.757 42.8745C171.815 43.0766 172.039 43.0478 172.211 43.0596C172.387 43.0698 172.562 43.0596 172.739 43.0596Z" fill="black"/>
<path fill-rule="evenodd" clip-rule="evenodd" d="M214.426 34.9217C214.385 33.4272 214.032 32.043 213.684 30.6605C213.66 30.5654 213.604 30.4805 213.582 30.3854C213.545 30.202 213.555 30.0084 213.765 29.9472C213.968 29.8912 214.036 30.0814 214.078 30.224C214.205 30.6554 214.307 31.0936 214.424 31.5284C214.805 32.933 214.8 34.3884 214.97 35.8236C214.98 35.8983 214.975 35.9798 214.97 36.0579C214.963 36.2329 214.985 36.4774 214.768 36.4893C214.537 36.5046 214.564 36.2549 214.533 36.0851C214.465 35.6775 214.338 35.2801 214.426 34.9217L214.426 34.9217Z" fill="black"/>
<path fill-rule="evenodd" clip-rule="evenodd" d="M211.7 35.0174C211.685 34.4671 211.943 34.1308 212.381 34.1122C212.846 34.0901 213.196 34.5283 213.201 35.138C213.207 35.6883 212.887 36.0874 212.447 36.0806C211.98 36.067 211.715 35.6934 211.7 35.0174L211.7 35.0174Z" fill="black"/>
<path d="M219.452 37.0087C219.231 34.9639 218.946 32.9275 218.603 30.8996C218.469 30.1064 218.007 29.5969 217.295 29.3048C216.962 29.1689 216.803 28.9634 216.738 28.6204C216.414 26.9118 216.125 25.188 215.541 23.5438C214.911 21.7707 215.142 20.0605 215.697 18.3282C215.865 17.8017 216.101 17.3074 216.276 16.7894C216.455 16.263 216.288 16.0694 215.743 16.0421C215.261 16.0184 214.821 16.2069 214.35 16.2459C211.3 16.5041 208.387 15.8706 205.519 14.9161C202.802 14.0126 200.088 13.0921 197.333 12.304C193.559 11.2222 189.792 10.125 185.991 9.14847C181.752 8.05812 177.494 7.06969 173.223 6.12199C170.986 5.62608 168.732 5.18451 166.501 4.66138C163.54 3.96503 160.532 3.53877 157.545 2.9919C155.278 2.5775 152.99 2.27691 150.706 1.94912C147.994 1.5602 145.28 1.19164 142.547 0.950468C140.032 0.729682 137.515 0.50038 134.989 0.383206C132.756 0.277906 130.519 0.213373 128.286 0.142038C127.076 0.102975 125.859 0.170912 124.646 0.208274C122.041 0.293192 119.429 0.283004 116.829 0.490204C115.577 0.590408 114.329 0.709293 113.094 0.918193C111.027 1.26806 108.955 1.61963 106.929 2.1631C105.507 2.54524 104.036 2.76433 102.661 3.29594C99.111 4.6665 95.5054 5.88593 91.9676 7.30067C88.671 8.61859 85.3458 9.85502 82.1254 11.3598C79.1923 12.7303 76.2471 14.089 73.3667 15.57C73.0032 15.7568 72.672 15.767 72.2984 15.6532C71.6361 15.4511 70.9975 15.7246 70.6493 16.3258C70.5525 16.4956 70.4455 16.6621 70.3521 16.8353C70.1958 17.1342 70.009 17.2327 69.6388 17.1427C69.0715 17.0069 68.4992 16.8506 67.8997 16.8744C66.1945 16.9457 64.4859 16.9185 62.7792 16.9542C59.6814 17.0255 56.5923 17.068 53.5097 17.4433C51.5684 17.6794 49.6119 17.7677 47.6757 18.0479C45.0025 18.4335 42.3531 18.9651 39.6849 19.3829C37.302 19.7531 35.0023 20.5343 32.6436 21.0439C29.3148 21.7623 26.1131 22.907 22.8914 23.9532C20.5171 24.7242 18.1427 25.48 15.7379 26.139C13.0528 26.876 10.3762 27.6505 7.77922 28.656C6.35261 29.2079 4.90557 29.7056 3.48235 30.266C2.77583 30.5428 2.161 30.6583 2.12874 31.7385C2.09477 32.929 2.01495 34.1366 1.98947 35.3305C1.9674 36.4463 2.02684 37.5877 2.3818 38.6729C2.43954 38.8512 2.46502 39.0652 2.23404 39.106C1.93003 39.1569 1.65152 39.3302 1.31861 39.2707C0.588301 39.1468 0.438867 39.2707 0.437171 40.001C0.430378 41.4549 0.432077 42.9086 0.437171 44.3641C0.437171 44.6324 0.376033 44.9432 0.690228 45.0944C0.982346 45.2337 1.20314 45.04 1.4494 44.9093C2.33597 44.4337 3.16136 43.7798 4.29758 44.0737C4.65763 44.1654 4.8071 44.269 4.80201 44.6307C4.79012 45.3593 4.77993 46.0862 4.80711 46.8131C4.82239 47.2683 4.66275 47.4907 4.19911 47.4296C2.9525 47.2683 2.53641 47.6759 3.33971 48.9446C3.39067 49.0278 3.44671 49.1076 3.49257 49.1976C4.12605 50.4052 5.18244 50.8943 6.48509 51.0947C7.33935 51.2255 8.20213 51.3512 9.053 51.3478C10.3166 51.3461 11.4885 51.9133 12.7945 51.7503C13.7592 51.6314 14.7748 51.915 15.7667 52.0254C16.0571 52.0594 16.3017 52.3243 16.6107 52.2224C17.589 51.9065 18.569 52.1851 19.5472 52.1986C20.0346 52.2054 20.4915 52.5876 20.9042 52.45C21.7653 52.1562 22.6094 52.3957 23.4535 52.3872C24.0479 52.3804 24.661 52.7251 25.2351 52.6606C25.9127 52.5876 25.9688 52.8508 25.9195 53.3553C25.8737 53.8206 26.0418 54.0057 26.5479 54.0244C27.5347 54.0635 28.4977 53.8036 29.4844 53.8733C30.0296 53.914 30.5781 53.9055 31.125 53.785C31.4783 53.7102 31.7823 53.7629 32.0625 53.931C32.3818 54.3115 32.718 54.6817 33.073 55.0367C35.055 57.017 37.4547 58.4351 40.0739 59.2028C40.1418 59.2316 40.3541 59.2826 40.3541 59.2826C41.7705 59.6715 43.2464 59.8719 44.7563 59.8719C46.2627 59.8719 47.742 59.6715 49.1584 59.2826C49.1584 59.2826 49.758 59.1178 49.9941 59.0295C52.3955 58.2313 54.5967 56.8777 56.4358 55.0367C56.5632 54.9076 56.6889 54.7785 56.8111 54.6477C56.9504 54.5119 57.0761 54.3675 57.2001 54.2164C57.5822 53.7782 57.9405 53.3281 58.2683 52.8577C58.4195 52.7507 58.5927 52.6963 58.8118 52.7048C60.0652 52.7507 61.3203 52.6488 62.5788 52.7948C63.3312 52.8797 64.1005 52.861 64.8682 52.7388C65.5662 52.6267 66.2728 52.7405 66.9793 52.8067C67.9779 52.8984 68.9783 52.7795 69.9769 52.7065C70.3267 52.6793 70.6851 52.6691 71.0027 52.8848C71.159 52.9901 71.3577 52.985 71.5156 52.9137C72.1169 52.6437 72.7469 52.7048 73.3736 52.7048C78.4058 52.7031 83.4415 52.7795 88.4736 52.6878C100.109 52.4687 111.744 52.7371 123.377 52.5536C129.627 52.4585 135.877 52.4704 142.121 52.4959C145.63 52.5078 149.144 52.6538 152.655 52.7422C154.049 52.7761 155.374 52.5384 156.714 52.2836C157.089 52.2106 157.448 52.1613 157.813 52.2887C157.905 52.321 158.017 52.3889 158.093 52.3617C158.402 52.2564 158.626 52.287 158.805 52.3889C159.423 53.3332 160.143 54.2197 160.96 55.0384C164.078 58.1566 168.227 59.8466 172.639 59.8466C174.146 59.8466 175.627 59.2233 177.042 59.2233H177.099C177.133 59.2233 177.162 59.2233 177.196 59.208C179.863 58.4455 182.305 57.0341 184.317 55.0199C185.245 54.0926 186.048 53.0787 186.719 51.9917C186.836 51.9034 186.965 51.8439 187.104 51.7964C188.818 51.2274 190.34 50.2933 191.84 49.3185C192.113 49.1435 192.39 49.062 192.716 49.0382C193.592 48.972 194.469 48.8701 195.345 48.7682C197.23 48.5508 199.112 48.2961 201.001 48.116C202.555 47.9649 204.083 47.6405 205.632 47.4605C206.451 47.3687 207.3 47.0953 208.141 46.9425C210.026 46.596 211.926 46.3345 213.811 45.9897C215.204 45.7332 216.153 44.7142 217.198 43.8684C217.276 43.8056 217.315 43.6612 217.334 43.5491C217.531 42.3925 217.76 41.2393 217.896 40.0726C217.952 39.5885 218.156 39.3593 218.594 39.293C219.149 39.2098 219.362 38.8378 219.508 38.3487C219.645 37.885 219.499 37.452 219.452 37.0087L219.452 37.0087ZM217.879 30.5244C218.155 30.9048 218.148 31.3311 218.228 31.7472C218.525 33.3437 218.754 34.952 218.926 36.5689C218.977 37.0462 218.797 37.1685 218.391 37.1651C217.465 37.1634 216.526 37.0547 215.622 37.1922C214.056 37.43 212.808 36.7201 211.558 36.0204C209.761 35.0115 207.854 34.7024 205.829 34.8978C204.761 35.0031 203.686 35.071 202.616 35.1559C200.607 35.3172 198.599 35.4463 196.604 35.7792C195.351 35.9881 194.099 36.2055 192.832 36.3363C192.136 36.4076 191.454 36.6114 190.753 36.7252C190.368 36.788 190.204 36.6691 190.103 36.3396C189.489 34.3967 188.537 32.6219 187.378 30.9557C187.069 30.5125 186.682 30.1235 186.278 29.6463C187.395 29.5104 188.386 29.434 189.388 29.4561C191.995 29.5138 194.608 29.3542 197.214 29.2981C198.487 29.2693 199.812 29.4391 201.067 28.9958C201.179 28.9568 201.331 28.9636 201.398 28.8888C202.023 28.1908 202.786 28.3114 203.617 28.3759C204.822 28.4659 206.042 28.4099 207.256 28.2978C208.037 28.2248 208.435 28.4846 209.058 29.2574C208.116 29.1996 207.26 29.3678 206.387 29.3712C206.212 29.3712 206.032 29.3525 205.855 29.3542C205.663 29.3559 205.396 29.3219 205.402 29.5953C205.408 29.8654 205.675 29.8297 205.862 29.8161C207.721 29.6938 209.585 29.755 211.443 29.6021C212.185 29.541 212.936 29.5902 213.683 29.5835C214.172 29.5784 214.656 29.5495 215.15 29.4985C216.215 29.3847 217.185 29.5801 217.879 30.5244H217.879ZM190.349 41.7148V41.421C190.349 40.4122 190.653 40.3782 191.618 40.2372C193.882 39.9009 196.307 39.5307 198.591 39.3676C200.188 39.2538 201.859 38.9957 203.45 38.8157C205.023 38.6408 206.645 38.4777 208.219 38.3198C208.972 38.245 209.743 38.189 210.528 38.1228C210.319 38.6713 209.88 38.9481 209.551 39.3252C207.085 42.1717 203.965 44.0808 200.604 45.6721C198.51 46.6623 196.27 47.1311 194.038 47.6253C193.09 47.8342 192.097 47.8291 191.129 47.9514C190.701 48.0057 190.456 47.7645 190.487 47.5251C190.743 45.5906 190.349 43.6511 190.349 41.7151L190.349 41.7148ZM207.886 37.8629C205.555 38.1193 203.229 38.4573 200.891 38.6391C199.527 38.7461 198.185 38.9923 196.81 39.0263C195.573 39.0602 194.344 39.3762 193.111 39.5749C192.531 39.6649 191.954 39.7702 191.375 39.8619C191.11 39.906 190.938 39.8517 190.898 39.5188C190.823 38.9176 190.735 38.3113 190.566 37.7321C190.454 37.3347 190.611 37.2396 190.925 37.1869C192.178 36.9797 193.43 36.7607 194.687 36.5687C196.193 36.3377 197.701 36.1034 199.213 35.9182C200.419 35.7722 201.631 35.7059 202.839 35.5972C204.019 35.4902 205.203 35.3289 206.387 35.278C207.526 35.2287 208.673 35.3612 209.739 35.7603C210.653 36.1034 211.502 36.6129 212.373 37.0511C212.491 37.1088 212.626 37.1649 212.667 37.3721C211.064 37.5419 209.474 37.688 207.886 37.8629L207.886 37.8629ZM172.635 58.6898C171.355 58.6898 170.11 58.5319 168.922 58.2347C168.861 58.2194 168.8 58.2024 168.739 58.1888C168.724 58.1837 168.71 58.1786 168.695 58.1769C168.218 58.0478 167.751 57.9001 167.297 57.732C167.219 57.7031 167.144 57.6759 167.066 57.6436C167.044 57.6369 167.02 57.6267 167 57.6165C164.22 56.5176 161.84 54.6307 160.132 52.2308C160.127 52.2257 160.125 52.2189 160.12 52.2138C160.093 52.1748 160.069 52.1391 160.042 52.1017C158.323 49.5712 157.345 46.4596 157.345 43.0104C157.343 35.0639 164.147 28.1091 172.572 28.0665C178.895 28.0326 184.291 31.8811 186.66 37.1257C187.2 38.3434 187.591 39.6427 187.796 41.0047C187.798 41.0115 187.798 41.02 187.801 41.0285C187.806 41.0693 187.813 41.1083 187.818 41.1508C187.896 41.7368 187.94 42.3346 187.946 42.9375C187.963 46.0591 187.175 48.9123 185.755 51.3088C183.059 55.7349 178.192 58.6901 172.635 58.6901L172.635 58.6898ZM108.9 45.0485C110.373 45.1148 111.842 44.9466 113.313 44.9008C115.25 44.8396 117.192 44.7496 119.129 44.6715C120.908 44.5985 122.689 44.5526 124.459 44.4083C125.655 44.3131 126.878 44.5034 128.068 44.038C128.72 43.7816 129.5 44.0329 130.22 44.0924C131.467 44.1892 132.708 44.2724 133.999 44.3658C133.829 44.5407 133.656 44.5832 133.486 44.5917C131.962 44.6715 130.427 44.6715 128.914 44.8447C126.745 45.0927 124.566 44.9891 122.395 45.1708C121.616 45.2371 120.823 45.2031 120.036 45.1895C117.287 45.1521 114.54 45.4018 111.789 45.3084C110.699 45.2693 109.61 45.1352 108.458 45.1963C108.62 45.0061 108.771 45.0401 108.9 45.0485L108.9 45.0485ZM104.153 44.8328C101.937 44.8872 99.7273 45.0299 97.5112 45.0978C95.806 45.1487 94.1009 45.2201 92.3956 45.3152C89.5559 45.4714 86.7147 45.5496 83.8764 45.6871C82.4498 45.7551 81.0181 45.7381 79.5931 45.8943C79.0819 45.9487 78.8527 45.7466 78.8306 45.1997C78.7745 43.8512 78.7507 43.88 80.106 43.8427C81.2983 43.8104 82.4889 43.7068 83.6828 43.6389C85.2454 43.5506 86.8061 43.4419 88.3667 43.3858C91.0909 43.289 93.8185 43.182 96.5428 43.1616C98.0934 43.1514 99.6356 43.0173 101.183 43.0139C105.329 42.9986 109.471 43.1701 113.615 43.1667C116.22 43.1667 118.827 43.3519 121.428 43.5217C122.231 43.5726 123.033 43.6015 123.836 43.6168C124.148 43.6236 124.452 43.6711 124.78 43.8036C124.588 44.004 124.405 43.9887 124.23 43.9955C122.859 44.0414 121.484 44.0465 120.113 44.1314C117.902 44.2656 115.684 44.2605 113.474 44.4626C112.519 44.5509 111.558 44.5169 110.6 44.5543C108.459 44.646 106.307 44.7785 104.153 44.8328L104.153 44.8328ZM126.995 43.3926C126.12 43.2228 125.232 43.2653 124.361 43.2279C123.051 43.165 121.733 43.1175 120.424 43.0445C118.37 42.9273 116.317 42.8525 114.265 42.7286C112.289 42.6114 110.295 42.7846 108.313 42.6946C105.584 42.5672 102.856 42.5808 100.13 42.6097C98.3062 42.6284 96.4804 42.6606 94.6563 42.7218C92.1869 42.805 89.7194 42.8576 87.2515 42.9561C85.1795 43.036 83.1075 43.2262 81.0337 43.3196C80.3934 43.3519 79.7481 43.3926 79.1027 43.4266C78.7953 43.4419 78.6254 43.3434 78.5915 43.0156C78.4895 42.0849 78.3401 41.1627 78.2603 40.232C77.9902 37.0611 77.89 33.892 77.8781 30.7094C77.8764 30.0487 77.7983 29.3829 77.7779 28.7155C77.7677 28.3062 77.9393 28.1533 78.3384 28.1635C78.9464 28.1805 79.5561 28.1635 80.1675 28.1686C80.5089 28.1703 80.7467 28.0803 80.7399 27.6761C80.7331 27.2872 80.4919 27.2481 80.1828 27.2532C79.5748 27.2651 78.9651 27.2481 78.3537 27.2634C77.9665 27.2736 77.7304 27.1462 77.7881 26.725C78.0191 25.0623 77.6828 23.3334 78.3741 21.7267C78.4981 21.4397 78.6306 21.1544 78.7613 20.8691C78.9617 20.4258 79.7277 20.2559 80.2321 20.2577C83.5151 20.2798 85.6551 20.2696 90.5243 20.2696V20.2628C92.9598 20.2628 96.4143 20.1897 99.5765 20.2781C107.573 20.5022 115.349 20.346 123.345 20.3579C125.517 20.3596 127.581 20.2475 129.756 20.1439C131.514 20.059 133.211 19.9265 134.964 19.7838C136.193 19.6836 137.391 19.546 138.615 19.3915C138.97 19.3456 139.098 19.4492 139.042 19.7889C138.734 21.6367 138.583 23.5168 138.109 25.3359C137.683 26.9493 137.286 28.5747 136.756 30.1524C136.396 31.2258 135.772 32.2091 135.348 33.2621C134.337 35.7655 132.741 37.9225 131.248 40.1286C130.587 41.1052 129.811 42.0376 128.894 42.8256C128.327 43.3114 127.691 43.5287 126.995 43.3929L126.995 43.3926ZM78.3947 45.6328C78.4185 45.8535 78.2419 45.8535 78.0924 45.913C77.6134 46.0998 77.1192 45.969 76.6318 45.9911C74.2677 46.1151 71.9035 46.2883 69.5361 46.3444C68.1265 46.3766 66.7219 46.5074 65.3123 46.4853C64.8181 46.4786 64.334 46.5074 63.8466 46.5805C63.5783 46.6212 63.1826 46.7248 63.1774 46.2612C63.1757 45.8909 63.0637 45.4459 63.6445 45.2846C64.2236 45.1216 64.8113 45.1436 65.3904 45.0842C67.2943 44.8889 69.2101 44.7938 71.1121 44.5713C73.0924 44.3403 75.0778 44.1959 77.06 43.9938C77.313 43.9667 77.5695 43.9819 77.8242 43.9819C77.989 43.9836 78.1826 44.0227 78.2132 44.1891C78.2998 44.663 78.3439 45.1504 78.3949 45.6328L78.3947 45.6328ZM123.986 2.56884C128.13 2.51449 132.274 2.55016 136.408 2.8253C139.648 3.04269 142.889 3.31273 146.107 3.76451C149.767 4.27743 153.441 4.7003 157.069 5.42551C158.854 5.78047 160.64 6.13712 162.432 6.45981C162.807 6.52775 162.835 6.63475 162.7 6.95573C162.182 8.18534 162.143 8.18364 160.797 7.88134C158.482 7.35994 156.164 6.85382 153.835 6.39356C151.301 5.89256 148.758 5.42038 146.209 4.99068C144.647 4.73083 143.071 4.5406 141.493 4.38269C139.526 4.18568 137.551 4.10075 135.589 3.88677C131.989 3.49275 128.38 3.52163 124.772 3.55729C122.242 3.58107 119.706 3.61504 117.197 3.91225C114.697 4.20947 112.192 4.47782 109.716 5.03486C105.773 5.92143 101.997 7.25464 98.2709 8.76956C96.5454 9.47269 94.8555 10.2692 93.1318 10.9706C89.7011 12.3633 86.5318 14.2264 83.344 16.0706C82.2281 16.716 81.1038 17.3716 80.1221 18.2378C79.7502 18.569 79.4377 18.946 79.1557 19.34C78.9146 19.678 78.6445 19.8359 78.2251 19.8326C76.6524 19.8173 75.0746 19.9158 73.5085 19.8054C70.9932 19.6304 68.4816 19.7222 65.9677 19.7256C64.0876 19.7256 62.2041 19.8529 60.3255 19.9599C58.1754 20.0822 56.0201 20.1349 53.8733 20.2894C53.7612 20.2962 53.6474 20.2792 53.5319 20.2724C56.0625 19.8835 58.5811 19.5642 61.1085 19.301C63.1176 19.0921 65.1183 18.8916 67.1393 18.8254C68.7239 18.7744 70.3136 18.7065 71.8963 18.5961C73.649 18.4721 75.4323 18.5791 77.1528 18.1409C77.9459 17.9388 78.6644 17.4955 79.3811 17.0965C81.3342 16.0078 83.2551 14.8716 85.2389 13.839C86.229 13.3261 87.1988 12.7554 88.2145 12.2935C90.9641 11.0401 93.7171 9.79346 96.4958 8.60968C99.3303 7.40216 102.201 6.28629 105.094 5.23672C106.429 4.75437 107.819 4.5132 109.201 4.22111C109.986 4.05807 110.762 3.83898 111.547 3.67763C113.197 3.34475 114.884 3.27512 116.55 3.04415C118.805 2.72995 121.078 2.76732 123.34 2.57881C123.552 2.56352 123.768 2.57201 123.985 2.56862L123.986 2.56884ZM123.381 3.21763H131.917H123.388H123.382H123.381ZM190.512 15.0585C189.376 15.0738 188.234 15.3914 187.095 15.3914H184.501C183.068 15.3914 181.631 15.0432 180.196 15.0772C177.786 15.1349 175.374 15.0364 172.964 15.1672C171.324 15.2572 169.678 15.2012 168.039 15.298C166.58 15.3829 165.13 15.5714 163.674 15.709C162.603 15.8109 161.524 15.838 160.456 15.9433C158.9 16.0962 157.346 16.2372 155.801 16.4478C153.907 16.7042 152.02 17.0252 150.128 17.3072C147.118 17.7555 144.102 18.1886 141.093 18.6268C140.937 18.6489 140.779 18.6438 140.622 18.6557C139.6 18.7406 139.624 18.7406 139.593 17.7403C139.576 17.2189 139.761 17.0949 140.272 17.0677C142.575 16.9488 144.879 16.7246 147.185 16.6312C148.812 16.565 150.437 16.497 152.013 16.0911C154.679 15.405 157.127 14.3095 159.212 12.409C160.824 10.9417 162.134 9.29935 163.076 7.35643C163.329 6.83843 163.581 6.64313 164.201 6.78239C167.122 7.44643 170.057 8.05617 172.988 8.67609C174.542 9.00557 176.072 9.43017 177.614 9.7766C180.232 10.3609 182.847 10.9502 185.441 11.6397C186.692 11.9709 187.927 12.348 189.185 12.6503C190.176 12.888 190.512 13.8425 190.86 14.6323C191.015 14.9855 190.668 15.0586 190.512 15.0586L190.512 15.0585ZM190.88 13.1512C193.715 13.9749 196.523 14.5558 199.411 15.2335C198.705 15.5765 198.073 15.3252 197.467 15.3014C196.337 15.2606 195.215 15.0942 194.087 14.9923C193.464 14.9362 192.839 14.9091 192.215 14.8564C191.84 14.8241 191.546 14.656 191.39 14.2892C191.239 13.9342 191.076 13.5826 190.88 13.1512L190.88 13.1512ZM187.03 15.8771C187.191 15.9264 187.434 15.9399 187.429 16.1573C187.424 16.3781 187.173 16.3526 187.015 16.4104C186.171 16.7195 185.301 16.8248 184.377 16.7484C183.511 16.8622 182.655 16.6414 181.799 16.4223C181.653 16.3849 181.449 16.3442 181.451 16.1573C181.453 15.9722 181.653 15.9399 181.801 15.8992C183.543 15.4236 185.288 15.3557 187.03 15.8771H187.03ZM94.3389 13.3007C94.3372 15.0738 94.4747 14.6747 92.829 14.9753C91.8406 15.1553 90.8878 15.4474 89.9367 15.7446C89.6616 15.8295 89.1283 15.9348 89.2913 16.3271C89.4442 16.6906 89.8433 16.3492 90.115 16.2473C91.2767 15.8108 92.4673 15.5 93.6935 15.337C93.8735 15.3132 94.1877 15.1926 94.2064 15.5374C94.2234 15.8448 94.3524 16.2507 93.8922 16.3798C92.6473 16.7279 91.4041 17.0812 90.115 17.2222C89.6531 17.2731 89.2013 17.268 88.7342 17.1203C88.4081 17.0184 88.3759 16.8859 88.4217 16.6311C88.8378 14.3893 90.0352 12.7792 92.1666 11.8585C92.6728 11.6394 93.1551 11.5494 93.6867 11.5341C94.0162 11.5239 94.1588 11.6258 94.2489 11.9621C94.3813 12.436 94.2998 12.9013 94.3389 13.3004V13.3007ZM95.954 14.211C95.9829 13.4264 95.9659 12.6383 95.9489 11.852C95.9421 11.5327 96.0491 11.3798 96.3633 11.2508C99.6836 9.88697 103.002 8.5198 106.455 7.52284C108.469 6.94032 110.502 6.33906 112.566 6.05715C115.434 5.66483 118.303 5.2861 121.221 5.23684C124.125 5.18759 127.032 5.1808 129.937 5.1808C131.895 5.1808 133.84 5.44574 135.788 5.61218C137.036 5.71748 138.286 5.79051 139.534 5.87543C139.674 5.88562 139.811 5.87543 139.945 5.89411C140.631 5.99941 140.643 6.06225 140.372 6.71781C139.514 8.75755 138.685 10.8109 137.829 12.8539C137.474 13.7065 137.092 14.5438 136.727 15.3912C136.616 15.6426 136.464 15.7802 136.165 15.8277C134.959 16.0179 133.739 15.9517 132.527 16.0247C131.241 16.1029 129.938 16.1317 128.648 16.1878C126.105 16.2982 123.565 16.4527 121.017 16.5376C119.257 16.5954 117.498 16.7075 115.738 16.7788C113.7 16.8586 111.662 16.9266 109.627 17.02C107.63 17.1117 105.631 17.1032 103.64 17.2391C103.007 17.2832 102.674 17.059 102.533 16.4069C102.217 14.953 101.585 13.5842 101.325 12.1066C101.251 11.6803 100.967 11.2625 100.427 11.2031C99.6253 11.1182 99.1956 11.7041 99.4487 12.5685C99.8461 13.9255 100.259 15.2741 100.677 16.6242C100.872 17.2543 100.818 17.3443 100.148 17.3495C99.0479 17.3563 97.9473 17.3563 96.8468 17.3495C96.5139 17.3478 96.1827 17.3444 95.8141 17.4378C96.074 16.3236 95.9144 15.2622 95.9534 14.2109L95.954 14.211ZM139.108 4.95145C137.608 4.82917 136.115 4.5914 134.616 4.51837C132.894 4.43515 131.18 4.21436 129.451 4.24833C127.625 4.2857 125.794 4.21436 123.969 4.26701C121.696 4.33325 119.431 4.45383 117.162 4.60329C116.012 4.67802 114.871 4.86824 113.724 5.0092C110.817 5.39473 108.008 6.23372 105.151 6.88589C105.616 6.51904 106.189 6.40185 106.734 6.26428C108.575 5.80572 110.423 5.36415 112.281 4.98033C112.741 4.88352 113.233 4.75954 113.724 4.87843C114.475 4.5982 115.273 4.66103 116.043 4.54555C117.885 4.26532 119.742 4.16511 121.601 4.0972C124.677 3.9851 127.754 3.87811 130.827 4.01907C132.794 4.10908 134.764 4.21099 136.727 4.44706C137.714 4.56595 138.714 4.62029 139.713 4.68823C140.942 4.77315 142.157 4.96336 143.374 5.13149C144.11 5.23339 144.845 5.31831 145.581 5.40153C145.941 5.44229 146.304 5.46947 146.593 5.79046C145.786 5.70554 144.979 5.64439 144.174 5.534C142.493 5.29963 140.803 5.09074 139.108 4.95148L139.108 4.95145ZM142 6.22693C140.665 9.42667 139.32 12.623 137.99 15.8226C137.922 15.9856 137.854 16.0977 137.669 16.1215C137.401 16.0587 137.545 15.8803 137.591 15.758C137.82 15.1738 138.053 14.5913 138.294 14.0155C139.366 11.4476 140.441 8.87813 141.516 6.30987C141.555 6.21985 141.587 6.12644 141.635 6.04152C141.72 5.88018 141.842 5.68826 142.034 5.78507C142.286 5.91245 142.056 6.09248 142 6.22664V6.22693ZM101.851 17.2221C101.576 17.2374 101.358 17.1899 101.266 16.8672C100.962 15.8125 100.638 14.768 100.324 13.7184C100.195 13.287 100.071 12.8573 99.9484 12.4225C99.8686 12.1355 99.8601 11.8383 100.195 11.7364C100.558 11.6243 100.672 11.9453 100.752 12.1967C101.022 13.0544 101.265 13.9188 101.521 14.7799C101.725 15.4745 101.93 16.1657 102.126 16.8247C102.153 17.0727 102.082 17.2102 101.851 17.2221L101.851 17.2221ZM97.1124 18.1121C98.7003 18.0713 100.295 18.1444 101.873 18.0068C103.423 17.8726 104.972 17.9847 106.518 17.8998C109.004 17.7639 111.492 17.7419 113.981 17.6518C115.935 17.5839 117.889 17.4446 119.847 17.4345C120.056 17.4345 120.275 17.3835 120.555 17.5313C120.022 17.6502 119.582 17.7062 119.125 17.7062C116.358 17.7011 113.6 17.9202 110.837 17.9592C108.685 17.9915 106.532 18.107 104.383 18.197C102.557 18.2751 100.728 18.1783 98.9093 18.3091C96.4551 18.4874 94.001 18.3465 91.5484 18.411C91.1272 18.4212 90.706 18.4722 90.188 18.5112C90.3969 18.1953 90.6279 18.2684 90.8164 18.265C92.9122 18.2378 95.013 18.1681 97.112 18.1121H97.1124ZM89.3167 18.0561C89.3558 18.479 88.7597 18.4841 88.4234 18.501C87.4672 18.5503 86.5042 18.5197 85.548 18.5163C85.441 18.5163 85.3103 18.5214 85.2355 18.3142C86.2614 18.0662 87.2702 17.7809 88.3011 17.6026C88.6662 17.5364 89.2794 17.6366 89.3167 18.0561L89.3167 18.0561ZM87.9139 16.6192C87.8918 16.7704 87.7287 16.8111 87.5997 16.8536C85.5514 17.5228 83.4608 18.0051 81.3158 18.2785C83.6867 16.8808 86.051 15.4881 88.5866 14.3383C88.2402 15.0754 88.033 15.8346 87.9141 16.6192L87.9139 16.6192ZM81.956 19.0971C84.8755 18.8831 87.8017 19.0683 90.7195 18.9341C92.8204 18.8373 94.9213 18.9443 97.0186 18.8373C99.2554 18.7235 101.496 18.7914 103.731 18.7133C105.886 18.6386 108.04 18.5655 110.195 18.4772C112.469 18.3821 114.741 18.3142 117.016 18.2412C119.111 18.1749 121.211 18.107 123.303 17.9983C125.764 17.8692 128.228 17.7724 130.691 17.5958C131.79 17.5177 132.911 17.4565 134.021 17.4429C134.879 17.431 135.781 17.431 136.644 17.251C137.398 17.0931 138.167 17.3648 138.918 17.1338C138.958 17.1219 139.032 17.1678 139.071 17.2052C139.324 17.4463 139.025 18.749 138.682 18.8441C137.771 19.0971 136.827 19.1464 135.895 19.2296C133.727 19.4198 131.56 19.554 129.392 19.6966C128.432 19.7595 127.472 19.7765 126.516 19.8104C120.154 20.0346 113.787 19.9344 107.423 19.9497C105.38 19.9548 103.334 20.0074 101.291 19.9395C94.278 19.7017 87.2636 19.9055 80.251 19.8223C80.0557 19.8206 79.6837 19.9922 79.6888 19.6474C79.6905 19.3706 79.9826 19.1243 80.307 19.109C80.8556 19.0784 81.4059 19.0971 81.9562 19.0971L81.956 19.0971ZM138.986 15.6631C138.448 15.748 138.744 15.3387 138.813 15.1688C139.34 13.8815 139.89 12.6009 140.43 11.3169C141.058 9.83597 141.701 8.36175 142.298 6.86562C142.524 6.29327 142.867 6.16249 143.435 6.25762C145.379 6.57861 147.332 6.86901 149.28 7.18323C150.919 7.44817 152.544 7.78275 154.171 8.12071C155.549 8.40773 156.916 8.76101 158.305 8.99027C159.017 9.10746 159.012 9.16011 158.608 9.72058C156.829 12.1866 154.295 13.5657 151.517 14.5288C150.382 14.9229 149.17 15.1284 147.614 15.0961C145.756 15.2354 143.572 15.395 141.388 15.5631C140.593 15.626 139.788 15.536 138.986 15.6633L138.986 15.6631ZM148.616 6.09262C148.631 6.04337 148.645 5.99241 148.66 5.94486C150.778 6.26585 152.884 6.65308 154.949 7.25769C152.84 6.87046 150.729 6.47982 148.616 6.0926L148.616 6.09262ZM159.168 8.15784C159.498 8.12047 161.269 8.47713 161.503 8.61132C161.828 8.79644 161.549 8.95439 161.459 9.06988C160.678 10.1212 159.914 11.1827 158.839 11.9843C157.804 12.7553 156.889 13.6979 155.685 14.221C154.428 14.7662 153.158 15.2825 151.831 15.6358C151.644 15.6867 151.456 15.7377 151.184 15.5729C151.991 15.2791 152.73 14.9955 153.475 14.7373C154.204 14.4842 154.883 14.1582 155.508 13.7047C157.035 12.6042 158.574 11.5359 159.64 9.91565C160.345 8.85926 160.323 8.5943 159.168 8.15782L159.168 8.15784ZM133.348 37.9796C134.943 35.8515 135.86 33.3635 136.964 30.9839C137.66 29.4775 137.974 27.8114 138.412 26.2013C138.981 24.0936 139.209 21.9299 139.475 19.7765C139.52 19.4233 139.637 19.2602 140.004 19.2093C141.901 18.9511 143.798 18.6692 145.693 18.4008C148.499 18.0034 151.315 17.6587 154.11 17.2052C155.812 16.9284 157.514 16.6719 159.231 16.5258C160.695 16.3985 162.155 16.2507 163.618 16.1267C165.121 15.9993 166.617 15.8397 168.12 15.6902C168.918 15.6121 169.721 15.6155 170.523 15.5714C173.009 15.427 175.504 15.4372 177.991 15.286C179.322 15.2028 180.645 15.2079 182.145 15.2232C181.736 15.3675 181.484 15.4423 181.241 15.5442C180.961 15.6614 180.813 15.8805 180.819 16.1913C180.825 16.5106 181.004 16.7127 181.294 16.7925C182.029 16.9929 182.755 17.2527 183.536 17.2018C184.703 17.1237 185.893 17.3852 187.038 16.9606C187.203 16.8995 187.384 16.8689 187.542 16.7993C187.819 16.677 188.077 16.5292 188.077 16.1692C188.077 15.7939 187.84 15.6087 187.522 15.4898C187.342 15.4219 187.157 15.3608 186.936 15.286C189.694 14.6814 207.04 16.694 210.649 17.567C209.207 18.0442 207.909 18.4807 206.61 18.9053C204.913 19.4623 203.213 20.0126 201.513 20.5629C200.508 20.889 199.497 21.2049 198.492 21.5343C198.262 21.6091 197.969 21.6091 197.985 21.9878C198.002 22.3988 197.748 22.8676 198.374 23.0901C199.055 23.333 199.718 23.6454 200.431 23.7983C200.699 23.8544 200.801 23.9495 200.594 24.1753C200.256 24.5422 199.9 24.9226 200.012 25.4627C200.165 26.2083 200.511 26.8604 201.088 27.3819C201.292 27.5653 201.705 27.6672 201.601 28.0103C201.501 28.3414 201.129 28.4383 200.803 28.5487C200.255 28.7338 199.703 28.7966 199.125 28.8017C196.987 28.8238 194.845 28.8679 192.709 28.9495C191.039 29.0123 189.373 28.9817 187.705 29.0327C187.647 29.0327 187.581 29.0174 187.53 29.0344C186.228 29.4845 185.317 28.8255 184.497 27.9457C183.514 26.8859 182.182 26.3459 180.995 25.5833C179.152 24.3978 177.038 23.9716 174.935 23.6251C171.954 23.1359 169.009 23.3788 166.112 24.2976C163.242 25.208 160.74 26.7059 158.637 28.8289C156.258 31.2304 154.551 34.0394 153.829 37.3768C153.741 37.781 153.559 37.8659 153.191 37.8778C150.602 37.9678 148.018 38.051 145.429 38.1257C143.041 38.192 140.645 38.2378 138.258 38.3788C136.752 38.4671 135.234 38.321 133.734 38.5656C133.537 38.5979 133.257 38.6879 133.129 38.4858C133.014 38.3041 133.236 38.1274 133.347 37.9797L133.348 37.9796ZM202.556 23.3857C201.198 23.6897 200.006 23.1445 198.672 22.6621C199.185 22.3191 199.659 22.2426 200.094 22.117C202.913 21.2916 205.663 20.242 208.494 19.4454C209.489 19.1652 210.438 18.7321 211.452 18.4842C211.778 18.4061 211.835 18.4791 211.799 18.7746C211.694 19.5881 211.602 20.4016 211.5 21.2169C211.463 21.509 211.308 21.6534 211.004 21.6924C208.149 22.0661 205.361 22.7624 202.556 23.3857L202.556 23.3857ZM203.266 23.7559C202.353 25.602 202.682 26.6941 204.394 27.8762C203.164 28.2685 201.116 27.1646 200.648 25.8313C200.434 25.2233 200.568 24.848 201.143 24.4319C201.748 23.992 202.475 23.9546 203.266 23.7559ZM216.128 28.8103C216.135 29.1652 215.768 28.9852 215.571 29.0175C213.939 29.2926 212.281 29.0124 210.648 29.2518C209.975 29.352 209.608 28.8425 209.111 28.3687C209.751 28.2957 210.286 28.1955 210.828 28.1819C212.258 28.1411 213.688 28.2108 215.116 28.0528C215.269 28.0358 215.432 28.0409 215.583 28.0681C215.992 28.1377 216.123 28.4978 216.128 28.8103L216.128 28.8103ZM215.569 27.2206C215.498 27.3735 215.352 27.3769 215.216 27.3735C214.29 27.3463 213.38 27.5976 212.489 27.4805C210.398 27.5654 208.343 27.6758 206.284 27.7216C204.723 27.7556 203.939 27.1391 203.329 25.7057C203.066 25.0824 203.317 24.6901 203.694 24.2943C204.212 23.7542 204.902 23.581 205.605 23.4757C207.481 23.1938 209.343 22.8151 211.203 22.4465C212.103 22.2682 213.011 22.1204 213.913 21.9506C214.149 21.9064 214.299 21.9795 214.367 22.207C214.423 22.3939 214.462 22.5875 214.52 22.7743C214.647 23.1683 214.548 23.3653 214.098 23.4418C212.519 23.7067 210.941 24.0107 209.363 24.3012C208.264 24.5033 207.164 24.7037 206.067 24.9058C205.949 24.9278 205.841 24.9737 205.725 25.0026C205.36 25.0926 205.199 25.3406 205.236 25.6989C205.27 26.0522 205.506 26.2085 205.848 26.2051C206.651 26.1983 207.464 26.256 208.256 26.1507C209.023 26.0488 209.784 26.0318 210.545 26.0607C211.962 26.1167 213.365 25.9078 214.779 25.9384C215.229 25.9418 215.761 26.8165 215.569 27.2207L215.569 27.2206ZM215.111 25.2216C215.06 25.4866 214.858 25.4815 214.657 25.4866C212.859 25.5324 211.057 25.6819 209.256 25.597C208.395 25.5562 207.55 25.8177 206.683 25.726C206.424 25.6972 206.155 25.6938 205.802 25.6751C206.196 25.3201 206.598 25.315 206.97 25.242C209.195 24.8157 211.423 24.4013 213.652 23.9852C213.749 23.9682 213.842 23.9394 213.939 23.9275C214.667 23.8459 215.255 24.4964 215.111 25.2216L215.111 25.2216ZM215.556 17.1764C215.011 18.4162 214.752 19.5524 214.763 20.7413C214.764 20.9705 214.618 21.0843 214.392 21.1217C213.754 21.227 213.122 21.3476 212.485 21.4597C212.154 21.5174 211.991 21.3798 212.03 21.0436C212.132 20.2113 212.237 19.3758 212.349 18.5453C212.387 18.2701 212.529 18.0833 212.811 18.0001C213.672 17.7487 214.532 17.4855 215.556 17.1764L215.556 17.1764ZM206.395 16.1642C207.478 16.261 208.574 16.2304 209.651 16.5004C210.733 16.7739 211.842 16.7518 213.093 16.7127C212.433 17.1187 211.862 17.156 211.284 17.0762C209.649 16.852 208.017 16.6058 206.383 16.3697C206.385 16.3034 206.39 16.2321 206.395 16.1642H206.395ZM199.063 13.3636C201.373 14.116 203.686 14.8632 206.003 15.6088C202.411 15.2895 198.853 14.7155 195.374 13.6829C195.745 13.4706 196.142 13.5266 196.519 13.5487C197.137 13.5895 197.727 13.4943 198.314 13.3313C198.569 13.2634 198.81 13.2804 199.063 13.3636L199.063 13.3636ZM154.794 3.61487C155.028 3.33973 155.237 3.10534 155.67 3.18348C158.696 3.72357 161.738 4.17191 164.746 4.81052C166.971 5.28265 169.199 5.7463 171.419 6.23204C173.639 6.71947 175.85 7.25278 178.073 7.73169C181.791 8.53504 185.458 9.56596 189.147 10.4933C191.219 11.0147 193.257 11.6651 195.307 12.2613C196.032 12.4702 196.757 12.6842 197.639 12.9457C196.336 13.248 195.212 13.1155 194.111 12.8353C191.832 12.2528 189.578 11.5887 187.313 10.9501C185.882 10.5459 184.442 10.1587 182.994 9.8326C181.258 9.43858 179.536 8.997 177.805 8.5843C175.536 8.04082 173.245 7.58904 170.961 7.09652C169.007 6.67532 167.059 6.20826 165.098 5.83465C162.347 5.31326 159.58 4.86147 156.825 4.37573C156.19 4.26364 155.56 4.12268 154.923 4.02078C154.561 3.96303 154.599 3.84414 154.794 3.61487H154.794ZM104.685 3.32954C104.734 3.18857 104.904 3.18857 105.038 3.15461C108.406 2.32409 111.781 1.54456 115.24 1.13865C117.874 0.829545 120.517 0.788787 123.01 0.659696C124.785 0.770091 126.409 0.489861 128.037 0.559492C131.031 0.68857 134.036 0.693656 137.016 0.951809C139.98 1.20996 142.952 1.39507 145.901 1.76025C148.659 2.09822 151.405 2.53642 154.16 2.92703C154.45 2.96779 154.484 3.07139 154.311 3.30747C154.06 3.64884 153.788 3.8849 153.329 3.77451C152.207 3.50956 151.055 3.38897 149.922 3.18007C148.747 2.96268 147.54 2.83191 146.335 2.70964C145.186 2.59585 144.043 2.44469 142.893 2.32071C141.843 2.20862 140.797 2.08464 139.742 2.01331C137.281 1.85027 134.819 1.73138 132.353 1.62099C129.265 1.48682 126.186 1.53607 123.104 1.57004C121.521 1.58702 119.931 1.66514 118.348 1.77384C117.001 1.86895 115.665 2.12031 114.321 2.18994C111.431 2.3411 108.705 3.24633 105.921 3.89511C105.515 3.99022 105.191 3.93587 104.9 3.64205C104.81 3.55374 104.629 3.4926 104.685 3.32955L104.685 3.32954ZM75.8875 14.9022C78.4656 13.6555 81.0079 12.3206 83.6475 11.2235C86.4668 10.0499 89.2757 8.84067 92.1649 7.82167C93.9685 7.18306 95.74 6.4188 97.5383 5.73945C99.2571 5.08897 100.991 4.47589 102.72 3.85258C103.124 3.70652 104.038 4.10564 104.237 4.49119C104.339 4.6916 104.199 4.73746 104.074 4.78501C101.366 5.82779 98.6424 6.82814 95.9554 7.91849C94.1586 8.64879 92.4126 9.50644 90.6428 10.3013C88.35 11.3305 86.1098 12.4752 83.8767 13.625C82.3601 14.4063 80.8791 15.2639 79.4067 16.1301C77.5606 17.2188 75.5667 17.2357 73.532 17.0217C73.1108 16.9776 72.6896 16.9029 72.09 16.8145C73.4504 16.1267 74.6597 15.4949 75.8876 14.9022L75.8875 14.9022ZM77.1748 17.5244C75.3219 18.253 73.4758 17.6365 71.6313 17.4242C73.4775 17.5839 75.3253 17.6263 77.1748 17.5244ZM32.2574 21.6939C34.5553 21.1164 36.8396 20.4626 39.1631 20.0023C42.2694 19.3858 45.3979 18.8661 48.5348 18.4178C50.7172 18.1087 52.9353 18.0509 55.1226 17.7724C57.3475 17.4904 59.5705 17.3868 61.8057 17.4344C61.8447 17.4344 61.8804 17.4497 61.9178 17.4582C51.6987 18.1443 41.646 19.9514 31.6291 22.0503C31.7565 21.7192 32.0367 21.7497 32.2575 21.6937L32.2574 21.6939ZM28.0506 23.5587C31.4235 22.572 34.8884 21.9979 38.3136 21.2506C40.6064 20.7496 42.9197 20.3182 45.2379 19.9378C47.2046 19.6185 49.1952 19.4368 51.1719 19.1634C52.7395 18.946 54.3003 18.6793 55.868 18.4501C56.4471 18.3651 57.0347 18.2768 57.6189 18.27C59.7742 18.2429 61.9107 17.966 64.0607 17.8879C65.5451 17.8369 67.0243 17.6756 68.5072 17.572C69.4787 17.5041 70.3771 17.8641 71.3197 17.9779C71.318 18.0323 71.3129 18.0883 71.3095 18.1427C70.2107 18.1919 69.1135 18.2378 68.0147 18.2904C67.0042 18.3414 65.992 18.3617 64.9882 18.4365C63.8996 18.5197 62.8042 18.5503 61.7189 18.7354C60.564 18.9307 59.387 18.9782 58.2219 19.1158C56.6985 19.2941 55.1801 19.5438 53.655 19.6729C51.6237 19.841 49.6248 20.2062 47.6189 20.534C45.0475 20.9534 42.4676 21.3152 39.9102 21.8094C37.2947 22.3156 34.6641 22.696 32.0367 23.1138C30.5863 23.3448 29.141 23.608 27.6923 23.8559C27.5853 23.8746 27.4732 23.9307 27.3373 23.8101C27.5615 23.6284 27.8163 23.6267 28.0506 23.5587L28.0506 23.5587ZM18.1101 26.9249C19.6166 26.4935 21.1468 26.1385 22.6432 25.6851C23.9067 25.3029 25.1975 25.1178 26.5002 24.9955C27.2509 24.9276 27.2746 24.9887 27.0742 25.7258C27.0368 25.8566 26.9825 25.984 26.9298 26.1114C26.5834 26.9656 26.5137 27.003 25.6102 26.8315C25.4573 26.8026 25.2977 26.7652 25.1448 26.7805C24.2192 26.8603 23.3072 26.7058 22.3867 26.6514C21.5765 26.6056 21.4254 26.7058 21.2879 27.487C21.1299 28.3906 20.9244 29.2941 21.1486 30.2163C21.1775 30.3386 21.1758 30.4626 21.0144 30.4863C19.5946 30.6986 18.19 30.9993 16.7481 31.0247C16.3982 31.0298 16.1401 30.9007 15.8768 30.6375C14.2804 29.0478 14.3109 29.2058 12.9013 30.3403C12.1948 30.9093 11.4967 31.147 10.5779 30.9449C9.76776 30.7649 8.91689 30.7666 8.08467 30.6885C9.5402 29.9429 11.0568 29.4317 12.5616 28.9068C14.4213 28.2581 16.2199 27.4632 18.1103 26.9248L18.1101 26.9249ZM22.9319 28.664C22.9319 27.2204 22.9319 27.2306 24.3857 27.2153C24.8578 27.2102 25.3181 27.2782 25.7834 27.3376C26.1197 27.3818 26.1978 27.5074 25.9923 27.7962C25.3079 28.7626 24.3738 29.4249 23.3412 29.965C23.0881 30.0992 22.9268 30.0397 22.9301 29.7187C22.9352 29.3706 22.9318 29.0173 22.9318 28.664L22.9319 28.664ZM15.3893 30.9365C14.5469 31.2286 13.7724 31.1606 12.891 31.1216C13.2714 30.6562 13.6841 30.4304 14.0526 30.1518C14.27 29.987 14.4636 30.0957 14.6352 30.2401C14.8814 30.4541 15.1141 30.6817 15.3893 30.9365ZM4.87273 31.2744C7.28612 29.5676 10.1666 29.0411 12.8706 28.0679C12.8807 28.0662 12.9028 28.0849 13.0404 28.1698C11.5815 28.698 10.2177 29.1871 8.85731 29.6848C8.4514 29.8325 8.04718 29.9837 7.64979 30.1552C7.30672 30.3013 7.11479 30.5713 7.19462 30.9534C7.27274 31.3203 7.50882 31.4544 7.90962 31.502C10.9939 31.8451 14.0866 31.9079 17.1809 31.806C19.134 31.7432 21.0736 31.412 22.964 30.9059C23.8505 30.6681 24.6267 30.1467 25.3723 29.5845C26.821 28.4891 27.4851 26.9571 27.9164 25.2775C27.9453 25.1637 28.0166 25.0244 27.9776 24.9361C27.6651 24.2279 28.2408 24.2466 28.6196 24.1837C32.6226 23.5383 36.6222 22.876 40.6322 22.29C43.0031 21.9418 45.3944 21.7227 47.7791 21.4425C49.7561 21.2115 51.7312 20.9704 53.71 20.7564C54.4301 20.6783 55.1587 20.6103 55.8788 20.629C57.2545 20.663 58.6302 20.5577 59.9957 20.4779C63.8935 20.252 67.7896 20.0414 71.6905 20.1705C73.7727 20.2384 75.8498 20.2384 77.9305 20.2605C78.3194 20.2622 78.3857 20.3284 78.2209 20.7326C77.798 21.7618 77.3684 22.8097 77.4634 23.9663C77.5416 24.9106 77.3004 25.8379 77.3445 26.7805C77.3615 27.1406 77.1815 27.2578 76.8436 27.2645C76.2202 27.2764 75.6258 27.3495 75.4967 26.4561C75.439 26.0519 74.9651 25.9432 74.5813 25.9602C73.1903 26.023 71.8028 25.9025 70.4101 26.0502C69.3418 26.164 68.248 26.1012 67.1662 26.074C64.515 26.0027 61.8671 26.2591 59.2145 26.2048C58.5164 26.1895 58.2549 26.5122 58.3942 27.1864C58.4961 27.6909 58.1088 27.4734 57.9611 27.4734C57.5637 27.4684 57.3616 27.5788 57.404 28.0135C57.4329 28.3074 57.5569 28.4347 57.8575 28.4178C58.1326 28.4025 58.4078 28.4127 58.6829 28.4025C59.2349 28.3838 59.6765 28.5672 60.1333 28.9137C61.1217 29.661 62.1781 30.2605 63.5233 30.1892C64.9533 30.1144 66.3969 30.2333 67.8286 30.1603C70.1859 30.0414 72.5399 30.072 74.8973 30.0499C75.5529 30.0448 75.7125 29.8495 75.6769 29.2058C75.6667 29.0309 75.6752 28.8525 75.6616 28.6742C75.6429 28.3379 75.7737 28.1817 76.1337 28.1613C77.348 28.0815 77.3022 28.0713 77.3582 29.2941C77.4465 31.1759 77.3956 33.0611 77.4771 34.9428C77.5892 37.4632 77.6792 39.9902 78.0393 42.4972C78.0563 42.6143 78.0342 42.7349 78.0563 42.8504C78.1633 43.4075 77.9204 43.5349 77.3837 43.5535C76.0964 43.6028 74.8073 43.7047 73.525 43.8576C72.1476 44.0206 70.7567 44.1157 69.3742 44.2397C67.5043 44.4095 65.6327 44.5726 63.7629 44.7611C63.4436 44.7951 63.2109 44.773 63.2975 44.4061C63.5455 43.3599 63.3094 42.3324 63.1668 41.3134C62.7082 38.0321 61.448 35.036 59.6902 32.2577C58.3688 30.167 56.6739 28.4296 54.5202 27.1269C52.8524 26.118 51.1167 25.4047 49.2041 24.9988C46.716 24.4672 44.2398 24.5539 41.7363 24.7458C39.7475 24.8986 37.9014 25.4965 36.1367 26.3473C34.9309 26.9298 33.9203 27.8181 32.8894 28.6724C30.8955 30.3215 29.4859 32.3902 28.4125 34.7102C28.1084 35.3709 27.7212 35.6409 26.9417 35.6647C25.065 35.7225 23.1968 35.9908 21.3199 36.0757C19.9494 36.1386 18.5805 36.2676 17.2099 36.3458C15.2941 36.4528 13.3801 36.626 11.466 36.767C10.6643 36.8247 9.86441 36.8774 9.0628 36.9198C8.33928 36.9589 7.62428 37.0506 6.89567 37.071C6.39976 37.0863 6.25028 36.9181 6.29615 36.4748C6.3522 35.9195 6.16707 35.3522 6.49146 34.807C6.62563 34.5812 6.33351 34.3468 6.17726 34.1549C5.69322 33.5638 5.19052 32.9864 4.6963 32.4022C4.1647 31.7755 4.20209 31.7517 4.87293 31.2744L4.87273 31.2744ZM73.3597 28.2836C73.6348 28.2853 73.8981 28.2836 74.1341 28.2836V28.2785C74.2513 28.2785 74.4194 28.2887 74.5366 28.2768C74.8678 28.2428 75.2211 28.129 75.2143 28.6997C75.2075 29.2041 75.0665 29.4419 74.5502 29.3773C74.1443 29.3264 73.7401 29.2873 73.3359 29.2313C73.02 29.1871 72.9147 28.9731 72.9249 28.6793C72.9283 28.3651 73.0879 28.2819 73.3597 28.2836L73.3597 28.2836ZM72.9979 27.1542C72.9962 26.9928 73.1219 26.9164 73.2663 26.8892C73.7061 26.8009 74.1477 26.7194 74.5876 26.6429C74.8611 26.5971 75.0598 26.7109 75.0971 26.9962C75.1379 27.3087 74.8441 27.2527 74.6861 27.2934C74.4263 27.3614 74.1511 27.3681 73.8794 27.4004C73.8794 27.3902 73.8777 27.3817 73.8777 27.3715C73.6824 27.3715 73.4854 27.3766 73.2918 27.3698C73.1474 27.3631 72.9996 27.3342 72.9979 27.1542V27.1542ZM66.4184 28.2785C68.2441 28.2971 70.0698 28.2836 71.8988 28.2836C72.2011 28.2836 72.5238 28.2598 72.5 28.7116C72.4813 29.1039 72.3692 29.396 71.8818 29.3841C70.9205 29.362 69.9542 29.2992 68.9997 29.3722C67.393 29.4962 65.7864 29.5132 64.1762 29.4894C63.2845 29.4775 62.4982 29.165 61.7832 28.4568C63.4035 28.3209 64.9082 28.2615 66.418 28.2785L66.4184 28.2785ZM61.0601 27.4921C60.8852 27.4853 60.7051 27.4768 60.5421 27.4208C60.3723 27.363 60.2211 27.217 60.2568 27.0217C60.2958 26.8179 60.5047 26.8705 60.6508 26.8688C61.7293 26.8671 62.8112 26.8756 63.8896 26.8688C66.3777 26.8467 68.8657 26.6769 71.3574 26.7499C71.5323 26.755 71.7107 26.7499 71.8856 26.755C72.1166 26.7618 72.3339 26.806 72.3442 27.0964C72.356 27.4497 72.0843 27.3732 71.8822 27.3732C70.4895 27.3783 69.0952 27.3749 67.7025 27.3749C66.4457 27.3749 65.1906 27.341 63.9355 27.3868C62.9759 27.4225 62.018 27.5363 61.0602 27.4921L61.0601 27.4921ZM5.50359 35.9704C4.62385 35.9772 3.74576 35.9806 2.86942 35.9806C2.75223 35.9806 2.61296 35.9568 2.60107 35.8158C2.58409 35.6205 2.75223 35.6086 2.8864 35.6069C3.33474 35.6001 3.78483 35.6052 4.23322 35.6052C4.64253 35.6052 5.05183 35.6001 5.46283 35.6069C5.59361 35.6086 5.77024 35.6001 5.78892 35.7768C5.8093 35.9738 5.63437 35.9704 5.50359 35.9704H5.50359ZM5.77533 36.8841C5.77023 37.0421 5.57152 37.037 5.45603 37.037C5.04672 37.0387 4.6476 37.037 4.17547 37.037V37.0421C3.82051 37.0421 3.36873 37.0472 2.94077 37.0404C2.8049 37.0387 2.67243 37.0166 2.67243 36.8332C2.67243 36.6769 2.82867 36.6633 2.94247 36.665C3.79673 36.6837 4.66121 36.5937 5.51551 36.7194C5.63779 36.7398 5.78046 36.7296 5.77536 36.8841L5.77533 36.8841ZM2.82698 34.5489C3.56915 34.5472 4.30968 34.5489 5.05016 34.559C5.17244 34.5607 5.29302 34.6168 5.29302 34.7612C5.29302 34.9242 5.09261 34.9174 4.98052 34.9191C4.61028 34.9259 4.17209 34.9208 3.81882 34.9208V34.9191C3.46386 34.9191 3.16665 34.9208 2.81508 34.9174C2.6979 34.9174 2.5892 34.8953 2.57222 34.7527C2.55523 34.5998 2.70809 34.5489 2.82698 34.5489H2.82698ZM1.82663 44.0715C1.47167 44.2464 1.32733 44.1938 1.3392 43.7692C1.35109 43.2002 1.3409 42.6228 1.3409 42.0334H1.34599C1.34599 41.4441 1.32901 40.8786 1.35109 40.2909C1.36807 39.8629 2.00157 39.4876 2.39048 39.6353C2.55182 39.6965 2.54843 39.8493 2.56371 39.9852C2.63674 40.7817 2.70977 41.58 2.77771 42.3765C2.7828 42.4546 2.73185 42.5463 2.75903 42.6126C3.14456 43.5484 2.44313 43.7641 1.82663 44.0715V44.0715ZM2.8032 37.7823C2.80999 37.5921 2.95945 37.6091 3.09022 37.6074C3.49953 37.6023 3.82053 37.6074 4.29266 37.6074V37.6142C4.64762 37.6142 5.13674 37.6091 5.54605 37.6159C5.66324 37.621 5.8042 37.6652 5.78382 37.8197C5.76854 37.942 5.65984 37.959 5.56473 37.959C4.72743 37.9641 3.89182 37.9692 3.05456 37.9658C2.93737 37.9641 2.79811 37.925 2.8032 37.7823H2.8032ZM4.7682 43.6402C4.43871 43.6385 4.08376 43.5552 3.75598 43.5213C3.48254 43.4941 3.39083 43.3209 3.35686 43.0831C3.22609 42.1914 3.13947 41.2964 3.13268 40.3946C3.12249 39.4894 3.13947 39.4894 4.08716 39.4894C4.52024 39.4894 4.94825 39.4996 5.38303 39.4962C6.00125 39.4945 6.28824 39.2193 6.30524 38.6147C6.33412 37.5583 6.36129 37.5465 7.43298 37.4853C9.34872 37.3749 11.2628 37.2713 13.1769 37.1303C15.6158 36.9554 18.0512 36.7363 20.4917 36.5563C21.8385 36.4544 23.1921 36.4323 24.5355 36.2981C25.3507 36.2183 26.1761 36.2472 26.9896 36.0909C27.6588 35.9602 27.7777 36.1147 27.5892 36.7652C26.9115 39.0937 26.5005 41.4595 26.5124 43.8865C26.5124 44.2754 26.5837 44.6661 26.6177 45.055C26.6448 45.359 26.5429 45.5085 26.1965 45.5424C23.5895 45.8006 20.9808 46.0825 18.3739 46.3525C17.2275 46.4714 16.0811 46.5835 14.933 46.6939C14.8412 46.7041 14.7122 46.7041 14.6578 46.6498C14.5508 46.5394 14.6595 46.4324 14.7309 46.3457C15.0518 45.9602 15.2098 45.4915 15.3881 45.0363C15.6649 44.3247 15.456 43.8814 14.7071 43.9018C13.17 43.9443 12.6079 43.6453 10.1723 43.8016V43.6453C7.73851 43.6453 6.54968 43.6504 4.76794 43.6402L4.7682 43.6402ZM26.8217 46.9129C26.7775 47.0692 26.6247 47.0233 26.5296 46.9537C25.7534 46.3796 24.8566 46.5783 24.0177 46.6327C21.6943 46.7838 19.3794 47.0522 17.0477 47.0708C16.5246 47.0759 16.01 47.2797 15.4631 47.0878C16.781 46.9571 18.0973 46.8297 19.4152 46.6938C21.1832 46.5138 22.9512 46.3304 24.7209 46.1486C25.2439 46.0943 25.7705 46.0348 26.2969 45.9924C26.4838 45.9771 26.7198 45.9261 26.8133 46.1605C26.9033 46.4017 26.8897 46.6683 26.8217 46.9129H26.8217ZM10.7873 45.809H10.6633V45.1415C10.6633 44.1751 10.7262 44.1207 11.7061 44.226C12.5672 44.316 13.4537 44.3042 14.3165 44.3313C14.8668 44.3483 15.006 44.5148 14.8056 45.0396C14.3963 46.1078 13.6559 46.8517 12.5146 47.1014C12.0815 47.1931 11.6552 47.3493 11.1932 47.3188C10.9028 47.2967 10.7618 47.2355 10.7822 46.918C10.8043 46.5443 10.7873 46.1656 10.7873 45.8089L10.7873 45.809ZM10.3508 46.1826C10.4086 46.7312 10.1165 46.935 9.63585 46.9502C8.46059 46.991 7.33285 47.1863 6.16437 47.2984C5.28633 47.3816 5.30329 47.3629 5.30329 46.4866V45.7223V45.0141C5.30329 44.1938 5.27101 44.1649 6.06754 44.221C7.31415 44.3093 8.5285 44.5505 9.7802 44.6014C10.1946 44.6184 10.4018 44.8545 10.3576 45.3045C10.3288 45.5899 10.3186 45.8905 10.3508 46.1826L10.3508 46.1826ZM3.55737 48.0134C3.57435 47.8487 3.76967 47.8674 3.90044 47.8674C5.19631 47.8724 6.49383 47.9353 7.78631 47.8724C10.7619 47.7281 13.7389 47.7043 16.7163 47.6194C18.4911 47.5684 20.2608 47.3935 22.0337 47.2695C23.029 47.1982 24.0225 47.1184 25.0194 47.0385C25.7616 46.9774 26.2847 47.3799 26.7654 47.8639C26.8927 47.993 27.0133 48.635 26.9182 48.8286C26.8367 48.9985 26.6584 49.4791 26.5055 49.4791H24.087C19.4762 49.4791 14.8596 48.9628 10.2505 48.8371C8.21076 48.7811 6.16933 48.5518 4.13137 48.5008C4.05324 48.4991 3.97342 48.3786 3.8953 48.3701C3.74075 48.3531 3.53524 48.2223 3.55733 48.0134H3.55737ZM26.5161 52.0301C25.0062 52.0233 23.5065 51.9112 22.0017 51.8178C21.0116 51.7566 20.0129 51.738 19.016 51.687C16.9712 51.5851 14.9331 51.4 12.8916 51.2369C11.4718 51.1231 10.052 50.9771 8.6338 50.8446C7.66402 50.7546 6.69768 50.6815 5.74828 50.3894C4.86855 50.1211 4.31485 49.5759 3.92763 48.776C4.15861 48.6248 4.39976 48.6911 4.62568 48.6962C9.88741 48.8066 15.1487 48.7641 20.4087 48.8422C22.389 48.8711 24.3693 48.8932 26.3513 48.9204C26.7912 48.9255 26.9967 49.0443 26.9865 49.5216C26.9746 50.1856 27.0256 50.8531 27.0442 51.5189C27.0561 51.8789 26.9084 52.0301 26.5161 52.0301L26.5161 52.0301ZM28.6051 36.4422C27.8798 38.3071 27.5895 40.25 27.4315 42.2353C27.3687 43.0199 27.3415 43.8012 27.3262 44.5841C27.3211 44.7913 27.3194 45.007 27.1411 45.1735C26.7929 43.9659 26.9848 42.7584 27.1003 41.5644C27.2192 40.3399 27.4774 39.1289 27.7746 37.935C27.9104 37.3847 28.0956 36.8514 28.2739 36.313C28.3231 36.1653 28.4301 35.9818 28.6051 36.0498C28.8377 36.1381 28.6509 36.3181 28.6051 36.4421V36.4422ZM58.5233 50.1022C56.0284 55.1888 50.7972 58.6892 44.7477 58.6892C43.9206 58.6892 43.1088 58.623 42.3173 58.4973C40.3642 58.1559 38.5707 57.502 36.9825 56.5815C36.9588 56.5663 36.9333 56.5527 36.9112 56.5374C36.8603 56.5085 36.811 56.4797 36.7635 56.4491C35.2995 55.5557 34.0002 54.4229 32.9132 53.1084C32.9132 53.1084 32.9132 53.1067 32.9115 53.1067C32.8708 53.0557 32.8317 53.0065 32.7893 52.9555C30.6884 50.2976 29.4774 46.8838 29.469 43.0507C29.4503 35.1042 36.2168 28.1525 44.6016 28.0694C50.5016 28.0117 55.4372 31.2488 58.0511 35.7173C59.2026 37.7213 59.9143 40.009 60.0552 42.4512C60.0603 42.6193 60.0654 42.7891 60.0654 42.9573C60.0722 45.5711 59.5236 47.986 58.5233 50.1025L58.5233 50.1022ZM62.6011 47.48C62.5841 47.7279 62.647 47.9929 62.3107 48.3292C62.5128 47.2184 62.3515 46.2351 62.472 45.2687C62.5943 44.2819 62.5688 43.3155 62.4601 42.3424C62.3141 41.0346 62.0203 39.7575 61.6636 38.4956C61.059 36.3403 60.0841 34.3583 58.8409 32.5003C56.774 29.4025 54.0022 27.2099 50.424 26.1486C49.0891 25.7546 47.7049 25.544 46.2868 25.4421C44.5272 25.3147 42.7932 25.4523 41.0746 25.6442C39.6259 25.8072 38.2009 26.2845 36.8864 26.9655C34.9146 27.9828 33.1585 29.2804 31.7829 31.0467C31.5638 31.3286 31.3125 31.5732 31.0425 31.8008C30.3614 32.9863 29.6838 34.1768 28.9942 35.3572C28.9552 35.4251 28.8329 35.4455 28.5849 35.5712C29.2643 34.0817 29.9419 32.7876 30.8947 31.653C31.6454 30.3997 32.7867 29.525 33.8584 28.5824C35.9694 26.7295 38.461 25.6578 41.2088 25.2706C43.8464 24.9003 46.4858 24.9275 49.1336 25.4778C52.0819 26.0891 54.5701 27.5039 56.7253 29.4944C58.3761 31.0179 59.6108 32.8962 60.5891 34.9409C61.5453 36.9348 62.2756 38.9949 62.6373 41.1809C62.8734 42.6075 62.9974 44.0393 62.7562 45.4863C62.6475 46.1435 62.6475 46.8144 62.6016 47.4802L62.6011 47.48ZM95.1876 50.8852C98.299 50.892 101.409 50.5608 104.525 50.8003C101.414 50.7306 98.3041 51.0347 95.1876 50.8852ZM105.405 50.7001C105.578 50.5251 105.743 50.5778 105.887 50.5812C110.306 50.6644 114.72 50.4742 119.14 50.4334C122.142 50.4046 125.148 50.4402 128.146 50.3145C130.68 50.2076 133.212 50.3366 135.74 50.2143C137.227 50.143 138.717 50.0751 140.203 50.1175C142.611 50.1838 145.02 50.3383 147.43 50.3485C147.593 50.3485 147.788 50.3111 147.908 50.6118C133.729 50.5523 119.592 50.8648 105.405 50.7001ZM152.488 49.7031C152.472 50.036 152.304 50.1855 152.004 50.1396C150.718 49.9375 149.415 50.1073 148.124 49.9647C147.989 49.9494 147.851 49.9154 147.715 49.9137C144.24 49.9137 140.77 49.5316 137.299 49.6878C134.473 49.8152 131.64 49.6776 128.819 49.8186C126.226 49.9477 123.63 49.7745 121.046 49.9307C118.513 50.0836 115.98 49.8899 113.454 50.0445C110.92 50.1973 108.384 50.0173 105.857 50.1668C103.756 50.2891 101.655 50.1906 99.5578 50.2738C96.7164 50.3859 93.8734 50.4487 91.0287 50.5166C88.1261 50.5829 85.2235 50.6695 82.3213 50.7544C79.536 50.8376 76.7522 50.8954 73.9669 50.9786C71.0475 51.0635 68.1278 51.1688 65.2069 51.2198C64.5853 51.23 63.962 51.3336 63.3319 51.3319C62.9566 51.3302 62.7766 51.1688 62.8003 50.7986C62.8784 49.664 62.9583 48.5312 63.0466 47.4001C63.0687 47.1233 63.2759 47.0469 63.5069 47.0536C64.2932 47.0774 65.0676 46.9195 65.8557 46.9144C68.1298 46.8957 70.3987 46.731 72.6731 46.6664C74.65 46.6104 76.6303 46.5373 78.6039 46.4185C80.4008 46.3064 82.1994 46.235 83.9961 46.1331C85.3225 46.0601 86.6591 46.0058 87.9941 45.9718C89.6551 45.9276 91.3144 45.8189 92.9754 45.7459C94.9727 45.661 96.9682 45.571 98.9654 45.5115C102.552 45.4062 106.134 45.6236 109.719 45.6644C111.757 45.6916 113.802 45.7816 115.838 45.7136C118.079 45.6406 120.321 45.7357 122.551 45.5998C124.47 45.481 126.392 45.5778 128.308 45.3977C131.294 45.1158 134.285 44.9426 137.281 44.7914C137.534 44.7761 137.785 44.7184 138.038 44.6946C138.211 44.6776 138.435 44.7218 138.435 44.4687C138.435 44.2666 138.233 44.2649 138.081 44.248C137.379 44.1749 136.681 44.0832 135.976 44.0289C134.629 43.9321 133.279 43.8879 131.934 43.7656C131.024 43.6807 130.1 43.6875 129.117 43.4497C130.39 42.1658 131.504 40.8563 132.423 39.3889C132.619 39.0798 132.894 39.0221 133.23 39.0187C134.736 39.0119 136.25 38.9678 137.75 38.9049C140.12 38.8047 142.488 38.7436 144.859 38.6519C147.247 38.5618 149.638 38.4158 152.031 38.4311C152.381 38.4328 152.729 38.3529 153.081 38.3173C153.495 38.2765 153.599 38.4871 153.517 38.8608C153.388 39.4331 153.283 40.0156 153.151 40.5846C152.847 41.8685 152.813 43.1797 152.731 44.4874C152.622 46.2181 152.558 47.9623 152.488 49.7031L152.488 49.7031ZM154.887 36.0314C154.634 37.368 154.448 38.7216 154.101 40.0361C153.712 41.5137 153.675 43.0219 153.563 44.5183C153.423 46.3543 153.379 48.1953 153.294 50.0331C153.289 50.1299 153.282 50.2301 153.265 50.3252C153.247 50.4203 153.225 50.5375 153.102 50.5341C152.975 50.5324 152.951 50.4203 152.951 50.3201C152.941 49.831 152.89 49.3317 152.953 48.8493C153.009 48.4162 153.031 47.9899 153.041 47.562C153.097 44.6255 153.267 41.6942 154.025 38.8459C154.234 38.0578 154.256 37.2222 154.619 36.4716C154.695 36.3136 154.714 36.1285 154.887 36.0317C154.799 35.8177 154.809 35.6156 154.894 35.4016C155.536 33.8018 156.496 32.387 157.445 30.9673C157.489 30.9061 157.559 30.862 157.623 30.8212C157.647 30.8059 157.695 30.828 157.775 30.8382C157.737 31.1915 157.501 31.4377 157.313 31.6857C156.399 32.8864 155.728 34.2112 155.196 35.6123C155.127 35.7838 155.044 35.9316 154.887 36.0318L154.887 36.0314ZM189.551 36.85C189.461 36.7226 189.317 36.6122 189.286 36.473C188.906 34.9699 188.098 33.6723 187.35 32.3442C187.311 32.2763 187.279 32.2049 187.26 32.1319C187.25 32.103 187.287 32.064 187.349 31.9298C188.383 33.4974 189.22 35.0837 189.679 36.855C190.156 37.6787 190.236 38.6112 190.341 39.5164C190.55 41.2844 190.694 43.0643 190.579 44.8459C190.523 45.7817 190.377 46.7108 190.254 47.6381C190.236 47.7943 190.22 48.0576 189.962 47.9693C189.779 47.9081 189.852 47.7043 189.906 47.5549C190.091 47.0284 190.003 46.4713 190.057 45.9329C190.181 44.6676 190.185 43.3904 190.193 42.1184C190.205 40.5083 189.998 38.9186 189.585 37.3579C189.538 37.1864 189.444 37.0268 189.551 36.8501L189.551 36.85ZM216.846 43.2817C216.706 43.8133 216.195 44.0511 215.764 44.3093C215.511 44.4621 215.263 44.6082 215.049 44.8154C214.59 45.2519 214.028 45.4336 213.417 45.5389C211.413 45.8871 209.392 46.1503 207.403 46.5885C207.348 46.6004 207.289 46.5834 207.121 46.5732C207.457 46.2013 207.815 46.006 208.15 45.7801C209.111 45.1347 210.086 44.5097 211.01 43.8151C211.644 43.3447 212.337 43.2071 213.087 43.1459C213.924 43.0797 214.757 42.954 215.596 42.9048C216.321 42.8657 216.555 42.3392 216.813 41.8144C216.915 41.6123 216.91 41.3541 217.212 41.1809C217.087 41.9214 217.014 42.6144 216.846 43.2818L216.846 43.2817ZM212.1 42.2253C212.889 41.5613 213.646 40.8496 214.483 40.2501C215.017 39.8697 215.703 40.1024 216.324 40.0973C216.521 40.0973 216.516 40.2756 216.436 40.4047C216.127 40.8972 216.064 41.4729 215.859 42.0045C215.767 42.2474 215.64 42.3544 215.392 42.3527C214.319 42.351 213.24 42.3527 212.165 42.3527C212.14 42.3136 212.119 42.2695 212.1 42.2253L212.1 42.2253ZM218.44 38.7929C217.591 39.0341 216.723 38.9492 215.867 38.9152C215.388 38.8932 215.04 39.0392 214.696 39.3296C212.731 40.9822 210.765 42.6313 208.792 44.2753C207.802 45.1007 206.81 45.9312 205.783 46.7125C205.214 47.1455 204.468 47.0504 203.801 47.171C201.533 47.582 199.245 47.8334 196.956 48.1136C195.11 48.3395 193.257 48.506 191.413 48.7149C190.896 48.7726 190.387 48.9102 189.704 48.7862C190.417 48.3752 191.07 48.4007 191.671 48.3667C193.595 48.2597 195.462 47.8555 197.321 47.4071C199.422 46.9027 201.314 45.9126 203.228 44.9547C205.198 43.9713 206.902 42.6126 208.563 41.2149C209.562 40.3775 210.379 39.3263 211.258 38.3514C211.562 38.0152 211.943 37.8929 212.354 37.847C214.341 37.6228 216.336 37.5379 218.335 37.6041C218.604 37.6143 219.013 37.475 219.05 37.9013C219.088 38.3106 218.901 38.6656 218.441 38.793L218.44 38.7929Z" fill="black"/>
</g>
<defs>
<clipPath id="clip0_4_1026">
<rect width="219.565" height="60" fill="white"/>
</clipPath>
</defs>
</svg>
