<svg width="163" height="60" viewBox="0 0 163 60" fill="none" xmlns="http://www.w3.org/2000/svg">
<g clip-path="url(#clip0_4_904)">
<path fill-rule="evenodd" clip-rule="evenodd" d="M147.145 6.79999C148.536 7.94163 149.887 9.0505 151.235 10.1593C153.096 11.6916 154.936 13.2503 156.714 14.8758C156.911 15.056 157.064 15.0875 157.334 15.0396C158.608 14.814 159.534 15.4403 160.237 16.4522C160.516 16.8529 160.478 17.2926 160.037 17.6026C159.723 17.8231 159.704 18.0399 159.925 18.3523C160.216 18.7619 160.43 19.2268 160.729 19.6313C161.607 20.8284 161.413 22.1754 161.332 23.5187C161.278 24.4109 161.063 25.2324 160.533 25.9595C160.42 26.1132 160.449 26.2833 160.463 26.4471C160.585 27.9378 160.722 29.4272 160.843 30.9204C160.91 31.7407 160.934 32.5661 161.073 33.3813C161.126 33.6976 160.86 33.7342 160.686 33.811C160.414 33.932 160.381 34.0832 160.468 34.3516C160.932 35.7843 161.409 37.2145 161.747 38.6838C161.812 38.9661 161.946 39.1916 162.218 39.3668C162.652 39.6428 162.576 40.1707 162.571 40.5677C162.558 41.6929 162.484 42.8207 162.324 43.9383C162.299 44.1185 162.214 44.2495 162.086 44.363C161.185 45.1744 160.27 45.9847 159.223 46.5908C158.536 46.9864 157.741 47.207 156.977 47.4577C154.877 48.1495 152.756 48.7745 150.581 49.1953C150.256 49.2583 150.019 49.4877 149.786 49.6994C149.61 49.8581 149.436 50.0207 149.286 50.2021C148.428 51.248 147.279 51.3312 146.063 51.185C145.446 51.1094 144.837 50.9973 144.224 50.9103C143.874 50.8612 143.666 50.5966 143.462 50.366C143.084 49.9438 142.615 50.124 142.179 50.119C141.988 50.1177 142.015 50.3471 141.976 50.4819C141.414 52.4993 140.434 54.2787 138.992 55.8006C137.004 57.8961 134.606 59.218 131.738 59.6325C127.065 60.3105 123.186 58.7908 120.085 55.2877C118.836 53.8764 117.991 52.2118 117.561 50.3583C117.483 50.032 117.364 49.8707 116.97 49.8833C114.641 49.9513 112.313 49.9803 109.983 50.0332C107.401 50.0924 104.824 50.1668 102.242 50.2323C99.5432 50.3004 96.8442 50.3684 94.1474 50.4365C91.5819 50.502 89.0191 50.5725 86.4558 50.6368C83.7391 50.7074 81.0236 50.7729 78.3081 50.8422C75.7791 50.9077 73.2475 50.9783 70.7175 51.0413C67.9856 51.1119 65.2526 51.1774 62.5194 51.2454C59.9375 51.3109 57.3581 51.379 54.7775 51.4458C52.2812 51.5113 49.7862 51.5844 47.29 51.6323C47.0267 51.6373 46.9574 51.7482 46.8767 51.936C45.0446 56.1521 41.8703 58.7921 37.3658 59.5898C31.48 60.6319 25.9874 57.5485 23.6422 52.3001C23.5213 52.028 23.3461 51.9221 23.0626 51.9171C21.0414 51.8742 19.0342 51.6537 17.0206 51.5038C15.1129 51.3614 13.2329 50.9834 11.3464 50.6759C9.76884 50.4176 8.1849 50.2336 6.58322 50.1832C5.27022 50.1404 3.94713 49.9703 2.87613 49.1097C2.09994 48.4847 1.92352 47.5219 1.73448 46.597C1.70172 46.4433 1.85041 46.3791 1.9676 46.3047C2.32547 46.0829 2.6556 45.8145 3.03112 45.6293C3.42173 45.4378 3.37763 45.2412 3.18484 44.9287C2.44391 43.7278 1.76978 42.4829 0.977168 41.3174C0.3862 40.4517 0.286651 39.484 0.106457 38.5175C0.0686538 38.3209 0.0484929 38.118 0.0220316 37.9177C-0.0485329 37.3834 0.0774774 36.9373 0.517258 36.5757C1.09184 36.1006 1.70803 35.6936 2.37461 35.371C2.68207 35.2223 2.7161 35.0598 2.63293 34.7599C2.26751 33.4267 2.08606 32.0696 2.01928 30.6847C1.94872 29.218 2.55609 28.1255 3.62715 27.2144C5.03844 26.0174 6.66015 25.1844 8.34877 24.4662C11.4448 23.1494 14.6681 22.2749 17.9772 21.6789C20.4255 21.2379 22.8813 20.8838 25.3462 20.5574C28.0302 20.2021 30.7255 19.9412 33.4194 19.6754C35.612 19.4586 37.8159 19.3288 40.0146 19.16C40.1507 19.1511 40.3019 19.1638 40.3825 19.0377C40.7631 18.4455 41.3565 18.5211 41.9236 18.5551C42.3104 18.5803 42.6191 18.477 42.8359 18.1481C43.0904 17.7638 43.4558 17.6605 43.8477 17.8407C44.5849 18.1809 45.1506 17.9604 45.826 17.5609C49.3934 15.4478 52.997 13.3938 56.5996 11.3374C59.6792 9.57832 62.8041 7.90126 65.9847 6.32609C68.7128 4.97277 71.616 4.15622 74.5544 3.45057C75.9556 3.11287 77.3669 2.83313 78.8109 2.70084C79.4724 2.64161 80.0886 2.29635 80.6896 2.00655C81.9031 1.42187 83.2022 1.29964 84.5103 1.20638C86.4256 1.06777 88.3396 0.924124 90.2561 0.806931C91.4506 0.735105 92.6477 0.703606 93.8461 0.658241C95.75 0.587677 97.6541 0.522151 99.558 0.452848C106.128 0.205874 112.698 0.290296 119.269 0.301638C121.986 0.305419 124.702 0.402444 127.417 0.504511C129.029 0.563734 130.645 0.614136 132.217 1.03751C133.743 0.791794 133.895 1.88806 134.941 2.48032C135.865 3.00451 137.058 2.63909 138.115 2.72729C139.523 2.84448 140.931 2.97679 142.339 3.09397C143.715 3.20738 145.087 3.33969 146.451 3.54381C147.297 3.66982 148.142 3.83993 148.855 4.349C149.646 4.91478 149.63 5.49568 148.793 5.97829C148.278 6.27945 147.736 6.51129 147.145 6.79987L147.145 6.79999ZM103.145 25.351C105.661 25.3006 108.16 25.5059 110.644 25.8789C112.102 26.0969 113.547 26.3943 114.952 26.8631C115.077 26.9046 115.269 26.9046 115.209 27.0873C115.153 27.2575 115.001 27.1075 114.913 27.0798C111.718 26.112 108.435 25.7592 105.122 25.5954C102.401 25.4618 99.6921 25.6899 96.9779 25.7983C94.6228 25.8928 92.2702 26.0616 89.9128 26.1524C89.4465 26.17 89.3054 26.3099 89.2928 26.7358C89.2588 27.8308 89.2172 28.9258 89.1517 30.0184C89.1013 30.8903 89.0269 31.7649 88.9362 32.6343C88.7812 34.1036 88.5997 35.5716 88.4435 37.042C88.3263 38.1282 88.2532 39.2169 88.102 40.2969C87.9634 41.2798 87.9899 41.3415 88.9488 41.2709C91.2862 41.0945 93.6288 41.0252 95.9723 40.9824C97.0673 40.9622 98.1636 40.9937 99.2598 41.0315C101.367 41.1071 103.472 41.1348 105.579 41.2445C106.774 41.3062 107.98 41.2697 109.163 41.4183C109.788 41.4977 110.013 41.315 110.234 40.7971C111.442 37.9443 112.714 35.1181 113.897 32.2552C115.018 29.5422 116.835 27.5903 119.65 26.6339C120.946 26.1929 122.283 25.9547 123.638 25.8753C125.066 25.7921 125.067 25.8249 125.067 24.4262C125.067 24.1225 125.081 23.8176 125.063 23.5139C124.964 21.7901 124.659 20.1217 123.859 18.5655C123.743 18.3438 123.633 18.2354 123.375 18.253C122.584 18.311 121.795 18.3438 121.003 18.4017C119.408 18.5177 117.815 18.6474 116.221 18.7646C115.062 18.8491 113.904 18.9158 112.744 18.999C111.049 19.12 109.353 19.2498 107.66 19.377C106.535 19.4602 105.41 19.5446 104.286 19.6316C102.757 19.7475 101.233 19.8685 99.7044 19.9819C98.5968 20.065 97.4866 20.1356 96.3789 20.22C94.8202 20.3397 93.2614 20.4947 91.6989 20.5817C90.6202 20.6409 90.6114 20.5993 90.3065 21.591C89.9121 22.87 89.5857 24.1691 89.374 25.4936C89.3362 25.7355 89.2669 26.014 89.708 25.9686C91.0487 25.8275 92.3982 25.8174 93.7415 25.7469C96.8753 25.578 100.004 25.3814 103.144 25.3512L103.145 25.351ZM89.0573 27.391C89.0573 27.1037 89.0397 26.8151 89.0611 26.5291C89.0825 26.2431 88.9515 26.1889 88.7032 26.204C87.5087 26.2721 86.3128 26.33 85.1197 26.3918C82.6486 26.5203 80.1752 26.6463 77.7042 26.7761C76.2576 26.8517 74.8123 26.9311 73.3645 27.0142C71.2287 27.1352 69.0955 27.2675 66.9606 27.3822C65.3439 27.4704 63.7274 27.5359 62.1119 27.6203C59.7581 27.7413 57.4042 27.8648 55.049 27.9946C54.1418 28.045 53.2358 28.1483 52.3285 28.1647C51.8522 28.1735 51.8446 28.423 51.8282 28.7683C51.7652 30.1304 51.7111 31.4964 51.6002 32.8547C51.5384 33.6057 51.5082 34.3164 51.9379 34.9918C52.2164 35.4291 52.4079 35.9218 52.6423 36.3867C53.7083 38.4986 54.4454 40.7516 55.4535 42.89C55.7824 43.5855 55.7786 43.5565 56.5649 43.486C58.1891 43.3411 59.8184 43.2289 61.4465 43.108C63.0077 42.992 64.5702 42.8837 66.1304 42.7677C67.7231 42.648 69.3171 42.5145 70.9097 42.3998C72.1181 42.3129 73.3303 42.2498 74.5388 42.1654C76.2336 42.0457 77.9271 41.9021 79.622 41.7937C81.5386 41.6715 83.4578 41.6009 85.3704 41.4535C86.0281 41.4031 86.6871 41.4195 87.3411 41.3502C87.6272 41.3199 87.8023 41.2216 87.8313 40.8991C87.9271 39.8104 88.0392 38.7242 88.1476 37.6368C88.2862 36.2331 88.3769 34.8205 88.5772 33.4255C88.8645 31.422 88.9061 29.4046 89.0574 27.391L89.0573 27.391ZM4.9315 31.9172C6.08573 31.7798 7.23492 31.8163 8.37795 31.8617C9.5826 31.9083 10.7192 32.1918 11.445 33.3108C11.8961 34.0063 12.2376 34.7523 12.4518 35.5487C12.6736 36.3854 12.3888 36.8655 11.5483 37.12C10.3613 37.4792 9.13524 37.3582 7.93186 37.3065C5.70657 37.2057 3.48121 37.2107 1.25476 37.1225C0.874209 37.1062 0.709144 37.2738 0.704112 37.6606C0.692771 38.3764 0.884302 39.0555 0.99645 39.7511C1.04181 40.0346 1.16278 40.0964 1.39087 40.0623C2.03981 39.9628 2.56023 40.2287 3.05671 40.6067C3.24824 40.7529 3.45113 40.8952 3.73716 40.8826C5.60839 40.8033 7.482 40.7529 9.35716 40.7743C10.5038 40.7869 11.4703 41.1296 12.0852 42.178C12.3448 42.6228 12.7644 42.8572 13.2483 43.0071C13.9691 43.2277 14.71 43.1974 15.4484 43.2163C15.7647 43.2251 15.8655 43.1155 15.9574 42.8194C16.8937 39.8002 18.0126 36.8542 19.4781 34.0504C20.3954 32.2951 21.246 30.4755 22.9736 29.31C23.1739 29.1739 23.1613 29.0379 23.029 28.8564C22.6838 28.3826 22.3196 27.9189 22.0222 27.4162C21.8723 27.1591 21.7652 27.2423 21.6089 27.3406C20.5127 28.0273 19.3622 28.5024 18.0315 28.5528C16.5194 28.6107 15.0123 28.7846 13.5028 28.903C12.4116 28.9875 11.3203 29.0643 10.228 29.145C9.03593 29.2332 7.84515 29.3201 6.65312 29.4121C6.37086 29.4335 6.13648 29.3579 6.02435 29.0958C5.92102 28.8589 6.10247 28.6712 6.24234 28.52C7.13699 27.5497 8.18034 26.7949 9.47557 26.4774C11.2636 26.0364 13.0807 25.7264 14.8988 25.4303C17.5701 24.9968 20.2478 24.6099 22.9569 24.5104C23.2278 24.499 23.5264 24.4638 23.6814 24.7473C23.844 25.0472 23.7394 25.3307 23.5428 25.589C23.2139 26.0212 22.8548 26.4219 22.41 26.7357C22.1214 26.9386 22.0698 27.1276 22.3029 27.4262C22.633 27.8483 22.9266 28.302 23.2265 28.7506C23.3563 28.9434 23.4672 29.0215 23.6965 28.8589C23.9536 28.6762 24.2421 28.5338 24.5294 28.404C26.7509 27.3909 29.1198 26.9663 31.5291 26.8995C33.6536 26.8403 35.782 26.7697 37.9088 26.7798C38.8702 26.7836 39.8291 26.8377 40.7906 26.8768C42.5106 26.9486 44.2193 27.0885 45.8235 27.7891C47.7527 28.6346 49.368 29.8443 50.3396 31.7772C50.6307 32.3568 50.9319 32.9314 51.2935 33.632C51.3111 33.4291 51.3174 33.3699 51.3212 33.3107C51.3893 32.033 51.4497 30.754 51.5304 29.4775C51.5581 29.0642 51.8177 28.5362 51.5417 28.269C51.2696 28.0057 50.7428 28.2728 50.3283 28.2854C49.9881 28.2942 49.6327 28.3434 49.3089 28.1808C49.9339 28.0775 50.5475 27.9351 51.1675 27.9969C51.6123 28.0397 51.698 27.8356 51.7332 27.455C51.9097 25.3771 52.4843 23.4063 53.3713 21.5237C53.5755 21.0902 53.8842 20.6896 53.6637 20.1603C53.6259 20.0696 53.6712 19.9234 53.7191 19.8226C53.8552 19.5441 53.733 19.3967 53.4974 19.2694C52.7136 18.8473 51.9336 18.4227 51.1574 17.9854C50.9696 17.8783 50.8172 17.9136 50.637 17.9854C49.6705 18.3722 48.6801 18.6822 47.6821 18.9733C46.1725 19.4143 44.5999 19.4269 43.0627 19.6777C39.9969 20.178 36.9224 20.619 33.8401 21.0159C31.2116 21.3536 28.5956 21.7984 25.9772 22.2029C22.4805 22.7447 18.9975 23.3722 15.5159 24.0099C11.9463 24.6638 8.71787 26.0184 5.84239 28.2247C5.32449 28.6216 4.83307 29.0425 4.49284 29.7204C7.83445 29.6662 11.1057 29.8162 14.3793 29.6675C13.8715 29.956 13.3259 29.8515 12.8042 29.9308C10.7805 30.2421 8.76678 30.5962 6.77097 31.0548C6.1069 31.2149 5.45797 31.414 4.93126 31.9167L4.9315 31.9172ZM143.606 25.2184C144.289 24.94 144.951 24.79 145.614 24.6464C146.005 24.562 146.324 24.4095 146.595 24.097C147.139 23.4758 147.712 22.881 148.286 22.2837C148.544 22.0141 148.833 21.7784 148.489 21.3664C148.371 21.2252 148.375 21.0135 148.397 20.8283C148.514 19.8618 148.65 18.8991 148.754 17.9326C148.912 16.5251 148.863 15.1504 147.859 14.0175C147.378 13.4769 146.879 12.9426 146.321 12.4852C144.842 11.268 143.317 10.1062 141.829 8.89909C140.212 7.58986 138.447 6.46586 137.002 4.94618C136.902 4.84286 136.785 4.87057 136.671 4.8668C134.481 4.77607 132.293 4.68031 130.101 4.60344C127.91 4.52531 125.719 4.46105 123.526 4.39931C120.846 4.32496 118.163 4.25692 115.482 4.19643C112.933 4.14099 110.383 4.05026 107.836 4.06412C100.657 4.10066 93.4782 3.90913 86.3008 4.24305C84.7685 4.31488 83.235 4.3552 81.7092 4.48121C79.4171 4.66896 77.1314 4.95627 74.8859 5.47792C73.7582 5.74127 72.6165 5.99331 71.5859 6.52756C69.9781 7.36427 68.403 8.26143 66.8204 9.14727C64.2448 10.5875 61.6717 12.0379 59.0998 13.4831C56.8909 14.7255 54.7537 16.094 52.4669 17.1966C52.0838 17.3831 51.6542 17.4877 51.2749 17.7851C52.1204 18.2488 52.9281 18.6936 53.7358 19.1384C53.8858 19.2216 53.9614 19.2178 54.0823 19.0351C54.4918 18.4151 55.0211 17.8897 55.5743 17.3932C57.4064 15.7463 59.4578 14.4056 61.5355 13.0977C64.3985 11.2946 67.3446 9.64772 70.4607 8.31192C74.3104 6.66247 78.3149 5.62166 82.4755 5.17556C84.7752 4.92984 87.0914 4.90086 89.3959 4.887C94.1084 4.85676 98.8239 4.77485 103.535 4.93363C105.224 4.99159 106.911 4.93867 108.598 5.01805C110.905 5.12642 113.217 5.16296 115.526 5.23352C117.009 5.27637 118.497 5.28267 119.976 5.38473C122.328 5.54854 124.683 5.62163 127.029 5.86861C128.359 6.00973 129.642 6.29325 130.863 6.83006C133.379 7.93515 135.342 9.72951 137.032 11.8465C137.825 12.842 138.62 13.8513 138.989 15.1113C139.222 15.9027 139.101 16.2328 138.334 16.5415C137.347 16.941 136.292 17.0783 135.25 17.2371C133.501 17.5042 131.746 17.6718 129.981 17.7865C128.148 17.9062 126.321 18.0372 124.489 18.1481C123.924 18.1821 123.926 18.1532 124.164 18.6522C124.881 20.1567 125.228 21.752 125.266 23.4154C125.282 24.0404 125.279 24.6654 125.264 25.2929C125.257 25.5714 125.281 25.7012 125.635 25.6722C126.825 25.5752 128.021 25.4819 129.217 25.4668C131.68 25.4366 134.149 25.4492 136.616 25.4655C137.186 25.4693 137.758 25.5411 138.324 25.6117C140.032 25.8209 141.476 26.611 142.766 27.7072C142.971 27.8836 143.091 27.8736 143.258 27.6833C143.571 27.3304 143.901 26.9928 144.22 26.6462C144.655 26.1712 145.087 25.6924 145.564 25.1682C144.871 25.1153 144.275 25.3396 143.606 25.2186L143.606 25.2184ZM61.5605 20.211C61.5694 20.2387 61.5769 20.2665 61.5857 20.2942C61.839 20.2942 62.091 20.274 62.3405 20.2954C64.7233 20.521 67.115 20.6218 69.5053 20.676C71.6135 20.7226 73.7253 20.7163 75.8347 20.5916C77.4501 20.4945 79.0705 20.4618 80.6834 20.3547C82.7487 20.2186 84.8076 20.0132 86.8741 19.8972C87.3415 19.8695 87.4562 19.7045 87.5457 19.3101C88.308 15.981 89.088 12.6555 89.8592 9.3278C90.0923 8.32728 90.3103 7.3268 90.5459 6.28344H90.2221C86.8137 6.2658 83.4189 6.43465 80.0269 6.77109C77.2321 7.04579 74.5985 7.79177 72.0569 8.96238C68.7579 10.4795 65.6127 12.2714 62.5208 14.1614C62.1743 14.3731 61.7925 14.5482 61.4863 14.8772C62.861 14.9994 63.6536 15.7113 63.8073 16.8845C63.9031 17.6229 63.9119 18.3638 63.9044 19.106C63.8993 19.668 63.704 19.8885 63.1408 19.9729C62.614 20.0536 62.0861 20.1317 61.5606 20.2111L61.5605 20.211ZM90.3192 20.6936C89.1625 20.8007 88.0939 20.9066 87.0228 20.9923C85.4805 21.1132 83.9356 21.2216 82.3908 21.3262C80.3949 21.4585 78.3963 21.6059 76.3967 21.6979C73.9181 21.8113 71.4396 21.8894 68.9596 21.7395C67.2963 21.6387 65.6279 21.5883 63.9634 21.4887C61.9964 21.3716 60.0318 21.2254 58.0676 21.0981C56.8592 21.02 55.6458 20.9885 54.4399 20.8663C54.0656 20.8285 53.9346 20.9482 53.7897 21.2254C53.1445 22.4628 52.6821 23.7695 52.357 25.1177C52.1655 25.9128 52.0646 26.7306 51.9437 27.5395C51.9223 27.6857 51.8278 27.9478 52.1529 27.9352C52.7098 27.9138 53.2643 27.8848 53.8187 27.8558C56.1045 27.7336 58.389 27.6101 60.6748 27.4854C62.1542 27.406 63.636 27.3279 65.1155 27.2434C67.216 27.1237 69.3155 26.9927 71.4158 26.878C73.0476 26.7898 74.6806 26.7281 76.3113 26.6411C78.4622 26.5252 80.6119 26.3866 82.7642 26.2694C84.7816 26.1598 86.8003 26.0615 88.8177 25.9695C89.0597 25.9582 89.1517 25.8662 89.1592 25.6432C89.1895 24.8682 89.3747 24.1185 89.5687 23.3737C89.7993 22.4904 90.0614 21.6147 90.3197 20.6936L90.3192 20.6936ZM129.768 59.1356C136.241 59.2099 141.774 53.9149 141.761 47.1649C141.747 40.4688 136.432 35.4033 130.208 35.1965C123.304 34.9685 117.793 40.4333 117.787 47.1546C117.776 53.9075 123.268 59.1872 129.768 59.1356H129.768ZM23.2289 47.1207C23.1042 53.7159 28.5186 58.9149 34.6931 59.133C41.6676 59.3787 47.0444 53.8494 47.1615 47.4459C47.2862 40.4714 41.796 35.503 35.8573 35.1891C28.5538 34.8023 23.0789 40.8165 23.2289 47.1207ZM151.371 32.853C151.375 32.8038 151.376 32.7522 151.378 32.703C152.294 32.5871 153.208 32.4573 154.124 32.3616C155.965 32.1688 157.77 31.7958 159.576 31.4115C160.131 31.2955 160.214 31.0284 160.164 30.5483C160.046 29.3916 159.956 28.236 159.86 27.0793C159.782 26.138 159.573 25.8847 158.659 25.6629C158.641 25.6592 158.622 25.6629 158.609 25.6592C156.817 25.2206 154.977 25.198 153.154 25.0556C151.468 24.9233 149.783 25.0594 148.097 25.0556C147.676 25.0556 147.248 25.0442 146.834 25.1022C146.379 25.1652 145.904 25.077 145.525 25.5533C144.886 26.356 144.149 27.0793 143.433 27.8151C143.222 28.0319 143.26 28.139 143.455 28.328C144.396 29.2567 145.184 30.3 145.756 31.4983C146.909 33.9051 148.068 36.3067 149.204 38.7225C149.362 39.0552 149.545 39.1056 149.858 39.0212C150.534 38.8384 151.088 38.4755 151.484 37.906C152.072 37.0643 152.723 36.2692 153.258 35.3896C153.796 34.5076 154.478 33.7679 155.536 33.5196C156.189 33.3659 156.857 33.2903 157.532 33.2651C158.34 33.2349 159.148 33.1782 159.954 33.1454C160.27 33.1315 160.4 33.0295 160.341 32.6754C160.291 32.3705 160.133 32.3377 159.887 32.3516C158.78 32.4221 157.67 32.4801 156.56 32.557C155.268 32.6477 153.977 32.7598 152.682 32.8455C152.249 32.877 151.809 32.8531 151.371 32.8531L151.371 32.853ZM81.0096 47.7762C82.1814 47.7712 83.8334 47.63 85.4879 47.6678C86.0789 47.6817 86.6699 47.6351 87.2596 47.6401C87.5305 47.6439 87.6477 47.5771 87.6439 47.2747C87.6301 45.9718 87.6313 44.6739 87.6439 43.3708C87.6477 43.0886 87.5721 42.9575 87.2785 43.0054C86.4418 43.139 85.595 43.0924 84.7546 43.139C82.4688 43.2713 80.183 43.386 77.8972 43.5107C76.5187 43.5863 75.1401 43.6657 73.7617 43.7526C71.8791 43.8698 70.0004 44.0021 68.1178 44.118C66.7569 44.2012 65.396 44.2604 64.0352 44.3474C62.2056 44.4646 60.3772 44.6095 58.5475 44.7254C56.801 44.8388 55.052 44.9333 53.3056 45.0304C53.1178 45.0392 53.0044 45.0808 53.0598 45.2899C53.3219 46.2425 53.5084 47.2191 53.9469 48.1175C54.0729 48.3796 54.2305 48.488 54.5379 48.4553C55.9795 48.294 57.4336 48.3633 58.8789 48.304C61.3537 48.1995 63.8321 48.1554 66.3082 48.0886C68.904 48.018 71.5024 47.9374 74.0956 47.8958C76.2428 47.8592 78.3837 47.7458 81.0098 47.7761L81.0096 47.7762ZM53.8534 48.4793C53.2284 47.1865 52.9575 45.8584 52.669 44.539C52.5971 44.2152 52.4888 44.0904 52.1863 44.0136C51.6533 43.875 51.1329 43.6343 50.9704 43.061C50.5545 41.6031 50.0278 40.1867 49.486 38.7768C48.7514 36.8652 48.0772 34.9222 46.8524 33.2439C45.7662 31.757 44.4268 30.6594 42.5189 30.3986C41.0118 30.1932 39.4947 30.173 37.9814 30.1352C35.6704 30.076 33.3608 30.1932 31.0524 30.318C29.3979 30.4087 27.7559 30.5233 26.235 31.2542C24.6851 31.9964 23.3759 33.0132 22.6601 34.6426C21.9381 36.2882 21.303 37.9703 20.697 39.6626C20.3517 40.624 20.0291 41.5943 19.6839 42.557C19.4999 43.0648 19.2126 43.5348 18.6367 43.6029C17.8857 43.6911 17.1209 43.7314 16.3661 43.6986C15.9905 43.681 15.896 43.8158 15.828 44.1107C15.7335 44.5202 15.6352 44.9272 15.523 45.3317C15.1564 46.6472 14.1697 47.6011 13.0407 47.6679C12.233 47.7145 11.4316 47.7939 10.6276 47.8708C8.61904 48.061 6.60408 48.216 4.5944 48.3912C4.16346 48.4227 3.74133 48.4882 3.1894 48.555C4.15211 49.2329 5.1274 49.4496 6.13798 49.4887C7.46988 49.5391 8.79549 49.6525 10.1122 49.8289C12.5756 50.159 15.0077 50.7072 17.4912 50.9038C18.3292 50.9705 18.3191 50.9945 18.5774 50.1502C19.9244 45.7438 21.2803 41.3399 23.0142 37.0644C24.273 33.9571 26.5135 32.1238 29.8351 31.7748C31.7593 31.5719 33.7087 31.5908 35.6468 31.5505C37.0127 31.5215 38.3811 31.5164 39.7471 31.6047C40.7665 31.6714 41.7972 31.6349 42.7637 32.0621C44.7584 32.9454 46.0095 34.5331 46.8589 36.4624C47.9337 38.9069 48.6041 41.4953 49.5013 44.004C50.0003 45.3951 50.4375 46.8039 50.9138 48.2001C50.963 48.3463 50.9415 48.587 51.2314 48.553C52.0857 48.4585 52.94 48.4887 53.8536 48.4799L53.8534 48.4793ZM75.4412 50.2888C76.9457 50.1527 79.0902 50.2044 81.2325 50.125C83.8119 50.0293 86.3912 49.9801 88.9718 49.9196C91.7742 49.8516 94.5741 49.7772 97.3715 49.7104C99.8173 49.6525 102.262 49.5655 104.705 49.5176C107.691 49.4546 110.679 49.3564 113.663 49.3135C114.138 49.306 114.335 49.1837 114.42 48.7251C114.612 47.7006 114.63 47.6742 113.567 47.6805C107.436 47.722 101.305 47.5796 95.1728 47.7674C92.8278 47.8392 90.4803 47.7636 88.1354 47.8682C86.4658 47.9425 84.7938 47.9224 83.1267 47.9589C79.8883 48.0295 76.6487 48.1001 73.4116 48.1757C70.9506 48.2336 68.4883 48.3168 66.0287 48.3685C63.3132 48.4264 60.6003 48.5398 57.8848 48.5776C56.3488 48.6016 54.8178 48.7351 53.2806 48.6973C52.6594 48.6835 52.0381 48.7654 51.4144 48.7856C51.1599 48.7944 51.0969 48.836 51.1939 49.1069C51.3703 49.5933 51.5102 50.0935 51.6324 50.595C51.6992 50.8672 51.8252 50.9327 52.0949 50.9075C53.8766 50.7324 55.6684 50.8105 57.4539 50.7399C60.0497 50.6366 62.6481 50.5786 65.2449 50.532C68.4316 50.4703 71.621 50.3506 75.4413 50.2888L75.4412 50.2888ZM102.563 47.47V47.4335C105.097 47.4335 107.636 47.4335 110.17 47.4347C110.427 47.4347 110.66 47.4675 110.746 47.1109C111.101 45.6643 111.478 44.2228 111.855 42.7825C111.939 42.4587 111.831 42.3742 111.513 42.3906C110.504 42.4398 109.494 42.4776 108.482 42.4952C106.793 42.5242 105.106 42.5456 103.416 42.5784C100.245 42.6363 97.0717 42.7233 93.9014 42.8065C92.0113 42.8556 90.1237 42.94 88.2362 43.0056C88.075 43.0106 87.9363 43.0043 87.9376 43.2336C87.9426 44.621 87.9389 46.0045 87.9389 47.392C87.9376 47.5558 87.9804 47.6302 88.1732 47.6201C90.4489 47.4979 92.7271 47.5798 95.0029 47.4941C97.5243 47.3971 100.047 47.4701 102.564 47.4701L102.563 47.47ZM52.4663 43.6042C52.3025 42.6289 52.1362 41.6889 51.99 40.7501C51.7645 39.291 51.486 37.8368 51.4369 36.3562C51.3877 34.9109 51.2088 33.5148 50.3544 32.2901C50.3343 32.2624 50.3242 32.2309 50.3116 32.1981C49.4396 30.3269 47.9578 29.0933 46.1445 28.1936C44.3476 27.3015 42.4032 27.1566 40.4564 27.0936C38.6495 27.0356 36.84 27.086 35.0319 27.0772C32.6226 27.0646 30.2122 27.0784 27.8406 27.59C26.4785 27.8849 25.1579 28.3032 23.9358 28.9899C23.7531 29.0933 23.5199 29.1689 23.7392 29.4663C24.1361 30.0068 24.5154 30.5587 24.8859 31.1195C25.0358 31.345 25.1518 31.3274 25.3685 31.1951C26.1309 30.7213 26.9726 30.4239 27.8433 30.2299C29.7927 29.7951 31.7885 29.8166 33.7669 29.7346C35.7074 29.6553 37.6543 29.6805 39.5959 29.7309C40.6506 29.7598 41.7166 29.7838 42.765 29.9715C44.926 30.3559 46.4356 31.6663 47.5443 33.4632C49.2581 36.2429 50.2144 39.3502 51.2327 42.4199C51.4306 43.0348 51.6851 43.4897 52.4663 43.6044V43.6042ZM97.4889 5.41066V5.27206C96.2213 5.27206 94.9511 5.31238 93.6886 5.25441C93.119 5.22669 92.9792 5.45981 92.9137 5.93486C92.6881 7.58054 92.4525 9.22615 92.1979 10.8681C91.743 13.7877 91.2692 16.7036 90.8068 19.622C90.7148 20.1978 90.7186 20.2003 91.3184 20.1726C91.4343 20.1676 91.5527 20.155 91.6712 20.1449C92.8292 20.0542 93.9847 19.9647 95.1454 19.8752C96.2366 19.7921 97.3278 19.7114 98.4189 19.6295C100.012 19.5085 101.607 19.3851 103.198 19.2666C104.306 19.1834 105.416 19.1078 106.524 19.0222C108.101 18.9024 109.676 18.7764 111.253 18.6593C112.396 18.5748 113.54 18.5043 114.68 18.4223C116.375 18.3014 118.071 18.1729 119.767 18.0506C120.909 17.9687 122.051 17.8831 123.192 17.8163C123.568 17.7948 123.589 17.6399 123.471 17.3299C123.274 16.8132 123.118 16.2802 122.929 15.7598C121.796 12.6071 120.654 9.45691 119.528 6.30304C119.406 5.96156 119.256 5.77382 118.841 5.76624C117.257 5.73726 115.675 5.65913 114.09 5.61124C111.713 5.53942 109.336 5.44113 106.959 5.41593C103.802 5.38569 100.647 5.41089 97.4892 5.41089L97.4889 5.41066ZM146.26 47.1558C146.318 47.1394 146.381 47.1193 146.448 47.1067C148.543 46.6745 150.637 46.2309 152.735 45.8164C153.944 45.5782 155.068 45.2178 155.918 44.2425C156.742 43.2962 157.51 42.2881 157.972 41.1427C158.404 40.0691 159.142 39.6432 160.169 39.4731C160.384 39.4366 160.598 39.395 160.811 39.3521C160.961 39.3219 161.203 39.3761 161.162 39.1178C161.125 38.8897 160.898 38.9388 160.742 38.9514C159.752 39.0258 158.762 39.1089 157.772 39.1896C156.3 39.3106 154.826 39.4466 153.352 39.5512C152.331 39.6231 151.293 39.6457 150.29 39.7957C149.089 39.9746 147.885 40.0527 146.681 40.1384C146.006 40.1876 145.346 40.2304 145.094 39.3887C145.069 39.3043 145 39.2551 144.898 39.2854C144.484 39.4151 144.06 39.3232 143.64 39.3521C143.394 39.3698 143.261 39.4278 143.378 39.7277C143.527 40.1019 143.619 40.4976 143.745 40.8781C144.41 42.8854 145.128 44.8739 145.924 46.832C145.989 46.9832 146.018 47.1747 146.26 47.1558L146.26 47.1558ZM135.622 4.03324C134.952 3.9463 134.327 3.94126 133.704 3.95512C133.354 3.96268 133.065 3.88456 132.788 3.63506C132.468 3.34902 132.123 3.06048 131.65 3.04409C131.012 3.02267 130.37 2.97604 129.73 2.97857C127.88 2.98613 126.032 2.80342 124.179 2.92438C123.157 2.99117 122.122 2.88784 121.093 2.88784C117.734 2.88784 114.37 2.88406 111.008 2.91556C105.839 2.96218 100.67 2.96471 95.5012 3.03527C94.2172 3.05291 92.9319 3.02141 91.648 3.04409C88.7611 3.09827 85.878 3.19908 82.9912 3.21924C82.3901 3.22302 81.8496 3.30997 81.3077 3.5267C80.6878 3.77368 80.0779 4.06477 79.4365 4.23612C78.8077 4.40371 78.1449 4.44781 77.4947 4.53602C76.9352 4.61415 76.3732 4.67841 75.8125 4.75149C75.8087 4.72629 75.8037 4.70235 75.7999 4.67715C76.561 4.29283 77.3208 3.90599 78.0819 3.52041C75.0867 3.91228 72.2 4.6797 69.221 5.67137C69.822 5.89693 70.2958 6.04689 70.7457 6.24976C71.0494 6.38585 71.2951 6.37955 71.6025 6.24094C72.1028 6.01539 72.6282 5.83268 73.1562 5.67894C76.2673 4.77797 79.4642 4.39114 82.6797 4.16559C85.0512 3.99926 87.4278 3.90727 89.803 3.85813C92.3332 3.80772 94.8684 3.80016 97.3988 3.75858C99.9655 3.717 102.535 3.74976 105.102 3.82158C107.227 3.88081 109.355 3.81024 111.481 3.89593C114.634 4.01816 117.792 4.04084 120.946 4.1177C123.272 4.17315 125.599 4.24749 127.926 4.3168C130.622 4.39618 133.321 4.47809 136.019 4.55747C136.754 4.57889 136.754 4.57764 136.509 3.85309C136.464 3.71952 136.305 3.53176 136.471 3.45741C136.701 3.35408 136.638 3.64516 136.703 3.74975C136.817 3.93246 136.877 4.1492 136.957 4.35081C137.038 4.55873 137.161 4.66835 137.41 4.66331C139.131 4.63307 140.851 4.69607 142.573 4.74774C144.055 4.79436 145.547 4.78176 146.982 5.15222C147.578 5.30595 148.098 5.31603 148.664 5.11568C148.471 4.78174 148.126 4.67465 147.797 4.55871C146.352 4.05468 144.827 4.01687 143.328 3.85055C142.008 3.70438 140.683 3.60357 139.358 3.49142C137.975 3.37549 136.591 3.26965 135.191 3.15749C135.239 3.50778 135.542 3.68671 135.622 4.03323L135.622 4.03324ZM57.1576 16.6555C56.4066 17.2389 55.6783 17.8349 55.0495 18.5393C54.7282 18.9022 54.4119 19.2815 54.2216 19.7389C54.0477 20.1598 54.1498 20.3551 54.5833 20.3853C56.5654 20.5277 58.5462 20.66 60.5284 20.7898C61.7394 20.8679 62.9503 20.9108 64.16 21.0103C66.461 21.1981 68.7668 21.3468 71.073 21.382C73.6511 21.4199 76.2278 21.2611 78.8049 21.1149C80.6043 21.0141 82.4 20.878 84.1968 20.7684C86.16 20.6487 88.1181 20.442 90.08 20.2971C90.3888 20.2732 90.4959 20.1421 90.5375 19.8876C90.6219 19.3722 90.7 18.8581 90.7794 18.3427C91.1032 16.2548 91.4246 14.1669 91.7446 12.0776C92.0685 9.96946 92.3747 7.86017 92.7224 5.75695C92.793 5.32346 92.6758 5.23904 92.2852 5.27056C89.9641 5.46335 87.6316 5.33356 85.3055 5.45705C83.2528 5.56541 81.2116 5.7393 79.1965 6.11101C75.3455 6.82421 71.6878 8.13218 68.1758 9.85715C65.8686 10.99 63.661 12.3017 61.4849 13.6652C60.7805 14.1075 60.0899 14.5725 59.3931 15.0274C60.1466 14.8119 60.9027 14.9303 61.6436 14.4553C65.1014 12.2338 68.6836 10.2253 72.4388 8.53047C74.9338 7.40521 77.5385 6.75502 80.2475 6.49795C81.8894 6.34296 83.5375 6.22829 85.1846 6.14892C86.9222 6.06575 88.6598 6.10356 90.3975 6.0771C90.8511 6.06953 90.8184 6.24342 90.7377 6.58238C90.3345 8.25577 89.9539 9.93303 89.5684 11.6114C88.9446 14.3042 88.3259 16.9982 87.711 19.695C87.648 19.981 87.5371 20.078 87.2208 20.0994C85.6785 20.2066 84.1374 20.3855 82.5925 20.4825C80.071 20.6413 77.5483 20.819 75.0231 20.8794C72.4412 20.9424 69.8579 20.9802 67.2747 20.8328C65.6593 20.7408 64.0415 20.7005 62.4286 20.5821C60.0458 20.4069 57.6667 20.1826 55.2863 19.986C54.9461 19.9571 54.8251 19.8915 55.0444 19.5375C55.5598 18.697 56.1432 17.9246 56.9055 17.2933C57.092 17.1358 57.3239 16.9871 57.1575 16.6556L57.1576 16.6555ZM112.012 41.5836C113.154 41.5836 113.525 41.3341 113.944 40.3348C113.969 40.2731 113.986 40.2088 114.012 40.1471C115.204 37.3774 116.391 34.6064 118.121 32.1116C119.083 30.7242 120.379 29.8485 122.041 29.5083C122.884 29.3331 123.74 29.2903 124.594 29.2172C124.835 29.197 124.966 29.1617 124.968 28.8795C124.972 28.0201 124.916 27.1582 125.026 26.3014C125.063 26.0342 124.955 25.9309 124.685 25.9712C123.49 26.1476 122.281 26.2006 121.101 26.4702C118 27.1784 115.648 28.8165 114.374 31.8267C113.817 33.1397 113.211 34.4275 112.645 35.7354C111.865 37.5323 111.108 39.3393 110.328 41.136C110.218 41.3893 110.199 41.5103 110.523 41.4851C111.049 41.446 111.558 41.6501 112.013 41.5833L112.012 41.5836ZM132.775 25.6687C131.207 25.5767 129.454 25.7342 127.701 25.7683C127.01 25.7809 126.321 25.8514 125.634 25.917C125.492 25.9296 125.272 25.9006 125.264 26.1576C125.233 27.0838 125.202 28.0087 125.168 28.9361C125.159 29.1541 125.284 29.1743 125.46 29.1655C127.394 29.0773 129.33 28.95 131.264 28.9185C132.965 28.8895 134.671 28.8719 136.376 28.9638C137.883 29.0432 139.36 29.1768 140.613 30.1382C140.822 30.3008 140.926 30.1584 141.034 30.0437C141.592 29.459 142.134 28.8592 142.696 28.2758C142.842 28.1246 142.818 28.044 142.667 27.9179C141.212 26.702 139.587 25.893 137.664 25.7632C136.102 25.6548 134.532 25.6385 132.775 25.6687L132.775 25.6687ZM112.795 47.4681V47.4756C113.3 47.4756 113.808 47.4706 114.316 47.4794C114.569 47.4832 114.675 47.424 114.738 47.1304C114.97 46.0719 115.246 45.0223 115.529 43.9764C116.208 41.455 116.998 38.9726 118.166 36.6277C119.363 34.2235 121.071 32.3735 123.703 31.5155C124.081 31.3945 124.617 31.4449 124.796 31.1311C124.972 30.8224 124.816 30.3398 124.874 29.9429C124.924 29.6064 124.782 29.6291 124.549 29.6556C123.965 29.7186 123.378 29.7513 122.793 29.827C121.068 30.0487 119.636 30.7884 118.597 32.2261C117.044 34.3759 116.01 36.8003 114.907 39.1907C114.502 40.0651 114.296 41.0581 113.512 41.7285C113.45 41.7814 113.391 41.8456 113.411 41.9439C113.502 42.385 113.223 42.4467 112.906 42.3938C112.355 42.3018 112.119 42.5034 111.997 43.0616C111.705 44.386 111.342 45.6977 110.984 47.0081C110.879 47.3962 110.979 47.5071 111.376 47.4793C111.848 47.4403 112.323 47.468 112.795 47.468L112.795 47.4681ZM158.227 17.3761C157.661 16.7398 157.093 16.1337 156.473 15.5692C155.591 14.764 154.715 13.9475 153.802 13.1813C151.314 11.0972 148.799 9.04327 146.293 6.97908C146.192 6.89592 146.113 6.75353 145.91 6.87449C145.013 7.41885 144.201 8.03124 144.951 9.28124C145.021 9.39717 145.079 9.51939 145.135 9.64288C145.393 10.2188 145.793 10.7555 145.663 11.4473C145.635 11.5796 145.704 11.6729 145.813 11.7422C146.353 12.0925 146.781 12.5713 147.247 13.0073C148.158 13.8579 148.91 14.8105 149.008 16.1235C149.03 16.4033 149.185 16.4373 149.417 16.4322C150.48 16.4146 151.545 16.4083 152.608 16.3919C153.232 16.3831 153.86 16.2949 154.475 16.3591C155.769 16.4978 157.053 16.7271 158.227 17.376L158.227 17.3761ZM44.7367 18.9966C45.1285 18.979 45.3755 18.9802 45.6212 18.95C45.8871 18.9172 46.1505 18.8618 46.4138 18.8076C49.6635 18.1423 52.6135 16.7461 55.4474 15.0827C59.3383 12.7995 63.2687 10.5831 67.2241 8.41178C68.2776 7.83339 69.331 7.25249 70.4612 6.62878C69.869 6.41204 69.3561 6.25326 68.871 6.03275C68.6467 5.93194 68.493 5.94076 68.2762 6.03275C65.722 7.11642 63.285 8.4332 60.8495 9.74985C56.3169 12.2007 51.8627 14.7915 47.4169 17.3947C46.5588 17.8987 45.7069 18.4179 44.7367 18.9962L44.7367 18.9966ZM146.182 47.3976C146.562 48.422 147.024 49.3721 147.499 50.3147C147.615 50.5465 147.746 50.5188 147.943 50.418C148.465 50.1471 148.844 49.7149 149.248 49.3104C149.623 48.9323 150.031 48.6312 150.573 48.5279C151.114 48.427 151.656 48.3187 152.185 48.1725C153.165 47.9016 154.196 47.7693 155.093 47.2564C156.377 46.5218 157.589 45.6725 158.762 44.7665C159.613 44.1113 160.453 43.4258 161.538 43.175C161.706 43.1372 161.772 43.0503 161.792 42.8625C161.87 42.0384 161.905 41.2156 161.887 40.3877C161.875 39.8118 161.483 39.454 160.929 39.5661C160.369 39.6758 159.821 39.832 159.265 39.958C158.925 40.0336 158.706 40.2214 158.561 40.5414C157.999 41.7675 157.318 42.9217 156.458 43.9663C155.811 44.7526 155.092 45.4746 154.066 45.7342C153.125 45.9748 152.17 46.1538 151.22 46.3541C149.549 46.7019 147.878 47.0446 146.182 47.3975L146.182 47.3976ZM5.70763 41.2798C4.80289 41.2798 4.1275 41.2912 3.45082 41.2748C3.14336 41.2672 3.10053 41.3378 3.25425 41.6074C3.75703 42.4794 4.2497 43.3602 4.72854 44.246C4.973 44.7009 5.26661 45.1382 5.30312 45.6825C5.34093 46.2407 5.2061 46.4272 4.64157 46.4487C4.1199 46.4688 3.60957 46.581 3.08286 46.5646C2.52841 46.5482 2.39235 46.7599 2.55741 47.2652C2.61033 47.424 2.6935 47.5739 2.73383 47.7352C2.84345 48.1762 3.09547 48.34 3.5617 48.2896C4.74618 48.1561 5.93695 48.0641 7.12524 47.9557C8.89944 47.7932 10.6736 47.6029 12.4504 47.4794C13.4295 47.4113 14.27 47.1681 14.8168 46.2874C15.2679 45.559 15.4406 44.7375 15.6333 43.9197C15.6989 43.6412 15.554 43.6538 15.3712 43.65C14.9327 43.6412 14.493 43.6462 14.0557 43.6122C13.1359 43.5366 12.2513 43.301 11.7523 42.4618C11.1727 41.4903 10.302 41.2332 9.27624 41.2155C8.00734 41.1878 6.74473 41.3491 5.70786 41.2798L5.70763 41.2798ZM144.898 39.0003C144.488 38.0288 144.093 37.0548 143.668 36.0921C143.029 34.6392 142.481 33.1422 141.573 31.8218C140.742 30.6133 139.648 29.8548 138.18 29.5851C136.858 29.3407 135.525 29.4112 134.201 29.3671C132.517 29.3092 130.828 29.3797 129.14 29.4175C128.115 29.4427 127.083 29.4793 126.062 29.5763C125.153 29.6607 125.192 29.7048 125.075 30.6474C125.016 31.1464 125.229 31.1816 125.605 31.1375C126.793 30.9888 127.987 30.912 129.183 30.941C131.391 30.9939 133.596 31.0619 135.803 31.1438C137.756 31.2157 139.351 32.0385 140.617 33.5153C141.723 34.8031 142.373 36.3139 142.838 37.9243C143.242 39.3117 143.426 39.3923 144.898 39.0004L144.898 39.0003ZM77.1528 4.31002C77.3771 4.2886 77.5573 4.2823 77.7349 4.25584C78.3801 4.15251 79.0858 4.17645 79.6591 3.91309C81.9121 2.871 84.2887 2.47029 86.7333 2.33422C89.2748 2.19183 91.8152 2.03306 94.3607 1.93351C97.7339 1.80372 101.107 1.70166 104.482 1.62857C107.37 1.56305 110.256 1.55297 113.146 1.52021C116.354 1.4824 119.565 1.56935 122.773 1.61723C124.847 1.64999 126.924 1.61849 128.981 1.93351C130.432 2.15529 131.853 2.49929 133.007 3.50358C133.083 3.5691 133.152 3.63337 133.265 3.64975C133.879 3.73669 134.494 3.78205 135.171 3.72535C134.972 3.40781 134.882 3.06758 134.426 3.13058C134.277 3.152 134.155 3.04237 134.059 2.90502C133.821 2.55977 133.564 2.22709 133.317 1.8856C133.267 1.81504 133.297 1.68903 133.134 1.70919C132.071 1.8415 131.077 1.40173 130.042 1.32235C127.571 1.13208 125.089 1.16484 122.614 1.04387C120.893 0.96071 119.172 1.00355 117.452 0.96575C113.772 0.886366 110.09 0.895186 106.407 0.987171C103.337 1.06278 100.267 1.07538 97.1957 1.20895C95.2073 1.29337 93.2202 1.34126 91.2305 1.4408C89.1779 1.54413 87.1276 1.68147 85.0776 1.82386C84.2561 1.88183 83.4206 1.91837 82.623 2.09478C81.1134 2.42871 79.7349 3.15323 78.2933 3.69381C77.9027 3.84124 77.5133 4.02017 77.1529 4.31L77.1528 4.31002ZM120.575 5.88008C120.388 5.88008 120.201 5.89647 120.017 5.8763C119.652 5.83976 119.645 5.97333 119.758 6.27701C121.111 9.96282 122.477 13.6422 123.719 17.367C123.831 17.6971 123.99 17.7841 124.299 17.7501C125.354 17.6304 126.416 17.6001 127.474 17.5258C129.974 17.3506 132.478 17.1969 134.96 16.834C136.04 16.6752 137.119 16.5089 138.155 16.1309C138.576 15.9771 138.763 15.7642 138.583 15.3005C138.446 14.9414 138.329 14.5722 138.133 14.2382C137.236 12.7249 136.137 11.3753 134.875 10.1479C133.545 8.85633 132.062 7.80291 130.337 7.10607C129.063 6.59324 127.733 6.39288 126.37 6.26559C124.441 6.08666 122.505 6.02618 120.575 5.88001L120.575 5.88008ZM17.3883 43.2059C18.8714 43.2097 19.034 43.1429 19.3603 42.1487C19.945 40.3695 20.5939 38.6129 21.2555 36.8613C22.0178 34.8477 22.7461 32.8152 24.7132 31.5955C24.8846 31.4871 24.7838 31.4027 24.7296 31.3208C24.3377 30.7374 23.9332 30.159 23.5388 29.5755C23.4053 29.3765 23.2729 29.3639 23.0877 29.51C22.4211 30.0304 21.7873 30.5836 21.3287 31.3056C19.1701 34.714 17.6416 38.4089 16.3993 42.2292C16.083 43.1994 16.0944 43.2032 17.1339 43.2045C17.2183 43.2057 17.304 43.2057 17.3884 43.2057L17.3883 43.2059ZM145.988 39.6991C147.033 39.5492 147.876 39.4194 148.718 39.277C149.159 39.2014 149.109 39.0804 148.963 38.7717C147.951 36.656 146.951 34.5352 145.952 32.4133C145.278 30.9768 144.461 29.6424 143.323 28.5172C143.101 28.2967 142.982 28.2853 142.77 28.526C142.282 29.0842 141.777 29.6261 141.258 30.154C141.055 30.3594 141.003 30.4829 141.24 30.7173C141.941 31.4078 142.456 32.2332 142.852 33.1304C143.719 35.1099 144.577 37.0933 145.45 39.0716C145.588 39.3854 145.687 39.7823 145.988 39.6992L145.988 39.6991ZM151.399 39.4118C151.962 39.5454 152.432 39.369 152.915 39.345C153.972 39.2921 155.028 39.1989 156.084 39.1132C157.591 38.9935 159.097 38.8498 160.605 38.7578C160.996 38.7326 161.042 38.6318 160.964 38.2878C160.659 36.9471 160.152 35.6681 159.789 34.3475C159.689 33.9896 159.523 33.9342 159.213 33.9972C158.721 34.1005 158.229 34.2177 157.731 34.2769C156.045 34.476 154.753 35.2069 153.899 36.748C153.313 37.8001 152.553 38.7566 151.399 39.4118L151.399 39.4118ZM53.1989 44.7079C53.4371 44.8491 53.645 44.7987 53.8353 44.7861C54.9946 44.7067 56.1513 44.5908 57.3095 44.529C59.9834 44.3917 62.6546 44.2052 65.3262 44.0237C68.0971 43.8322 70.8708 43.6608 73.6453 43.5159C75.9827 43.3962 78.3201 43.2538 80.6575 43.1114C82.8778 42.9779 85.1017 42.8859 87.3233 42.8103C87.8941 42.7901 87.6699 42.3932 87.7354 42.1323C87.8223 41.7694 87.5678 41.7707 87.3145 41.7858C85.9183 41.8652 84.5196 41.937 83.1235 42.0202C82.0146 42.0857 80.9058 42.1588 79.7958 42.2332C78.0493 42.3529 76.3016 42.4776 74.5577 42.5961C73.3632 42.6792 72.1711 42.7536 70.9777 42.8405C69.385 42.9577 67.7897 43.0875 66.1958 43.2059C65.0378 43.2904 63.8785 43.3609 62.718 43.4441C61.0724 43.5638 59.4306 43.7062 57.7848 43.8108C56.2337 43.9116 54.6989 44.0489 53.1993 44.7079L53.1989 44.7079ZM152.841 17.1438C152.283 17.1186 151.723 17.1601 151.188 17.305C150.114 17.5936 149.645 18.5412 149.882 19.8378C150.048 20.7463 150.515 21.1546 151.432 21.1546C151.936 21.1546 152.444 21.1168 152.948 21.0929C154.547 21.0172 156.147 20.9542 157.744 20.8509C158.248 20.8182 158.753 20.798 159.26 20.7854C159.518 20.7803 159.688 20.7602 159.573 20.3809C159.389 19.7723 159.241 19.1511 158.966 18.5765C158.749 18.1266 158.444 17.7347 157.908 17.6566C156.227 17.4184 154.54 17.2256 152.841 17.1437L152.841 17.1438ZM146.617 24.417C147.945 24.1788 149.17 24.0138 150.399 23.947C152.469 23.8336 154.541 23.8008 156.611 23.729C157.807 23.6887 159.003 23.642 160.197 23.5866C160.377 23.579 160.597 23.6332 160.674 23.3409C161.053 21.9044 160.477 19.8757 159.352 18.8235C159.551 19.4623 159.768 20.0608 159.881 20.6897C159.964 21.1559 159.574 21.6851 159.12 21.7015C158.161 21.738 157.2 21.7595 156.241 21.8086C155.299 21.8577 154.361 21.9888 153.421 21.98C151.959 21.9661 150.503 22.3063 149.043 22.0014C148.93 21.9774 148.85 21.9963 148.773 22.0795C148.08 22.8305 147.387 23.5841 146.617 24.417L146.617 24.417ZM39.8947 19.9186C39.1273 19.809 38.3625 19.9514 37.6039 20.0093C35.492 20.1681 33.3839 20.4088 31.272 20.5814C28.7757 20.7855 26.2897 21.098 23.8071 21.4244C21.4268 21.7369 19.0565 22.1212 16.7029 22.6114C12.9278 23.3989 9.2784 24.5393 5.89647 26.4356C5.70872 26.5402 5.47434 26.6069 5.36598 26.8527C6.61473 26.9283 6.61473 26.9283 6.73192 27.2735C8.06885 26.3991 9.46631 25.6518 10.9468 25.0444C13.501 23.9948 16.2177 23.6294 18.9003 23.1367C21.6876 22.6238 24.4926 22.1979 27.2939 21.7531C29.3982 21.4166 31.5026 21.0689 33.6171 20.8043C35.7139 20.5422 37.808 20.2649 39.8948 19.9184L39.8947 19.9186ZM112.037 42.0067C111.35 41.9789 110.753 41.9361 110.159 41.9033C107.251 41.7496 104.339 41.616 101.428 41.5253C98.816 41.4421 96.2027 41.3955 93.5879 41.4825C92.5621 41.5165 91.5301 41.519 90.5095 41.6034C89.7685 41.6652 89.0276 41.6626 88.2892 41.713C88.0397 41.7307 87.9427 41.8 87.9338 42.0671C87.9124 42.8207 87.9011 42.8219 88.671 42.7161C88.7706 42.7035 88.8714 42.6997 88.9722 42.6984C91.0274 42.6745 93.0799 42.5737 95.1341 42.5069C98.3536 42.4023 101.574 42.3557 104.796 42.2952C107.091 42.2524 109.383 42.2272 111.678 42.1881C111.768 42.1894 111.877 42.2246 112.037 42.0067H112.037ZM6.49473 28.9257C6.87527 29.0504 7.14744 28.9143 7.4234 28.8967C8.98463 28.8009 10.5446 28.6838 12.1034 28.5678C13.7289 28.4469 15.3518 28.2692 16.9811 28.2049C18.773 28.1331 20.4437 27.7626 21.8628 26.6084C22.4248 26.151 23.0498 25.7377 23.3471 24.9489C23.1291 24.9489 22.9641 24.9439 22.8015 24.9489C21.0021 25.0233 19.2154 25.2274 17.436 25.4832C15.0016 25.8334 12.5748 26.2455 10.1654 26.7621C8.71379 27.0721 7.53437 27.7878 6.49476 28.9257L6.49473 28.9257ZM58.5463 18.4609C58.5463 18.4697 58.5476 18.4785 58.5476 18.4886C60.1088 18.3752 61.6688 18.263 63.2302 18.1458C63.3663 18.1345 63.5301 18.1584 63.5931 17.9505C63.864 17.0596 63.1583 15.6181 62.2687 15.3333C61.3779 15.046 60.4693 15.1078 59.5936 15.3661C58.5969 15.6609 57.4943 15.8689 57.4224 17.2688C57.3544 18.6057 56.9008 18.4508 58.394 18.4633C58.4456 18.4608 58.496 18.4608 58.5464 18.4608L58.5463 18.4609ZM1.16892 36.9121C2.5525 36.9336 3.8025 36.8794 5.04731 36.9827C6.1234 37.0734 7.20456 36.9777 8.28311 37.0772C9.35795 37.1742 10.4416 37.1994 11.4963 36.8907C12.1957 36.6853 12.3834 36.3325 12.1994 35.6332C12.1276 35.3585 12.0507 35.08 11.9499 34.8167C11.3754 33.3033 10.4681 32.2373 8.69252 32.1037C7.40471 32.0041 6.13455 32.1541 4.85542 32.178C4.53536 32.1831 4.40558 32.4414 4.30478 32.6997C4.01874 33.4155 3.83729 34.1614 3.64197 34.9036C3.52982 35.332 3.53486 35.7982 3.31813 36.2153C3.08502 36.054 3.31813 35.8486 3.15558 35.7113C2.49907 36.0301 1.86777 36.3968 1.16842 36.9122L1.16892 36.9121ZM147.114 5.45053C143.872 4.80034 140.589 5.03092 137.264 4.8545C137.415 5.13675 137.568 5.26653 137.727 5.3913C138.653 6.11711 139.588 6.83411 140.497 7.58259C140.761 7.79933 140.988 7.80815 141.272 7.6897C143.193 6.89079 145.135 6.15241 147.114 5.45054L147.114 5.45053ZM51.6334 34.9012C51.6334 35.5148 51.583 36.0466 51.6423 36.5645C51.9018 38.815 52.2408 41.0567 52.6453 43.2883C52.7045 43.6185 52.8734 43.7432 53.2023 43.7168C53.8058 43.6701 54.4094 43.6222 55.0143 43.6033C55.4099 43.5895 55.4817 43.4736 55.3091 43.1069C54.5455 41.499 53.9092 39.8369 53.23 38.194C52.7701 37.0889 52.1904 36.0367 51.6335 34.9014L51.6334 34.9012ZM146.343 24.8131C147.489 24.8509 148.625 24.8093 149.763 24.7589C152.043 24.6581 154.313 24.8761 156.578 25.0727C157.606 25.1634 158.655 25.2819 159.606 25.7695C159.688 25.8111 159.792 25.9157 159.863 25.7733C160.121 25.268 160.509 24.8358 160.583 24.2322C160.629 23.8618 160.505 23.8189 160.195 23.8252C158.458 23.863 156.724 23.9613 154.989 24.0205C152.631 24.1025 150.272 24.1214 147.931 24.4465C147.397 24.5258 146.842 24.5523 146.343 24.8131V24.8131ZM157.33 17.3057C156.515 16.9062 155.65 16.6719 154.767 16.6479C152.995 16.5975 151.217 16.6404 149.443 16.6265C149.134 16.6252 149.044 16.721 149.03 17.0259C148.981 18.1852 148.867 19.3344 148.613 20.4747C148.417 21.3466 148.933 21.9288 149.832 21.9023C151.128 21.8608 152.423 21.7776 153.718 21.7146C155.435 21.6314 157.151 21.5508 158.868 21.4638C159.018 21.4563 159.167 21.421 159.317 21.4008C159.491 21.3769 159.543 21.2307 159.539 21.1097C159.534 20.9308 159.36 21.0026 159.26 21.0001C159.074 20.9951 158.89 21.0115 158.703 21.0203C156.297 21.1463 153.892 21.2912 151.484 21.3945C150.41 21.4399 149.797 20.9144 149.635 19.8686C149.582 19.5221 149.593 19.1566 149.627 18.8063C149.718 17.918 150.344 17.2199 151.205 17.051C152.122 16.8721 153.047 16.9212 153.972 16.9893C155.094 17.0699 156.213 17.1909 157.33 17.3056L157.33 17.3057ZM145.406 11.4147C145.485 11.0317 145.398 10.7696 145.27 10.5075C145.024 10.011 144.796 9.50443 144.558 9.00672C144.32 8.50646 144.346 8.0163 144.687 7.58914C145.175 6.9843 145.779 6.52814 146.528 6.27614C147.092 6.08587 147.65 5.8792 148.277 5.46717C145.724 6.13249 143.437 7.08385 141.077 8.02137C142.548 9.17308 143.944 10.2668 145.406 11.4149L145.406 11.4147ZM123.271 2.44666C123.076 2.09763 122.772 2.12282 122.472 2.12534C114.115 2.15054 105.755 2.02957 97.4003 2.32821C96.1541 2.37105 94.9041 2.36602 93.6603 2.44918C92.9144 2.49832 92.1646 2.521 91.4186 2.60795C102.027 2.4832 112.637 2.3698 123.271 2.44666H123.271ZM57.6325 18.8515C58.3457 19.2434 59.0614 19.6353 59.7733 20.0271C59.9321 20.1153 60.1073 20.0939 60.2686 20.0738C61.1342 19.9692 62.0012 19.8734 62.8606 19.7285C63.5927 19.6063 63.6859 19.4299 63.6645 18.6864C63.6569 18.4029 63.5612 18.3613 63.3016 18.3853C61.4266 18.5491 59.5555 18.757 57.6326 18.8515L57.6325 18.8515ZM159.597 33.617C158.447 33.7241 157.296 33.6888 156.147 33.8488C155.159 33.9849 154.458 34.4877 153.896 35.2324C153.392 35.9002 152.926 36.6021 152.48 37.3115C151.725 38.5149 150.78 39.4323 149.29 39.6074C149.161 39.6213 149.035 39.6692 148.886 39.707C149.186 39.8519 149.441 39.678 149.694 39.644C150.955 39.4675 152.035 38.9433 152.801 37.8786C153.311 37.1692 153.822 36.4622 154.327 35.7465C154.819 35.0522 155.419 34.5331 156.297 34.3793C156.942 34.2672 157.585 34.1248 158.217 33.9547C158.672 33.8324 159.165 33.8589 159.597 33.617L159.597 33.617ZM10.8196 30.0018C10.8183 29.9741 10.8145 29.9476 10.812 29.9199C8.74549 29.9199 6.6791 29.9199 4.61233 29.9187C4.45734 29.9187 4.35401 29.9514 4.35527 30.1366C4.36031 30.7503 4.35653 31.3652 4.35653 32.1024C5.22346 31.0263 6.39785 30.9179 7.49414 30.6608C8.5942 30.4038 9.71062 30.2198 10.8196 30.0018L10.8196 30.0018ZM4.99408 45.3773C4.93864 45.2324 4.89831 45.0862 4.82775 44.9577C4.13723 43.6926 3.44543 42.43 2.74611 41.17C2.39075 40.5311 2.0833 40.4089 1.32095 40.5828C2.20049 42.052 3.08885 43.4999 3.94191 44.974C4.18763 45.3999 4.45604 45.6028 4.99407 45.3773L4.99408 45.3773ZM131.136 2.78053C128.695 1.80524 126.12 1.95643 123.545 1.94004C123.912 2.18072 124.112 2.62427 124.62 2.63559C126.79 2.67718 128.965 2.7301 131.136 2.7805V2.78053ZM156.04 47.0096C157.661 46.6013 159.206 46.0393 160.466 44.8977C160.827 44.5688 161.195 44.2512 161.561 43.9236C161.703 43.7951 161.737 43.6124 161.64 43.4687C161.544 43.3301 161.391 43.4486 161.277 43.499C161.001 43.6124 160.711 43.7157 160.462 43.8732C158.927 44.8296 157.581 46.0532 156.04 47.0096L156.04 47.0096ZM157.104 15.786C157.554 16.2623 157.978 16.7286 158.42 17.1822C158.941 17.7164 158.938 17.7039 159.503 17.22C159.727 17.0272 159.761 16.8533 159.568 16.6328C158.925 15.8969 158.182 15.4382 157.104 15.786ZM59.0908 20.0792C59.1022 20.0515 59.111 20.0251 59.1211 19.9973C58.4079 19.6067 57.701 19.2022 56.9764 18.8317C56.7609 18.7221 56.5064 18.7977 56.3376 18.9905C56.1422 19.2161 55.9709 19.4605 55.7365 19.7642C56.9121 19.8738 58.0021 19.9771 59.0907 20.0792L59.0908 20.0792ZM4.07469 29.6986C4.6115 29.0559 5.16089 28.4284 5.7695 27.8564C5.94087 27.6951 6.11224 27.5363 6.27731 27.3687C6.33149 27.3133 6.40205 27.2478 6.36047 27.1507C6.31511 27.0461 6.21556 27.0852 6.14248 27.0839C5.80477 27.0789 5.46454 27.0499 5.13315 27.089C4.87484 27.1217 4.36702 27.0209 4.70725 27.5968C4.7753 27.714 4.62534 27.7556 4.57116 27.8224C4.17674 28.3024 3.7622 28.7687 3.46733 29.3218C3.40936 29.4315 3.25437 29.5852 3.4018 29.6747C3.6072 29.7969 3.61853 29.5613 3.68406 29.4403C4.05577 28.7573 4.54596 28.1664 5.09535 27.6233C5.1823 27.5363 5.27428 27.3889 5.42548 27.5439C5.57668 27.6989 5.41666 27.7808 5.33727 27.8728C5.18354 28.0517 5.01973 28.2193 4.86727 28.4007C4.5384 28.7901 4.20069 29.1769 4.07469 29.6986ZM83.5166 2.99247C84.972 2.88284 86.4299 2.97986 87.884 2.89796C88.6061 2.85637 88.8177 2.77573 89.1177 2.43425C87.2439 2.64846 85.3538 2.53127 83.5167 2.99247L83.5166 2.99247ZM156.349 32.3447C157.554 32.2779 158.758 32.2061 159.964 32.1418C160.246 32.128 160.288 31.9629 160.259 31.7336C160.221 31.4261 160.008 31.5169 159.842 31.5622C158.691 31.8735 157.517 32.0688 156.349 32.3447L156.349 32.3447ZM3.48437 30.0199C3.48815 30.0854 3.58896 29.9657 3.42137 29.9292C3.28024 29.8989 3.18825 29.9657 3.16809 30.103C3.14793 30.2354 3.14415 30.3702 3.14037 30.5063C3.11643 31.5521 3.32056 32.5766 3.47682 33.6023C3.50958 33.8077 3.56755 33.9652 3.27395 33.9829C3.08746 33.9955 3.13282 34.1492 3.16054 34.25C3.17818 34.3206 3.25505 34.4264 3.30923 34.4302C3.43398 34.434 3.50958 34.3457 3.5436 34.2134C3.64063 33.8556 3.67213 33.5003 3.61921 33.1273C3.47934 32.1482 3.38861 31.1641 3.48438 30.0199L3.48437 30.0199ZM57.0489 17.4731C56.2941 18.1258 55.7082 18.8302 55.2583 19.6946C55.4965 19.711 55.5305 19.556 55.6111 19.4628C55.9476 19.0633 56.1517 18.5001 56.8221 18.5303C56.904 18.5341 57.0023 18.4724 56.9935 18.3791C56.9645 18.0918 57.1799 17.8297 57.0489 17.4731H57.0489ZM4.00695 32.735C4.04979 32.2814 4.09768 31.9425 4.11406 31.601C4.138 31.1272 4.13548 30.6559 4.14682 30.1847C4.14682 30.0813 4.1506 29.9566 4.02207 29.9478C3.85952 29.9364 3.85196 30.0801 3.8507 30.1985C3.84692 30.6723 3.83684 31.1436 3.84944 31.6161C3.85826 31.9551 3.78644 32.3091 4.00695 32.7351L4.00695 32.735ZM3.41218 46.2821C3.88598 46.1939 4.37489 46.3149 4.84489 46.1599C5.02886 46.0982 5.09816 45.9974 5.07044 45.8336C5.0402 45.6433 4.88269 45.6924 4.75038 45.6924C4.22996 45.6949 3.81667 45.9545 3.41219 46.2821H3.41218ZM42.7283 18.946C43.5335 18.9863 43.725 18.917 44.1699 18.4533C43.3546 18.1446 43.3546 18.1446 42.7283 18.946ZM3.00895 33.3386C2.90058 32.2423 2.73929 31.146 2.77583 30.036C2.61076 31.1512 2.77962 32.2475 3.00895 33.3386ZM2.79222 29.6844C3.15763 29.0934 3.51425 28.4924 3.93512 27.9316C3.34667 28.3777 2.90563 28.922 2.79222 29.6844ZM53.8309 44.1879C53.8297 44.164 53.8259 44.1451 53.8234 44.1212C53.5663 44.1212 53.3105 44.1262 53.0535 44.1199C52.8695 44.1149 52.8191 44.1942 52.8619 44.3644C52.8997 44.5143 52.9753 44.5408 53.1152 44.4778C53.3496 44.3719 53.5915 44.2837 53.8309 44.1879H53.8309Z" fill="black"/>
<path fill-rule="evenodd" clip-rule="evenodd" d="M117.777 21.0613C118.091 21.1041 118.46 21.0865 118.824 21.1873C119.502 21.3776 120.188 21.1331 120.873 21.1911C121.312 21.2289 121.74 21.2856 122.143 21.462C122.78 21.7405 122.818 22.2117 122.282 22.649C121.643 23.177 120.869 23.2778 120.102 23.3068C119.488 23.3282 118.915 23.4605 118.33 23.6117C117.572 23.8083 116.789 23.7944 116.031 23.6205C115.294 23.4529 114.546 23.3534 113.805 23.211C113.536 23.1606 113.164 23.1392 113.105 22.7523C113.047 22.373 113.351 22.2307 113.621 22.0908C113.887 21.9522 114.163 21.8451 114.468 21.7959C115.079 21.6989 115.689 21.6195 116.251 21.3083C116.699 21.0613 117.219 21.0588 117.777 21.0613L117.777 21.0613ZM120.806 22.2092C120.766 22.0467 120.68 21.9018 120.712 21.7959C120.873 21.2969 120.563 21.4015 120.283 21.4242C119.495 21.4897 118.705 21.525 117.917 21.6069C116.78 21.7241 115.645 21.8615 114.514 22.0165C113.983 22.0883 113.639 22.3113 113.437 22.6339C115.876 22.0794 118.325 22.2319 120.806 22.2093L120.806 22.2092ZM119.346 23.0799C120.845 23.1039 121.545 22.9388 122.016 22.4146H120.397H118.881C119.456 22.5961 119.501 22.6502 119.346 23.0799ZM115.798 22.9451C116.871 23.2526 118.572 23.1291 118.997 22.7498C117.944 22.5709 116.914 22.6691 115.798 22.9451ZM113.614 22.9413C114.206 23.0371 114.798 23.1341 115.393 23.2236C115.449 23.2311 115.609 23.2853 115.577 23.1581C115.432 22.5734 116.028 22.7737 116.231 22.5154C115.331 22.5167 114.476 22.688 113.614 22.9413L113.614 22.9413ZM121.537 22.2483C121.87 22.1235 122.33 22.4096 122.388 22.0731C122.453 21.6863 121.967 21.6661 121.609 21.5427C121.671 21.7884 121.629 21.9837 121.537 22.2483L121.537 22.2483ZM118.546 23.2526C117.757 23.4076 116.959 23.2828 116.071 23.3559C116.977 23.5915 117.768 23.5563 118.546 23.2526ZM118.025 21.3713C117.562 21.3221 117.089 21.2138 116.513 21.52C117.113 21.462 117.569 21.4167 118.025 21.3713Z" fill="black"/>
<path fill-rule="evenodd" clip-rule="evenodd" d="M7.44836 39.9645C8.39469 39.9784 9.45314 39.9406 10.5154 40.0565C11.8398 40.2014 12.6764 41.0721 13.5182 41.9529C13.5673 42.0058 13.5925 42.065 13.5144 42.1192C13.4148 42.1873 13.3607 42.1028 13.3052 42.0512C12.9889 41.7475 12.6802 41.4375 12.3627 41.1351C11.4743 40.2858 10.3302 40.2102 9.2087 40.1812C7.77851 40.1434 6.34328 40.1132 4.91451 40.2594C4.79858 40.2707 4.65997 40.2972 4.65115 40.1208C4.64359 39.933 4.79606 39.9696 4.90443 39.9696C5.71465 39.962 6.52362 39.9645 7.44852 39.9645L7.44836 39.9645Z" fill="black"/>
<path fill-rule="evenodd" clip-rule="evenodd" d="M82.2482 25.3903C81.0121 25.3348 79.8478 24.9745 78.6495 24.8195C78.434 24.7918 78.1619 24.6809 78.1278 24.4062C78.0938 24.1265 78.308 23.9576 78.5248 23.819C78.8247 23.6237 79.1548 23.4927 79.5039 23.4397C80.1327 23.344 80.7362 23.2179 81.3298 22.9483C82.1463 22.5766 83.0409 22.6446 83.899 22.8387C84.3615 22.9433 84.8 22.9143 85.2498 22.8513C85.8988 22.7605 86.5213 22.879 87.1324 23.0882C87.4084 23.1827 87.678 23.3377 87.7196 23.6539C87.7624 23.9778 87.5079 24.1617 87.2786 24.3407C86.7859 24.7237 86.1987 24.9417 85.6001 24.9317C84.7949 24.914 84.0364 25.0703 83.2778 25.2807C82.925 25.3777 82.5709 25.3197 82.2483 25.3903L82.2482 25.3903ZM80.8861 24.9908C82.1688 25.2479 82.9992 25.2126 83.7364 24.8522C83.4251 24.9228 83.1151 24.9568 82.7951 24.9568C82.1575 24.9556 81.5199 24.9782 80.8797 24.9934C80.8306 24.8107 80.4929 24.8182 80.566 24.6015C80.6328 24.4062 80.8671 24.352 81.0688 24.3016C81.1973 24.2688 81.3258 24.2335 81.4531 24.1983C80.5156 24.1932 79.6033 24.3079 78.691 24.5776C79.4243 24.7149 80.1565 24.8535 80.8861 24.9908H80.8861ZM78.4125 24.2348C78.6041 24.2348 78.691 24.2474 78.7717 24.2335C80.2422 23.9538 81.7291 23.8328 83.2249 23.8366C84.0011 23.8378 84.776 23.8164 85.551 23.8441C86.0916 23.8618 85.706 23.5039 85.7753 23.3401C85.866 23.1158 85.745 23.0868 85.5132 23.0944C83.7831 23.1435 82.0667 23.3666 80.348 23.5455C79.6991 23.611 79.0249 23.6942 78.4125 24.2347V24.2348ZM83.8119 24.0974C84.0614 24.2348 84.7065 24.047 84.3739 24.759C85.2988 24.701 86.2149 24.7842 86.9697 24.0974H83.8119ZM84.0765 24.449C83.0344 24.3192 81.9923 24.265 80.9691 24.6241C82.0125 24.8106 83.0495 24.798 84.0765 24.449ZM86.9885 23.9059C87.1637 23.8567 87.4724 24.0016 87.4623 23.6929C87.451 23.4069 87.1335 23.2884 86.9029 23.2607C86.5778 23.2204 86.6975 23.5896 86.6483 23.7408C86.5702 23.9954 86.865 23.8454 86.9885 23.9059L86.9885 23.9059ZM81.6811 23.0818C82.2267 23.1889 82.6426 23.049 83.1567 22.9696C82.6274 22.865 82.2078 22.9533 81.6811 23.0818Z" fill="black"/>
<path fill-rule="evenodd" clip-rule="evenodd" d="M129.748 56.4323C124.841 56.5167 120.281 52.2777 120.596 46.7094C120.855 42.1806 124.553 38.0613 129.777 38.0577C134.959 38.0527 139.121 42.2626 138.959 47.5803C138.813 52.3852 134.855 56.4739 129.748 56.4323ZM129.777 38.5429C125.098 38.4396 121.034 42.2916 121.023 47.2123C121.012 52.1706 124.914 55.8326 129.447 55.99C134.545 56.1664 138.537 52.0774 138.517 47.221C138.5 42.3016 134.41 38.4306 129.777 38.5429H129.777Z" fill="black"/>
<path fill-rule="evenodd" clip-rule="evenodd" d="M44.3613 47.2548C44.3613 52.4339 40.1248 56.4458 35.1526 56.4284C30.0655 56.4082 25.8858 52.3003 25.9816 47.0558C26.0736 42.0445 30.1435 37.9013 35.4777 38.0513C40.4197 38.1924 44.3613 42.2071 44.3613 47.2548ZM43.9202 47.2435C43.9076 42.4351 40.096 38.5061 35.2093 38.4986C30.3012 38.4911 26.4215 42.3241 26.4341 47.2612C26.4467 52.2183 30.368 55.9344 35.0506 55.9796C39.999 56.0262 43.9202 52.1251 43.9202 47.2435Z" fill="black"/>
<path fill-rule="evenodd" clip-rule="evenodd" d="M93.6225 18.5193C93.7359 16.8283 93.8631 14.9458 93.9879 13.0645C94.0711 11.8031 94.1492 10.5431 94.2298 9.2816C94.2966 8.2395 94.3798 7.1987 94.4251 6.15408C94.439 5.81386 94.6457 5.87182 94.8347 5.88317C96.4022 5.96507 97.971 5.99153 99.5411 5.98019C101.633 5.96633 103.725 6.0747 105.819 6.10243C108.01 6.13267 110.203 6.23599 112.394 6.29269C114.043 6.33553 115.689 6.46029 117.339 6.52959C117.665 6.54345 117.79 6.68332 117.893 6.98069C118.807 9.63062 119.464 12.3536 120.191 15.0552C120.39 15.8012 120.562 16.5522 120.767 17.2956C120.842 17.5653 120.787 17.6409 120.504 17.661C118.793 17.7807 117.08 17.9156 115.372 18.0529C113.779 18.1789 112.187 18.3226 110.592 18.4448C109.554 18.5267 108.511 18.5834 107.469 18.6577C105.636 18.7875 103.81 18.9375 101.978 19.0496C100.936 19.1126 99.8953 19.1832 98.8532 19.2575C97.3587 19.3621 95.8605 19.415 94.3622 19.4667C93.6188 19.4944 93.6188 19.4743 93.6226 18.5191L93.6225 18.5193ZM97.3247 6.17192V6.18578H94.9948C94.8071 6.18578 94.6332 6.15176 94.6294 6.44914C94.6244 6.91914 94.5639 7.38791 94.5349 7.85791C94.4631 9.13562 94.4089 10.4146 94.3232 11.6911C94.1657 14.0588 93.9969 16.4279 93.8204 18.7944C93.7927 19.156 93.8734 19.3072 94.2779 19.2808C95.5531 19.1926 96.832 19.1434 98.1098 19.0678C99.3207 18.996 100.53 18.9141 101.741 18.8259C103.367 18.7087 104.995 18.5789 106.62 18.463C108.266 18.347 109.912 18.25 111.556 18.129C113.619 17.9791 115.68 17.8002 117.746 17.6615C118.058 17.6401 118.149 17.5318 118.172 17.2495C118.333 15.372 118.508 13.4969 118.667 11.6208C118.701 11.2403 118.783 10.8295 118.692 10.4741C118.401 9.35264 118.034 8.25261 117.702 7.13993C117.631 6.89926 117.503 6.81358 117.236 6.78709C115.49 6.6195 113.739 6.6195 111.991 6.54012C109.786 6.43931 107.579 6.38513 105.372 6.3322C102.689 6.26416 100.008 6.22258 97.325 6.17217L97.3247 6.17192ZM118.971 11.4303C118.949 11.4429 118.929 11.458 118.905 11.4706C118.804 12.5417 118.701 13.6115 118.6 14.6826C118.522 15.5205 118.45 16.361 118.375 17.199C118.349 17.4711 118.358 17.6311 118.745 17.5707C119.19 17.5001 119.652 17.4699 120.1 17.4661C120.576 17.4623 120.524 17.2796 120.437 16.9532C120.205 16.0964 120.011 15.2294 119.783 14.3713C119.524 13.3885 119.244 12.4119 118.971 11.4303L118.971 11.4303Z" fill="black"/>
<path fill-rule="evenodd" clip-rule="evenodd" d="M7.86437 41.8903C8.31927 41.8916 8.7754 41.9105 9.2303 41.889C10.2384 41.8399 10.8646 42.3691 11.2666 43.2222C11.4959 43.7086 11.6383 44.229 11.661 44.7671C11.6749 45.1426 11.5224 45.3996 11.1015 45.4677C9.99014 45.6504 8.87243 45.755 7.75217 45.8482C7.25192 45.8898 6.83611 45.7235 6.45556 45.4097C5.64282 44.7432 5.04679 43.9317 4.79604 42.8984C4.63349 42.228 4.82881 42.0138 5.49666 41.9495C6.28421 41.8739 7.07553 41.9054 7.86433 41.8903L7.86437 41.8903ZM8.31295 42.131C7.89208 42.131 7.46995 42.1474 7.04782 42.1272C6.68492 42.1096 6.60176 42.2683 6.68995 42.5859C6.88904 43.3054 7.19524 43.9745 7.61359 44.5894C7.73834 44.7734 7.92105 44.8855 8.14659 44.9384C9.09291 45.1564 10.0102 44.8641 10.9351 44.7671C11.1632 44.7419 11.4379 44.5844 11.3573 44.2454C11.1494 43.3495 10.8041 42.5455 9.8603 42.1826C9.35501 41.9861 8.82956 42.1385 8.31292 42.131L8.31295 42.131ZM11.3623 44.8641C10.576 45.1716 9.76582 45.1426 8.9745 45.2346C7.99669 45.348 7.32756 44.9523 6.9924 44.0047C6.85883 43.6292 6.59672 43.2802 6.53879 42.8971C6.44302 42.2595 6.12549 42.1184 5.53953 42.1814C5.00272 42.2393 4.91327 42.3036 5.02414 42.8202C5.23205 43.7653 5.77262 44.4936 6.48582 45.1161C6.82604 45.4122 7.18517 45.6328 7.65266 45.6063C8.80688 45.5395 9.95356 45.4097 11.0978 45.2409C11.3221 45.2106 11.375 45.0884 11.3624 44.8641L11.3623 44.8641Z" fill="black"/>
<path fill-rule="evenodd" clip-rule="evenodd" d="M125.59 16.9322C124.086 16.9537 124.102 16.9486 123.729 15.9406C122.642 12.9983 121.543 10.0609 120.447 7.12121C120.246 6.58314 120.237 6.56298 120.797 6.59702C123.531 6.76334 126.263 6.94353 128.942 7.58995C130.588 7.98688 131.887 8.97227 133.116 10.0471C134.272 11.0602 135.258 12.2397 136.166 13.481C137.186 14.8721 136.834 15.8008 135.132 16.01C133.098 16.2632 131.057 16.48 129.011 16.6438C127.72 16.7496 126.432 16.8844 125.59 16.9323L125.59 16.9322ZM120.589 6.77966C121.059 8.05359 121.496 9.24563 121.939 10.4364C122.664 12.3984 123.398 14.3577 124.125 16.3197C124.213 16.5578 124.28 16.7544 124.625 16.7443C126.225 16.6952 127.816 16.5162 129.407 16.3827C130.612 16.2831 131.815 16.1609 133.016 16.0198C133.896 15.9164 134.791 15.8975 135.648 15.6317C136.597 15.3368 136.77 14.8907 136.239 14.0641C135.336 12.6528 134.248 11.3902 133.002 10.2764C131.615 9.03517 130.108 7.99059 128.22 7.64659C127.08 7.43742 125.934 7.25976 124.784 7.14382C123.414 7.00521 122.041 6.9044 120.589 6.77966H120.589Z" fill="black"/>
<path fill-rule="evenodd" clip-rule="evenodd" d="M156.545 19.9806C156.141 19.9806 155.734 19.9554 155.332 19.9882C154.894 20.0247 154.718 19.929 154.772 19.4262C154.872 18.5126 155.16 18.2052 156.147 18.2631C156.85 18.3047 157.546 18.4181 158.244 18.5126C158.619 18.563 158.997 18.6588 159.035 19.125C159.069 19.5081 158.584 19.9529 158.11 19.9718C157.591 19.9995 157.068 19.9793 156.545 19.9806L156.545 19.9806ZM156.628 19.779H157.641C157.895 19.779 158.145 19.8004 158.379 19.6631C158.59 19.5371 158.792 19.3632 158.767 19.1213C158.741 18.8503 158.487 18.7835 158.234 18.7558C157.583 18.6853 156.931 18.6147 156.284 18.524C155.414 18.403 155.102 18.6336 155 19.4817C154.973 19.7072 155.037 19.7853 155.262 19.7803C155.716 19.7715 156.173 19.779 156.628 19.779V19.779Z" fill="black"/>
<path fill-rule="evenodd" clip-rule="evenodd" d="M21.7612 25.8516C21.1614 26.2813 20.5666 26.7173 19.9643 27.1419C19.1805 27.6951 18.2443 27.6661 17.3534 27.7846C15.99 27.9685 14.6203 28.1261 13.2505 28.276C12.1303 28.3982 11.0088 28.494 9.88725 28.5998C9.40087 28.6427 8.91574 28.678 8.42935 28.7158C8.28318 28.7271 8.10426 28.7914 8.03242 28.6087C7.95051 28.4033 8.07022 28.2508 8.24789 28.15C8.88425 27.7883 9.58989 27.6245 10.2968 27.4909C13.1799 26.9403 16.0868 26.5295 18.9991 26.159C19.9126 26.0431 20.8236 25.8957 21.736 25.7596C21.7448 25.7911 21.7536 25.8226 21.7612 25.8516L21.7612 25.8516ZM14.3379 27.8942C15.8929 27.7115 17.3092 27.5653 18.7179 27.3763C19.5458 27.2641 20.1607 26.7425 20.8638 26.1691C20.6521 26.1691 20.5677 26.1578 20.4858 26.1691C19.1602 26.3556 17.8396 26.6013 16.5064 26.711C15.6168 26.7853 15.0599 27.3183 14.3378 27.8942H14.3379ZM8.306 28.3478C8.3186 28.3969 8.32994 28.4436 8.34254 28.4927C8.49249 28.4927 8.64622 28.5053 8.79615 28.4914C10.1167 28.3629 11.4348 28.2029 12.7578 28.1046C13.6549 28.0378 14.3782 27.7001 15.065 26.9176C12.7162 27.3863 10.4214 27.4569 8.30593 28.3478H8.306Z" fill="black"/>
<path fill-rule="evenodd" clip-rule="evenodd" d="M8.85477 36.5226C8.0269 36.5931 7.20532 36.6398 6.48328 36.1093C5.90112 35.6796 5.28622 36.0375 4.6839 36.0501C4.53395 36.0513 4.38526 36.0866 4.23783 36.1118C3.95557 36.1609 3.91148 35.9896 3.96566 35.7854C4.16853 35.0244 4.23531 34.2343 4.52766 33.4896C4.67887 33.1065 4.94095 32.8155 5.31017 32.7902C6.43165 32.7159 7.55437 32.5811 8.68598 32.6995C9.45588 32.7814 10.0066 33.162 10.4388 33.7567C10.8231 34.2872 11.0764 34.8908 11.2351 35.5246C11.3548 35.9984 11.1066 36.2983 10.6177 36.4243C10.0305 36.5768 9.44078 36.4722 8.85485 36.5226L8.85477 36.5226ZM8.50574 36.3008C9.23909 36.3386 9.8767 36.3021 10.5105 36.2088C10.8659 36.1584 11.0549 35.9908 10.9767 35.5964C10.8192 34.8051 10.4765 34.1045 9.92961 33.5148C9.66373 33.2287 9.32225 33.012 8.92909 32.9729C8.36206 32.9175 7.7887 32.9314 7.22041 32.8948C6.95454 32.8772 6.8197 32.9918 6.73654 33.2288C6.50469 33.8903 6.31064 34.5619 6.19219 35.2537C6.14935 35.517 6.22495 35.6859 6.49209 35.8548C7.15112 36.2769 7.84289 36.4054 8.5057 36.3008L8.50574 36.3008ZM6.5778 32.964C6.26026 32.964 5.97674 32.9602 5.69448 32.9653C5.18541 32.9728 4.82251 33.1896 4.69019 33.7062C4.5415 34.2896 4.38903 34.8731 4.26806 35.464C4.22144 35.6896 4.18993 35.9429 4.60954 35.8181C4.93967 35.7186 5.30132 35.7299 5.65164 35.6934C5.82175 35.6757 5.95154 35.6014 5.96036 35.4225C6.00194 34.5744 6.31191 33.7969 6.57781 32.964L6.5778 32.964Z" fill="black"/>
<path fill-rule="evenodd" clip-rule="evenodd" d="M121.619 47.2226C121.428 42.9722 125.357 38.7774 130.263 39.0245C135.067 39.2664 138.145 43.1564 138.046 47.5477C137.951 51.6806 134.495 55.6187 129.572 55.4848C125.161 55.3613 121.516 51.6455 121.619 47.2226ZM126.866 54.7113C127.193 54.2236 127.3 53.7448 127.488 53.3038C128.045 51.9908 128.554 50.6589 129.211 49.3925C129.408 49.0119 129.675 48.7297 130.154 48.7876C130.604 48.8406 130.792 49.1379 130.909 49.5462C131.384 51.1717 131.875 52.7946 132.362 54.4178C132.403 54.5627 132.348 54.8059 132.638 54.6837C132.887 54.5804 132.755 54.4178 132.701 54.2666C132.428 53.4917 132.16 52.7167 131.88 51.943C131.548 51.0194 131.554 51.0358 132.36 50.4851C132.636 50.2974 132.805 50.3276 133.056 50.5267C133.835 51.1429 134.635 51.7276 135.434 52.3135C135.546 52.3967 135.652 52.6537 135.838 52.4395C136.033 52.2177 135.755 52.161 135.652 52.0716C134.756 51.279 133.842 50.5053 132.951 49.7052C132.375 49.1873 131.777 48.6857 131.306 48.0633C131.096 47.7873 131.036 47.4635 131.205 47.1598C131.36 46.8813 131.629 46.7339 131.967 46.7553C132.151 46.7679 132.334 46.7843 132.52 46.7931C134.152 46.8813 135.785 46.9721 137.417 47.0527C137.546 47.0603 137.735 47.1245 137.746 46.8662C137.755 46.6218 137.588 46.6633 137.442 46.6444C136.517 46.531 135.591 46.5487 134.664 46.5487C133.656 46.5474 133.656 46.5487 133.492 45.5683C133.445 45.2924 133.513 45.1235 133.788 44.9647C134.66 44.4607 135.508 43.9075 136.359 43.3682C136.481 43.2888 136.7 43.2397 136.55 42.9965C136.38 42.7205 136.245 42.9209 136.109 43.0204C135.305 43.5988 134.518 44.2049 133.696 44.7606C132.751 45.3982 131.895 46.2185 130.668 46.3269C131.304 47.272 131.008 47.7722 130.58 48.1755C130.08 48.6467 129.452 48.5711 128.735 47.9701C128.676 48.4753 128.332 48.7614 127.961 49.0361C126.608 50.0442 125.262 51.061 123.917 52.0804C123.826 52.1472 123.613 52.2002 123.759 52.3728C123.869 52.5013 123.959 52.3425 124.05 52.2821C124.843 51.7478 125.638 51.2123 126.428 50.6704C127.181 50.1576 127.174 50.1576 127.843 50.809C128.052 51.0132 128.152 51.1795 128.004 51.5008C127.629 52.3047 127.307 53.1351 126.976 53.9617C126.895 54.1696 126.723 54.3637 126.866 54.7115L126.866 54.7113ZM130.327 46.0948C130.168 45.6916 130.249 45.3123 130.377 44.9292C130.921 43.3075 131.456 41.6809 131.996 40.0589C132.052 39.8913 132.204 39.6796 131.955 39.5851C131.63 39.4654 131.667 39.7981 131.614 39.9568C131.36 40.7368 131.127 41.5244 130.894 42.3119C130.624 43.2129 130.627 43.1965 129.668 43.2129C129.312 43.2204 129.184 43.097 129.096 42.7593C128.832 41.7689 128.517 40.7961 128.23 39.8132C128.183 39.6507 128.201 39.4415 127.944 39.5309C127.689 39.6179 127.83 39.7905 127.877 39.9442C128.381 41.6453 128.947 43.3326 129.344 45.0678C129.44 45.4836 129.482 45.8427 129.106 46.1048C128.75 46.3543 128.409 46.2094 128.076 46.0015C126.551 45.0589 125.023 44.1215 123.492 43.184C123.358 43.1008 123.208 42.8551 123.053 43.1335C122.904 43.3969 123.2 43.4284 123.323 43.5116C124.004 43.974 124.702 44.4075 125.385 44.8649C126.156 45.3815 126.131 45.3828 125.906 46.2737C125.823 46.6114 125.674 46.6983 125.353 46.6933C124.34 46.6769 123.327 46.6857 122.311 46.6895C122.135 46.6895 121.892 46.6303 121.883 46.905C121.874 47.2011 122.129 47.1217 122.296 47.123C123.564 47.1268 124.833 47.0864 126.096 47.1394C126.924 47.1721 127.789 46.9894 128.568 47.4531C128.687 46.3001 129.199 45.9032 130.327 46.0948L130.327 46.0948ZM128.928 44.5827C128.915 44.4832 128.915 44.4492 128.907 44.4164C128.458 42.9131 128.003 41.4124 127.566 39.9054C127.483 39.6257 127.329 39.6975 127.161 39.7668C125.741 40.359 124.532 41.2336 123.566 42.4407C123.378 42.6751 123.4 42.8024 123.673 42.9649C124.993 43.7613 126.302 44.5778 127.607 45.3981C127.806 45.5229 127.918 45.5657 127.992 45.291C128.087 44.942 128.346 44.7605 128.692 44.7366C128.861 44.7252 128.948 44.6988 128.928 44.5828L128.928 44.5827ZM131.898 48.3401C133.198 49.6141 134.563 50.7393 135.886 51.9098C136.128 52.1228 136.223 51.9098 136.303 51.7737C137.078 50.5124 137.546 49.1414 137.736 47.6734C137.764 47.4655 137.722 47.3735 137.483 47.3609C135.936 47.2727 134.39 47.1706 132.846 47.0686C132.645 47.0547 132.52 47.0648 132.578 47.3256C132.693 47.8536 132.466 48.1901 131.898 48.34L131.898 48.3401ZM127.308 47.511C127.133 47.3989 126.981 47.4014 126.829 47.3989C125.346 47.3875 123.863 47.39 122.379 47.3573C121.976 47.3459 121.88 47.4984 121.921 47.8563C122.082 49.2814 122.547 50.5894 123.375 51.7689C123.509 51.9604 123.626 51.9528 123.787 51.8319C125.004 50.9183 126.224 50.0073 127.437 49.0874C127.546 49.0055 127.696 48.9425 127.463 48.7611C126.97 48.3818 126.953 48.0693 127.308 47.5111L127.308 47.511ZM131.806 45.6814C133.293 44.7678 134.649 43.7572 136.019 42.7643C136.293 42.5652 136.126 42.4014 135.991 42.2401C135.125 41.1778 134.054 40.3953 132.788 39.8699C132.502 39.7527 132.359 39.7791 132.266 40.108C132.099 40.704 131.882 41.2862 131.69 41.8759C131.382 42.8172 131.074 43.7597 130.762 44.7174C131.486 44.7476 131.692 44.9366 131.806 45.6814L131.806 45.6814ZM132.173 54.8272C131.696 53.2029 131.224 51.5949 130.749 49.9772C130.111 50.4484 129.934 50.4359 129.275 49.8902C129.228 49.9784 129.174 50.0603 129.137 50.1473C128.563 51.5183 127.999 52.893 127.405 54.2515C127.26 54.5841 127.362 54.6736 127.655 54.7719C129.15 55.2646 130.646 55.2407 132.173 54.8274L132.173 54.8272ZM125.61 45.2959C125.522 45.5592 125.44 45.7457 125.401 45.9385C125.363 46.1263 125.265 46.1855 125.087 46.1805C124.566 46.1641 124.034 46.2107 123.521 46.1339C122.655 46.0041 122.76 46.2082 122.988 45.3665C123.05 45.1409 123.101 44.9116 123.154 44.6822C123.23 44.3521 123.346 44.1908 123.718 44.4189C124.059 44.628 124.446 44.7679 124.813 44.9368C124.266 44.4731 123.666 44.1064 123.095 43.6981C122.854 43.5268 122.766 43.6314 122.675 43.8153C122.333 44.5096 122.097 45.2329 122.018 46.0104C121.981 46.3519 122.05 46.4741 122.426 46.4615C123.321 46.4287 124.218 46.4527 125.112 46.4501C125.653 46.4501 125.924 45.9121 125.61 45.2959L125.61 45.2959ZM127.799 51.2688C127.785 50.9323 127.103 50.5518 126.85 50.7194C126.017 51.2789 125.193 51.8497 124.363 52.4117C124.151 52.5528 124.092 52.6524 124.316 52.8691C124.876 53.4147 125.516 53.8369 126.175 54.2439C126.433 54.4014 126.525 54.3447 126.633 54.0649C126.976 53.1778 127.358 52.3059 127.725 51.4276C127.752 51.3658 127.781 51.3079 127.799 51.2688L127.799 51.2688ZM136.301 46.2498C136.301 46.2838 136.299 46.3165 136.299 46.3506C136.64 46.3506 136.975 46.3493 137.315 46.3518C137.481 46.3531 137.566 46.3102 137.527 46.1174C137.36 45.2959 137.16 44.4856 136.859 43.7006C136.8 43.5469 136.737 43.4675 136.566 43.5759C135.688 44.1303 134.796 44.6671 133.929 45.243C133.596 45.4635 133.875 45.7924 133.895 46.0708C133.916 46.3544 134.142 46.2447 134.282 46.246C134.952 46.2573 135.626 46.2498 136.301 46.2498L136.301 46.2498ZM135.464 52.7481C135.402 52.6826 135.354 52.6184 135.29 52.5692C134.486 51.9581 133.682 51.3444 132.871 50.7446C132.534 50.4989 132.38 50.8958 132.141 50.9853C131.895 51.076 131.928 51.2487 131.992 51.4339C132.321 52.3676 132.658 53.2963 132.976 54.2338C133.052 54.4581 133.134 54.4757 133.338 54.3762C134.087 54.0095 134.72 53.4916 135.32 52.9233C135.369 52.8817 135.403 52.8225 135.464 52.7482L135.464 52.7481ZM130.02 39.3875C129.536 39.4215 129.167 39.4366 128.801 39.4744C128.555 39.4996 128.46 39.6168 128.542 39.8877C128.821 40.7988 129.084 41.7161 129.339 42.6334C129.467 43.0921 129.873 42.8514 130.138 42.9598C130.374 43.0556 130.441 42.8351 130.497 42.6549C130.773 41.7627 131.051 40.8681 131.327 39.9747C131.398 39.7504 131.393 39.5841 131.09 39.5525C130.698 39.5034 130.303 39.4303 130.02 39.3875L130.02 39.3875ZM129.791 48.1778C130.304 48.1791 130.737 47.7746 130.746 47.2857C130.757 46.7602 130.318 46.299 129.805 46.3028C129.289 46.3066 128.837 46.764 128.847 47.2706C128.857 47.7897 129.258 48.174 129.791 48.1778H129.791ZM124.778 45.9235C124.925 45.8769 125.112 45.9916 125.182 45.727C125.248 45.4611 125.086 45.4145 124.92 45.3325C124.662 45.2103 124.41 45.0755 124.156 44.9482C123.465 44.5954 123.472 44.5979 123.265 45.3363C123.171 45.6703 123.145 45.9084 123.63 45.8517C124.011 45.8076 124.4 45.8353 124.778 45.9235V45.9235ZM130.033 50.0035C130.347 50.0401 130.487 49.8334 130.492 49.5537C130.497 49.279 130.296 49.1039 130.038 49.1076C129.781 49.1089 129.579 49.284 129.583 49.5575C129.587 49.807 129.699 50.0199 130.033 50.0035ZM131.915 47.0688C131.702 47.1431 131.453 47.1847 131.449 47.4897C131.445 47.7732 131.566 47.9811 131.87 48.005C132.145 48.029 132.325 47.8551 132.354 47.6006C132.389 47.3107 132.178 47.1608 131.915 47.0688V47.0688ZM131.07 45.0312C130.75 45.0149 130.582 45.2278 130.571 45.4798C130.562 45.7041 130.703 45.9347 130.993 45.9435C131.292 45.9511 131.479 45.7885 131.479 45.4975C131.478 45.253 131.353 45.0564 131.07 45.0312ZM128.273 48.1184C128.222 47.874 128.121 47.6799 127.832 47.6673C127.518 47.6547 127.355 47.8475 127.345 48.1184C127.336 48.3692 127.504 48.567 127.774 48.5759C128.062 48.5834 128.228 48.4108 128.273 48.1184ZM129.024 45.4244C129.064 45.1383 128.914 45.0325 128.681 45.0375C128.381 45.0451 128.218 45.2291 128.222 45.5201C128.223 45.7898 128.439 45.8994 128.667 45.8919C128.953 45.883 129.064 45.6852 129.024 45.4244Z" fill="black"/>
<path fill-rule="evenodd" clip-rule="evenodd" d="M35.2224 39.0161C40.4843 39.0212 43.4179 43.0271 43.4495 47.2393C43.4835 51.7858 39.8834 55.4222 35.3876 55.4752C30.6221 55.5281 27.1466 51.88 26.993 47.4874C26.8229 42.6739 30.8111 38.9568 35.2227 39.0158L35.2224 39.0161ZM34.1261 47.9564C34.0543 48.2689 33.9812 48.5814 33.7129 48.7856C33.4205 49.0073 33.1168 49.2178 32.822 49.4383C31.664 50.304 30.5097 51.1684 29.3568 52.0378C29.2598 52.1122 29.0569 52.179 29.1539 52.3327C29.2636 52.5078 29.3883 52.3251 29.4841 52.2609C30.2515 51.7455 31.0201 51.2314 31.7799 50.7022C32.5423 50.1729 32.5247 50.1842 33.2038 50.7601C33.5037 51.0172 33.5302 51.2301 33.374 51.5766C32.9695 52.4776 32.6103 53.4 32.2336 54.311C32.192 54.4156 32.095 54.5479 32.2789 54.5945C32.4037 54.6286 32.4201 54.49 32.4541 54.403C32.6582 53.8902 32.8548 53.371 33.0703 52.8619C33.573 51.6749 34.0191 50.4615 34.6504 49.3326C34.8457 48.9861 35.1053 48.7038 35.5753 48.7668C36.0365 48.8298 36.2053 49.1411 36.3213 49.5417C36.7749 51.1156 37.2386 52.6844 37.7124 54.253C37.7628 54.4206 37.6885 54.7709 38.045 54.6613C38.3941 54.5491 38.1118 54.3236 38.0627 54.1749C37.7628 53.2677 37.4541 52.3629 37.1176 51.4683C36.9916 51.1306 36.9916 50.8962 37.3545 50.7387C37.4616 50.6933 37.5599 50.6215 37.6494 50.5472C37.9455 50.2964 38.1912 50.2851 38.5201 50.556C39.2875 51.1847 40.0952 51.7631 40.8941 52.3503C40.981 52.4133 41.0806 52.6036 41.2204 52.4549C41.3868 52.2798 41.165 52.1966 41.0919 52.0845C41.0579 52.0303 40.9949 51.9925 40.942 51.9484C39.949 51.089 38.9385 50.2523 37.9707 49.364C37.4919 48.9229 36.9677 48.5058 36.6363 47.9312C36.3074 47.3642 36.6451 46.7556 37.3029 46.7657C38.2278 46.7858 39.1514 46.8614 40.0763 46.9106C41.0176 46.961 41.9589 47.0152 42.9014 47.0567C43.011 47.0618 43.2026 47.1386 43.1938 46.9055C43.1887 46.748 43.1408 46.6006 42.9367 46.5943C42.8687 46.593 42.8006 46.5905 42.7338 46.5905C41.8379 46.5779 40.9432 46.5615 40.0499 46.554C39.1287 46.5451 39.1615 46.5401 38.9208 45.6291C38.8263 45.2699 38.9158 45.1086 39.193 44.9411C40.0549 44.4206 40.9092 43.8902 41.7636 43.3571C41.8883 43.279 42.1088 43.245 41.94 42.9917C41.7611 42.7221 41.654 42.9085 41.5116 43.0169C40.283 43.9292 39.0481 44.8302 37.759 45.658C37.2474 45.9882 36.7295 46.3284 36.0541 46.278C36.5443 47.0782 36.5203 47.6893 36.0125 48.1442C35.4707 48.6381 35.0095 48.594 34.1262 47.9565L34.1261 47.9564ZM35.7756 46.1142C35.5677 45.7047 35.6458 45.3468 35.7743 44.9675C36.3363 43.3143 36.8819 41.6559 37.4187 39.994C37.4553 39.8806 37.6758 39.6828 37.3772 39.582C37.0911 39.4849 37.0823 39.7206 37.0344 39.8869C36.7874 40.7047 36.5556 41.5288 36.3011 42.3453C36.0289 43.2236 36.0188 43.2047 35.075 43.216C34.7449 43.2211 34.5911 43.1089 34.508 42.8002C34.2421 41.8161 33.9611 40.8332 33.67 39.8541C33.6272 39.7117 33.6561 39.4333 33.3575 39.5089C33.0236 39.5933 33.2529 39.8264 33.2895 39.9499C33.7948 41.6359 34.3505 43.3041 34.7297 45.028C34.8179 45.435 34.9036 45.7991 34.5294 46.0776C34.1375 46.3725 33.7847 46.1822 33.428 45.9579C31.921 45.0166 30.4076 44.0879 28.888 43.1668C28.7797 43.1001 28.6335 42.8543 28.476 43.1013C28.3135 43.3546 28.5806 43.405 28.7104 43.4932C29.4803 44.0022 30.2401 44.534 31.0365 44.9977C31.5065 45.2699 31.6325 45.5685 31.3704 46.0361C31.3377 46.094 31.3251 46.1646 31.3175 46.2288C31.2772 46.6094 31.063 46.7115 30.6963 46.6988C29.668 46.6661 28.6373 46.6661 27.6091 46.661C27.4717 46.6598 27.2966 46.6018 27.2878 46.8564C27.2802 47.097 27.4012 47.1437 27.6003 47.1285C27.9531 47.1046 28.3046 47.0706 28.6575 47.0655C29.973 47.0416 31.2872 47.0781 32.6016 47.1563C33.0716 47.1852 33.5391 47.1575 33.9562 47.4436C34.0558 46.3032 34.6064 45.8924 35.7758 46.1142L35.7756 46.1142ZM34.3794 44.7231C33.9749 43.0598 33.4558 41.4644 32.9593 39.8653C32.9102 39.7078 32.8598 39.6562 32.6733 39.7267C31.1562 40.2975 29.92 41.2439 28.9181 42.5102C28.7379 42.7383 28.8602 42.8152 29.0404 42.9235C29.8607 43.4188 30.6734 43.9266 31.4887 44.4281C32.0935 44.8024 32.6996 45.1778 33.3271 45.5659C33.4166 44.9107 33.7934 44.6889 34.3793 44.7229L34.3794 44.7231ZM37.3494 48.3308C37.3784 48.3712 37.3998 48.419 37.4339 48.4518C38.6712 49.669 40.0095 50.7691 41.3074 51.9208C41.5065 52.0972 41.5582 51.9536 41.64 51.8301C42.4742 50.5977 42.914 49.2255 43.1118 47.7627C43.1534 47.4489 43.0198 47.3468 42.7338 47.3305C42.0798 47.2965 41.4258 47.2473 40.7719 47.2108C39.8356 47.1604 38.9006 47.1138 37.9543 47.0646C38.0967 47.8358 38.0047 48.0197 37.3495 48.331L37.3494 48.3308ZM32.8181 47.3694C30.9936 47.3694 29.2772 47.3706 27.561 47.3681C27.3317 47.3681 27.2624 47.4815 27.2889 47.6882C27.464 49.1045 27.8673 50.4389 28.6901 51.6285C28.8728 51.8919 29.0139 52.0204 29.3075 51.7381C29.586 51.4748 29.9237 51.2744 30.2324 51.0413C31.1687 50.3344 32.1024 49.6287 33.05 48.9092C32.3645 48.4443 32.3053 48.1381 32.8181 47.3694V47.3694ZM37.183 45.6846C38.719 44.7635 40.066 43.7303 41.4372 42.7272C41.5796 42.6201 41.6287 42.5231 41.4989 42.353C40.5917 41.1748 39.4286 40.3545 38.0525 39.8164C37.8622 39.7408 37.7904 39.7673 37.7274 39.9651C37.2372 41.4621 36.7369 42.9565 36.243 44.4522C36.2027 44.5744 36.1346 44.7269 36.3728 44.7282C36.9448 44.7357 37.1717 45.0722 37.183 45.6845L37.183 45.6846ZM34.6918 49.8227C33.9723 51.3524 33.3712 52.8595 32.7702 54.3666C32.6857 54.5783 32.7525 54.6677 32.9466 54.732C34.3831 55.1944 35.8296 55.2499 37.3001 54.8908C37.5471 54.829 37.5572 54.7295 37.5043 54.548C37.3795 54.1145 37.2535 53.6823 37.1237 53.2489C36.8251 52.2572 36.5252 51.2668 36.2278 50.2776C36.19 50.1516 36.2404 49.9437 35.9682 50.0899C35.313 50.4314 35.2059 50.4049 34.6918 49.8227L34.6918 49.8227ZM30.7476 46.4859C31.2781 46.0285 31.2844 45.5144 30.8106 45.2019C30.0823 44.7231 29.3401 44.2657 28.6319 43.7603C28.2904 43.5146 28.1581 43.6268 28.0057 43.9431C27.6881 44.5983 27.5193 45.2939 27.3933 46.0045C27.3441 46.2805 27.4046 46.4431 27.7524 46.4304C28.4013 46.4027 29.0528 46.4216 29.703 46.4216C29.5367 46.3889 29.3666 46.3926 29.2002 46.3876C28.1745 46.3548 28.1632 46.3448 28.4202 45.3795C28.6798 44.4043 28.6798 44.4042 29.582 44.8453C29.7484 44.9272 29.9109 45.0154 30.0773 45.0986C30.943 45.5307 30.9429 45.5308 30.7476 46.4859L30.7476 46.4859ZM31.7972 54.3475C31.9598 54.3677 31.9636 54.2089 32.0014 54.1195C32.3794 53.2248 32.7436 52.3239 33.1178 51.4279C33.3043 50.9856 32.8544 50.91 32.6843 50.6769C32.518 50.4476 32.3428 50.6391 32.208 50.7273C31.5502 51.1608 30.905 51.6144 30.2536 52.0592C29.4409 52.6137 29.4333 52.6212 30.1994 53.2676C30.5069 53.5272 30.8458 53.7503 31.1785 53.9771C31.3726 54.1094 31.5805 54.2215 31.7972 54.3475L31.7972 54.3475ZM38.5663 54.4458C38.6167 54.4206 38.6608 54.3967 38.7074 54.3753C39.5 54.0174 40.1477 53.4579 40.7752 52.8707C40.8874 52.7674 40.8848 52.6943 40.7513 52.596C39.9297 51.9836 39.1132 51.3637 38.2941 50.7475C37.9602 50.4942 37.7938 50.8609 37.5569 50.9554C37.3692 51.0297 37.2986 51.1671 37.3856 51.4002C37.7321 52.3453 38.0534 53.3029 38.3924 54.2505C38.4214 54.3299 38.4176 54.4685 38.5663 54.4458L38.5663 54.4458ZM41.9837 46.3107C42.1702 46.3245 42.3554 46.3283 42.5407 46.356C42.8695 46.4052 42.9691 46.2615 42.9036 45.9591C42.7448 45.2207 42.5533 44.4898 42.2962 43.7766C42.2256 43.5851 42.1639 43.4465 41.9081 43.6128C41.0613 44.1547 40.1969 44.6713 39.3426 45.2031C38.9558 45.4437 39.3123 45.7474 39.2934 46.0183C39.2796 46.2262 39.4724 46.2628 39.6601 46.2552C40.4363 46.2262 41.2113 46.2766 41.9837 46.3107L41.9837 46.3107ZM35.1553 39.3916C34.9096 39.4093 34.5757 39.432 34.2418 39.4622C33.9847 39.4836 33.8448 39.5504 33.9494 39.8742C34.238 40.779 34.5127 41.6913 34.7533 42.6111C34.8945 43.1479 35.304 42.814 35.5749 42.9161C35.8622 43.0257 35.8622 42.7586 35.9114 42.6048C36.0903 42.0466 36.2491 41.4833 36.4242 40.9213C36.8842 39.4483 36.8413 39.3891 35.1553 39.3916L35.1553 39.3916ZM36.1092 47.2571C36.1167 46.6787 35.7627 46.3032 35.2007 46.2919C34.6954 46.2831 34.2959 46.6863 34.2846 47.2168C34.2733 47.7738 34.6513 48.1656 35.2082 48.1795C35.7261 48.1921 36.1016 47.8065 36.1092 47.2571H36.1092ZM28.594 45.8597C28.5663 46.0059 28.6444 46.0437 28.7679 46.0475C29.2883 46.0689 29.81 46.0878 30.3291 46.1142C30.5118 46.1231 30.5496 45.9807 30.6051 45.8647C30.6895 45.6909 30.5522 45.6241 30.4299 45.5648C29.9964 45.3557 29.5643 45.1427 29.1257 44.9411C29.0388 44.9008 28.8939 44.7987 28.8372 44.9827C28.7465 45.2738 28.6746 45.5686 28.594 45.8597L28.594 45.8597ZM33.1227 47.6692C32.9261 47.6969 32.7598 47.8179 32.7598 48.1115C32.7598 48.4 32.9148 48.5752 33.1819 48.5727C33.4642 48.5676 33.6583 48.3698 33.6608 48.085C33.6671 47.8053 33.4743 47.6717 33.1227 47.6692ZM35.3216 50.0054C35.7084 50.018 35.8924 49.8756 35.8999 49.5719C35.9075 49.3022 35.7424 49.1221 35.4778 49.1044C35.1817 49.083 35.0028 49.2594 34.9877 49.5542C34.9751 49.8264 35.1162 49.9928 35.3216 50.0053L35.3216 50.0054ZM37.286 47.0593C37.0164 47.1122 36.8236 47.2761 36.8349 47.5621C36.8437 47.8254 37.0151 47.9905 37.3062 47.9754C37.5897 47.9615 37.7321 47.809 37.7346 47.5268C37.7333 47.2382 37.562 47.1072 37.286 47.0593ZM36.409 45.0344C36.1633 45.0482 36.0171 45.2045 35.9969 45.4754C35.9755 45.7677 36.1519 45.9215 36.4128 45.9391C36.7215 45.9631 36.884 45.7299 36.8967 45.4716C36.9118 45.2158 36.7303 45.0432 36.409 45.0344H36.409ZM34.4836 45.3632C34.4848 45.1591 34.35 45.0293 34.1169 45.0306C33.8548 45.0319 33.6658 45.173 33.6343 45.4389C33.6053 45.6934 33.7414 45.8433 34.006 45.8635C34.3412 45.89 34.4331 45.6732 34.4836 45.3632Z" fill="black"/>
<path fill-rule="evenodd" clip-rule="evenodd" d="M128.439 44.129C128.463 44.4579 128.316 44.6406 128.11 44.7704C127.897 44.904 127.652 44.9128 127.448 44.7528C126.583 44.0648 125.721 43.3667 124.858 42.6736C124.721 42.564 124.721 42.4859 124.881 42.3687C125.44 41.9642 125.982 41.5433 126.528 41.1262C126.673 41.0141 126.798 40.9183 126.923 41.1565C127.41 42.0889 127.906 43.0151 128.392 43.945C128.429 44.0169 128.432 44.1051 128.439 44.129L128.439 44.129ZM125.131 42.5312C125.961 43.1991 126.744 43.8316 127.53 44.4592C127.68 44.5789 127.838 44.6494 128.02 44.4882C128.208 44.318 128.183 44.1379 128.082 43.9476C127.669 43.1613 127.248 42.3838 126.84 41.595C126.732 41.3909 126.666 41.377 126.478 41.5295C126.065 41.871 125.62 42.1721 125.131 42.5313L125.131 42.5312Z" fill="black"/>
<path fill-rule="evenodd" clip-rule="evenodd" d="M133.79 47.7032C134.853 47.8519 135.912 47.9993 136.975 48.1455C137.179 48.1745 137.321 48.2161 137.208 48.4832C136.938 49.1158 136.671 49.7483 136.438 50.3922C136.342 50.6543 136.229 50.5964 136.07 50.5006C135.199 49.9726 134.332 49.4396 133.458 48.9205C133.107 48.7113 133.104 48.4038 133.216 48.0863C133.303 47.8356 133.499 47.6793 133.79 47.7032L133.79 47.7032ZM136.906 48.4202C135.873 48.269 134.882 48.1216 133.887 47.9792C133.688 47.9489 133.532 47.9993 133.445 48.2161C133.357 48.4328 133.421 48.5664 133.608 48.6785C134.384 49.1498 135.159 49.6198 135.931 50.0948C136.106 50.2032 136.223 50.2196 136.307 49.9953C136.501 49.4787 136.699 48.9658 136.906 48.4202Z" fill="black"/>
<path fill-rule="evenodd" clip-rule="evenodd" d="M123.493 50.8451C123.248 50.0651 123.022 49.3456 122.794 48.6274C122.752 48.4913 122.618 48.3225 122.882 48.2859C123.962 48.1397 125.041 48.0024 126.123 47.8688C126.465 47.8272 126.635 48.0188 126.747 48.3262C126.869 48.6665 126.727 48.8895 126.467 49.0483C125.496 49.6456 124.518 50.2277 123.493 50.8451H123.493ZM126.487 48.5165C126.455 48.2078 126.308 48.0956 125.98 48.146C125.139 48.2746 124.294 48.3842 123.451 48.4762C123.151 48.5089 123.071 48.6223 123.162 48.8958C123.292 49.2927 123.434 49.6871 123.536 50.0916C123.616 50.4129 123.745 50.3827 123.975 50.2415C124.726 49.7753 125.488 49.328 126.244 48.8668C126.366 48.7899 126.51 48.7105 126.487 48.5165L126.487 48.5165Z" fill="black"/>
<path fill-rule="evenodd" clip-rule="evenodd" d="M132.161 44.8645C131.658 44.8632 131.356 44.4424 131.549 43.9824C131.961 43.0147 132.39 42.0533 132.804 41.0855C132.899 40.8637 133.008 40.8096 133.212 40.9721C133.753 41.4005 134.292 41.8302 134.849 42.2372C135.037 42.3733 135.003 42.4552 134.866 42.58C134.088 43.297 133.313 44.0202 132.534 44.7385C132.432 44.838 132.3 44.8645 132.161 44.8645L132.161 44.8645ZM132.159 44.6138C132.229 44.576 132.33 44.5432 132.403 44.4777C133.1 43.8451 133.792 43.2062 134.486 42.5724C134.612 42.459 134.57 42.3809 134.457 42.2965C134.056 41.9966 133.652 41.6979 133.257 41.388C133.077 41.2456 133.012 41.3212 132.936 41.4925C132.564 42.3545 132.179 43.2088 131.803 44.0682C131.663 44.392 131.849 44.5306 132.159 44.6138L132.159 44.6138Z" fill="black"/>
<path fill-rule="evenodd" clip-rule="evenodd" d="M130.584 54.3581C130.139 54.2635 129.55 54.2623 128.962 54.261C128.653 54.2598 128.561 54.0871 128.632 53.7973C128.866 52.856 129.108 51.9135 129.315 50.9672C129.393 50.6055 129.607 50.4392 129.927 50.4216C130.26 50.4052 130.502 50.5665 130.569 50.9306C130.759 51.9651 130.957 53.001 131.152 54.0342C131.226 54.4223 130.959 54.3757 130.584 54.3581H130.584ZM130.456 54.0796C130.74 54.13 130.895 54.0468 130.768 53.539C130.565 52.7313 130.473 51.8971 130.335 51.073C130.301 50.8739 130.227 50.7303 129.99 50.7139C129.732 50.6937 129.615 50.8298 129.564 51.0478C129.356 51.9261 129.155 52.8056 128.947 53.6839C128.904 53.8717 128.946 53.9586 129.159 53.97C129.54 53.9863 129.926 54.0305 130.456 54.0796V54.0796Z" fill="black"/>
<path fill-rule="evenodd" clip-rule="evenodd" d="M126.122 53.7742C126.063 53.7313 125.99 53.686 125.931 53.628C125.723 53.4327 125.518 53.2336 125.315 53.0332C124.803 52.5242 124.807 52.5254 125.422 52.0919C125.738 51.8702 126.047 51.6408 126.354 51.409C126.592 51.2288 126.771 51.0373 127.104 51.3422C127.411 51.6257 127.413 51.8349 127.209 52.1474C126.918 52.5972 126.649 53.0609 126.371 53.5183C126.308 53.6191 126.266 53.7363 126.122 53.7741L126.122 53.7742ZM126.758 51.4745C126.466 51.6824 126.199 51.8815 125.927 52.0705C125.177 52.5947 125.181 52.7094 125.927 53.2588C126.081 53.3722 126.151 53.3495 126.238 53.2034C126.488 52.7712 126.741 52.3402 126.992 51.9105C127.161 51.6232 126.886 51.6031 126.758 51.4745Z" fill="black"/>
<path fill-rule="evenodd" clip-rule="evenodd" d="M135.345 46.0484C135.209 46.0484 135.073 46.0345 134.938 46.0522C134.646 46.09 134.458 45.998 134.409 45.6905C134.366 45.402 134.322 45.1524 134.705 45.0075C135.238 44.811 135.743 44.5413 136.255 44.2905C136.483 44.1771 136.634 44.1406 136.651 44.4695C136.654 44.5526 136.696 44.632 136.714 44.7152C137.012 46.0483 137.012 46.0483 135.646 46.0496C135.545 46.0483 135.445 46.0483 135.345 46.0483L135.345 46.0484ZM136.371 44.5451C135.913 44.7568 135.464 44.9659 135.012 45.1776C134.953 45.2066 134.895 45.2318 134.836 45.2621C134.695 45.3339 134.681 45.4536 134.697 45.5985C134.719 45.785 134.852 45.7396 134.961 45.7434C135.145 45.7485 135.329 45.7447 135.514 45.7447C136.703 45.7447 136.703 45.7447 136.371 44.5451L136.371 44.5451Z" fill="black"/>
<path fill-rule="evenodd" clip-rule="evenodd" d="M134.797 52.9129C134.814 53.025 134.735 53.0767 134.671 53.1183C134.276 53.3715 133.876 53.6135 133.482 53.8693C133.327 53.9726 133.248 53.9411 133.181 53.7748C132.924 53.1359 132.666 52.5008 132.405 51.8657C132.292 51.5898 132.555 51.5457 132.687 51.4789C132.839 51.4071 132.954 51.1046 133.186 51.3239C133.699 51.8103 134.203 52.3068 134.711 52.7982C134.744 52.8373 134.772 52.8814 134.797 52.9129L134.797 52.9129ZM133.498 53.5379C133.772 53.3514 134.072 53.1674 134.351 52.9545C134.435 52.8915 134.318 52.8121 134.264 52.7591C133.927 52.429 133.59 52.1039 133.252 51.775C133.138 51.6629 133.04 51.5822 132.86 51.6868C132.672 51.7964 132.73 51.9338 132.781 52.0661C132.944 52.487 133.117 52.9041 133.29 53.3199C133.327 53.4068 133.349 53.5114 133.498 53.5379V53.5379Z" fill="black"/>
<path fill-rule="evenodd" clip-rule="evenodd" d="M129.032 40.1677H130.568C130.861 40.1677 130.939 40.2963 130.864 40.5836C130.711 41.1834 130.566 41.7844 130.455 42.393C130.412 42.6312 130.301 42.7648 130.101 42.6879C129.873 42.5997 129.497 42.8265 129.425 42.3666C129.312 41.6433 129.17 40.9276 129.032 40.1678L129.032 40.1677ZM130.575 40.6138C130.592 40.5634 130.567 40.4512 130.334 40.4676C130.1 40.484 129.863 40.4727 129.626 40.4714C129.476 40.4701 129.367 40.479 129.41 40.6894C129.507 41.1808 129.578 41.6773 129.665 42.1687C129.693 42.3149 129.772 42.4018 129.941 42.4006C130.112 42.3968 130.188 42.2998 130.219 42.1637C130.335 41.6899 130.44 41.2174 130.575 40.6138L130.575 40.6138Z" fill="black"/>
<path fill-rule="evenodd" clip-rule="evenodd" d="M33.171 44.8419C33.0613 44.8167 32.9504 44.8432 32.8421 44.755C31.9953 44.0632 31.141 43.3815 30.2829 42.7011C30.1165 42.5713 30.1317 42.4793 30.2967 42.3583C30.8638 41.9412 31.427 41.5166 31.984 41.0806C32.1503 40.9508 32.231 40.9773 32.3242 41.1524C32.8081 42.0736 33.3046 42.9846 33.7796 43.907C34.0064 44.3442 33.6649 44.8458 33.171 44.842L33.171 44.8419ZM33.5704 44.1791C33.5654 44.1539 33.5654 44.101 33.5427 44.0594C33.0979 43.2139 32.6506 42.3709 32.2083 41.5292C32.1415 41.4006 32.0709 41.3528 31.9386 41.4548C31.5266 41.7724 31.1107 42.0849 30.6962 42.3961C30.5702 42.4919 30.5739 42.5624 30.7012 42.662C31.4636 43.2668 32.2146 43.8868 32.9807 44.4866C33.2075 44.6642 33.554 44.4853 33.5704 44.1791L33.5704 44.1791Z" fill="black"/>
<path fill-rule="evenodd" clip-rule="evenodd" d="M38.5452 48.3355C38.5502 47.9285 38.8791 47.616 39.2672 47.6815C40.2765 47.8491 41.2883 47.999 42.3078 48.0885C42.5799 48.1124 42.7173 48.2385 42.5913 48.5346C42.3317 49.152 42.0621 49.7682 41.8327 50.3957C41.7407 50.6465 41.6752 50.6124 41.4912 50.499C40.6243 49.9622 39.746 49.4406 38.8677 48.9164C38.646 48.7815 38.5263 48.6001 38.5452 48.3355ZM42.319 48.4023C41.2908 48.2573 40.2979 48.115 39.3036 47.9801C39.1171 47.9549 38.9118 47.9461 38.8651 48.1981C38.8273 48.3972 38.8273 48.5635 39.0642 48.7009C39.8379 49.1419 40.5889 49.6183 41.3462 50.087C41.51 50.1878 41.6121 50.2571 41.7016 49.9824C41.8717 49.4607 42.0985 48.9592 42.319 48.4023V48.4023Z" fill="black"/>
<path fill-rule="evenodd" clip-rule="evenodd" d="M28.1096 48.2935C29.2336 48.1486 30.3135 48.0214 31.3896 47.8676C31.7702 47.8135 32.031 47.9395 32.1394 48.2872C32.2439 48.625 32.1255 48.9009 31.7991 49.095C30.9208 49.6154 30.0539 50.1572 29.1819 50.6877C29.0081 50.7923 28.877 50.8641 28.7951 50.5617C28.5948 49.8145 28.3516 49.0836 28.1096 48.2936V48.2935ZM29.0597 50.4168C29.9468 49.8749 30.8011 49.3457 31.6643 48.8303C31.8697 48.7081 31.9629 48.5796 31.8571 48.3402C31.7563 48.1083 31.5975 48.0781 31.3657 48.1146C30.5038 48.2469 29.6419 48.3742 28.7775 48.4762C28.4977 48.509 28.4826 48.6149 28.557 48.8379C28.7271 49.3482 28.8821 49.8586 29.0597 50.4168H29.0597Z" fill="black"/>
<path fill-rule="evenodd" clip-rule="evenodd" d="M38.3579 40.7806C38.9741 41.2444 39.5651 41.6879 40.1523 42.134C40.3401 42.2764 40.4736 42.4036 40.2103 42.638C39.4933 43.2769 38.7977 43.9384 38.1021 44.5974C37.8073 44.8759 37.5112 44.9628 37.1571 44.7146C36.7979 44.4613 36.8647 44.1476 37.0109 43.8174C37.4582 42.8106 37.9056 41.8013 38.3579 40.7806L38.3579 40.7806ZM38.4663 41.2154C38.0669 42.139 37.6914 43.0274 37.2944 43.9069C37.1911 44.135 37.0916 44.319 37.3524 44.503C37.5994 44.6794 37.7607 44.5269 37.9232 44.377C38.5407 43.8074 39.1531 43.2278 39.7768 42.6645C39.9721 42.4856 39.9973 42.3684 39.7629 42.2008C39.3383 41.8984 38.9338 41.5733 38.4663 41.2154L38.4663 41.2154Z" fill="black"/>
<path fill-rule="evenodd" clip-rule="evenodd" d="M36.0773 54.3419C35.5872 54.168 34.9193 54.3255 34.2704 54.2084C34.036 54.1668 33.9579 54.134 34.0247 53.8669C34.2691 52.8928 34.4758 51.91 34.7038 50.9334C34.7883 50.568 35.0491 50.3991 35.4107 50.4167C35.7598 50.4331 35.9476 50.6486 36.0055 50.9876C36.1769 51.9944 36.3168 53.0049 36.5385 54.0004C36.6242 54.3822 36.5083 54.3961 36.0773 54.3419L36.0773 54.3419ZM35.8556 54.0609C36.1277 54.1479 36.2777 54.0244 36.2097 53.6577C36.0471 52.7996 35.8846 51.9453 35.7296 51.0859C35.6918 50.8704 35.654 50.7015 35.3679 50.7066C35.1083 50.7104 35.0302 50.8263 34.9798 51.0607C34.8047 51.8432 34.6144 52.6219 34.4103 53.3969C34.2943 53.8303 34.38 54.0256 34.8778 53.9727C35.1726 53.945 35.4788 54.0244 35.8556 54.0609V54.0609Z" fill="black"/>
<path fill-rule="evenodd" clip-rule="evenodd" d="M32.1709 51.1129C32.4305 51.1973 32.5868 51.4304 32.7795 51.6081C32.9207 51.7366 32.7543 51.845 32.6951 51.9483C32.3864 52.4826 32.0663 53.0106 31.7614 53.5474C31.6455 53.7515 31.5522 53.8195 31.3569 53.623C31.0495 53.3105 30.7206 53.0219 30.3992 52.7258C30.2921 52.6288 30.1863 52.5494 30.3665 52.4171C30.936 52.0038 31.4968 51.5791 32.0651 51.1621C32.0915 51.1419 32.1268 51.1331 32.1709 51.1129L32.1709 51.1129ZM31.5207 53.3924C31.5661 53.3168 31.6001 53.2601 31.6329 53.2046C31.8962 52.7598 32.1583 52.3163 32.4192 51.8715C32.491 51.7505 32.4406 51.6623 32.3398 51.5703C32.2276 51.467 32.1319 51.4871 32.0323 51.5577C31.7072 51.7895 31.3708 52.0113 31.0671 52.2696C30.9424 52.378 30.5845 52.407 30.7508 52.6577C30.9285 52.9249 31.2246 53.1202 31.5207 53.3923L31.5207 53.3924Z" fill="black"/>
<path fill-rule="evenodd" clip-rule="evenodd" d="M40.203 52.9451C40.1728 52.9829 40.1501 53.0245 40.1161 53.0522C40.0506 53.1027 39.98 53.1493 39.9082 53.1909C39.4949 53.429 39.0702 53.9834 38.6947 53.8499C38.3948 53.7428 38.3041 53.051 38.1227 52.6175C38.0635 52.4789 38.0067 52.3391 37.9475 52.1979C37.7383 51.7052 37.8593 51.4532 38.3671 51.2869C38.4591 51.2566 38.5183 51.2529 38.5876 51.3209C39.0929 51.8161 39.6007 52.3126 40.1048 52.8091C40.1388 52.8456 40.164 52.891 40.2031 52.9452L40.203 52.9451ZM38.4478 51.6208C38.1655 51.6737 38.076 51.8123 38.1768 52.058C38.2776 52.3038 38.3848 52.5482 38.4856 52.7914C38.8258 53.6029 38.822 53.5991 39.5466 53.1052C39.7343 52.9792 39.8124 52.8733 39.6083 52.6881C39.2744 52.3844 38.9556 52.0618 38.6279 51.7506C38.57 51.6977 38.4994 51.6573 38.4478 51.6208H38.4478Z" fill="black"/>
<path fill-rule="evenodd" clip-rule="evenodd" d="M41.9869 44.1193C42.07 44.5024 42.1419 44.8275 42.2124 45.1513C42.3876 45.954 42.3876 45.9515 41.5446 45.9842C41.1439 46.0006 40.7394 46.0019 40.3437 46.0548C39.9531 46.1077 39.8737 45.9011 39.7994 45.5873C39.7275 45.2862 39.7905 45.1337 40.0816 45.0089C40.7091 44.738 41.3203 44.4331 41.9868 44.1193L41.9869 44.1193ZM41.0091 45.7423V45.7335C41.2598 45.7335 41.5118 45.741 41.7626 45.7322C41.9453 45.7247 42.0537 45.6239 41.9906 45.4374C41.8949 45.1501 41.9692 44.8111 41.7286 44.5717C41.716 44.5578 41.6403 44.6057 41.595 44.6246C41.1414 44.8325 40.6865 45.0366 40.2341 45.2496C40.1005 45.3114 40.0413 45.4235 40.0854 45.5797C40.127 45.7246 40.2303 45.7461 40.355 45.7461C40.5743 45.7423 40.7923 45.7423 41.009 45.7423L41.0091 45.7423Z" fill="black"/>
<path fill-rule="evenodd" clip-rule="evenodd" d="M35.3419 42.6355C34.9538 42.7073 34.8253 42.4893 34.7787 42.1025C34.7157 41.5909 34.5859 41.0856 34.4914 40.5778C34.441 40.2955 34.4662 40.1014 34.8593 40.1556C35.2222 40.2048 35.6003 40.1859 35.9669 40.1607C36.321 40.1367 36.3513 40.293 36.2782 40.5778C36.1333 41.1435 36.0073 41.7106 35.8737 42.2776C35.7817 42.6771 35.7792 42.6771 35.342 42.6355H35.3419ZM35.095 40.419C34.8782 40.3724 34.7459 40.4492 34.7951 40.7075C34.8896 41.1977 35.0005 41.6854 35.0874 42.1768C35.1177 42.352 35.2033 42.3986 35.3596 42.3948C35.4957 42.391 35.5725 42.3457 35.6015 42.1995C35.657 41.921 35.7439 41.6488 35.7981 41.3704C35.9707 40.4984 35.9669 40.4971 35.095 40.419L35.095 40.419Z" fill="black"/>
</g>
<defs>
<clipPath id="clip0_4_904">
<rect width="162.581" height="60" fill="white"/>
</clipPath>
</defs>
</svg>
