<svg width="180" height="60" viewBox="0 0 180 60" fill="none" xmlns="http://www.w3.org/2000/svg">
<path fill-rule="evenodd" clip-rule="evenodd" d="M11.2174 51.9176C12.0063 51.9189 12.7939 51.9258 13.5828 51.9162C14.3455 51.9079 14.6937 51.5721 14.7255 50.797C14.7517 50.207 14.7531 49.6129 14.7337 49.0216C14.7186 48.5822 14.8443 48.3874 15.3334 48.3943C16.5037 48.4067 16.5037 48.3805 16.7496 49.5231C17.9295 55.0151 22.4146 59.1298 28.0322 59.7184C34.8467 60.4341 40.5031 56.1537 42.0711 50.2624C42.2162 49.7235 42.4317 49.5632 42.9858 49.5619C46.8281 49.5425 50.6747 49.5342 54.5145 49.4196C57.3732 49.3325 60.2332 49.4278 63.0877 49.309C66.0624 49.1847 69.0413 49.309 72.0145 49.1888C74.9326 49.07 77.8493 49.1888 80.7631 49.07C83.7199 48.9498 86.6782 49.0686 89.6334 48.9498C92.5294 48.8351 95.4296 48.9498 98.3225 48.831C101.26 48.7121 104.197 48.8323 107.131 48.7121C110.028 48.5933 112.927 48.7121 115.823 48.5933C118.759 48.4731 121.697 48.5919 124.631 48.4703C126.07 48.4109 127.507 48.4386 128.944 48.3916C129.45 48.3736 129.638 48.5159 129.726 49.0576C130.637 54.5747 135.095 58.8687 140.681 59.655C147.4 60.6 153.629 56.4343 155.23 49.9171C155.371 49.3464 155.468 48.7579 155.523 48.172C155.563 47.7782 155.739 47.6884 156.095 47.6884C157.516 47.6898 158.937 47.7188 160.354 47.647C162.397 47.5433 164.452 47.6097 166.486 47.332C166.918 47.2739 167.339 47.1772 167.725 46.963C168.273 46.6646 168.57 46.2128 168.57 45.5786C168.57 44.9665 168.601 44.3544 168.565 43.7437C168.537 43.2602 168.731 42.9354 169.149 42.7558C169.574 42.5735 170.023 42.3068 170.478 42.6702C171.026 43.104 171.584 43.3279 172.257 42.9493C172.791 42.6508 173.517 42.7434 173.919 42.1645C174.029 42.0056 174.183 42.0125 174.336 42.0125C174.73 42.0083 175.125 42.0083 175.52 42.0111C177.297 42.0166 177.55 41.4736 178.002 40.103C178.395 38.9065 178.535 37.6423 178.727 36.3972C178.809 35.8763 178.654 35.3776 178.494 34.8912C178.387 34.5679 178.114 34.4159 177.778 34.3468C177.035 34.1907 176.284 34.275 175.538 34.2418C175.316 34.2322 175.061 34.2612 175.2 33.8992C175.575 32.9251 175.555 31.8847 175.635 30.8719C175.878 27.8889 176.051 24.8975 176.015 21.9009C176 20.58 175.933 19.2646 175.694 17.9616C175.62 17.5582 175.607 17.1561 175.846 16.7637C176.468 15.7413 176.145 15.3351 174.981 15.0546C173.228 14.6346 171.497 14.9869 169.764 14.9855C166.16 14.98 162.555 15.132 158.951 15.2273C156.253 15.2992 153.556 15.3821 150.857 15.4608C148.199 15.5396 145.541 15.6197 142.882 15.6985C140.264 15.7772 137.643 15.8546 135.026 15.9347C131.128 16.0536 127.228 16.1724 123.331 16.2912C120.868 16.3658 118.406 16.4156 115.948 16.5371C114.627 16.6021 113.308 16.5869 111.989 16.6463C111.515 16.6684 111.039 16.7098 110.618 16.953C110.249 17.1644 110.144 17.018 110.119 16.6546C109.792 12.1766 109.195 7.73161 108.475 3.29789C108.287 2.13869 107.652 1.4202 106.621 0.973928C105.923 0.671342 105.192 0.534556 104.436 0.530417C102.602 0.522128 100.768 0.540089 98.9359 0.512456C94.6196 0.444753 90.3062 0.488968 85.991 0.567722C81.756 0.645096 77.5267 0.833002 73.2961 1.02782C71.7057 1.10105 70.1154 1.22126 68.5305 1.4354C68.0953 1.49481 67.6338 1.38152 67.1834 1.34006C66.9582 1.31796 66.9292 1.14663 66.896 0.960111C66.8408 0.645092 67.1434 0.115918 66.6529 0.0606341C66.1872 0.00951277 65.6926 0.256832 65.4163 0.723835C65.1772 1.13141 64.9451 1.54454 64.7323 1.96595C64.6177 2.19116 64.4767 2.34452 64.2294 2.41912C61.046 3.39595 58.2397 5.11338 55.4628 6.88609C51.6081 9.34683 47.8333 11.9278 44.1056 14.575C43.7712 14.814 43.4576 14.8914 43.068 14.7933C42.3412 14.6109 41.707 14.7518 41.2041 15.3542C41.03 15.5628 40.7979 15.7273 40.5837 15.8986C40.107 16.2827 39.4784 16.2357 39.075 15.7674C38.8138 15.462 38.5043 15.31 38.1009 15.3059C35.9759 15.2865 33.8621 15.4703 31.7451 15.6306C30.2515 15.7439 28.7925 16.0368 27.3181 16.2661C27.0086 16.3131 26.6909 16.3629 26.5085 16.6779C26.3703 16.9211 26.1147 16.928 25.8867 16.9473C24.2978 17.0758 22.7103 17.1891 21.1187 17.3135C17.7198 17.5815 14.3445 18.0209 11.001 18.6716C9.78508 18.9093 8.57887 19.2188 7.35884 19.4205C6.29082 19.5987 5.51845 20.1666 4.87874 20.9873C4.61899 21.3175 4.4366 21.7086 3.90605 21.7542C3.5634 21.7846 3.44458 22.1369 3.42661 22.4809C3.41141 22.7697 3.40726 22.988 3.77756 23.1109C4.1506 23.2353 4.11606 23.6374 3.8867 23.8336C3.18619 24.4443 3.44043 25.2083 3.49843 25.9268C3.52882 26.3026 3.59377 26.6618 3.43349 27.0225C3.31882 27.2795 3.30914 27.5655 3.32986 27.8391C3.41692 28.838 3.32573 29.8342 3.32158 30.8317C3.32158 30.9312 3.28979 31.0514 3.3354 31.1233C3.78719 31.868 3.33401 32.2659 2.82971 32.755C2.22176 33.3408 1.40935 33.7996 1.25322 34.7543C1.2477 34.7861 1.20763 34.833 1.17584 34.8372C0.56514 34.927 0.440811 35.329 0.502991 35.861C0.558258 36.3211 0.371735 36.8143 0.679855 37.2399C0.758606 37.349 0.743408 37.4499 0.737885 37.5701C0.642548 39.2198 0.791748 40.8723 1.34164 42.4074C1.97585 44.1856 1.92609 46.0386 2.22868 47.8485C2.31158 48.3542 2.51331 48.6305 2.98996 48.7617C3.59236 48.9275 4.20447 48.8571 4.81377 48.8709C5.17023 48.8792 5.37468 48.9745 5.47971 49.3697C5.95084 51.1548 6.88208 51.8595 8.79709 51.9092C9.59982 51.9341 10.4081 51.9175 11.2164 51.9175L11.2174 51.9176ZM161.104 24.3464C161.991 24.3464 162.717 24.3658 163.442 24.3423C165.233 24.2829 167.023 24.2041 168.811 24.1337C169.079 24.124 169.295 24.1074 169.285 24.5233C169.238 26.553 169.224 28.5839 169.211 30.6138C169.205 31.5077 169.422 31.7136 170.339 31.715C171.622 31.7191 172.902 31.7205 174.185 31.715C174.538 31.7122 174.794 31.7343 174.784 32.2055C174.77 33.0414 174.66 33.2942 174.164 33.3025C173.534 33.315 172.902 33.2846 172.27 33.3012C170.757 33.3426 169.194 34.1633 169.059 36.1046C168.963 37.4614 168.847 38.8168 168.867 40.175C168.876 40.8327 168.585 41.116 167.995 41.2016C167.254 41.3107 166.518 41.4296 165.774 41.5221C163.352 41.8233 160.929 42.1066 158.511 42.4216C158.022 42.4852 157.905 42.3318 157.918 41.8676C158 38.8763 157.625 35.9387 156.868 33.0429C156.065 29.9742 154.242 27.9322 151.111 27.1859C149.728 26.8557 148.306 26.7203 146.894 26.7051C143.408 26.6678 139.915 26.5089 136.439 26.9234C134.68 27.1334 132.989 27.5493 131.647 28.837C130.138 30.2836 129.337 32.1047 128.873 34.0903C128.154 37.1479 127.819 40.2568 127.794 43.3959C127.788 44.1351 127.74 44.1849 127.039 44.1959C124.813 44.236 122.586 44.2733 120.36 44.3106C117.326 44.3576 114.293 44.4073 111.256 44.4515C110.548 44.464 110.47 44.3963 110.48 43.6874C110.492 42.9192 110.553 42.1538 110.557 41.3856C110.577 37.995 110.591 34.6029 110.593 31.2123C110.593 27.3491 110.62 23.4887 110.368 19.6312C110.342 19.2208 110.331 18.805 110.41 18.3932C110.479 18.0243 110.651 17.8627 111.048 17.8668C111.953 17.8723 112.861 17.795 113.763 17.7756C117.701 17.6844 121.638 17.5435 125.575 17.415C128.134 17.3321 130.693 17.252 133.253 17.1829C137.328 17.0696 141.402 16.9452 145.474 16.825C148.191 16.7463 150.909 16.6648 153.624 16.5888C156.517 16.5073 159.412 16.4244 162.308 16.3511C165.576 16.2696 168.846 16.2268 172.115 16.1038C173.652 16.0458 173.765 16.1508 174.034 17.6402C174.117 18.1072 173.989 18.3352 173.491 18.3932C172.808 18.4706 172.126 18.5811 171.477 18.8326C170.334 19.2747 169.504 19.9974 169.362 21.2865C169.306 21.7742 169.328 22.2702 169.326 22.7635C169.322 23.7652 169.326 23.7679 168.363 23.8674C168.049 23.9006 167.737 23.9365 167.422 23.9462C165.609 24.0014 163.799 24.0498 161.986 24.1051C161.735 24.1106 161.483 24.123 161.105 24.3469L161.104 24.3464ZM84.3605 1.34594C84.3591 1.34179 84.3591 1.33765 84.3563 1.33212C84.4489 1.32383 84.5429 1.31278 84.6354 1.31001C88.5372 1.26856 92.4389 1.205 96.3424 1.19672C99.161 1.19119 101.98 1.25199 104.797 1.30035C106.467 1.32798 107.512 2.09067 107.762 3.44193C107.868 4.02222 107.948 4.60669 108.039 5.19112C108.547 8.43943 108.944 11.7015 109.255 14.9747C109.493 17.4644 109.75 19.957 109.789 22.4524C109.861 27.2027 109.834 31.954 109.838 36.7085C109.84 38.8377 109.819 40.9668 109.805 43.0986C109.797 44.1901 109.457 44.53 108.357 44.548C106.565 44.5798 104.772 44.5853 102.98 44.6392C99.7288 44.7359 96.4762 44.6489 93.2253 44.7594C89.9964 44.8685 86.762 44.7691 83.5274 44.8782C80.2611 44.9874 76.9852 44.8907 73.7148 44.997C70.4845 45.1034 67.2501 45.0095 64.0169 45.1159C60.7658 45.225 57.5133 45.1283 54.2624 45.2347C51.3664 45.33 48.4648 45.2651 45.5661 45.2996C45.0922 45.3052 44.9623 45.1338 44.8891 44.7138C44.5975 43.0268 44.3074 41.3384 43.9496 39.6625C43.4328 37.2377 43.0004 34.7881 42.112 32.4586C41.3065 30.3488 39.7079 29.1592 37.5357 28.6838C35.4383 28.2265 33.2993 28.3398 31.1799 28.2679C28.6404 28.1809 26.1011 28.3494 23.5795 28.6976C21.8206 28.9408 20.1156 29.4147 18.7022 30.5145C17.9976 31.063 17.3399 31.3642 16.4736 31.2081C16.3409 31.1846 16.1586 31.2578 16.0867 31.1307C15.9913 30.9649 16.1696 30.8475 16.2594 30.7286C17.7129 28.7598 19.7357 27.7277 22.0927 27.3588C24.8395 26.9291 27.6236 26.8697 30.3939 26.7743C32.5368 26.6997 34.6868 26.7509 36.8338 26.8517C40.4332 27.0203 43.5224 29.5791 44.2355 33.1272C44.6141 35.0187 44.9567 36.9186 45.3464 38.8084C45.4196 39.169 45.3657 39.5863 45.6628 39.9234C45.7995 39.6899 45.736 39.4937 45.7028 39.3058C45.392 37.681 45.0728 36.0575 44.7633 34.4353C44.4856 32.979 44.1775 31.5296 43.3278 30.275C41.6656 27.8211 39.3252 26.63 36.3806 26.5653C34.2929 26.5197 32.2108 26.4506 30.1189 26.5335C27.52 26.6385 24.9212 26.7311 22.343 27.0585C19.6736 27.3957 17.4283 28.5756 15.8617 30.8471C15.6323 31.1801 15.3684 31.3044 14.976 31.2948C13.7339 31.263 12.4959 31.3721 11.2621 31.5048C10.7854 31.5559 10.7703 31.3763 10.8739 31.0129C11.1488 30.0457 11.4113 29.0772 11.6738 28.1087C11.9308 27.1581 12.2003 26.2116 12.4365 25.2569C12.6976 24.1985 12.2306 23.6017 11.1626 23.5975C10.3736 23.5961 9.58336 23.6058 8.79718 23.592C8.554 23.5878 8.20856 23.726 8.08562 23.4745C7.95712 23.2093 8.15469 22.9094 8.29977 22.6538C8.43655 22.4079 8.64658 22.2283 8.87454 22.068C9.39684 21.6977 9.98953 21.4877 10.5975 21.3136C13.1605 20.5827 15.7814 20.1668 18.4218 19.8421C21.4698 19.4677 24.5247 19.1762 27.585 18.9344C28.957 18.8252 30.3317 18.6802 31.7064 18.6208C32.9167 18.5696 34.1271 18.3969 35.4479 18.4715C32.2231 18.7147 29.1073 18.9841 25.9958 19.3171C22.2957 19.7109 18.6079 20.1793 14.9506 20.8742C13.3423 21.1796 11.7437 21.5126 10.2558 22.2324C10.0417 22.336 9.79019 22.4148 9.66583 22.8113C10.5252 22.3692 11.2976 22.0086 12.1266 21.7847C16.0174 20.7375 20.0061 20.2718 23.9895 19.7882C26.5885 19.4732 29.1986 19.2798 31.8044 19.0256C34.9394 18.723 38.0869 18.5917 41.2275 18.3458C43.5694 18.1634 45.8242 17.6826 47.8234 16.3534C47.898 16.3037 47.992 16.1572 48.1218 16.2816C46.8852 19.9513 46.6144 22.7852 46.5094 25.6187C46.3229 30.5802 46.8051 35.495 47.7212 40.368C47.9505 41.5838 48.1495 42.8122 48.5833 43.9853C48.7878 44.538 49.1761 44.8088 49.7577 44.7812C52.4354 44.6568 55.1157 44.7632 57.7964 44.6361C60.0983 44.5256 62.4056 44.6126 64.7118 44.5173C67.0924 44.4178 69.4773 44.4993 71.8619 44.3971C74.1265 44.2976 76.3936 44.3777 78.6598 44.2796C81.0999 44.1732 83.5467 44.2009 85.9883 44.1691C91.1517 44.1014 96.3176 44.118 101.482 44.0282C102.843 44.0047 104.204 44.0199 105.565 44.0088C106.32 44.0005 106.742 43.6068 106.795 42.862C107.001 39.9895 107.059 37.1157 107.023 34.2376C106.997 32.0891 107.011 29.9393 107.013 27.7906C107.013 27.5847 106.955 27.2876 107.241 27.2504C108.338 27.1094 108.384 26.2859 108.467 25.4597C108.677 23.3458 108.902 21.2333 109.116 19.1178C109.14 18.8787 109.249 18.6245 109.076 18.391C108.89 18.4449 108.894 18.5996 108.88 18.7295C108.671 20.8255 108.468 22.9202 108.262 25.0159C108.217 25.4857 108.203 25.9651 108.034 26.41C107.914 26.7264 107.688 26.9586 107.319 26.913C106.904 26.8632 107.03 26.5109 107.009 26.2567C106.829 24.017 106.932 21.7678 106.831 19.5239C106.684 16.2977 106.488 13.0783 106.101 9.87013C105.788 7.26706 105.384 4.68195 104.612 2.17134C104.467 1.7002 104.575 1.61867 105.032 1.70985C105.858 1.87565 106.65 2.08981 107.266 2.73642C107.124 2.16993 106.687 1.95024 106.234 1.77338C105.434 1.46389 104.59 1.3575 103.743 1.35336C100.823 1.34092 97.9053 1.34921 94.9872 1.34921C91.4501 1.34507 87.9074 1.34507 84.3608 1.34507L84.3605 1.34594ZM84.8496 32.4251C84.8938 31.8642 84.576 31.7357 84.0676 31.755C82.6514 31.8061 81.2338 31.8048 79.8149 31.8586C77.4343 31.9457 75.047 31.8766 72.6619 31.9788C70.32 32.0783 67.9753 32.0203 65.6278 32.0894C62.7539 32.1723 59.8729 32.1502 56.998 32.2234C54.2388 32.2925 51.4809 32.3091 48.7206 32.3519C48.0477 32.3643 47.7879 32.6213 47.817 33.3025C47.8363 33.7129 47.9095 34.1246 48.009 34.5253C48.2909 35.672 48.8587 36.1059 50.0318 36.0879C51.3927 36.07 52.7495 36.041 54.1104 35.9912C56.3349 35.9097 58.5607 35.9415 60.7894 35.8821C63.7047 35.8047 66.6213 35.8074 69.538 35.737C71.1725 35.6955 72.8084 35.6651 74.4429 35.6458C77.9025 35.6044 81.3621 35.5173 84.8401 35.4676V42.2336C84.8401 43.6637 84.8401 43.6775 83.4059 43.6968C81.0433 43.7369 78.6765 43.7065 76.3123 43.8073C74.0685 43.9027 71.8206 43.8253 69.5738 43.922C67.1932 44.0256 64.8083 43.9621 62.4237 44.0408C58.9778 44.1541 55.5264 44.1445 52.0763 44.1859C51.5043 44.1914 50.9309 44.1845 50.3616 44.2011C49.1983 44.2329 49.1098 44.1818 48.8501 43.0364C47.8166 38.4742 47.1741 33.8594 47.0498 29.1795C47.0263 28.2994 47.1286 28.1889 48.0045 28.1695C51.6495 28.0866 55.2941 27.9996 58.9376 27.9333C62.208 27.8752 65.4798 27.8476 68.7516 27.8006C70.0504 27.7813 71.3519 27.7453 72.6494 27.7136C76.5126 27.621 80.3744 27.6099 84.2404 27.5547C84.6936 27.5492 84.8677 27.6915 84.8608 28.1626C84.8359 29.5844 84.8497 31.0033 84.8497 32.4252L84.8496 32.4251ZM82.889 14.107C82.9194 11.6628 82.8807 9.22016 82.661 6.78418C82.5974 6.08367 82.5546 5.36384 82.2009 4.72413C81.6662 3.76109 80.7902 3.37975 79.7443 3.36178C77.2366 3.32033 74.751 3.61187 72.2613 3.82189C69.8627 4.02361 67.5609 4.52516 65.3873 5.5987C62.9294 6.81457 60.8319 8.55134 58.6351 10.1527C57.5767 10.9237 56.6607 11.9032 55.3688 12.3399C54.9294 12.4891 54.6282 12.8773 54.461 13.3084C54.3325 13.6414 54.1129 13.8625 53.8434 14.0725C53.0586 14.6832 52.336 15.3478 51.9049 16.2666C51.1685 17.8293 52.0141 19.8464 53.6776 20.2638C54.8852 20.5664 56.148 20.7889 57.3335 20.0718C57.4579 19.9985 57.6389 20.0068 57.7936 20.0041C59.6451 19.9806 61.4952 19.9585 63.3479 19.8991C66.4221 19.7996 69.4964 19.7954 72.5704 19.7526C73.5155 19.7402 74.4606 19.7374 75.407 19.7167C78.3596 19.6559 81.3136 19.5923 84.2705 19.5191C84.6823 19.5094 84.8868 19.6241 84.8826 20.08C84.8605 22.3087 84.8564 24.5375 84.8605 26.7644C84.8605 27.1582 84.6906 27.2715 84.3231 27.2728C83.2191 27.277 82.1179 27.3267 81.0167 27.3599C78.6126 27.4331 76.2098 27.3737 73.8029 27.4746C71.3449 27.5782 68.8786 27.4884 66.4164 27.5948C64.1519 27.6943 61.8847 27.6556 59.6185 27.7039C55.5799 27.7868 51.5413 27.8006 47.504 27.9775C47.1213 27.9927 47.0329 27.8849 47.0384 27.5285C47.0564 26.3651 47.0688 25.2045 47.1586 24.0439C47.3673 21.3814 47.8122 18.7715 48.731 16.2542C48.9465 15.6642 49.1966 15.1074 49.6995 14.6639C52.4214 12.2612 55.3132 10.0823 58.2132 7.90208C62.0085 5.05032 66.1936 3.29151 70.9096 2.73194C75.0242 2.24422 79.1552 2.13368 83.2879 2.00518C83.643 1.99275 83.7729 2.13644 83.8102 2.47632C84.0257 4.47282 84.1611 6.47745 84.262 8.48226C84.3228 9.68292 84.3532 10.8836 84.4264 12.083C84.5507 14.0712 84.4761 16.0622 84.5217 18.0532C84.5272 18.3641 84.3988 18.5341 84.0699 18.5382C83.8917 18.5396 83.7135 18.5644 83.5407 18.5976C83.0572 18.6929 82.8679 18.534 82.8817 18.0118C82.9093 16.7103 82.8886 15.4087 82.8886 14.1072L82.889 14.107ZM94.8584 1.89985V1.88603C97.4615 1.88603 100.065 1.87636 102.666 1.89017C104.156 1.89846 103.937 1.61522 104.353 3.23316C105.692 8.4323 106.015 13.7588 106.272 19.0934C106.386 21.4381 106.387 23.7814 106.405 26.1276C106.41 26.9359 106.404 26.9275 105.57 26.9441C105.04 26.9538 104.509 27.016 103.977 27.0215C100.331 27.0685 96.6864 27.1072 93.04 27.1486C92.3492 27.1569 91.6598 27.1583 90.9703 27.1707C89.2971 27.2011 87.6225 27.226 85.9494 27.2702C85.5528 27.2799 85.3829 27.161 85.3843 26.7355C85.3995 24.5469 85.3995 22.3584 85.3857 20.17C85.3815 19.685 85.5736 19.5123 86.0558 19.5123C86.8406 19.5123 87.6281 19.4349 88.4143 19.4211C91.2136 19.37 94.0099 19.3313 96.8092 19.2885C97.1242 19.2843 97.4406 19.294 97.7556 19.2802C100.693 19.1434 102.479 17.4799 102.318 14.4623C102.169 11.7045 101.92 8.96751 101.442 6.24962C101.204 4.89836 100.491 3.9298 99.1951 3.44069C98.4545 3.1616 97.6753 3.02481 96.8822 3.02343C94.3012 3.02205 91.7202 2.97369 89.1378 3.12014C87.5433 3.20995 86.5983 4.11219 86.6287 5.69973C86.6895 8.79191 86.9257 11.8758 87.1371 14.9598C87.2117 16.0555 87.1869 17.1649 87.4577 18.244C87.535 18.5508 87.3029 18.5052 87.1385 18.5093C86.6452 18.519 86.1506 18.4941 85.6615 18.5286C85.1599 18.5659 85.03 18.3642 85.0259 17.8834C85.0121 15.6962 85.0439 13.5105 84.9402 11.3204C84.8021 8.36912 84.639 5.42337 84.3406 2.48478C84.3074 2.16976 84.4 1.99981 84.744 1.99015C85.4141 1.97219 86.0829 1.91278 86.753 1.90863C89.4555 1.89481 92.1566 1.90034 94.8578 1.90034L94.8584 1.89985ZM57.6767 18.3805C59.2352 17.3815 59.2436 17.3705 59.2422 15.5619C59.2422 15.4831 59.2463 15.403 59.2422 15.3242C59.1745 14.1829 59.1607 13.0279 58.3178 12.1077C58.0747 11.8396 58.3593 11.7291 58.5113 11.6047C60.1651 10.2631 61.8245 8.93119 63.6082 7.76771C65.2814 6.6762 67.0389 5.73941 69.0022 5.26551C70.4599 4.91319 71.9576 4.81372 73.4469 4.67277C75.547 4.47519 77.6458 4.29006 79.757 4.35775C80.6468 4.38539 81.2562 4.9657 81.4233 5.832C81.6969 7.25235 81.6969 8.69622 81.7425 10.1278C81.8199 12.4725 81.7549 14.8201 81.7867 17.1673C81.7964 17.7614 81.6029 17.9244 81.0157 17.9562C78.4168 18.0985 75.8166 18.0198 73.2147 18.1206C70.7761 18.216 68.3279 18.2381 65.8863 18.2533C63.1865 18.2726 60.4908 18.4591 57.6764 18.3804L57.6767 18.3805ZM85.3791 35.5724H85.3915C85.3915 33.1089 85.4039 30.6424 85.3832 28.1778C85.3791 27.6804 85.5559 27.5326 86.0354 27.534C86.9984 27.5381 87.9628 27.4801 88.9272 27.4607C91.0149 27.4207 93.1027 27.4248 95.1917 27.3612C98.697 27.2521 102.205 27.2701 105.713 27.2093C106.271 27.1996 106.414 27.393 106.418 27.9222C106.43 29.7736 106.408 31.6237 106.469 33.4765C106.568 36.5493 106.469 39.6221 106.26 42.6895C106.224 43.2048 106.018 43.4743 105.455 43.4756C101.927 43.4936 98.4001 43.4756 94.874 43.5724C91.9379 43.6539 88.9992 43.6 86.0631 43.6276C85.5602 43.6318 85.364 43.495 85.3695 42.9617C85.3916 40.5009 85.3792 38.0374 85.3792 35.5724L85.3791 35.5724ZM50.1481 47.1644C49.0054 47.1644 47.86 47.1382 46.7188 47.1769C46.1938 47.1948 45.8511 46.9834 45.5845 46.5828C45.4891 46.4418 45.315 46.2912 45.4214 46.1116C45.5112 45.9624 45.7102 46.0425 45.8636 46.0398C48.2663 45.9983 50.6704 46.0121 53.076 45.9362C56.327 45.8353 59.5768 45.9223 62.8291 45.8173C66.0401 45.7109 69.2524 45.8035 72.4648 45.6971C75.7131 45.5907 78.9656 45.6847 82.2179 45.5783C85.4856 45.4719 88.7601 45.5368 92.0319 45.4678C95.9322 45.3849 99.8343 45.4042 103.739 45.3268C105.177 45.2992 106.617 45.3172 108.057 45.3116C108.649 45.3102 109.245 45.3199 109.77 44.9731C109.898 44.8875 110.021 44.8764 110.153 44.9717C110.513 45.237 110.933 45.2108 111.346 45.2052C113.828 45.1638 116.311 45.1196 118.794 45.0809C119.877 45.0657 120.964 45.1044 122.046 45.0339C124.38 44.8778 126.727 45.1265 129.05 44.7452C129.339 44.6982 129.766 44.6498 129.676 45.1693C129.608 45.5617 129.754 46.1158 129.006 46.1006C127.686 46.0729 126.367 46.142 125.048 46.1793C122.311 46.2567 119.572 46.1973 116.832 46.2968C113.938 46.4018 111.04 46.312 108.143 46.4156C105.229 46.5206 102.311 46.4308 99.394 46.5358C96.4413 46.6408 93.4832 46.5482 90.5265 46.6546C87.5338 46.761 84.5383 46.667 81.5417 46.7721C78.4495 46.8812 75.356 46.7873 72.2597 46.8923C69.209 46.9973 66.1526 46.9517 63.0994 47.0028C58.7831 47.065 54.4654 47.0829 50.1491 47.1644H50.1481ZM17.1996 47.0235C17.1954 40.2394 22.646 34.8026 29.4562 34.793C35.9927 34.7834 41.7999 39.781 41.8441 46.9185C41.8856 54.1129 35.8767 59.1047 29.5294 59.1256C22.8034 59.1477 17.115 53.5933 17.1996 47.0235ZM142.606 59.1019C135.854 59.1917 130.341 53.734 130.228 47.1643C130.111 40.3526 135.807 34.7018 142.731 34.7902C149.391 34.8772 154.956 40.3349 154.905 47.0801C154.854 53.676 149.355 59.0991 142.606 59.1019ZM49.1145 34.5497C49.3481 34.7431 49.5705 34.674 49.7722 34.6727C51.6638 34.645 53.5537 34.6409 55.4453 34.5801C58.1258 34.493 60.8047 34.5469 63.4851 34.4516C65.6903 34.3728 67.8983 34.4018 70.1047 34.3452C74.7733 34.225 79.4461 34.2167 84.1147 34.149C84.3993 34.1449 84.4947 34.2236 84.5209 34.5013C84.5624 34.9946 84.4145 35.2018 83.8715 35.2018C82.1776 35.2005 80.4823 35.2557 78.7913 35.2834C74.2012 35.358 69.6087 35.4077 65.0214 35.5376C62.7956 35.6011 60.5683 35.5652 58.3424 35.6385C55.6647 35.7283 52.9844 35.6854 50.3037 35.7711C48.8654 35.8167 48.4675 35.4464 48.2215 34.0122C48.0834 33.1901 48.1179 33.1487 48.9676 33.139C51.4104 33.1058 53.8544 33.139 56.2989 33.0381C58.7569 32.9345 61.2204 33.0008 63.6854 32.9193C67.152 32.806 70.6212 32.8157 74.0907 32.7742C74.7014 32.7659 75.3135 32.7825 75.9228 32.7549C78.5825 32.6374 81.2436 32.6761 83.9021 32.6264C84.365 32.6181 84.528 32.7949 84.5266 33.2509C84.5225 33.6833 84.4257 33.8989 83.9339 33.8961C82.023 33.8961 80.1106 33.9155 78.1999 33.9887C75.8386 34.0799 73.4719 34.0108 71.1092 34.1034C68.5696 34.2028 66.026 34.1545 63.4836 34.2236C59.5638 34.3327 55.6398 34.3203 51.72 34.3825C50.8689 34.3963 49.9998 34.2913 49.1142 34.5496L49.1145 34.5497ZM45.482 48.8083C44.6737 48.8083 43.8654 48.8069 43.0558 48.8083C42.7311 48.8097 42.4161 48.8415 42.434 48.3455C42.4478 47.8743 42.7076 47.8149 43.0917 47.808C44.4112 47.7804 45.7265 47.9006 47.0433 47.9116C48.8561 47.9268 50.6674 47.8854 52.4801 47.8329C55.6511 47.7375 58.8249 47.8204 61.997 47.7127C65.0491 47.6077 68.1055 47.6988 71.1601 47.5952C74.2703 47.4888 77.3871 47.5814 80.5015 47.475C83.4542 47.3714 86.4095 47.4571 89.3676 47.3562C92.4003 47.2512 95.4372 47.3438 98.4713 47.236C101.385 47.131 104.303 47.1904 107.22 47.1268C110.768 47.0495 114.315 47.0412 117.863 46.9845C121.567 46.9251 125.273 46.8933 128.977 46.856C129.242 46.8519 129.557 46.7925 129.566 47.2291C129.574 47.6464 129.295 47.6395 129.007 47.6491C128.239 47.6726 127.472 47.7182 126.706 47.7279C123.81 47.7693 120.912 47.7279 118.016 47.8329C115.083 47.9393 112.146 47.8467 109.208 47.9517C106.295 48.0567 103.377 47.9655 100.46 48.0719C97.5459 48.1769 94.628 48.0816 91.7113 48.1907C88.7973 48.2999 85.8794 48.2004 82.9627 48.3096C80.0487 48.4187 77.1308 48.3234 74.2141 48.4284C71.2408 48.5348 68.2633 48.4422 65.2887 48.5486C62.3954 48.6522 59.4953 48.5942 56.5967 48.6591C52.8923 48.7365 49.1854 48.6992 45.4825 48.8083L45.482 48.8083ZM3.4722 38.7733C3.30779 38.8341 3.31194 38.9419 3.31746 39.033C3.37273 40.0831 3.49155 41.1152 3.15718 42.1681C3.02869 42.5756 2.94302 42.6558 2.58241 42.6447C2.21349 42.6351 2.06287 42.4292 1.97862 42.1114C1.64426 40.8721 1.53511 39.5982 1.41631 38.3257C1.37624 37.9195 1.65947 37.9637 1.8764 38.0024C2.87671 38.1806 3.88121 38.0991 4.88567 38.0991C8.05658 38.0991 11.2262 38.0798 14.3997 38.0715C15.1942 38.0701 15.2094 38.0936 15.0173 38.8756C14.571 40.6718 14.2325 42.4887 14.1966 44.3485C14.1869 44.8514 13.9686 45.0324 13.4698 45.0255C11.6571 45.0062 9.84575 45.0103 8.033 45.0242C7.62263 45.0283 7.37117 44.8915 7.22333 44.4977C6.95943 43.8138 6.60709 43.1741 6.15805 42.5979C5.68274 41.9914 5.21574 41.2784 4.43512 41.1458C3.66414 41.0131 3.64618 40.5752 3.6227 40.0087C3.59645 39.6011 3.68211 39.1673 3.47209 38.7735L3.4722 38.7733ZM3.46667 36.7505C3.49846 36.3291 3.54958 35.9049 3.55234 35.4822C3.55649 34.9751 3.72229 34.7568 4.28325 34.7665C6.09737 34.7969 7.91016 34.7789 9.72432 34.7527C10.5505 34.7402 11.392 34.7651 12.1961 34.6145C13.7077 34.3312 14.7964 33.4262 15.443 32.0321C15.6365 31.6149 15.8824 31.4145 16.348 31.4753C16.5995 31.5085 16.8606 31.4795 17.1163 31.4836C17.3815 31.485 17.5128 31.5748 17.3166 31.8346C16.2845 33.1927 15.8742 34.7982 15.5163 36.4161C15.4058 36.9149 15.164 37.089 14.6624 37.0862C12.4739 37.0683 10.2853 37.1001 8.09796 37.0766C6.08763 37.0572 4.07738 37.194 2.07257 36.9674C1.74788 36.9301 1.33339 36.955 1.28362 36.5211C1.23941 36.1481 1.075 35.6659 1.69814 35.5291C1.90401 35.4849 2.01178 35.2818 2.04494 35.0814C2.15823 34.4155 2.63353 34.8397 2.93471 34.7927C3.30087 34.7374 3.30779 35.0248 3.31743 35.3039C3.33125 35.7861 3.23177 36.2752 3.46666 36.7505L3.46667 36.7505ZM62.3837 4.56742C62.2731 4.64203 62.1971 4.69867 62.1184 4.74703C57.6514 7.44681 53.5077 10.579 49.6017 14.0347C48.8349 14.7103 48.1952 15.5269 47.2902 16.0505C46.0798 16.751 44.8004 17.2097 43.3524 17.4156C43.6025 17.0218 44.0833 16.7524 43.8277 16.3324C43.532 15.8405 43.8139 15.6692 44.1261 15.4467C47.5237 13.0482 50.9474 10.6912 54.4335 8.42247C56.5958 7.01454 58.7608 5.60385 61.0889 4.47227C61.5559 4.24706 61.9358 4.26502 62.3835 4.56761L62.3837 4.56742ZM3.26152 43.2028C3.49364 43.359 3.49364 43.569 3.55719 43.7431C4.00072 44.9354 4.5589 46.0601 5.4957 46.9485C5.89224 47.3243 6.33987 47.761 6.94507 47.486C7.52399 47.2221 7.39825 46.6307 7.40242 46.125C7.40381 46.085 7.40381 46.0463 7.3969 46.0076C7.31815 45.6746 7.4342 45.5516 7.78517 45.5544C9.67668 45.5668 11.5667 45.5641 13.4583 45.5586C13.8824 45.5572 14.0745 45.7382 14.0704 46.161C14.0621 46.8697 14.051 47.5813 14.0759 48.2887C14.0911 48.7419 13.9308 48.934 13.4624 48.9229C12.755 48.905 12.0448 48.9588 11.3347 48.9367C9.96266 48.8953 8.58516 49.1827 7.21043 48.9229C6.09544 48.7129 5.15038 48.2252 4.58939 47.2082C4.16109 46.4318 3.82532 45.6083 3.57663 44.7558C3.43707 44.2667 3.23398 43.7817 3.26161 43.2028L3.26152 43.2028ZM2.35239 34.4443C2.91057 33.8447 3.42041 33.2105 4.02422 32.6813C4.55478 32.2198 5.17651 31.8178 5.93228 31.8413C8.88768 31.9283 11.8349 31.6948 14.7859 31.587C15.3469 31.5677 15.3994 31.6603 15.123 32.1314C14.236 33.6471 12.9317 34.4665 11.1576 34.4748C8.89032 34.4872 6.62596 34.4886 4.35692 34.4872C4.19389 34.4872 4.00459 34.5618 3.84433 34.3628C4.66641 33.4772 5.70956 32.8457 6.67259 31.9684C6.38383 31.9408 6.25671 32.0361 6.13515 32.1232C5.34344 32.709 4.52412 33.2782 3.86093 34.0009C3.39807 34.5079 2.91585 34.5494 2.35214 34.4444L2.35239 34.4443ZM158.832 46.9691C157.868 46.9691 156.904 46.9511 155.941 46.9815C155.63 46.9898 155.558 46.8724 155.561 46.6126C155.565 46.1387 155.543 45.6676 155.451 45.2019C155.421 45.0513 155.404 44.8137 155.58 44.7916C156.055 44.7322 156.589 44.5525 156.991 44.9118C157.282 45.1729 157.57 45.2144 157.905 45.1771C161.108 44.804 164.331 44.6009 167.5 43.9833C167.878 43.9101 167.911 44.0703 167.896 44.3439C167.877 44.6783 167.804 45.014 167.824 45.3428C167.871 46.0019 167.522 46.3335 166.955 46.4951C166.654 46.5822 166.339 46.6416 166.028 46.6609C163.636 46.8226 161.235 46.9152 158.832 46.9691L158.832 46.9691ZM172.818 40.0761C173.093 39.8564 173.051 39.6878 173.057 39.5386C173.101 38.5963 173.156 37.6526 173.171 36.7103C173.18 36.2171 173.372 35.9781 173.87 35.9794C175.071 35.985 176.272 35.9919 177.471 35.9753C177.861 35.9711 178.022 36.1217 177.964 36.5017C177.785 37.6858 177.626 38.8768 177.26 40.0222C177.087 40.5624 176.684 40.8581 176.107 40.8636C175.143 40.8733 174.179 40.8581 173.214 40.8733C172.84 40.8788 172.68 40.7462 172.685 40.3579C172.704 39.1034 172.754 37.8488 172.856 36.6331C173.007 37.7232 172.704 38.8479 172.818 40.0762L172.818 40.0761ZM38.7945 17.6655C35.9496 17.8313 33.1808 17.9792 30.4134 18.1629C28.2718 18.308 26.1328 18.4697 23.9982 18.6797C21.706 18.9035 19.4195 19.1743 17.1356 19.4575C14.6293 19.7684 12.1504 20.2244 9.74911 21.0147C8.58992 21.3946 7.66557 22.0619 7.47075 23.3939C7.43344 23.6412 7.32013 23.8098 7.06316 23.8153C6.4359 23.8291 5.81693 23.9922 5.18135 23.9562C4.77515 23.9328 4.69775 23.7089 4.68947 23.3746C4.68118 23.0678 4.70882 22.8233 5.11089 22.8302C5.52263 22.8357 5.77821 22.5884 6.03522 22.283C6.59203 21.6171 7.19582 20.9387 8.05107 20.7024C10.7868 19.9439 13.582 19.4644 16.388 19.0637C18.7851 18.7211 21.1934 18.4821 23.6099 18.3231C26.3608 18.1435 29.1062 17.939 31.8584 17.7622C33.8812 17.6337 35.9066 17.5287 37.9308 17.4195C38.2113 17.4002 38.5222 17.3187 38.7944 17.6655L38.7945 17.6655ZM111.142 17.6075C111.461 17.374 111.663 17.4058 111.855 17.4016C112.779 17.3782 113.705 17.327 114.628 17.3022C118.546 17.2027 122.462 17.059 126.38 16.9402C128.9 16.8656 131.419 16.7896 133.939 16.7012C138.151 16.5519 142.363 16.4552 146.576 16.3309C148.938 16.2618 151.3 16.1706 153.661 16.1029C158.073 15.9785 162.482 15.8473 166.891 15.7478C169.096 15.6981 171.3 15.7285 173.498 15.5184C174.023 15.4687 174.44 15.7243 174.598 16.2341C174.766 16.7771 174.859 17.3436 174.976 17.9018C175.012 18.0704 174.976 18.2223 174.765 18.25C174.571 18.2762 174.404 18.2403 174.357 18.0137C174.299 17.7443 174.258 17.4735 174.198 17.204C173.937 15.984 173.83 15.8942 172.592 15.897C169.222 15.8984 165.857 16.0255 162.49 16.1194C159.636 16.1968 156.781 16.2783 153.928 16.3557C151.17 16.4331 148.415 16.5146 145.66 16.5933C142.962 16.6707 140.266 16.7578 137.57 16.831C134.952 16.9001 132.334 16.9802 129.717 17.0742C126.528 17.1888 123.336 17.24 120.147 17.3312C117.199 17.4154 114.248 17.5135 111.142 17.6075L111.142 17.6075ZM169.935 41.7908C169.052 41.8696 168.412 42.2537 167.907 42.8741C167.669 43.1656 167.358 43.3079 166.993 43.3576C165.981 43.4986 164.973 43.6588 163.959 43.7777C162.048 44.0015 160.135 44.2032 158.221 44.4119C157.873 44.4519 157.619 44.3607 157.664 43.949C157.702 43.6008 157.467 43.1366 158.122 43.062C160.776 42.7649 163.431 42.4762 166.076 42.1086C167.25 41.9442 168.556 42.1086 169.501 40.9881C169.581 41.3224 169.682 41.567 169.935 41.7908H169.935ZM10.9294 51.1655C10.1032 51.1641 9.27556 51.1834 8.44934 51.1572C7.34401 51.124 6.52469 50.5133 6.28979 49.6498C6.17926 49.2394 6.28563 49.1386 6.66972 49.2477C7.31909 49.4315 7.98511 49.4729 8.65659 49.4536C10.0313 49.4177 11.4103 49.3624 12.785 49.3541C14.0811 49.3486 13.9595 49.0944 13.9719 50.6114C13.9733 51.0135 13.8158 51.1766 13.4096 51.1655C12.5834 51.1517 11.7571 51.1655 10.9295 51.1655L10.9294 51.1655ZM4.33456 22.4972C4.82918 22.4419 4.95906 22.1366 5.1304 21.8809C5.7549 20.9483 6.53279 20.3183 7.70306 20.082C10.635 19.4851 13.5696 18.9228 16.5387 18.5345C19.7994 18.1104 23.0808 17.8893 26.3569 17.6337C27.7883 17.5232 29.2225 17.4361 30.6593 17.3422C32.899 17.1971 35.1401 17.0575 37.3798 16.9207C37.6216 16.9056 37.8772 16.8931 38.043 17.157C35.8627 17.2897 33.7225 17.4444 31.5797 17.5467C27.725 17.7304 23.877 17.9998 20.0358 18.3701C16.4821 18.7128 12.9782 19.3166 9.4868 20.0433C8.15764 20.3211 6.93764 20.7563 6.07549 21.8575C5.66235 22.3922 5.18706 22.6685 4.33456 22.4972V22.4972ZM170.418 40.6759C170.477 40.6801 170.537 40.6856 170.595 40.6898C170.753 40.4977 170.7 40.2573 170.708 40.0362C170.745 38.9322 170.809 37.8338 170.954 36.7396C171.068 35.8663 171.471 35.4408 172.182 35.3924C172.436 35.3772 172.635 35.3924 172.475 35.7392C172.289 36.1427 172.316 36.5834 172.282 37.0145C172.199 38.0369 172.185 39.058 172.157 40.0832C172.138 40.8445 172.083 40.8652 171.317 40.8694C171.042 40.8708 170.76 40.8542 170.494 40.9053C170.17 40.9647 170.119 40.8141 170.121 40.5544C170.122 39.0967 170.17 37.639 170.378 36.1995C170.47 35.5418 170.849 35.1025 171.565 34.9878C172.392 34.8552 173.213 34.9684 174.036 34.9919C175.189 35.0251 176.344 35.0016 177.496 35.0016C175.747 35.1398 173.996 35.0196 172.248 35.1812C171.453 35.2545 170.984 35.5322 170.792 36.3004C170.673 36.7743 170.61 37.2676 170.574 37.7567C170.501 38.7252 170.465 39.7034 170.418 40.6761L170.418 40.6759ZM71.1251 18.8579V19.0181C70.2975 19.0181 69.4712 19.0043 68.6436 19.0195C65.1217 19.0886 61.5956 19.1687 58.0738 19.2378C57.8955 19.242 57.6137 19.2986 57.6303 19.0043C57.6441 18.7667 57.8997 18.8275 58.0655 18.8247C60.1118 18.7805 62.1579 18.7418 64.2083 18.7004C65.684 18.67 67.1596 18.6327 68.6353 18.6092C73.0054 18.5401 77.3744 18.4544 81.7444 18.3549C81.9047 18.3508 82.2059 18.2002 82.2183 18.5097C82.2266 18.7612 81.9447 18.7418 81.7527 18.7515C80.8104 18.7888 79.8667 18.8482 78.9217 18.8551C76.3227 18.8675 73.7253 18.8579 71.1249 18.8579H71.1251ZM93.7567 3.55438C94.9822 3.55438 95.8499 3.56405 96.7176 3.55299C97.3531 3.54332 97.9777 3.6359 98.5856 3.80308C99.6812 4.10152 100.553 4.72052 100.787 5.88249C101.386 8.85999 101.801 11.8623 101.642 14.9144C101.582 16.0695 101.004 16.9275 100.029 17.5092C99.3068 17.9416 98.5027 18.135 97.6599 18.153C96.7729 18.171 95.8831 18.1516 95.0002 18.2083C92.9139 18.3492 90.8247 18.2097 88.7385 18.3685C88.1112 18.4155 87.9164 18.1489 87.875 17.5064C87.7852 16.1316 87.7064 14.7555 87.5959 13.3807C87.3914 10.8675 87.2588 8.35139 87.1758 5.83405C87.1289 4.38053 87.8031 3.72426 89.2718 3.6607C90.8856 3.59438 92.4994 3.50734 93.7568 3.55431L93.7567 3.55438ZM172.237 23.9933V24.0154C172.711 24.0154 173.184 24.0279 173.655 24.0113C174.025 23.9989 174.207 24.1246 174.184 24.5198C174.152 25.0503 174.165 25.5809 174.123 26.1128C174.086 26.6005 173.869 26.7069 173.446 26.6876C172.994 26.6655 172.538 26.6834 172.088 26.6834C170.285 26.6834 170.285 26.6834 170.324 24.861C170.339 23.9961 170.339 23.9961 171.23 23.9934H172.237L172.237 23.9933ZM172.142 30.6943C171.689 30.6943 171.234 30.6764 170.785 30.6985C170.383 30.7178 170.209 30.5783 170.228 30.1596C170.255 29.6291 170.252 29.0985 170.23 28.5666C170.216 28.188 170.357 28.036 170.741 28.0443C171.686 28.0595 172.631 28.0622 173.573 28.0443C173.979 28.036 174.086 28.2225 174.057 28.5845C174.01 29.133 173.956 29.6816 173.948 30.2301C173.942 30.6003 173.775 30.7067 173.439 30.6971C173.007 30.6846 172.573 30.6943 172.142 30.6943L172.142 30.6943ZM84.4083 32.0774C84.4028 32.1561 84.3987 32.2363 84.3932 32.315C72.3519 32.5085 60.3092 32.6991 48.2337 32.894C48.3788 32.6149 48.5957 32.6701 48.7808 32.666C50.4927 32.6328 52.206 32.6328 53.9191 32.5651C56.2998 32.4698 58.6832 32.5499 61.0651 32.4463C63.5037 32.3427 65.948 32.4104 68.3893 32.3275C71.7744 32.2142 75.1635 32.2266 78.5502 32.1782C79.8297 32.1603 81.1091 32.1934 82.3886 32.0857C83.0601 32.0318 83.7358 32.0774 84.4086 32.0774H84.4083ZM8.84944 24.4366C8.60765 25.3001 8.43494 26.1761 8.30229 27.0618C8.25256 27.4058 8.25533 27.7416 8.73616 27.8079C9.46155 27.9115 9.6992 27.8079 9.79453 27.2773C9.94098 26.4635 10.104 25.6525 10.4563 24.8981C10.6152 24.5596 10.857 24.2542 11.2784 24.4186C11.657 24.5651 11.7772 24.9036 11.6667 25.3001C11.1748 27.0604 10.6802 28.822 10.1911 30.5824C10.1317 30.7938 10.0363 30.9555 9.79453 30.9292C9.5099 30.8974 9.53891 30.6653 9.55135 30.476C9.59142 29.9082 9.60661 29.3348 9.70056 28.7752C9.77518 28.3137 9.69089 28.0498 9.18105 28.007C8.46811 27.9462 8.21248 28.094 8.16551 28.6481C8.10609 29.3527 8.01077 30.0546 8.02321 30.7662C8.00386 30.2329 7.98175 29.7009 8.00938 29.1731C8.03563 28.6578 7.90022 28.3179 7.31161 28.3248C7.12096 28.3262 6.94547 28.2889 6.95653 28.0402C6.96483 27.8343 7.12233 27.7929 7.28676 27.7804C7.97757 27.7293 8.17241 27.2996 8.2636 26.6737C8.37274 25.9152 8.47498 25.1387 8.8494 24.4368L8.84944 24.4366ZM173.571 19.3949C173.143 20.1976 173.293 20.9106 173.405 21.5973C173.46 21.9454 173.382 22.1624 173.148 22.3724C172.595 22.867 171.954 23.2124 171.251 23.4238C170.516 23.6435 170.332 23.4819 170.343 22.715C170.346 22.5382 170.352 22.36 170.352 22.1817C170.357 20.847 170.914 20.0816 172.184 19.7058C172.593 19.5828 173.018 19.5151 173.571 19.3949L173.571 19.3949ZM4.33615 26.2522C4.33615 25.7962 4.31267 25.4978 4.34167 25.2063C4.39557 24.655 4.83905 24.9106 5.12646 24.8636C5.45531 24.8097 5.49954 24.9976 5.48709 25.2892C5.4263 27.1544 5.38208 29.0211 5.33096 30.8891C5.32129 31.2372 4.81143 31.7471 4.48952 31.6697C4.15102 31.5882 4.25188 31.2276 4.19798 30.9802C4.16069 30.8117 4.17865 30.6279 4.18417 30.4511C4.22838 28.9948 4.17035 27.5399 4.33615 26.2522V26.2522ZM56.1365 15.1313C56.4668 15.1451 56.808 14.9116 56.9048 15.3993C57.0609 16.1758 56.7417 16.8017 55.9942 17.0712C55.4153 17.2812 54.8198 17.4829 54.4095 17.9485C54.0336 18.3741 53.8306 18.182 53.5998 17.8477C53.4257 17.5976 53.3566 17.3171 53.2986 17.0242C53.119 16.093 53.2585 15.8014 54.1207 15.4906C54.7894 15.2488 55.5065 15.2391 56.1365 15.1313L56.1365 15.1313ZM55.74 18.5012V18.5053C55.4844 18.5053 55.2274 18.5108 54.9718 18.5039C54.8018 18.4998 54.5697 18.5537 54.5144 18.3436C54.4633 18.1516 54.6747 18.0424 54.806 17.9375C55.244 17.5865 55.7731 17.4124 56.2913 17.2328C56.8536 17.0366 57.1037 16.6484 57.1092 16.0736C57.1106 15.8967 57.123 15.7171 57.1092 15.5403C57.083 15.2101 57.2004 15.0553 57.5582 15.0001C58.6968 14.8177 58.7009 14.8066 58.6995 15.9824C58.6995 16.0791 58.6912 16.18 58.7009 16.2781C58.7645 16.973 58.3873 17.3876 57.807 17.6584C57.4643 17.8172 57.0222 17.8283 56.9766 18.3575C56.9628 18.5122 56.7624 18.5026 56.6242 18.5039C56.3299 18.5026 56.0356 18.5012 55.74 18.5012L55.74 18.5012ZM83.4232 1.42913C82.4036 1.48992 81.3853 1.53275 80.3656 1.56177C77.6714 1.64052 74.9797 1.74553 72.2979 2.04674C69.3163 2.3811 66.3776 2.89231 63.5822 4.03496C63.1718 4.20076 62.8458 4.18142 62.5031 3.87469C62.8182 3.6329 63.1622 3.54447 63.491 3.43118C66.5666 2.36178 69.7555 1.94589 72.9912 1.78145C74.2486 1.71652 75.5087 1.66815 76.7646 1.6115C78.9822 1.50788 81.2011 1.40288 83.4228 1.42913H83.4232ZM169.859 24.1686C169.919 24.17 169.979 24.1728 170.041 24.1769C170.041 24.9023 170.059 25.6263 170.035 26.3516C170.022 26.8117 170.199 26.99 170.656 26.9789C171.58 26.9609 172.507 26.9692 173.433 26.9789C173.711 26.9803 174.069 26.8891 174.064 27.3672C174.06 27.83 173.716 27.7651 173.43 27.7678C172.484 27.7734 171.539 27.7775 170.592 27.7692C170.203 27.7678 170.018 27.9101 170.027 28.3274C170.037 28.717 169.972 29.1122 169.954 29.5046C169.89 30.9346 169.935 30.9788 171.333 30.9788C171.963 30.9788 172.594 30.9733 173.224 30.983C173.408 30.9844 173.614 30.9153 173.868 31.1709C172.644 31.1709 171.517 31.1529 170.391 31.1792C169.893 31.1916 169.733 30.9995 169.743 30.5201C169.766 29.2407 169.715 27.9571 169.779 26.6792C169.82 25.8419 169.823 25.0046 169.859 24.1687L169.859 24.1686ZM101.724 16.6509C101.051 18.2371 99.7455 18.8948 98.1275 18.968C96.16 19.0578 94.1897 19.0675 92.2196 19.1048C90.0531 19.149 87.8853 19.1863 85.7188 19.2236C85.5005 19.2277 85.1979 19.2277 85.2021 18.9638C85.2076 18.6806 85.5129 18.8326 85.6788 18.8215C87.3879 18.7027 89.0942 18.9224 90.8103 18.8533C93.0928 18.7621 95.3795 18.7607 97.6634 18.6889C99.3187 18.6419 100.753 18.0948 101.724 16.6509L101.724 16.6509ZM52.6118 16.1438C52.6629 16.4962 52.6906 16.7435 52.7362 16.9894C53.0014 18.4471 53.7199 19.0495 55.2025 19.0536C55.5755 19.0536 55.9486 19.0343 56.3216 19.0481C56.5537 19.0564 56.8867 18.9445 56.9144 19.341C56.9448 19.7417 56.685 19.9089 56.3244 19.9172C55.6971 19.9296 55.0602 19.9724 54.4384 19.9047C52.5676 19.7058 51.6088 17.8198 52.6118 16.1437L52.6118 16.1438ZM5.24692 44.0634C3.97301 44.0634 3.80859 43.9045 3.74365 42.6651C3.73537 42.5477 3.72984 42.4289 3.73537 42.3128C3.7478 42.0848 3.67596 41.8112 3.95091 41.6924C4.21895 41.575 4.45384 41.7104 4.65417 41.8748C5.06868 42.2119 5.42516 42.6071 5.7153 43.0534C5.9032 43.3407 6.29697 43.6502 6.13257 43.9584C5.99162 44.2292 5.52185 44.0109 5.24692 44.0634ZM1.74576 37.408H14.7526C14.7167 37.5268 14.6836 37.5545 14.6476 37.5545C10.6879 37.5766 6.72777 37.7382 2.7666 37.6581C2.44467 37.6512 2.08408 37.6512 1.74557 37.408H1.74576ZM56.3794 12.6305C57.6919 12.1745 58.1603 12.3762 58.4684 13.4981C58.7572 14.5593 58.4505 14.8909 57.3451 14.7168C57.1406 14.685 57.0287 14.6021 56.9928 14.3935C56.885 13.7731 56.6902 13.1804 56.3793 12.6304L56.3794 12.6305ZM54.8125 15.0208C54.6702 15.0484 54.4201 15.1244 54.5017 14.8688C54.7269 14.1517 54.8208 13.36 55.5144 12.8681C55.8488 12.6305 56.0809 12.7023 56.2896 13.0325C56.559 13.4581 56.6322 13.9472 56.751 14.4211C56.8243 14.7127 56.6281 14.8011 56.389 14.8315C55.8626 14.8923 55.3362 14.9558 54.8126 15.0208L54.8125 15.0208ZM169.53 40.2457C169.476 40.2416 169.424 40.2402 169.37 40.236C169.447 38.8751 169.479 37.51 169.616 36.156C169.762 34.7039 170.72 33.8859 172.178 33.8528C172.729 33.839 173.282 33.8376 173.831 33.8583C174.008 33.8639 174.326 33.7119 174.319 34.0725C174.315 34.3958 174.03 34.3917 173.789 34.3917C173.178 34.3875 172.566 34.3544 171.958 34.3792C170.643 34.4331 169.995 35.0452 169.789 36.3426C169.71 36.8317 169.698 37.3208 169.675 37.8127C169.64 38.6251 169.58 39.4361 169.53 40.2458L169.53 40.2457ZM10.4117 24.4407C9.93639 25.3208 9.67253 26.2576 9.56613 27.2399C9.52469 27.6227 9.23592 27.6144 8.94577 27.613C8.61832 27.6116 8.55887 27.4127 8.57545 27.1419C8.61552 26.5311 8.73436 25.9356 8.89047 25.3457C9.16957 24.3039 9.27458 24.2417 10.4117 24.4407L10.4117 24.4407ZM82.3557 17.7549C82.3087 17.7549 82.2604 17.7549 82.2148 17.7563C82.2093 17.6223 82.1968 17.4882 82.1954 17.3542C82.1733 14.262 82.2783 11.1658 82.0683 8.08038C81.9827 6.84241 82.0877 5.54639 81.2587 4.46585C81.7837 4.80436 81.9246 5.34874 81.9992 5.9083C82.2963 8.09686 82.3322 10.302 82.3543 12.5056C82.3668 14.2562 82.3557 16.0054 82.3557 17.7547V17.7549ZM9.44962 28.8938C9.29764 29.3692 9.39989 29.9867 9.27968 30.585C9.20645 30.9539 8.94669 30.9691 8.65793 30.958C8.44791 30.9498 8.24203 30.9138 8.26001 30.6444C8.30145 29.9812 8.35257 29.3166 8.42027 28.6562C8.46449 28.2362 8.79471 28.2804 9.09312 28.29C9.41782 28.3011 9.46619 28.5152 9.4496 28.8938L9.44962 28.8938ZM4.85001 45.4449H5.95396C6.92804 45.4449 7.05516 45.5817 6.99574 46.5682C6.95981 47.1498 6.68073 47.3046 6.19301 46.9923C5.63896 46.6372 5.25624 46.1191 4.85001 45.4449ZM5.98573 26.2771C5.95258 25.9289 6.03548 25.4606 6.09627 24.9949C6.14049 24.6619 6.39333 24.6205 6.6669 24.6205C6.85895 24.6205 6.95981 24.7034 6.94185 24.9093C6.87001 25.6706 6.80092 26.4319 6.73598 27.1945C6.71388 27.4197 6.58537 27.4902 6.37952 27.493C6.15016 27.4971 5.99261 27.4239 5.98987 27.1683C5.98572 26.9154 5.98572 26.6598 5.98572 26.2771H5.98573ZM2.53709 44.029C2.94054 45.325 3.43657 46.5588 4.03482 47.7553C4.08456 47.8589 4.24069 47.9791 4.04311 48.0979C3.71289 48.2941 2.98476 48.015 2.93777 47.6448C2.78993 46.4413 2.66972 45.2351 2.53709 44.0288V44.029ZM175.249 25.2301H175.263C175.243 25.6032 175.236 25.9749 175.195 26.3438C175.164 26.6008 174.975 26.6864 174.725 26.674C174.478 26.6643 174.373 26.5372 174.377 26.3009C174.389 25.6529 174.341 25.0077 174.46 24.3638C174.51 24.0889 174.653 24.0073 174.907 24.0225C175.158 24.0364 175.251 24.1718 175.25 24.4025C175.249 24.6816 175.249 24.9565 175.249 25.2301V25.2301ZM5.342 44.2628V44.2711C5.61971 44.2711 5.89603 44.2434 6.16959 44.2766C6.60757 44.3277 6.67252 44.7242 6.68631 45.031C6.70151 45.3515 6.36301 45.2313 6.17097 45.2396C5.77856 45.2576 5.38478 45.2479 4.98824 45.241C4.48117 45.2327 4.34991 44.7878 4.32918 44.4659C4.30154 44.0762 4.71745 44.3249 4.92883 44.2655C5.06009 44.2351 5.20515 44.2628 5.34195 44.2628H5.342ZM174.262 30.3189C174.262 29.711 174.256 29.1031 174.263 28.4951C174.265 28.2216 174.394 28.0461 174.696 28.053C174.873 28.0572 175.125 28.0447 175.089 28.2851C174.983 29.0064 175.081 29.7428 174.897 30.4543C174.83 30.7141 174.624 30.692 174.424 30.692C174.15 30.6892 174.176 30.5013 174.262 30.3189L174.262 30.3189ZM170.048 23.6332C169.988 23.629 169.929 23.6235 169.87 23.618C169.93 22.4449 169.531 21.1614 170.413 20.1583C171.367 19.0723 172.768 19.0322 174.103 18.9631C173.396 19.1469 172.665 19.2464 171.966 19.4716C170.728 19.8723 170.071 20.7634 170.052 22.0705C170.042 22.5914 170.048 23.1123 170.048 23.6332L170.048 23.6332ZM5.87466 30.1244C5.86638 29.7126 5.86223 29.3023 5.96585 28.8989C6.01698 28.6875 6.15239 28.6115 6.35274 28.6308C6.54617 28.6502 6.60696 28.7828 6.61664 28.9583C6.65671 29.569 6.57933 30.1686 6.5213 30.7724C6.49506 31.0322 6.28918 31.0819 6.09714 31.093C5.80975 31.1109 5.88712 30.8691 5.87746 30.713C5.86224 30.5168 5.87192 30.3206 5.87468 30.1244H5.87466ZM172.106 23.4715C172.569 23.1302 173.031 22.8125 173.458 22.4436C173.63 22.293 173.845 22.159 174.034 22.3096C174.318 22.5348 174.172 22.8885 174.168 23.1855C174.164 23.4494 173.95 23.4729 173.744 23.4729C173.199 23.4729 172.654 23.4715 172.106 23.4715L172.106 23.4715ZM175.105 19.4661C175.305 20.1736 175.219 20.892 175.251 21.6008C175.263 21.8716 175.186 22.054 174.859 22.054C174.524 22.0526 174.49 21.8495 174.479 21.5884C174.437 20.8091 174.917 20.1874 175.105 19.4661H175.105ZM173.727 21.6934C173.516 21.2913 173.557 20.8796 173.545 20.4734C173.535 20.1252 173.578 19.8033 173.886 19.5795C174.013 19.4883 174.178 19.4344 174.183 19.6513C174.198 20.3532 174.39 21.109 173.727 21.6934L173.727 21.6934Z" fill="black"/>
<path fill-rule="evenodd" clip-rule="evenodd" d="M123.926 35.7496C124.201 35.3669 124.132 34.9151 124.173 34.5171C124.392 32.4571 124.745 30.4248 125.402 28.4557C125.981 26.7231 126.778 25.1065 128.1 23.7924C129.73 22.1717 131.773 21.4864 133.985 21.1755C138.316 20.5676 142.674 20.6629 147.023 20.7362C149.202 20.7735 151.391 20.8633 153.55 21.2736C157.462 22.0142 159.949 24.2926 161.046 28.1072C161.648 30.1991 161.872 32.3475 161.991 34.5125C162.005 34.7695 161.937 35.0527 162.128 35.289C162.338 35.2033 162.306 35.0472 162.298 34.927C162.123 31.7119 161.803 28.5285 160.434 25.5524C158.936 22.2944 156.326 20.5396 152.85 20.0533C148.779 19.4854 144.676 19.5282 140.579 19.6043C138.181 19.6485 135.782 19.7452 133.402 20.1376C129.584 20.7648 127.071 22.934 125.682 26.4919C124.781 28.802 124.279 31.2005 123.998 33.6559C123.94 34.163 123.86 34.6687 123.805 35.1771C123.785 35.3554 123.7 35.5626 123.926 35.7491L123.926 35.7496ZM126.898 24.7585C127.858 22.7537 129.899 21.2353 132.429 20.6095C134.566 20.079 136.756 19.9436 138.935 19.909C142.993 19.8482 147.054 19.7529 151.109 20.1052C152.727 20.2461 154.308 20.5017 155.807 21.1663C157.122 21.748 158.507 22.8672 159.026 23.8205C157.354 22.0934 155.439 21.3639 153.307 20.9826C150.621 20.499 147.895 20.5294 145.182 20.4451C143.529 20.3954 141.874 20.4451 140.217 20.4907C138.207 20.546 136.201 20.6151 134.207 20.8804C131.302 21.2686 128.705 22.2592 126.898 24.7588L126.898 24.7585Z" fill="black"/>
<path fill-rule="evenodd" clip-rule="evenodd" d="M126.339 41.1967C126.627 40.4741 126.582 39.7017 126.68 38.9501C127.04 36.1536 127.478 33.3806 128.639 30.772C129.924 27.8802 132.111 26.2262 135.241 25.7883C136.98 25.5451 138.729 25.4871 140.477 25.3945C142.903 25.2633 145.323 25.371 147.741 25.4636C149.486 25.5313 151.246 25.6059 152.918 26.218C155.301 27.0898 156.802 28.8321 157.733 31.1257C158.609 33.2825 158.933 35.5608 159.149 37.8599C159.224 38.6626 159.291 39.4682 159.286 40.2764C159.286 40.4464 159.286 40.6287 159.435 40.7738C159.617 40.695 159.58 40.5403 159.572 40.4187C159.398 37.1704 159.168 33.9275 157.899 30.8715C156.611 27.7751 154.313 25.9514 150.978 25.4898C147.354 24.9869 143.702 25.1292 140.06 25.143C138.327 25.1485 136.602 25.3129 134.89 25.592C131.715 26.1074 129.582 27.9119 128.33 30.8326C127.298 33.2477 126.807 35.7926 126.498 38.3835C126.386 39.3147 126.198 40.2432 126.339 41.1966L126.339 41.1967Z" fill="black"/>
<path fill-rule="evenodd" clip-rule="evenodd" d="M120.467 28.679C120.486 27.0625 119.084 25.6421 117.472 25.649C115.858 25.6532 114.52 26.9727 114.469 28.6099C114.42 30.2168 115.786 31.6233 117.438 31.6662C119.048 31.7076 120.446 30.3287 120.467 28.679H120.467ZM117.56 26.0041C118.513 25.9723 119.215 26.4794 119.762 27.2752C119.945 27.5391 119.927 27.6967 119.624 27.8832C118.853 28.3543 118.844 28.8669 119.612 29.3533C119.97 29.5785 119.939 29.7692 119.75 30.0662C119.055 31.1633 117.73 31.6233 116.553 31.1633C115.232 30.6479 114.584 29.4417 114.866 28.0241C115.099 26.8497 116.217 25.9972 117.56 26.0041L117.56 26.0041Z" fill="black"/>
<path fill-rule="evenodd" clip-rule="evenodd" d="M110.818 43.4781C111.607 43.6329 126.536 43.2847 127.181 42.9697C121.731 43.083 116.278 43.1949 110.828 43.3109C110.825 43.3648 110.822 43.4215 110.818 43.4781H110.818Z" fill="black"/>
<path fill-rule="evenodd" clip-rule="evenodd" d="M12.8019 31.155C13.0755 31.1218 13.1156 30.8759 13.204 30.6948C13.6337 29.8299 14.0869 28.976 14.4613 28.0876C15.5086 25.602 17.4443 24.2535 19.9975 23.6663C21.9208 23.2242 23.8802 23.0252 25.8393 22.8497C29.4344 22.5292 33.0433 22.5292 36.6483 22.6245C37.9788 22.6604 39.3328 22.6245 40.6413 22.9575C42.8354 23.5157 44.3372 24.8255 44.9547 27.0541C45.2021 27.9453 45.4259 28.8448 45.6856 29.7318C45.745 29.9363 45.716 30.2085 45.9993 30.3563C46.1236 29.986 45.9454 29.6835 45.8763 29.3726C45.6663 28.3916 45.4521 27.4092 45.22 26.4352C44.648 24.0366 42.675 22.2582 40.2182 21.9434C39.3809 21.837 38.534 21.7666 37.6926 21.721C34.6999 21.5607 31.7043 21.5704 28.713 21.7251C26.1182 21.8578 23.5329 22.1037 20.9647 22.5279C17.6238 23.0791 15.1133 24.6418 13.9581 27.9923C13.6445 28.9014 13.212 29.7705 12.8445 30.6644C12.7837 30.8081 12.6511 30.9698 12.8017 31.1549L12.8019 31.155ZM15.0596 26.4475C15.0181 26.2747 15.1176 26.1932 15.177 26.1007C16.3197 24.2547 18.1144 23.4064 20.1289 22.967C23.6231 22.2057 27.1864 22.0275 30.7443 21.9059C33.3032 21.8189 35.866 21.8617 38.4237 22.0192C39.5207 22.0869 40.6247 22.1477 41.6609 22.6009C42.863 23.1273 43.7998 23.9356 44.4187 25.0948C43.9199 24.5421 43.4101 24.0074 42.7787 23.5874C41.4399 22.7004 39.9269 22.4903 38.3835 22.4268C35.4323 22.3066 32.4823 22.2334 29.5257 22.3812C26.83 22.5139 24.144 22.6976 21.4774 23.1204C18.9821 23.5183 16.6401 24.2271 15.0594 26.4474L15.0596 26.4475Z" fill="black"/>
<path fill-rule="evenodd" clip-rule="evenodd" d="M81.0673 23.002C80.534 23.0932 79.9758 22.9163 79.3955 22.4632C78.3952 21.6825 76.4774 21.992 75.6207 22.9606C75.4977 23.0973 75.3637 23.1194 75.2048 23.1333C74.8525 23.165 74.5015 23.2065 74.1492 23.2397C73.6642 23.2839 73.399 23.545 73.363 24.0313C73.3257 24.5523 73.5772 24.8548 74.0801 24.9405C74.3316 24.9847 74.5886 24.9875 74.8442 25.0137C75.2366 25.0552 75.6124 25.1063 75.8666 25.4849C75.9992 25.6824 76.2563 25.7557 76.4911 25.7861C77.7277 25.9422 78.9684 26.1066 79.9798 25.0994C80.1346 24.9432 80.346 24.9764 80.538 24.975C81.0713 24.9667 81.6019 24.9805 82.1338 24.9515C82.663 24.9211 82.9794 24.5177 82.978 23.9374C82.978 23.411 82.6409 23.0379 82.1145 23.0048C81.8174 22.9882 81.5204 23.002 81.0672 23.002L81.0673 23.002ZM80.1112 23.4386C80.2438 23.4759 80.5492 23.3557 80.5492 23.6901C80.5492 24.0189 80.2535 23.936 80.0546 23.9416C78.7627 23.9747 77.4653 23.9001 76.1762 24.0548C75.9979 24.077 75.7299 24.1267 75.7133 23.8407C75.6871 23.5063 75.9744 23.5616 76.1762 23.5574C77.4666 23.5257 78.764 23.5892 80.1112 23.4386H80.1112ZM79.4729 22.9288C79.4632 22.9923 79.4549 23.0559 79.4452 23.1195C78.4256 23.1195 77.4073 23.1208 76.3876 23.1181C76.2605 23.1181 76.0726 23.1789 76.0215 23.0145C75.9676 22.8362 76.1444 22.7437 76.2715 22.658C77.0066 22.1592 78.8069 22.3139 79.4729 22.9288ZM75.7508 24.3796C75.7964 24.3381 75.824 24.2939 75.8558 24.2925C77.3024 24.2151 78.7559 24.2925 80.1997 24.1502C80.3323 24.1364 80.523 24.1378 80.5285 24.3146C80.5382 24.5827 80.2992 24.5343 80.1361 24.5371C78.7835 24.5454 77.4308 24.5467 76.0756 24.5454C75.965 24.544 75.8352 24.5688 75.7509 24.3796L75.7508 24.3796Z" fill="black"/>
<path fill-rule="evenodd" clip-rule="evenodd" d="M86.2704 33.592C86.2704 33.9664 86.2843 34.3409 86.2691 34.7153C86.2456 35.2528 86.5191 35.4697 87.0235 35.4614C91.3578 35.3868 95.6907 35.3371 100.024 35.2141C101.244 35.1809 102.466 35.1699 103.686 35.1395C105.055 35.1035 105.665 34.5813 105.851 33.2355C105.897 32.9053 105.955 32.5723 105.962 32.2394C105.976 31.5347 105.732 31.3026 105.044 31.3288C101.185 31.467 97.3237 31.4808 93.4633 31.5748C91.3356 31.6259 89.2093 31.5983 87.0814 31.6743C86.4002 31.6978 86.2911 31.8055 86.2717 32.4687V32.5281C86.2703 32.8805 86.2703 33.2355 86.2703 33.592L86.2704 33.592ZM104.785 33.5464C104.579 33.3999 104.398 33.4331 104.227 33.44C103.518 33.4552 102.809 33.5091 102.103 33.5146C97.4745 33.5505 92.843 33.6017 88.2172 33.7827C87.5582 33.8089 87.2156 33.5768 86.9517 33.0048C86.7886 32.6525 86.7513 32.5516 87.2017 32.5253C90.2525 32.3651 93.306 32.4535 96.3596 32.325C99.1146 32.2103 101.877 32.2241 104.633 32.1868C105.683 32.1716 105.683 32.1744 105.542 33.2286C105.397 34.3298 104.867 34.8078 103.739 34.8286C102.026 34.8645 100.314 34.8797 98.5994 34.9322C94.9754 35.0372 91.3499 35.0386 87.723 35.0828C87.4867 35.0869 87.2518 35.1007 87.0155 35.0925C86.8746 35.0883 86.7337 35.0703 86.7876 34.8534C86.8788 34.4693 87.4452 33.9761 87.8376 33.9705C89.9654 33.9429 92.0917 33.9374 94.2196 33.8669C97.508 33.7619 100.799 33.7702 104.09 33.7218C104.306 33.7163 104.559 33.802 104.785 33.5464L104.785 33.5464ZM86.7225 32.2449C86.7225 32.1702 86.7211 32.0943 86.7183 32.0196C92.9733 31.9064 99.2293 31.7972 105.484 31.6867C105.484 31.7475 105.486 31.8096 105.486 31.8704C99.2321 31.9948 92.9775 32.1177 86.7226 32.2449H86.7225Z" fill="black"/>
<path fill-rule="evenodd" clip-rule="evenodd" d="M29.5394 36.0184C23.4213 36.0032 18.4751 40.8805 18.4528 46.9543C18.4335 52.897 23.4461 57.8641 29.4662 57.8627C35.598 57.8613 40.6451 52.9702 40.6161 46.971C40.5843 40.5643 35.3381 35.9852 29.5394 36.0184ZM40.2585 46.9572C40.358 52.6398 35.5499 57.5641 29.4496 57.5588C23.6809 57.5505 18.7832 52.7353 18.7609 47.0898C18.7332 40.9512 23.8136 36.1914 29.7895 36.3226C35.5025 36.447 40.3551 41.1514 40.2585 46.9572Z" fill="black"/>
<path fill-rule="evenodd" clip-rule="evenodd" d="M142.524 36.0184C136.461 36.0171 131.479 40.9565 131.492 46.9586C131.504 52.9925 136.525 57.8779 142.699 57.8627C148.736 57.8489 153.663 52.8956 153.661 46.8454C153.656 40.8738 148.663 36.0188 142.525 36.0188L142.524 36.0184ZM131.859 46.9501C131.728 41.3032 136.481 36.4397 142.334 36.3251C148.377 36.2049 153.291 40.9427 153.341 46.7994C153.391 52.7321 148.563 57.5528 142.661 57.5542C136.446 57.557 131.743 52.5139 131.859 46.9501Z" fill="black"/>
<path fill-rule="evenodd" clip-rule="evenodd" d="M87.3209 6.84466C87.4618 10.2671 87.6553 13.6882 87.933 17.1036C87.991 17.8041 88.295 18.1039 89.001 18.0873C91.9564 18.0224 94.909 17.9409 97.8631 17.8497C98.174 17.8414 98.4876 17.7626 98.7902 17.6839C100.65 17.1948 101.509 16.1129 101.587 14.1606C101.677 11.8823 101.33 9.64378 100.965 7.40835C100.929 7.19695 100.9 6.98005 100.86 6.76864C100.509 4.90478 99.4811 3.86852 97.3851 3.76627C94.6135 3.62948 91.8252 3.58803 89.0535 3.82706C87.7851 3.9376 87.3264 4.55382 87.3223 5.84153C87.3209 6.17589 87.3209 6.51025 87.3209 6.84461V6.84466ZM93.1599 4.13519C94.5581 4.13519 95.6441 4.14072 96.7274 4.13104C97.1654 4.1269 97.5951 4.17664 98.0151 4.28165C99.1301 4.55936 100.057 5.10787 100.307 6.32236C100.828 8.87153 101.215 11.4401 101.161 14.0526C101.135 15.2091 100.828 16.2398 99.727 16.8519C99.1149 17.1904 98.4558 17.4059 97.7595 17.4281C94.905 17.5206 92.0503 17.5939 89.1973 17.6671C88.5245 17.6823 88.3918 17.5344 88.3476 16.8367C88.3006 16.0698 88.2426 15.3058 88.1873 14.539C87.9759 11.5933 87.7728 8.64621 87.7577 5.69346C87.7535 4.79674 88.1514 4.37258 89.0495 4.24545C90.5196 4.03544 91.9993 4.21229 93.1599 4.13492L93.1599 4.13519Z" fill="black"/>
<path fill-rule="evenodd" clip-rule="evenodd" d="M29.4827 54.7896C33.7937 54.7883 37.3665 51.2761 37.3209 46.9748C37.2739 42.5259 33.8321 39.1851 29.4965 39.1367C25.176 39.0897 21.6541 42.6738 21.6612 47.0205C21.6639 51.2858 25.1969 54.7925 29.4827 54.7896ZM29.5062 54.0035C25.654 53.9675 22.5038 50.9983 22.4515 46.9764C22.4018 43.098 25.6045 39.9659 29.4966 39.9659C33.3598 39.9659 36.5085 43.0871 36.5266 46.9364C36.5445 50.7925 33.3515 54.0105 29.5062 54.0035Z" fill="black"/>
<path fill-rule="evenodd" clip-rule="evenodd" d="M150.352 46.9197C150.347 42.6158 146.821 39.0744 142.495 39.1395C138.151 39.2045 134.703 42.5854 134.725 47.0191C134.747 51.6201 138.497 54.8201 142.65 54.7935C146.9 54.7659 150.357 51.2455 150.351 46.9193L150.352 46.9197ZM135.547 47.0178C135.547 43.0386 138.613 39.9602 142.574 39.9684C146.399 39.9767 149.556 43.0799 149.564 46.8395C149.573 50.7717 146.464 53.9964 142.659 54.0063C138.692 54.0146 135.549 50.9266 135.548 47.0178H135.547Z" fill="black"/>
<path fill-rule="evenodd" clip-rule="evenodd" d="M26.9786 51.3905C27.1527 51.6641 27.4456 51.7511 27.7247 51.8244C28.1005 51.9252 28.2331 52.0703 28.0936 52.4862C27.8394 53.2323 28.0038 53.4257 28.7844 53.4962C29.3357 53.546 29.8842 53.5321 30.43 53.4769C31.0089 53.4188 31.1388 53.2019 31.0061 52.6465C30.955 52.4309 30.7173 52.1449 30.9453 51.9929C31.2783 51.7705 31.6776 51.6199 32.0728 51.5232C32.2786 51.4734 32.338 51.7733 32.4306 51.9391C32.7539 52.5042 32.9736 52.5498 33.5028 52.1726C33.9905 51.8244 34.3788 51.3864 34.7421 50.9166C35.1069 50.4469 35.0696 50.1581 34.5224 49.8873C34.0983 49.6814 33.9684 49.4769 34.206 49.0292C34.4216 48.623 34.4879 48.0869 35.1746 48.4268C35.6126 48.641 35.8917 48.4545 35.9746 47.9751C36.092 47.2897 36.0837 46.6058 35.9746 45.9191C35.9 45.4438 35.654 45.2919 35.1829 45.4383C34.959 45.5101 34.662 45.7492 34.4823 45.4784C34.2682 45.1592 34.1176 44.7779 34.0306 44.3993C33.9863 44.2017 34.2903 44.1381 34.4478 44.0373C35.0475 43.6573 35.0889 43.4943 34.6537 42.9264C34.2917 42.4567 33.8772 42.0367 33.3881 41.6967C32.9073 41.3624 32.6987 41.408 32.4058 41.9247C32.2717 42.1637 32.146 42.4124 32.0189 42.6556C31.9954 42.6708 31.9747 42.6874 31.9539 42.7012C31.907 43.0038 31.6804 43.2221 31.5657 43.4915C31.4828 43.6877 31.3695 43.8784 31.462 44.1091C31.7508 44.8248 32.4845 45.1274 33.156 44.7171C33.7169 44.3731 33.8537 44.6936 34.0499 45.104C34.2779 45.5751 34.1784 45.8073 33.6575 45.9205C33.3508 45.9855 32.9708 46.0256 32.8824 46.4497C32.6959 47.3589 32.8727 47.6794 33.7376 48.0041C33.9518 48.0829 34.2047 48.1105 34.1591 48.4601C34.054 49.2186 33.699 49.4562 33.0537 49.0818C32.4403 48.7253 32.1183 49.097 31.737 49.4549C31.3639 49.803 31.4675 50.1415 31.6651 50.5187C32.0437 51.24 32.0119 51.2275 31.2672 51.5564C30.5805 51.859 30.5957 51.327 30.5004 50.9719C30.3636 50.451 30.0513 50.3046 29.5456 50.3226C29.0828 50.3405 28.7111 50.364 28.5453 50.9167C28.2773 51.8024 28.2496 51.7927 27.3847 51.4099C27.2756 51.363 27.1664 51.3188 27.0573 51.2759C27.031 51.3146 27.0048 51.3533 26.9785 51.3906L26.9786 51.3905ZM29.5305 53.054C28.6504 53.0527 28.6117 52.996 28.9184 52.1504C28.9999 51.9308 29.0883 51.7152 29.174 51.4969C29.2376 51.3325 29.3564 51.2537 29.5346 51.2509C29.7253 51.2468 29.8137 51.3601 29.8731 51.5162C29.956 51.7359 30.0362 51.9556 30.1204 52.1739C30.452 53.025 30.4299 53.0582 29.5304 53.054H29.5305ZM33.1754 42.1857C33.2127 42.1995 33.257 42.2037 33.2818 42.2271C33.6342 42.5339 34.1274 42.8116 34.1993 43.2427C34.2532 43.5632 33.6729 43.6033 33.3868 43.7857C33.2418 43.881 33.076 43.9542 32.9101 44.0012C32.5675 44.1049 32.3119 43.8672 32.4348 43.5273C32.5772 43.1253 32.7816 42.7425 32.964 42.3543C33.0013 42.2645 33.0607 42.1871 33.1754 42.1857L33.1754 42.1857ZM32.3865 50.2753C32.4473 49.9935 32.591 49.7779 32.8286 49.865C33.286 50.0308 33.764 50.2173 34.1412 50.5088C34.4645 50.7561 34.0583 50.9648 33.8994 51.085C33.6383 51.2812 33.4656 51.9112 33.0828 51.5782C32.7278 51.2715 32.6006 50.7008 32.3865 50.2753L32.3865 50.2753ZM35.5243 46.9289C35.5256 47.8685 35.5284 47.8657 34.6345 47.5217C34.4521 47.4498 34.2642 47.3904 34.0818 47.32C33.9298 47.2647 33.793 47.1887 33.7861 46.9967C33.7778 46.7908 33.8829 46.6637 34.068 46.5946C34.3775 46.4716 34.6953 46.3708 34.9992 46.2298C35.3792 46.0516 35.5519 46.1483 35.5284 46.5739C35.5201 46.6941 35.5243 46.8102 35.5243 46.929L35.5243 46.9289Z" fill="black"/>
<path fill-rule="evenodd" clip-rule="evenodd" d="M32.0153 42.6575C31.92 42.2403 31.5207 42.2237 31.2305 42.1311C30.8188 42.0026 30.7774 41.8036 30.8934 41.4333C31.1186 40.7149 31.0564 40.6306 30.3394 40.4772C29.7314 40.3487 29.129 40.3957 28.5197 40.4772C27.9518 40.5518 27.8524 40.8434 27.9809 41.3449C28.0444 41.5964 28.3912 41.9708 27.8261 42.08C27.3771 42.167 26.8521 42.8523 26.4928 41.9376C26.2966 41.443 25.9554 41.4181 25.5533 41.7221C25.0476 42.1021 24.5986 42.5387 24.2186 43.0499C23.9022 43.4796 23.9506 43.7891 24.4342 44.0502C24.6262 44.1552 24.991 44.216 24.9357 44.4702C24.8487 44.8626 24.6608 45.255 24.4287 45.5852C24.3098 45.7483 24.0225 45.5797 23.8207 45.5134C23.3316 45.3531 23.0483 45.5355 22.9862 46.0329C22.9074 46.6588 22.9074 47.2944 22.982 47.9189C23.0552 48.5392 23.2597 48.6345 23.869 48.4757C24.0777 48.4218 24.354 48.1924 24.5074 48.4563C24.7119 48.8073 24.868 49.2066 24.9329 49.6031C24.9633 49.7731 24.6179 49.8629 24.4341 49.9679C23.9851 50.2221 23.9326 50.515 24.2407 50.9267C24.6206 51.4379 25.0531 51.8911 25.574 52.2573C26.0686 52.6041 26.2468 52.5543 26.5605 52.0293C26.6876 51.8137 26.7526 51.5526 26.975 51.3978C27.0013 51.3605 27.0262 51.3232 27.0538 51.2845C27.0552 50.9239 27.3274 50.6822 27.4476 50.374C27.5678 50.0687 27.554 49.8214 27.3232 49.5616C26.6932 48.8459 26.6365 48.8293 25.7288 49.2687C25.5782 49.3405 25.3875 49.5423 25.2521 49.393C25.0158 49.1333 24.8486 48.7989 24.8196 48.4425C24.792 48.0805 25.1429 48.1136 25.3668 48.0279C25.6721 47.9091 26.0231 47.8649 26.0935 47.4393C26.2497 46.515 26.1212 46.2331 25.2286 45.9651C24.6013 45.7772 24.8403 45.4166 24.9647 45.0476C25.1015 44.6414 25.3032 44.448 25.7357 44.7464C26.1916 45.0601 26.5909 45.1568 27.0745 44.6553C27.5236 44.1896 27.5595 43.8235 27.2486 43.3123C27.145 43.1396 26.8866 42.9461 27.1146 42.6905C27.6134 42.1282 28.2434 42.2553 28.4769 42.9641C28.5032 43.0387 28.517 43.1161 28.5419 43.1921C28.7712 43.8359 29.3363 43.543 29.7619 43.6135C30.0893 43.6674 30.2537 43.4546 30.3656 43.1644C30.7497 42.1696 30.7553 42.1724 31.7321 42.6035C31.804 42.6367 31.8703 42.6753 31.9422 42.7126C31.9712 42.6878 31.9919 42.674 32.0154 42.6574L32.0153 42.6575ZM25.7883 51.7627C25.6571 51.6632 25.5106 51.5623 25.378 51.4476C24.5572 50.7319 24.5683 50.6532 25.5147 50.1944C25.7109 50.1019 25.9085 50.0162 26.1047 49.9209C26.3424 49.8021 26.4792 49.925 26.5745 50.1212C26.6422 50.2663 26.0633 51.6562 25.9168 51.7322C25.885 51.7488 25.8463 51.7516 25.7883 51.7626L25.7883 51.7627ZM24.6761 43.3055C24.6747 43.1964 25.5935 42.2264 25.7303 42.2278C26.1199 42.2319 26.0329 42.6161 26.1683 42.8261C26.3134 43.054 26.4018 43.3193 26.5248 43.5652C26.6256 43.7697 26.5441 43.9065 26.3783 44.0115C26.2056 44.1179 24.7424 43.5542 24.6844 43.3635C24.6775 43.3428 24.6775 43.3248 24.6761 43.3055V43.3055ZM23.3884 47.0138C23.3828 46.2041 23.4989 46.1185 24.2616 46.3865C24.4108 46.4376 24.5628 46.4818 24.7051 46.5496C24.9096 46.649 25.1846 46.6739 25.1929 46.9917C25.1984 47.3122 24.9372 47.3495 24.7217 47.4338C24.5559 47.4946 24.3929 47.5623 24.2271 47.6259C23.5045 47.8912 23.3939 47.8096 23.3884 47.0138H23.3884ZM29.411 40.9385C30.3463 40.9371 30.3477 40.9371 30.0424 41.82C29.9788 42.0065 29.9001 42.1862 29.8338 42.3713C29.7661 42.5592 29.6417 42.6628 29.4372 42.6587C29.2534 42.6532 29.1484 42.5412 29.089 42.3837C28.9578 42.0328 28.8376 41.6805 28.7022 41.3323C28.5889 41.0366 28.7077 40.9302 28.9951 40.9399C29.1346 40.9426 29.2728 40.9385 29.411 40.9385V40.9385Z" fill="black"/>
<path fill-rule="evenodd" clip-rule="evenodd" d="M139.992 51.3799C140.05 51.4311 140.098 51.5126 140.166 51.5347C140.864 51.7668 141.481 52.0114 141.049 52.973C140.916 53.2687 141.245 53.4193 141.509 53.4524C142.193 53.5478 142.881 53.545 143.568 53.4649C144.075 53.4041 144.221 53.1029 144.062 52.6234C143.993 52.4121 143.797 52.1205 144.021 51.9713C144.358 51.7488 144.756 51.5816 145.152 51.5015C145.331 51.4656 145.416 51.811 145.521 51.9934C145.789 52.4562 146.092 52.5281 146.526 52.191C147.013 51.8165 147.453 51.3993 147.817 50.906C148.193 50.3948 148.134 50.1931 147.594 49.8781C147.346 49.7358 146.904 49.6846 147.192 49.2259C147.429 48.846 147.33 48.0846 148.204 48.4024C148.825 48.6263 148.977 48.4494 149.067 47.7821C149.14 47.2308 149.112 46.6864 149.062 46.1379C149.003 45.4581 148.815 45.3144 148.157 45.4761C147.949 45.5272 147.736 45.5687 147.526 45.6129C147.485 45.6364 147.44 45.6571 147.397 45.6778C147.082 45.7828 146.766 45.8864 146.448 45.9915C146.197 46.0744 145.987 46.1973 145.923 46.4888C145.726 47.3897 145.936 47.7586 146.813 48.0197C146.993 48.0736 147.276 48.0529 147.252 48.3112C147.216 48.6843 147.07 49.0518 146.827 49.3309C146.682 49.4967 146.452 49.295 146.307 49.1969C145.759 48.8072 145.362 48.915 144.877 49.3848C144.383 49.8615 144.544 50.2497 144.823 50.6725C145.122 51.1285 144.927 51.3247 144.5 51.4891C143.806 51.7585 143.811 51.7709 143.587 51.0594C143.556 50.9668 143.518 50.8756 143.491 50.7803C143.385 50.4072 143.109 50.3105 142.761 50.3382C142.371 50.3699 141.912 50.2 141.687 50.7181C141.549 51.0345 141.588 51.5236 141.277 51.6452C140.944 51.7723 140.59 51.4352 140.243 51.3081C140.189 51.2887 140.128 51.2887 140.07 51.2777C140.04 51.3122 140.017 51.3454 139.992 51.3799L139.992 51.3799ZM142.577 53.0531C141.658 53.0545 141.65 53.0407 141.973 52.1813C142.056 51.963 142.128 51.7378 142.209 51.5181C142.267 51.362 142.368 51.2542 142.552 51.2501C142.732 51.2459 142.849 51.3357 142.914 51.4933C143.009 51.7268 143.106 51.963 143.189 52.2021C143.476 53.0283 143.457 53.0531 142.577 53.0531H142.577ZM148.253 46.1502C148.542 46.1281 148.609 46.2552 148.605 46.4003C148.593 46.8217 148.805 47.3467 148.495 47.6383C148.224 47.8953 147.811 47.525 147.461 47.4379C147.293 47.3965 147.123 47.3246 146.98 47.2293C146.758 47.0773 146.729 46.8037 146.94 46.6918C147.382 46.4556 147.871 46.3022 148.253 46.1502L148.253 46.1502ZM146.262 51.7045C146.133 51.6782 146.061 51.5843 146.012 51.4792C145.851 51.1449 145.701 50.8036 145.545 50.4665C145.466 50.3007 145.422 50.1515 145.582 49.9898C145.738 49.8337 145.885 49.853 146.057 49.9345C146.394 50.0893 146.734 50.2399 147.076 50.3905C147.182 50.4375 147.299 50.4817 147.331 50.606C147.377 50.7815 146.455 51.7183 146.262 51.7045H146.262Z" fill="black"/>
<path fill-rule="evenodd" clip-rule="evenodd" d="M147.519 45.611C147.501 45.5363 147.499 45.4479 147.463 45.383C147.119 44.7626 146.879 44.192 147.802 43.8175C148.07 43.7084 148.03 43.3795 147.874 43.1405C147.472 42.5201 146.938 42.02 146.337 41.6013C145.909 41.3056 145.652 41.5861 145.452 41.9564C145.311 42.2175 145.226 42.6265 144.788 42.3184C144.437 42.0725 143.657 42.2092 143.975 41.354C144.2 40.7433 144.085 40.6037 143.437 40.478C142.811 40.355 142.19 40.3882 141.559 40.4918C141.047 40.5747 140.859 40.7806 141.033 41.2876C141.11 41.5101 141.15 41.745 141.206 41.9743C141.33 42.3474 141.452 42.7191 141.58 43.0893C141.659 43.3131 141.75 43.5287 142.02 43.5978C142.804 43.8036 143.302 43.566 143.531 42.7992C143.68 42.2976 143.91 42.2009 144.389 42.393C144.888 42.5947 145.108 42.8171 144.723 43.3118C144.641 43.4182 144.601 43.555 144.545 43.6821C144.403 44.0109 144.549 44.2444 144.791 44.4586C145.076 44.7059 145.272 45.1121 145.769 44.9518C146.116 44.8385 146.417 44.4116 146.771 44.5815C147.123 44.7542 147.1 45.2682 147.31 45.5998C147.329 45.6316 147.365 45.6509 147.396 45.6786C147.433 45.6537 147.476 45.6344 147.519 45.6109L147.519 45.611ZM142.471 40.9381C143.418 40.9368 143.418 40.934 143.083 41.8556C143.024 42.0214 142.973 42.1927 142.909 42.3571C142.842 42.5312 142.737 42.6583 142.522 42.6625C142.304 42.668 142.207 42.5437 142.142 42.364C142.014 42.0131 141.872 41.6691 141.744 41.3181C141.663 41.0901 141.704 40.9299 141.999 40.9423C142.156 40.9437 142.315 40.9382 142.471 40.9382L142.471 40.9381ZM146.206 42.1816C146.279 42.2148 146.323 42.2231 146.351 42.2493C146.68 42.5547 147.188 42.8144 147.228 43.2317C147.262 43.5923 146.685 43.6324 146.373 43.8065C146.236 43.8838 146.09 43.9405 145.948 44.0082C145.809 44.069 145.687 44.0482 145.565 43.9501C145.359 43.7843 145.428 43.602 145.528 43.4237C145.756 43.0092 145.823 42.5021 146.206 42.1816L146.206 42.1816Z" fill="black"/>
<path fill-rule="evenodd" clip-rule="evenodd" d="M138.184 44.4296C137.833 44.5954 137.796 44.9587 137.692 45.2613C137.583 45.5846 137.455 45.691 137.098 45.5888C136.217 45.3346 136.195 45.3732 136.025 46.2547C135.902 46.8889 135.979 47.5107 136.086 48.1311C136.168 48.616 136.515 48.5594 136.861 48.4889C137.1 48.4433 137.401 48.1932 137.561 48.4309C137.786 48.7611 137.916 49.1756 138.009 49.5722C138.049 49.7407 137.767 49.7974 137.621 49.8858C136.975 50.2699 136.939 50.4232 137.382 51.0312C137.72 51.4968 138.14 51.8851 138.604 52.2222C139.106 52.5884 139.309 52.5358 139.634 51.9942C139.757 51.7925 139.871 51.5867 139.99 51.3821C140.014 51.349 140.036 51.3144 140.062 51.2813C140.157 51.0878 140.244 50.8916 140.347 50.701C140.584 50.2685 140.75 49.9065 140.287 49.445C139.824 48.9877 139.432 48.786 138.871 49.2088C138.778 49.2779 138.661 49.3179 138.56 49.3773C138.418 49.463 138.324 49.4368 138.216 49.3C137.703 48.652 137.81 48.2278 138.571 47.9749C138.608 47.9625 138.644 47.9445 138.684 47.9376C139.151 47.8243 139.215 47.4845 139.201 47.0727C139.189 46.6568 139.243 46.2603 138.709 46.0641C137.726 45.7021 137.732 45.68 138.184 44.717C138.217 44.6451 138.249 44.5746 138.281 44.5028C138.249 44.4793 138.216 44.4531 138.184 44.4296H138.184ZM136.507 47.052C136.493 46.0793 136.493 46.0793 137.412 46.422C137.632 46.5049 137.865 46.5643 138.071 46.6734C138.412 46.8517 138.414 47.1708 138.061 47.3297C137.669 47.508 137.249 47.6254 136.845 47.776C136.6 47.8672 136.518 47.7387 136.508 47.5259C136.5 47.3698 136.507 47.2123 136.507 47.052L136.507 47.052ZM139.243 49.865C139.482 49.9286 139.685 50.0336 139.646 50.2132C139.531 50.7507 139.363 51.3462 138.975 51.675C138.664 51.9389 138.414 51.36 138.165 51.1362C138.01 50.9994 137.594 50.7894 137.878 50.5656C138.28 50.2478 138.805 50.0806 139.243 49.865V49.865Z" fill="black"/>
<path fill-rule="evenodd" clip-rule="evenodd" d="M141.205 41.9713C141.091 42.0086 140.972 42.0293 140.87 42.0846C140.284 42.3955 139.747 42.629 139.418 41.7364C139.312 41.4449 138.992 41.4476 138.715 41.6411C138.112 42.0652 137.611 42.5834 137.181 43.1747C136.939 43.5077 137.058 43.7716 137.369 43.965C137.634 44.1336 137.913 44.2759 138.19 44.4279C138.221 44.4514 138.255 44.4749 138.286 44.5011C138.55 44.6282 138.811 44.7623 139.077 44.888C139.254 44.9695 139.419 45.0801 139.635 45.0193C140.315 44.8272 140.677 44.0231 140.36 43.4027C140.005 42.7091 140.014 42.6995 140.743 42.3983C140.945 42.3181 141.234 42.314 141.205 41.9713L141.205 41.9713ZM138.863 42.2393C138.89 42.2587 138.955 42.2808 138.977 42.325C139.189 42.7644 139.439 43.1927 139.585 43.6528C139.668 43.9125 139.422 44.1198 139.153 44.0314C138.729 43.8946 138.327 43.6832 137.919 43.4967C137.828 43.4552 137.76 43.3917 137.768 43.2728C137.782 43.0849 138.665 42.2214 138.863 42.2393L138.863 42.2393Z" fill="black"/>
<path fill-rule="evenodd" clip-rule="evenodd" d="M30.3884 43.9485C30.3096 43.9845 30.1687 44.0162 30.0651 44.0977C29.6685 44.4114 29.29 44.3824 28.8782 44.1116C28.3408 43.7565 27.9415 43.9375 27.8185 44.5827C27.7273 45.0456 27.48 45.2956 27.0088 45.3689C26.4023 45.4656 26.2282 45.8773 26.5612 46.3913C26.8265 46.8017 26.9536 47.1595 26.5474 47.5933C26.1826 47.9802 26.4064 48.5218 26.9535 48.6089C27.4841 48.6918 27.7383 48.9432 27.8226 49.471C27.9138 50.0292 28.3311 50.1978 28.8354 49.8952C29.2789 49.6258 29.6533 49.5387 30.1093 49.9145C30.5072 50.242 30.9866 50.0113 31.0599 49.4849C31.1331 48.9557 31.3901 48.6945 31.9234 48.6213C32.4664 48.5481 32.6847 48.0673 32.3628 47.6155C32.0519 47.1802 32.0671 46.8169 32.3573 46.3816C32.6723 45.9077 32.4747 45.4545 31.9234 45.3772C31.397 45.3026 31.111 45.0442 31.0681 44.5122C31.0405 44.1323 30.8167 43.9568 30.3884 43.9485L30.3884 43.9485ZM28.0866 46.973C28.099 46.1689 28.6903 45.5568 29.4516 45.5665C30.2157 45.5761 30.8858 46.2614 30.872 47.0186C30.8582 47.7454 30.1867 48.3892 29.4378 48.3878C28.6848 48.3892 28.0769 47.7495 28.0866 46.973Z" fill="black"/>
<path fill-rule="evenodd" clip-rule="evenodd" d="M143.426 43.945C142.869 44.5474 142.206 44.278 141.495 43.9712C141.199 43.8441 140.938 44.126 140.914 44.4742C140.873 45.0365 140.562 45.2908 140.027 45.3778C139.465 45.469 139.281 45.9125 139.62 46.3767C139.931 46.805 139.967 47.1615 139.606 47.583C139.254 47.9975 139.441 48.5197 139.984 48.6012C140.551 48.6883 140.858 48.9149 140.909 49.5201C140.949 49.9968 141.47 50.2206 141.833 49.9207C142.279 49.5504 142.664 49.6002 143.103 49.8931C143.596 50.2219 144.056 50.0202 144.112 49.4261C144.159 48.9135 144.476 48.7228 144.898 48.6358C145.598 48.4893 145.749 48.1052 145.315 47.5152C145.061 47.1712 145.069 46.8354 145.319 46.4914C145.759 45.889 145.62 45.5381 144.905 45.3668C144.461 45.2576 144.132 45.0531 144.134 44.5018C144.136 44.173 143.91 43.963 143.426 43.945L143.426 43.945ZM141.115 46.9943C141.116 46.2441 141.763 45.5781 142.494 45.5698C143.22 45.5643 143.89 46.2289 143.892 46.9584C143.893 47.7639 143.267 48.4147 142.495 48.4064C141.75 48.4023 141.112 47.7501 141.115 46.9944V46.9943Z" fill="black"/>
</svg>
