<?xml version="1.0" encoding="UTF-8" standalone="no"?>
<svg
   xmlns:dc="http://purl.org/dc/elements/1.1/"
   xmlns:cc="http://creativecommons.org/ns#"
   xmlns:rdf="http://www.w3.org/1999/02/22-rdf-syntax-ns#"
   xmlns:svg="http://www.w3.org/2000/svg"
   xmlns="http://www.w3.org/2000/svg"
   viewBox="0 0 1066.6667 1066.6667"
   height="1066.6667"
   width="1066.6667"
   xml:space="preserve"
   id="svg2"
   version="1.1"><metadata
     id="metadata8"><rdf:RDF><cc:Work
         rdf:about=""><dc:format>image/svg+xml</dc:format><dc:type
           rdf:resource="http://purl.org/dc/dcmitype/StillImage" /></cc:Work></rdf:RDF></metadata><defs
     id="defs6"><clipPath
       id="clipPath18"
       clipPathUnits="userSpaceOnUse"><path
         id="path16"
         d="M 0,800 H 800 V 0 H 0 Z" /></clipPath></defs><g
     transform="matrix(1.3333333,0,0,-1.3333333,0,1066.6667)"
     id="g10"><g
       id="g12"><g
         clip-path="url(#clipPath18)"
         id="g14"><g
           transform="translate(404.9033,118.0197)"
           id="g20"><path
             id="path22"
             style="fill:#d8353a;fill-opacity:1;fill-rule:nonzero;stroke:none"
             d="m 0,0 c -22.557,9.828 -94.445,45.114 -157.927,118.747 h -27.982 C -111.953,26.129 -22.02,-14.206 -4.082,-21.617 L 0,-23.309 l 4.082,1.692 c 17.938,7.411 107.871,47.746 181.827,140.364 H 157.927 C 94.445,45.141 22.53,9.828 0,0 m 280.837,524.132 -1.02,6.794 -6.606,1.934 c -12.246,3.571 -24.679,6.901 -36.334,9.963 -48.095,12.675 -91.84,22.611 -133.731,30.425 -13.481,2.524 -29.137,5.263 -45.921,7.68 -16.81,2.417 -34.775,4.458 -52.901,5.505 -25.834,1.504 -49.465,0.994 -72.264,-1.638 -42.617,-4.86 -87.248,-14.528 -140.499,-30.372 -18.126,-5.424 -41.999,-12.782 -65.604,-21.859 l -5.881,-2.228 -0.913,-6.204 c -6.767,-45.759 -8.727,-88.053 -6.848,-127.072 h 21.564 c -1.826,36.199 -0.242,75.379 5.639,117.674 21,7.814 41.919,14.259 58.166,19.093 52.015,15.494 95.492,24.893 136.82,29.646 21.536,2.471 43.959,2.954 68.557,1.504 35.071,-2.041 69.793,-7.949 96.137,-12.863 41.382,-7.707 84.616,-17.536 132.228,-30.076 9.372,-2.471 19.281,-5.102 29.136,-7.895 5.828,-42.08 7.385,-81.045 5.559,-117.083 h 21.564 c 1.88,39.019 -0.081,81.313 -6.848,127.072" /></g><g
           transform="translate(200.424,259.9541)"
           id="g24"><path
             id="path26"
             style="fill:#d8353a;fill-opacity:1;fill-rule:nonzero;stroke:none"
             d="M 0,0 -1.532,7.397 -5.898,0 Z m 0.978,-4.757 h -9.712 l -2.639,-4.433 h -6.811 L -3.552,13.622 H 2.803 L 8.31,-9.19 H 1.89 Z" /></g><g
           transform="translate(216.0986,251.3019)"
           id="g28"><path
             id="path30"
             style="fill:#d8353a;fill-opacity:1;fill-rule:nonzero;stroke:none"
             d="m 0,0 c -1.434,0.663 -2.531,1.614 -3.291,2.852 -0.761,1.238 -1.141,2.693 -1.141,4.367 0,0.695 0.087,1.499 0.261,2.411 l 2.542,12.644 H 4.823 L 2.314,9.727 C 2.183,9.076 2.118,8.478 2.118,7.935 c 0,-2.39 1.26,-3.584 3.78,-3.584 1.369,0 2.45,0.418 3.243,1.254 0.792,0.837 1.385,2.21 1.776,4.122 l 2.509,12.547 h 6.355 L 17.206,9.337 C 15.815,2.45 11.786,-0.993 5.116,-0.993 3.139,-0.993 1.434,-0.662 0,0" /></g><g
           transform="translate(243.7332,268.4596)"
           id="g32"><path
             id="path34"
             style="fill:#d8353a;fill-opacity:1;fill-rule:nonzero;stroke:none"
             d="m 0,0 h -7.007 l 1.043,5.117 H 14.469 L 13.426,0 H 6.452 L 2.901,-17.695 h -6.453 z" /></g><g
           transform="translate(272.378,256.7285)"
           id="g36"><path
             id="path38"
             style="fill:#d8353a;fill-opacity:1;fill-rule:nonzero;stroke:none"
             d="m 0,0 c 1.086,0.716 1.923,1.677 2.51,2.884 0.586,1.206 0.879,2.536 0.879,3.992 0,1.541 -0.472,2.775 -1.417,3.699 -0.946,0.923 -2.265,1.384 -3.96,1.384 -1.434,0 -2.694,-0.358 -3.78,-1.075 C -6.855,10.168 -7.69,9.206 -8.277,8 -8.864,6.794 -9.157,5.463 -9.157,4.007 c 0,-1.542 0.472,-2.774 1.417,-3.698 0.945,-0.923 2.265,-1.384 3.96,-1.384 1.434,0 2.694,0.358 3.78,1.075 m -10.347,-5.15 c -1.705,0.848 -3.019,2.032 -3.943,3.552 -0.923,1.522 -1.385,3.26 -1.385,5.215 0,2.607 0.603,4.953 1.809,7.039 1.206,2.086 2.889,3.715 5.051,4.888 2.162,1.174 4.622,1.759 7.381,1.759 2.303,0 4.307,-0.422 6.012,-1.27 1.706,-0.847 3.02,-2.032 3.944,-3.552 C 9.445,10.96 9.907,9.222 9.907,7.267 9.907,4.66 9.304,2.314 8.098,0.228 6.893,-1.858 5.209,-3.487 3.047,-4.66 0.885,-5.834 -1.575,-6.42 -4.334,-6.42 c -2.303,0 -4.307,0.423 -6.013,1.27" /></g><g
           transform="translate(314.3186,273.5763)"
           id="g40"><path
             id="path42"
             style="fill:#d8353a;fill-opacity:1;fill-rule:nonzero;stroke:none"
             d="m 0,0 -4.497,-22.812 h -5.964 l 2.346,12.025 -7.592,-9.776 h -2.836 l -4.138,9.776 -2.412,-12.025 h -5.931 L -26.461,0 h 5.246 L -15.871,-13.198 -5.508,0 Z" /></g><g
           transform="translate(331.0356,256.7285)"
           id="g44"><path
             id="path46"
             style="fill:#d8353a;fill-opacity:1;fill-rule:nonzero;stroke:none"
             d="m 0,0 c 1.086,0.716 1.923,1.677 2.51,2.884 0.586,1.206 0.879,2.536 0.879,3.992 0,1.541 -0.472,2.775 -1.417,3.699 -0.945,0.923 -2.265,1.384 -3.96,1.384 -1.434,0 -2.694,-0.358 -3.78,-1.075 C -6.855,10.168 -7.69,9.206 -8.277,8 -8.863,6.794 -9.157,5.463 -9.157,4.007 c 0,-1.542 0.472,-2.774 1.417,-3.698 0.945,-0.923 2.265,-1.384 3.96,-1.384 1.434,0 2.694,0.358 3.78,1.075 m -10.347,-5.15 c -1.705,0.848 -3.019,2.032 -3.942,3.552 -0.924,1.522 -1.386,3.26 -1.386,5.215 0,2.607 0.603,4.953 1.809,7.039 1.206,2.086 2.889,3.715 5.051,4.888 2.162,1.174 4.622,1.759 7.381,1.759 2.303,0 4.307,-0.422 6.012,-1.27 1.706,-0.847 3.02,-2.032 3.944,-3.552 C 9.445,10.96 9.907,9.222 9.907,7.267 9.907,4.66 9.304,2.314 8.098,0.228 6.893,-1.858 5.209,-3.487 3.047,-4.66 0.885,-5.834 -1.575,-6.42 -4.334,-6.42 c -2.303,0 -4.307,0.423 -6.013,1.27" /></g><g
           transform="translate(350.0016,268.4596)"
           id="g48"><path
             id="path50"
             style="fill:#d8353a;fill-opacity:1;fill-rule:nonzero;stroke:none"
             d="m 0,0 h -7.007 l 1.043,5.117 H 14.469 L 13.426,0 H 6.453 L 2.901,-17.695 h -6.453 z" /></g><g
           transform="translate(366.8823,273.5763)"
           id="g52"><path
             id="path54"
             style="fill:#d8353a;fill-opacity:1;fill-rule:nonzero;stroke:none"
             d="M 0,0 H 6.452 L 1.89,-22.812 h -6.453 z" /></g><g
           transform="translate(400.9683,273.5763)"
           id="g56"><path
             id="path58"
             style="fill:#d8353a;fill-opacity:1;fill-rule:nonzero;stroke:none"
             d="M 0,0 -14.305,-22.812 H -20.66 L -25.842,0 h 6.616 L -15.967,-14.828 -6.647,0 Z" /></g><g
           transform="translate(407.6814,268.5899)"
           id="g60"><path
             id="path62"
             style="fill:#d8353a;fill-opacity:1;fill-rule:nonzero;stroke:none"
             d="M 0,0 -0.75,-3.845 H 9.385 L 8.44,-8.669 H -1.728 l -0.815,-4.17 H 9.418 L 8.375,-17.826 H -9.907 L -5.344,4.986 H 12.514 L 11.503,0 Z" /></g><g
           transform="translate(432.2834,250.9932)"
           id="g64"><path
             id="path66"
             style="fill:#d8353a;fill-opacity:1;fill-rule:nonzero;stroke:none"
             d="m 0,0 c -1.694,0.455 -3.074,1.042 -4.138,1.76 l 2.542,4.823 c 1.151,-0.74 2.379,-1.3 3.682,-1.679 1.304,-0.38 2.607,-0.57 3.911,-0.57 1.238,0 2.2,0.179 2.884,0.537 0.684,0.358 1.026,0.853 1.026,1.483 0,0.543 -0.31,0.967 -0.928,1.271 C 8.359,7.929 7.397,8.255 6.094,8.603 4.617,8.994 3.39,9.389 2.412,9.792 c -0.978,0.401 -1.82,1.015 -2.526,1.842 -0.705,0.825 -1.059,1.911 -1.059,3.258 0,1.63 0.445,3.058 1.336,4.286 0.891,1.227 2.162,2.177 3.813,2.851 1.651,0.673 3.585,1.01 5.801,1.01 1.629,0 3.149,-0.168 4.562,-0.505 1.412,-0.337 2.629,-0.821 3.65,-1.45 l -2.347,-4.79 c -0.891,0.564 -1.873,0.993 -2.948,1.286 -1.076,0.294 -2.179,0.44 -3.308,0.44 -1.282,0 -2.287,-0.206 -3.014,-0.618 C 5.644,16.989 5.28,16.456 5.28,15.804 c 0,-0.564 0.314,-0.999 0.945,-1.303 0.63,-0.305 1.607,-0.63 2.933,-0.977 1.477,-0.37 2.699,-0.751 3.666,-1.141 0.966,-0.391 1.797,-0.989 2.493,-1.793 C 16.012,9.786 16.36,8.733 16.36,7.429 16.36,5.821 15.909,4.404 15.007,3.176 14.106,1.95 12.824,0.999 11.162,0.325 9.5,-0.347 7.571,-0.684 5.377,-0.684 3.487,-0.684 1.695,-0.457 0,0" /></g><g
           transform="translate(460.1464,268.5899)"
           id="g68"><path
             id="path70"
             style="fill:#d8353a;fill-opacity:1;fill-rule:nonzero;stroke:none"
             d="M 0,0 -0.75,-3.845 H 9.385 L 8.44,-8.669 H -1.728 l -0.814,-4.17 H 9.418 L 8.375,-17.826 H -9.907 L -5.344,4.986 H 12.514 L 11.503,0 Z" /></g><g
           transform="translate(488.1714,267.7917)"
           id="g72"><path
             id="path74"
             style="fill:#d8353a;fill-opacity:1;fill-rule:nonzero;stroke:none"
             d="m 0,0 c -0.63,0.467 -1.51,0.701 -2.64,0.701 h -3.389 l -1.368,-6.68 h 3.845 c 1.434,0 2.543,0.335 3.324,1.009 0.782,0.674 1.173,1.629 1.173,2.868 C 0.945,-1.168 0.63,-0.467 0,0 m 5.801,-6.876 c -1.108,-1.51 -2.662,-2.613 -4.66,-3.308 l 3.878,-6.843 h -6.746 l -3.389,6.061 h -3.259 l -1.206,-6.061 h -6.452 l 4.562,22.812 h 9.744 c 2.911,0 5.17,-0.641 6.778,-1.923 1.608,-1.282 2.412,-3.064 2.412,-5.345 0,-2.085 -0.554,-3.884 -1.662,-5.393" /></g><g
           transform="translate(523.9201,273.5763)"
           id="g76"><path
             id="path78"
             style="fill:#d8353a;fill-opacity:1;fill-rule:nonzero;stroke:none"
             d="M 0,0 -14.305,-22.812 H -20.66 L -25.842,0 h 6.616 L -15.967,-14.828 -6.647,0 Z" /></g><g
           transform="translate(525.2888,273.5763)"
           id="g80"><path
             id="path82"
             style="fill:#d8353a;fill-opacity:1;fill-rule:nonzero;stroke:none"
             d="M 0,0 H 6.453 L 1.89,-22.812 h -6.453 z" /></g><g
           transform="translate(538.1609,251.5625)"
           id="g84"><path
             id="path86"
             style="fill:#d8353a;fill-opacity:1;fill-rule:nonzero;stroke:none"
             d="m 0,0 c -1.738,0.837 -3.075,2.015 -4.009,3.537 -0.934,1.52 -1.401,3.269 -1.401,5.246 0,2.607 0.603,4.953 1.809,7.039 1.205,2.086 2.894,3.715 5.067,4.888 2.172,1.174 4.648,1.759 7.43,1.759 2.107,0 3.976,-0.374 5.605,-1.123 1.63,-0.75 2.846,-1.809 3.65,-3.178 l -4.66,-3.715 c -1.108,1.781 -2.781,2.672 -5.018,2.672 -1.456,0 -2.738,-0.342 -3.846,-1.026 -1.108,-0.684 -1.972,-1.629 -2.59,-2.835 -0.62,-1.207 -0.93,-2.559 -0.93,-4.058 0,-1.542 0.5,-2.781 1.5,-3.715 0.999,-0.934 2.357,-1.4 4.073,-1.4 2.172,0 4.03,0.879 5.572,2.638 L 16.065,2.983 C 14.827,1.484 13.382,0.403 11.731,-0.261 10.08,-0.923 8.19,-1.254 6.06,-1.254 3.757,-1.254 1.737,-0.836 0,0" /></g><g
           transform="translate(565.7304,268.5899)"
           id="g88"><path
             id="path90"
             style="fill:#d8353a;fill-opacity:1;fill-rule:nonzero;stroke:none"
             d="M 0,0 -0.75,-3.845 H 9.385 L 8.44,-8.669 H -1.728 l -0.814,-4.17 H 9.418 L 8.375,-17.826 H -9.907 L -5.344,4.986 H 12.514 L 11.503,0 Z" /></g><g
           transform="translate(580.8504,250.9932)"
           id="g92"><path
             id="path94"
             style="fill:#d8353a;fill-opacity:1;fill-rule:nonzero;stroke:none"
             d="m 0,0 c -1.694,0.455 -3.074,1.042 -4.138,1.76 l 2.542,4.823 c 1.151,-0.74 2.379,-1.3 3.682,-1.679 1.304,-0.38 2.607,-0.57 3.911,-0.57 1.238,0 2.2,0.179 2.884,0.537 0.684,0.358 1.026,0.853 1.026,1.483 0,0.543 -0.31,0.967 -0.928,1.271 C 8.359,7.929 7.397,8.255 6.094,8.603 4.617,8.994 3.39,9.389 2.412,9.792 c -0.978,0.401 -1.82,1.015 -2.526,1.842 -0.705,0.825 -1.059,1.911 -1.059,3.258 0,1.63 0.445,3.058 1.336,4.286 0.891,1.227 2.162,2.177 3.813,2.851 1.651,0.673 3.585,1.01 5.801,1.01 1.629,0 3.149,-0.168 4.562,-0.505 1.413,-0.337 2.629,-0.821 3.65,-1.45 l -2.347,-4.79 c -0.891,0.564 -1.873,0.993 -2.948,1.286 -1.076,0.294 -2.179,0.44 -3.308,0.44 -1.282,0 -2.287,-0.206 -3.014,-0.618 C 5.644,16.989 5.28,16.456 5.28,15.804 c 0,-0.564 0.314,-0.999 0.945,-1.303 0.63,-0.305 1.607,-0.63 2.933,-0.977 1.477,-0.37 2.699,-0.751 3.666,-1.141 0.966,-0.391 1.797,-0.989 2.493,-1.793 C 16.012,9.786 16.36,8.733 16.36,7.429 16.36,5.821 15.909,4.404 15.007,3.176 14.106,1.95 12.824,0.999 11.162,0.325 9.5,-0.347 7.571,-0.684 5.377,-0.684 3.487,-0.684 1.695,-0.457 0,0" /></g><g
           transform="translate(192.1724,525.1627)"
           id="g96"><path
             id="path98"
             style="fill:#b6b6b7;fill-opacity:1;fill-rule:nonzero;stroke:none"
             d="m 0,0 c -0.357,0.666 -0.714,1.332 -1.07,1.998 -14.203,-7.667 -28.464,-15.229 -42.523,-23.152 -1.518,-0.856 -2.577,-3.847 -2.458,-5.762 0.064,-1.037 3.043,-2.651 4.748,-2.703 8.854,-0.273 17.721,-0.127 26.584,-0.127 0.006,0.683 0.012,1.367 0.018,2.05 -7.294,0.359 -14.587,0.718 -21.88,1.077 -0.304,1.148 -0.608,2.296 -0.912,3.445 C -24.995,-15.45 -12.498,-7.725 0,0 m 25.515,-26.867 h 149.656 c -15.003,19.35 -29.517,36.703 -49.599,48.037 -5.884,3.321 -13.433,6.018 -19.935,5.492 C 83.797,24.895 62.02,21.948 40.385,18.433 36.452,17.794 31.054,12.855 30.207,9.04 27.644,-2.502 26.986,-14.468 25.515,-26.867 m 270.649,-10.43 c 24.854,-7.64 49.709,-15.28 74.368,-22.86 -5.577,-10.864 -11.105,-21.632 -17.435,-33.961 0.569,5.578 0.365,9.86 1.526,13.732 2.976,9.918 -0.963,14.806 -10.491,16.921 -7.416,1.646 -14.685,3.954 -23.694,6.428 2.611,-6.011 4.595,-10.578 7.056,-16.244 -31.425,22.409 -46.185,23.456 -73.737,5.993 -0.723,0.672 -1.446,1.344 -2.168,2.016 6.497,6.99 12.995,13.981 20.122,21.649 -96.291,1.36 -193.047,2.726 -290.143,4.098 10.162,-11.182 18.831,-20.721 27.501,-30.26 -0.827,-0.903 -1.654,-1.806 -2.48,-2.71 -9.748,10.361 -20.923,17.996 -35.296,19.37 -14.452,1.383 -27.145,-2.173 -36.862,-13.841 -0.726,0.673 -1.452,1.346 -2.178,2.019 6.121,7.309 12.241,14.617 19.344,23.099 -20.31,-1.244 -40.824,-1.217 -60.878,-4.243 -10.816,-1.632 -14.351,-12.8 -16.255,-23.19 -0.641,-3.493 -2.475,-6.768 -5.387,-9.549 -3.892,14.907 0.26,27.998 7.883,39.847 1.903,2.959 7.43,4.499 11.5,5 24.996,3.081 47.284,12.346 68.957,25.242 36.371,21.644 75.065,39.857 117.514,43.855 39.462,3.716 79.448,3.215 119.158,2.384 20.538,-0.43 41.162,-4.716 61.388,-8.969 11.855,-2.493 23.003,-8.348 34.114,-13.911 -48.186,16.816 -97.83,16.251 -149.343,14.761 1.934,-2.458 2.718,-3.715 3.746,-4.723 15.027,-14.729 30.436,-29.093 44.932,-44.326 4.539,-4.77 8.37,-6.28 14.629,-5.311 93.802,14.531 187.309,12.474 280.306,-6.412 15.605,-3.169 30.536,-9.558 45.902,-14.034 9.862,-2.873 14.438,-8.642 13.218,-19.071 -0.419,-3.591 0.283,-7.314 0.559,-12.624 -1.444,2.19 -2.316,3.001 -2.571,3.975 -4.466,17.052 -4.4,17.995 -21.269,18.883 -22.695,1.196 -45.482,1.1 -68.216,0.706 -3.833,-0.066 -8.379,-3.741 -11.204,-6.968 -4.523,-5.165 -7.883,-11.351 -13.233,-16.511 1.912,6.567 3.823,13.134 5.806,19.946 -14.086,0 -28.047,-0.263 -41.989,0.125 -5.904,0.164 -11.896,1.208 -17.63,2.693 -25.454,6.589 -50.829,13.483 -76.232,20.267 -0.279,-1.097 -0.559,-2.194 -0.838,-3.291" /></g><g
           transform="translate(216.0428,408.5205)"
           id="g100"><path
             id="path102"
             style="fill:#d8353a;fill-opacity:1;fill-rule:nonzero;stroke:none"
             d="m 0,0 -21.68,-108.402 h -36.547 l 8.053,39.955 h -33.759 l -8.053,-39.955 h -36.547 L -106.853,0 h 36.547 l -7.743,-38.405 h 33.76 L -36.546,0 Z" /></g><g
           transform="translate(241.5153,302.5192)"
           id="g104"><path
             id="path106"
             style="fill:#d8353a;fill-opacity:1;fill-rule:nonzero;stroke:none"
             d="m 0,0 c -7.073,3.253 -12.493,7.872 -16.26,13.86 -3.77,5.986 -5.652,13.009 -5.652,21.061 0,3.303 0.411,7.123 1.238,11.46 l 11.924,59.62 H 27.797 L 16.028,47 c -0.619,-2.891 -0.929,-5.524 -0.929,-7.898 0,-4.853 1.239,-8.466 3.716,-10.84 2.478,-2.376 6.091,-3.561 10.84,-3.561 5.367,0 9.549,1.703 12.544,5.109 2.993,3.408 5.316,9.137 6.969,17.19 l 11.769,59.001 H 96.864 L 84.631,44.832 C 81.325,28.417 74.72,16.029 64.808,7.666 54.898,-0.697 41.681,-4.878 25.164,-4.878 15.459,-4.878 7.071,-3.251 0,0" /></g><g
           transform="translate(349.9933,300.6611)"
           id="g108"><path
             id="path110"
             style="fill:#d8353a;fill-opacity:1;fill-rule:nonzero;stroke:none"
             d="M 0,0 C -8.261,2.013 -15.074,4.669 -20.441,7.975 L -6.349,34.921 C 5.316,28.208 17.499,24.854 30.198,24.854 c 4.646,0 8.208,0.567 10.684,1.705 2.48,1.134 3.717,2.683 3.717,4.645 0,1.859 -1.266,3.353 -3.794,4.491 -2.531,1.135 -6.531,2.374 -12.001,3.717 -7.227,1.858 -13.216,3.741 -17.964,5.652 -4.75,1.909 -8.904,4.852 -12.466,8.827 -3.562,3.974 -5.342,9.214 -5.342,15.718 0,8.155 2.192,15.305 6.581,21.448 4.387,6.142 10.71,10.892 18.97,14.248 8.258,3.353 18.015,5.032 29.27,5.032 8.052,0 15.562,-0.801 22.53,-2.4 6.97,-1.602 12.982,-3.898 18.041,-6.891 L 75.261,74.41 c -4.235,2.684 -8.904,4.697 -14.015,6.04 -5.109,1.34 -10.351,2.013 -15.718,2.013 -5.059,0 -8.982,-0.723 -11.768,-2.168 -2.787,-1.447 -4.181,-3.151 -4.181,-5.111 0,-1.962 1.263,-3.511 3.793,-4.646 2.529,-1.136 6.684,-2.375 12.466,-3.716 7.02,-1.653 12.931,-3.407 17.732,-5.265 4.801,-1.858 8.954,-4.75 12.466,-8.672 3.507,-3.925 5.266,-9.086 5.266,-15.487 0,-8.053 -2.221,-15.125 -6.66,-21.216 C 70.202,10.09 63.852,5.367 55.595,2.013 47.334,-1.341 37.631,-3.02 26.482,-3.02 17.086,-3.02 8.258,-2.013 0,0" /></g><g
           transform="translate(473.1066,380.1815)"
           id="g112"><path
             id="path114"
             style="fill:#d8353a;fill-opacity:1;fill-rule:nonzero;stroke:none"
             d="m 0,0 h -31.746 l 5.731,28.339 H 74.023 L 68.293,0 H 36.547 L 20.597,-80.063 H -15.95 Z" /></g><g
           transform="translate(556.5746,408.5205)"
           id="g116"><path
             id="path118"
             style="fill:#d8353a;fill-opacity:1;fill-rule:nonzero;stroke:none"
             d="M 0,0 H 36.547 L 20.596,-80.062 h 48.935 l -5.729,-28.34 H -21.68 Z" /></g><g
           transform="translate(682.4728,380.9557)"
           id="g120"><path
             id="path122"
             style="fill:#d8353a;fill-opacity:1;fill-rule:nonzero;stroke:none"
             d="M 0,0 -2.477,-12.698 H 43.361 L 38.096,-39.024 H -7.897 l -2.788,-14.248 h 54.356 l -5.575,-27.565 h -90.128 l 21.68,108.402 H 57.763 L 52.188,0 Z" /></g><g
           transform="translate(152.0154,613.5918)"
           id="g124"><path
             id="path126"
             style="fill:#b6b6b7;fill-opacity:1;fill-rule:nonzero;stroke:none"
             d="m 0,0 c 4.854,2.28 9.814,4.335 14.793,6.338 l 7.524,2.863 7.576,2.727 c 10.13,3.563 20.393,6.739 30.709,9.741 20.683,5.819 41.667,10.61 62.845,14.325 21.17,3.778 42.54,6.399 63.971,8.203 10.714,0.977 21.464,1.416 32.207,1.927 l 16.129,0.396 c 2.688,0.097 5.377,0.069 8.066,0.06 l 8.067,-0.023 8.067,-0.051 8.063,-0.278 8.062,-0.281 c 2.686,-0.113 5.377,-0.138 8.058,-0.346 l 16.1,-1.027 4.025,-0.257 4.016,-0.372 8.029,-0.768 c 10.719,-0.902 21.369,-2.413 32.036,-3.757 2.67,-0.307 5.321,-0.758 7.975,-1.18 l 7.962,-1.277 7.956,-1.3 c 1.324,-0.225 2.655,-0.413 3.974,-0.67 l 3.956,-0.775 15.82,-3.101 3.954,-0.775 c 1.315,-0.27 2.62,-0.593 3.93,-0.887 l 7.851,-1.823 c 5.225,-1.245 10.475,-2.386 15.677,-3.717 l 15.559,-4.178 7.768,-2.124 c 2.578,-0.742 5.133,-1.572 7.701,-2.354 l 15.38,-4.758 C 484.037,7.267 494.105,3.53 504.225,0 L 488.823,4.639 481.14,7 l -3.839,1.181 -3.879,1.052 -15.508,4.209 c -2.587,0.689 -5.161,1.427 -7.757,2.077 l -7.818,1.846 -15.609,3.758 c -5.216,1.195 -10.475,2.199 -15.708,3.308 l -7.856,1.634 c -1.31,0.269 -2.614,0.566 -3.928,0.812 l -3.951,0.699 -15.798,2.8 -3.949,0.699 c -1.316,0.232 -2.644,0.394 -3.966,0.595 l -7.937,1.149 -7.933,1.172 c -2.644,0.391 -5.284,0.812 -7.944,1.087 -10.622,1.22 -21.224,2.606 -31.888,3.384 l -7.985,0.702 -3.992,0.355 -4.001,0.24 -16.002,0.962 c -2.665,0.198 -5.339,0.213 -8.008,0.315 l -8.011,0.249 -8.011,0.249 -8.014,0.026 -8.015,0.052 c -2.671,0.018 -5.343,0.056 -8.014,-0.03 L 219.793,41.247 C 209.117,40.796 198.439,40.337 187.784,39.49 166.464,37.967 145.216,35.465 124.09,32.16 102.973,28.796 81.988,24.548 61.235,19.316 40.486,14.087 19.921,7.946 0,0" /></g><g
           transform="translate(319.2914,191.4052)"
           id="g128"><path
             id="path130"
             style="fill:#b6b6b7;fill-opacity:1;fill-rule:nonzero;stroke:none"
             d="m 0,0 c 7,-4.588 13.943,-9.249 20.975,-13.776 6.997,-4.577 14.027,-9.098 21.069,-13.592 7.068,-4.453 14.148,-8.879 21.333,-13.108 l 5.406,-3.132 5.458,-3.014 c 1.818,-1.006 3.687,-1.885 5.527,-2.834 1.847,-0.932 3.747,-1.671 5.616,-2.518 l -1.317,-0.109 22.132,13.284 c 7.411,4.372 14.789,8.8 22.226,13.127 7.419,4.36 14.867,8.671 22.324,12.968 7.497,4.23 14.939,8.552 22.484,12.704 -7.188,-4.742 -14.479,-9.315 -21.715,-13.979 -7.276,-4.597 -14.56,-9.18 -21.874,-13.715 -7.295,-4.566 -14.65,-9.033 -21.972,-13.555 l -22.066,-13.399 -0.669,-0.405 -0.649,0.296 c -1.935,0.885 -3.934,1.682 -5.815,2.644 -1.871,0.977 -3.784,1.892 -5.619,2.92 l -5.507,3.081 -5.413,3.22 c -7.153,4.386 -14.216,8.896 -21.154,13.588 -6.951,4.672 -13.815,9.466 -20.621,14.338 C 13.396,-10.034 6.614,-5.131 0,0" /></g><g
           transform="translate(404.9064,641.7083)"
           id="g132"><path
             id="path134"
             style="fill:#b6b6b7;fill-opacity:1;fill-rule:nonzero;stroke:none"
             d="M 0,0 4.739,-14.585 H 20.074 L 7.668,-23.598 12.406,-38.183 0,-29.169 l -12.406,-9.014 4.738,14.585 -12.406,9.013 h 15.335 z" /></g><g
           transform="translate(463.6493,632.0434)"
           id="g136"><path
             id="path138"
             style="fill:#b6b6b7;fill-opacity:1;fill-rule:nonzero;stroke:none"
             d="M 0,0 3.715,-11.435 H 15.739 L 6.012,-18.502 9.727,-29.937 0,-22.87 l -9.727,-7.067 3.715,11.435 -9.727,7.067 h 12.024 z" /></g><g
           transform="translate(512.9098,620.3497)"
           id="g140"><path
             id="path142"
             style="fill:#b6b6b7;fill-opacity:1;fill-rule:nonzero;stroke:none"
             d="m 0,0 2.698,-8.303 h 8.73 l -7.063,-5.132 2.698,-8.303 -7.063,5.132 -7.063,-5.132 2.698,8.303 -7.063,5.132 h 8.73 z" /></g><g
           transform="translate(351.6048,632.0434)"
           id="g144"><path
             id="path146"
             style="fill:#b6b6b7;fill-opacity:1;fill-rule:nonzero;stroke:none"
             d="m 0,0 -3.715,-11.435 h -12.024 l 9.727,-7.067 -3.715,-11.435 9.727,7.067 9.727,-7.067 -3.715,11.435 9.727,7.067 H 3.715 Z" /></g><g
           transform="translate(302.3443,620.3497)"
           id="g148"><path
             id="path150"
             style="fill:#b6b6b7;fill-opacity:1;fill-rule:nonzero;stroke:none"
             d="m 0,0 -2.698,-8.303 h -8.73 l 7.063,-5.132 -2.698,-8.303 7.063,5.132 7.063,-5.132 -2.698,8.303 7.063,5.132 h -8.73 z" /></g><g
           transform="translate(349.6735,203.2328)"
           id="g152"><path
             id="path154"
             style="fill:#d8353a;fill-opacity:1;fill-rule:nonzero;stroke:none"
             d="M 0,0 V -3.512 H -16.918 V 19.045 H -0.451 V 15.533 H -12.728 V 9.668 H -1.836 V 6.22 H -12.728 V 0 Z" /></g><g
           transform="translate(356.2962,200.1398)"
           id="g156"><path
             id="path158"
             style="fill:#d8353a;fill-opacity:1;fill-rule:nonzero;stroke:none"
             d="m 0,0 c -1.622,0.494 -2.906,1.149 -3.851,1.966 l 1.45,3.254 C -1.477,4.49 -0.344,3.894 0.999,3.432 2.341,2.97 3.69,2.739 5.043,2.739 c 1.676,0 2.927,0.268 3.754,0.806 0.827,0.536 1.241,1.245 1.241,2.127 0,0.644 -0.231,1.176 -0.693,1.594 C 8.883,7.685 8.298,8.012 7.589,8.25 6.88,8.486 5.913,8.754 4.689,9.055 2.97,9.463 1.579,9.871 0.515,10.279 c -1.063,0.409 -1.976,1.048 -2.739,1.918 -0.762,0.87 -1.144,2.046 -1.144,3.529 0,1.245 0.339,2.379 1.016,3.399 0.676,1.02 1.696,1.831 3.061,2.433 1.364,0.601 3.034,0.902 5.011,0.902 1.375,0 2.728,-0.171 4.06,-0.515 1.332,-0.344 2.481,-0.839 3.448,-1.483 l -1.321,-3.254 c -0.989,0.58 -2.02,1.02 -3.093,1.321 -1.075,0.3 -2.117,0.452 -3.126,0.452 -1.655,0 -2.884,-0.281 -3.69,-0.838 -0.806,-0.559 -1.209,-1.301 -1.209,-2.224 0,-0.645 0.231,-1.171 0.694,-1.58 0.461,-0.408 1.047,-0.73 1.756,-0.966 0.709,-0.237 1.675,-0.504 2.899,-0.806 1.676,-0.386 3.051,-0.789 4.125,-1.208 1.074,-0.419 1.993,-1.059 2.756,-1.917 0.762,-0.86 1.144,-2.02 1.144,-3.48 0,-1.247 -0.339,-2.375 -1.016,-3.384 C 12.471,1.568 11.445,0.762 10.07,0.161 8.695,-0.44 7.019,-0.742 5.043,-0.742 3.303,-0.742 1.622,-0.494 0,0" /></g><g
           transform="translate(378.8699,218.7331)"
           id="g160"><path
             id="path162"
             style="fill:#d8353a;fill-opacity:1;fill-rule:nonzero;stroke:none"
             d="M 0,0 H -7.477 V 3.545 H 11.665 V 0 H 4.188 V -19.012 H 0 Z" /></g><g
           transform="translate(417.3114,203.2656)"
           id="g164"><path
             id="path166"
             style="fill:#d8353a;fill-opacity:1;fill-rule:nonzero;stroke:none"
             d="m 0,0 v -3.545 h -16.627 v 2.803 l 8.958,8.508 c 1.01,0.966 1.692,1.81 2.046,2.53 0.355,0.719 0.532,1.434 0.532,2.143 0,1.052 -0.354,1.857 -1.063,2.416 -0.709,0.558 -1.752,0.838 -3.126,0.838 -2.3,0 -4.06,-0.784 -5.285,-2.353 l -2.932,2.257 c 0.88,1.18 2.067,2.1 3.56,2.755 1.493,0.655 3.164,0.982 5.011,0.982 2.449,0 4.404,-0.58 5.865,-1.74 1.461,-1.159 2.191,-2.739 2.191,-4.737 0,-1.224 -0.257,-2.374 -0.773,-3.448 C -2.159,8.335 -3.147,7.11 -4.607,5.735 L -10.634,0 Z" /></g><g
           transform="translate(432.8598,205.0381)"
           id="g168"><path
             id="path170"
             style="fill:#d8353a;fill-opacity:1;fill-rule:nonzero;stroke:none"
             d="m 0,0 c 0.934,1.331 1.402,3.318 1.402,5.961 0,2.643 -0.468,4.629 -1.402,5.961 -0.934,1.333 -2.207,1.998 -3.818,1.998 -1.591,0 -2.852,-0.665 -3.787,-1.998 -0.935,-1.332 -1.402,-3.318 -1.402,-5.961 0,-2.643 0.467,-4.63 1.402,-5.961 0.935,-1.332 2.196,-1.998 3.787,-1.998 1.611,0 2.884,0.666 3.818,1.998 m -8.652,-4.27 c -1.418,0.913 -2.536,2.244 -3.351,3.995 -0.817,1.752 -1.225,3.83 -1.225,6.236 0,2.406 0.408,4.485 1.225,6.236 0.815,1.75 1.933,3.083 3.351,3.996 1.418,0.912 3.029,1.369 4.834,1.369 1.804,0 3.42,-0.457 4.85,-1.369 C 2.46,15.28 3.582,13.947 4.399,12.197 5.215,10.446 5.624,8.367 5.624,5.961 5.624,3.555 5.215,1.477 4.399,-0.275 3.582,-2.026 2.46,-3.357 1.032,-4.27 c -1.43,-0.914 -3.046,-1.37 -4.85,-1.37 -1.805,0 -3.416,0.456 -4.834,1.37" /></g><g
           transform="translate(457.4959,203.2656)"
           id="g172"><path
             id="path174"
             style="fill:#d8353a;fill-opacity:1;fill-rule:nonzero;stroke:none"
             d="m 0,0 v -3.545 h -16.627 v 2.803 l 8.958,8.508 c 1.01,0.966 1.692,1.81 2.046,2.53 0.355,0.719 0.532,1.434 0.532,2.143 0,1.052 -0.354,1.857 -1.063,2.416 -0.709,0.558 -1.752,0.838 -3.126,0.838 -2.3,0 -4.06,-0.784 -5.285,-2.353 l -2.932,2.257 c 0.88,1.18 2.067,2.1 3.56,2.755 1.493,0.655 3.164,0.982 5.011,0.982 2.449,0 4.404,-0.58 5.865,-1.74 1.461,-1.159 2.191,-2.739 2.191,-4.737 0,-1.224 -0.257,-2.374 -0.773,-3.448 C -2.159,8.335 -3.147,7.11 -4.607,5.735 L -10.634,0 Z" /></g><g
           transform="translate(473.0444,205.0381)"
           id="g176"><path
             id="path178"
             style="fill:#d8353a;fill-opacity:1;fill-rule:nonzero;stroke:none"
             d="m 0,0 c 0.934,1.331 1.402,3.318 1.402,5.961 0,2.643 -0.468,4.629 -1.402,5.961 -0.934,1.333 -2.207,1.998 -3.818,1.998 -1.591,0 -2.852,-0.665 -3.787,-1.998 -0.935,-1.332 -1.402,-3.318 -1.402,-5.961 0,-2.643 0.467,-4.63 1.402,-5.961 0.935,-1.332 2.196,-1.998 3.787,-1.998 1.611,0 2.884,0.666 3.818,1.998 m -8.652,-4.27 c -1.418,0.913 -2.536,2.244 -3.351,3.995 -0.817,1.752 -1.225,3.83 -1.225,6.236 0,2.406 0.408,4.485 1.225,6.236 0.815,1.75 1.933,3.083 3.351,3.996 1.418,0.912 3.029,1.369 4.834,1.369 1.804,0 3.42,-0.457 4.85,-1.369 C 2.46,15.28 3.583,13.947 4.399,12.197 5.215,10.446 5.624,8.367 5.624,5.961 5.624,3.555 5.215,1.477 4.399,-0.275 3.583,-2.026 2.46,-3.357 1.032,-4.27 c -1.43,-0.914 -3.046,-1.37 -4.85,-1.37 -1.805,0 -3.416,0.456 -4.834,1.37" /></g></g></g></g></svg>